<svg width="78" height="78" viewBox="0 0 78 78" fill="none" xmlns="http://www.w3.org/2000/svg">
<path d="M78 0H0V78H78V0Z" fill="#CACCDB"/>
<path d="M18.0904 19.0993C22.8073 18.9669 27.5441 18.9669 32.2609 19.0993C32.4798 21.559 32.2013 24.0375 32.3804 26.5161C35.0273 26.6674 37.6942 26.6863 40.3413 26.4972C40.5205 24.0375 40.2219 21.559 40.4608 19.0993C45.6951 18.9669 50.9294 18.9858 56.1637 19.0804C56.3827 22.2212 56.1837 25.3809 56.2433 28.5405C56.2234 30.3758 56.323 32.211 56.1637 34.0463C53.5764 34.2733 50.9891 34.0085 48.4018 34.1409C48.2227 35.9573 48.2625 37.7924 48.362 39.6278C52.2231 39.836 56.0643 39.5899 59.9253 39.7601C60.0249 46.1364 60.0249 52.5124 59.9253 58.9076C54.9697 59.0778 50.014 58.9265 45.0781 58.9832C43.3466 58.9832 41.6151 59.0589 39.8836 58.8885C39.7243 53.1936 40.003 47.4796 39.7642 41.7847C37.2963 41.6711 34.8284 41.6711 32.3804 41.7847C32.2013 47.4796 32.4998 53.1936 32.2609 58.9076C27.5441 59.0211 22.8272 59.04 18.1103 58.9076C18.0705 58.3588 18.0307 57.8102 18.0108 57.2425C18.0307 46.3255 18.0108 35.4274 18.0307 24.5105C18.0307 22.6942 17.9312 20.8968 18.0904 19.0993Z" fill="white"/>
</svg>
