<svg width="227" height="236" viewBox="0 0 227 236" fill="none" xmlns="http://www.w3.org/2000/svg">
<path d="M156.341 86.3925L170.345 117.907C179.429 138.347 170.222 162.281 149.782 171.364L118.267 185.369C97.827 194.452 73.8935 185.246 64.8103 164.805L50.8057 133.291C41.7224 112.85 50.929 88.9169 71.3692 79.8336L102.884 65.829C123.324 56.7457 147.258 65.9523 156.341 86.3925Z" stroke="#F3F3F3" stroke-width="5"/>
<path d="M125.93 40.386C137.538 35.2276 151.129 40.456 156.288 52.064L184.327 115.16C189.485 126.768 184.257 140.36 172.649 145.519L109.552 173.558C97.9444 178.716 84.3525 173.487 79.1941 161.879L51.1552 98.7831C45.9968 87.1751 51.2252 73.5833 62.8332 68.4249L125.93 40.386Z" fill="#18E884"/>
<mask id="mask0" mask-type="alpha" maskUnits="userSpaceOnUse" x="44" y="59" width="133" height="133">
<path d="M156.341 86.3925L170.345 117.907C179.429 138.347 170.222 162.281 149.782 171.364L118.267 185.369C97.827 194.452 73.8935 185.246 64.8103 164.805L50.8057 133.291C41.7224 112.85 50.929 88.9169 71.3692 79.8336L102.884 65.829C123.324 56.7457 147.258 65.9523 156.341 86.3925Z" stroke="#18E884" stroke-width="5"/>
</mask>
<g mask="url(#mask0)">
<path d="M95.4093 109.011C107.017 103.853 120.609 109.081 125.768 120.689L153.806 183.786C158.965 195.394 153.736 208.986 142.128 214.144L79.0321 242.183C67.4241 247.341 53.8322 242.113 48.6738 230.505L20.6349 167.408C15.4765 155.8 20.705 142.209 32.313 137.05L95.4093 109.011Z" fill="#8247F5"/>
</g>
<mask id="mask1" mask-type="alpha" maskUnits="userSpaceOnUse" x="49" y="38" width="138" height="138">
<path d="M125.93 40.3851C137.538 35.2267 151.13 40.4551 156.288 52.0631L184.327 115.159C189.485 126.767 184.257 140.359 172.649 145.518L109.553 173.557C97.9447 178.715 84.3528 173.487 79.1945 161.879L51.1555 98.7822C45.9971 87.1742 51.2256 73.5824 62.8336 68.424L125.93 40.3851Z" fill="#18E884"/>
</mask>
<g mask="url(#mask1)">
<path d="M183.414 16.0135L197.419 47.5282C206.502 67.9684 197.295 91.9019 176.855 100.985L145.34 114.99C124.9 124.073 100.967 114.866 91.8833 94.4263L77.8787 62.9115C68.7954 42.4713 78.002 18.5378 98.4422 9.45457L129.957 -4.55005C150.397 -13.6333 174.331 -4.42672 183.414 16.0135Z" stroke="#F3F3F3" stroke-width="5"/>
</g>
</svg>
