<svg width="163" height="139" viewBox="0 0 163 139" fill="none" xmlns="http://www.w3.org/2000/svg">
<path d="M121.459 78.0166C121.459 111.198 94.56 138.097 61.3784 138.097C28.1968 138.097 -7.27496 97.3088 1.29783 78.0166C22.7975 52.7279 44.8241 87.1528 61.3784 17.936C94.56 17.936 121.459 44.835 121.459 78.0166Z" fill="#FFD35E"/>
<path d="M65.6398 51.7597L65.8749 51.5879L66.0641 51.3667C69.7698 47.0366 73.651 44.8352 77.7075 43.2316C79.489 42.5274 81.279 41.9473 83.1553 41.3393C83.4612 41.2401 83.7694 41.1403 84.0802 41.039C86.2642 40.3274 88.5469 39.5556 90.8284 38.5292C95.4664 36.4426 100.035 33.3333 104.28 27.5506C108.264 22.124 111.897 14.433 115.117 3.21204C139.961 4.20142 159.798 24.6547 159.798 49.7412C159.798 75.4593 138.949 96.3079 113.231 96.3079C107.007 96.3079 100.032 94.1025 93.2097 90.4681C86.4107 86.8461 79.9271 81.8913 74.7217 76.6087C69.4853 71.2946 65.701 65.8105 64.0866 61.1841C63.2829 58.8811 63.0711 56.9456 63.3402 55.4122C63.5969 53.9501 64.3059 52.7345 65.6398 51.7597Z" stroke="#F3F3F3" stroke-width="5"/>
<mask id="mask0" mask-type="alpha" maskUnits="userSpaceOnUse" x="0" y="17" width="122" height="122">
<path d="M121.459 78.0166C121.459 111.198 94.56 138.097 61.3784 138.097C28.1968 138.097 -7.27496 97.3088 1.29783 78.0166C22.7975 52.7279 44.8241 87.1528 61.3784 17.936C94.56 17.936 121.459 44.835 121.459 78.0166Z" fill="#FFD35E"/>
</mask>
<g mask="url(#mask0)">
<path d="M65.6398 51.7597L65.8749 51.5879L66.0642 51.3667C69.7698 47.0366 73.6511 44.8352 77.7075 43.2316C79.4891 42.5274 81.2791 41.9473 83.1553 41.3393C83.4612 41.2401 83.7694 41.1403 84.0802 41.039C86.2642 40.3274 88.5469 39.5556 90.8284 38.5292C95.4664 36.4426 100.035 33.3333 104.28 27.5506C108.264 22.124 111.897 14.433 115.117 3.21204C139.961 4.20142 159.798 24.6547 159.798 49.7412C159.798 75.4593 138.949 96.3079 113.231 96.3079C107.007 96.3079 100.032 94.1025 93.2097 90.4681C86.4107 86.8461 79.9271 81.8913 74.7217 76.6087C69.4853 71.2946 65.701 65.8105 64.0866 61.1841C63.283 58.8811 63.0711 56.9456 63.3403 55.4122C63.5969 53.9501 64.306 52.7345 65.6398 51.7597Z" stroke="#241953" stroke-width="5"/>
</g>
</svg>
