<svg width="208" height="106" viewBox="0 0 208 106" fill="none" xmlns="http://www.w3.org/2000/svg">
<path d="M6.87787 23.136L102.226 0.397461V2.39201L110.205 5.98376L106.216 7.9783L114.595 8.37563L109.807 11.7667H116.192L108.56 23.136C108.56 23.136 112.498 23.5334 108.56 26.3265C104.622 29.1196 104.622 29.1197 104.622 29.1197L116.192 33.5061L113.002 37.8925L116.192 40.6856L112.203 49.0651L108.56 51.4569L111.404 58.2392C111.404 58.2392 107.018 78.1846 105.818 77.5866C104.622 76.9886 59.1412 86.564 59.1412 86.564L56.348 80.1791L16.0559 89.4555L12.8654 79.7857V73.4048L16.8545 71.0129L12.8654 63.0347L13.2628 44.9304H2.49145L5.28461 33.5139L2.49145 23.14H6.87787V23.136Z" fill="#FFD745"/>
<path d="M56.1239 49.2772L56.5488 48.7815C56.6472 48.6674 66.3484 37.3257 76.4785 26.0626C93.0013 7.69472 97.671 3.99283 98.9771 3.31224C99.1895 3.2611 99.4059 3.20996 99.6183 3.15882L102.954 2.36808L99.6104 1.62455C99.3705 1.57341 99.0794 1.50653 98.4381 1.82125C85.7509 4.83863 6.20136 23.9264 1.50023 29.4065L0.524597 30.5434L2.0156 30.7008C28.2672 33.4428 55.2939 48.7972 55.5614 48.9507L56.1239 49.2772ZM95.2398 4.20133C92.0375 7.01808 86.3135 12.7932 75.7586 24.5087C66.6435 34.6269 57.7723 44.938 55.7699 47.2748C51.8201 45.0993 28.0587 32.4554 4.28944 29.3868C13.9238 24.5637 61.0926 12.3762 95.2398 4.20133Z" fill="#241953"/>
<path d="M21.7876 96.3165L116.876 68.7627L99.7478 2.1875L98.2253 2.57696L114.972 67.673L22.8222 94.377L2.37719 29.5367L0.874397 30.0088L21.7876 96.3165Z" fill="#241953"/>
<path d="M71.2194 30.739L116.437 67.6074L115.443 68.827L70.2251 31.9586L71.2194 30.739Z" fill="#241953"/>
<path d="M42.182 41.551L43.6609 42.0889L24.3316 95.2358L22.8528 94.698L42.182 41.551Z" fill="#241953"/>
<path d="M13.2628 96.9104C15.5445 97.4729 17.842 97.8781 20.1434 98.2322C22.4448 98.5941 24.754 98.8774 27.0672 99.1213C29.3804 99.3573 31.7015 99.5501 34.0265 99.6642C36.3515 99.7861 38.6844 99.853 41.033 99.7665C38.7512 99.2039 36.4577 98.7948 34.1524 98.4407C31.851 98.0788 29.5417 97.7955 27.2285 97.5555C24.9153 97.3195 22.5943 97.1307 20.2693 97.0166C17.9403 96.8946 15.6114 96.8238 13.2628 96.9104Z" fill="#CACCDB"/>
<path d="M44.9393 98.3385C46.4972 98.9011 48.0787 99.2984 49.6641 99.6604C51.2534 100.01 52.8506 100.302 54.4517 100.542C56.0568 100.782 57.6698 100.966 59.2906 101.088C60.9153 101.202 62.544 101.277 64.1963 101.191C62.6384 100.628 61.0609 100.227 59.4715 99.8649C57.8822 99.5148 56.285 99.2237 54.6838 98.9837C53.0788 98.7476 51.4658 98.5628 49.845 98.4369C48.2242 98.3267 46.5955 98.252 44.9393 98.3385Z" fill="#CACCDB"/>
<path d="M64.0312 104.841C64.9911 105.219 65.9549 105.439 66.9266 105.612C67.8944 105.778 68.87 105.884 69.8456 105.935C70.8213 105.986 71.8008 105.986 72.7804 105.919C73.7639 105.848 74.7474 105.73 75.7388 105.455C74.7789 105.077 73.815 104.857 72.8433 104.684C71.8756 104.519 70.9 104.413 69.9243 104.361C68.9487 104.31 67.9691 104.314 66.9895 104.377C66.006 104.452 65.0225 104.57 64.0312 104.841Z" fill="#CACCDB"/>
<path d="M141.987 33.1051C143.502 33.6677 145.04 34.065 146.582 34.427C148.128 34.7771 149.682 35.0682 151.244 35.3082C152.806 35.5481 154.376 35.733 155.957 35.855C157.538 35.9691 159.124 36.0438 160.737 35.9573C159.222 35.3947 157.688 34.9935 156.142 34.6315C154.596 34.2814 153.042 33.9903 151.48 33.7503C149.918 33.5143 148.349 33.3294 146.767 33.2035C145.186 33.0933 143.6 33.0186 141.987 33.1051Z" fill="#CACCDB"/>
<path d="M207.414 101.994C206.91 97.6112 206.21 93.2484 205.368 88.9171C204.53 84.5818 203.551 80.2741 202.374 76.0096C201.182 71.753 199.802 67.5436 198.074 63.4601C197.213 61.4184 196.261 59.412 195.179 57.4686C194.093 55.5292 192.886 53.6448 191.454 51.9177C190.033 50.1907 188.377 48.6053 186.414 47.4369C185.438 46.8507 184.364 46.3983 183.287 46.0679C182.205 45.7335 181.095 45.4935 179.982 45.3362C178.865 45.1788 177.751 45.0883 176.603 45.0962L174.903 45.2181L173.227 45.4817C171.009 45.9302 168.872 46.7485 166.901 47.8461C162.96 50.0452 159.639 53.3183 157.373 57.2208C156.807 58.1964 156.315 59.2193 155.886 60.2657C155.469 61.3122 155.119 62.3822 154.828 63.468C154.257 65.6396 153.86 67.8898 154.025 70.207C154.128 71.3596 154.383 72.5438 155.005 73.6099C155.316 74.141 155.725 74.6248 156.213 75.0182C156.701 75.4077 157.259 75.6988 157.83 75.8955C158.982 76.2968 160.194 76.3597 161.362 76.2024C162.531 76.045 163.672 75.6595 164.683 75.0104C165.69 74.3613 166.52 73.4564 167.114 72.4493C167.72 71.4462 168.113 70.3407 168.42 69.2667C169.065 67.0715 169.207 64.7466 168.896 62.4884C168.589 60.2303 167.72 58.0115 166.288 56.1901C165.556 55.2931 164.702 54.5024 163.75 53.8454C162.79 53.2002 161.72 52.7203 160.615 52.4016C158.392 51.7604 156.059 51.7958 153.844 52.1144C152.731 52.2757 151.649 52.4961 150.56 52.7282C149.466 52.9642 148.376 53.2789 147.322 53.6802C145.217 54.4867 143.219 55.7101 141.704 57.4411L141.161 58.1059L140.681 58.818C140.367 59.2979 140.111 59.7976 139.867 60.309C139.395 61.3358 138.982 62.4176 138.923 63.6136C138.899 64.2037 138.982 64.8488 139.312 65.4114C139.639 65.9858 140.205 66.3516 140.768 66.5641C141.917 66.9771 143.152 66.8906 144.253 66.4618C144.8 66.2415 145.323 65.911 145.729 65.4547C146.15 65.0062 146.405 64.4318 146.543 63.8575C146.681 63.2792 146.7 62.6851 146.641 62.1147C146.586 61.5403 146.472 60.9817 146.311 60.4388C146.15 59.8959 145.953 59.3648 145.717 58.8534C145.591 58.6016 145.449 58.3538 145.315 58.102C145.194 57.8463 145.024 57.6142 144.859 57.386C144.552 56.9061 144.159 56.5009 143.781 56.0799C143.368 55.6983 142.959 55.3089 142.503 54.9823C140.705 53.629 138.6 52.7793 136.468 52.1931C134.328 51.6266 132.121 51.2529 129.902 51.2726C127.687 51.2844 125.484 51.6345 123.368 52.26C125.5 51.6935 127.703 51.4024 129.902 51.4535C132.101 51.4811 134.277 51.8902 136.385 52.496C138.482 53.1137 140.528 53.9949 142.235 55.3364C142.672 55.659 143.053 56.0406 143.443 56.4143C143.793 56.8235 144.159 57.2169 144.442 57.6771C144.596 57.8974 144.749 58.1177 144.859 58.3617C144.981 58.6016 145.107 58.8337 145.221 59.0776C145.434 59.5733 145.614 60.0808 145.756 60.6001C146.024 61.6269 146.189 62.7205 145.937 63.7119C145.811 64.1997 145.599 64.6639 145.253 65.0219C144.922 65.3878 144.482 65.6592 144.005 65.8441C143.057 66.2061 141.944 66.2572 141.016 65.9071C140.559 65.7261 140.15 65.4468 139.934 65.0455C139.706 64.6482 139.635 64.1525 139.662 63.649C139.721 62.634 140.111 61.6111 140.571 60.6512C140.807 60.1713 141.063 59.6913 141.358 59.2507L141.81 58.5977L142.322 57.9879C143.742 56.4025 145.626 55.2735 147.637 54.5299C148.648 54.1562 149.686 53.869 150.748 53.6566C151.818 53.4441 152.904 53.2356 153.974 53.094C156.114 52.8029 158.298 52.7832 160.324 53.3812C161.335 53.6762 162.299 54.1129 163.168 54.703C164.03 55.301 164.805 56.0249 165.462 56.8392C166.752 58.4954 167.547 60.5293 167.826 62.6379C168.109 64.7426 167.968 66.9221 167.358 68.9559C167.055 69.9985 166.693 70.9898 166.154 71.875C165.627 72.7641 164.915 73.5154 164.065 74.0623C163.215 74.6052 162.22 74.9435 161.201 75.0733C160.186 75.211 159.136 75.1402 158.203 74.8097C157.263 74.4871 156.488 73.8734 156 73.0237C155.509 72.174 155.28 71.1511 155.19 70.1125C155.029 68.0196 155.387 65.8559 155.929 63.7709C156.209 62.7284 156.539 61.6938 156.937 60.6906C157.346 59.6953 157.806 58.7236 158.341 57.7912C160.485 54.0579 163.66 50.9028 167.417 48.7902C171.17 46.6855 175.56 45.6351 179.836 46.3511C181.969 46.6501 184.081 47.2245 185.914 48.2906C187.76 49.3567 189.365 50.8477 190.761 52.5039C192.166 54.1562 193.373 55.9855 194.463 57.8817C195.549 59.7779 196.517 61.7488 197.394 63.763C199.152 67.7875 200.573 71.9615 201.82 76.1788C204.318 84.6172 206.116 93.272 207.414 101.994Z" fill="#CACCDB"/>
</svg>
