<svg width="256" height="201" viewBox="0 0 256 201" fill="none" xmlns="http://www.w3.org/2000/svg">
<path d="M253.176 134.824C251.865 135.528 250.51 136.089 249.148 136.613C247.783 137.131 246.4 137.594 245.002 138.015C243.604 138.431 242.196 138.801 240.769 139.118C239.339 139.427 237.902 139.7 236.418 139.829C237.729 139.125 239.084 138.561 240.446 138.036C241.811 137.519 243.194 137.055 244.592 136.638C245.99 136.222 247.399 135.851 248.829 135.535C250.255 135.23 251.692 134.957 253.176 134.824Z" fill="#241953"/>
<path d="M119.447 152.585C109.613 154.752 99.7313 156.638 89.8356 158.424C79.9398 160.21 70.0261 161.899 60.098 163.476C50.17 165.054 40.2239 166.548 30.2599 167.903C20.2959 169.276 10.3175 170.544 0.296021 171.532C10.1307 169.362 20.012 167.475 29.9078 165.686C39.7999 163.882 49.7172 162.219 59.6453 160.637C69.5734 159.056 79.523 157.587 89.4834 156.218C99.4474 154.849 109.426 153.577 119.447 152.585Z" fill="#241953"/>
<path d="M187.64 186.839C216.796 186.839 240.431 166.543 240.431 141.507C240.431 116.471 216.796 96.175 187.64 96.175C158.484 96.175 134.848 116.471 134.848 141.507C134.848 166.543 158.484 186.839 187.64 186.839Z" fill="#BFB0FF"/>
<path fill-rule="evenodd" clip-rule="evenodd" d="M164.774 91.9594C135.3 100.958 117.85 128.479 125.41 153.242C132.971 178.005 162.817 191.085 192.291 182.087C221.765 173.088 239.215 145.567 231.655 120.804C224.094 96.0412 194.248 82.9606 164.774 91.9594ZM123.692 153.767C115.765 127.805 134.097 99.4469 164.25 90.2411C194.402 81.0353 225.447 94.3176 233.373 120.28C241.3 146.241 222.968 174.599 192.816 183.805C162.663 193.011 131.618 179.728 123.692 153.767Z" fill="#241953"/>
<path fill-rule="evenodd" clip-rule="evenodd" d="M121.518 111.696C121.518 111.695 121.518 111.695 122.056 111.726C122.591 111.758 122.594 111.758 122.594 111.758C122.594 111.758 122.594 111.758 122.594 111.758L122.594 111.76L122.594 111.767L122.592 111.799C122.59 111.827 122.588 111.871 122.586 111.929C122.581 112.044 122.575 112.217 122.569 112.444C122.557 112.898 122.547 113.569 122.556 114.429C122.574 116.15 122.665 118.629 122.963 121.654C123.557 127.707 124.973 135.937 128.254 144.65C134.811 162.06 148.815 181.402 178.67 189.181L178.398 190.224C148.132 182.338 133.897 162.691 127.245 145.03C123.922 136.207 122.491 127.88 121.89 121.76C121.589 118.699 121.496 116.188 121.478 114.44C121.469 113.566 121.479 112.882 121.491 112.416C121.497 112.183 121.504 112.004 121.509 111.883C121.512 111.822 121.514 111.776 121.515 111.744L121.517 111.708L121.518 111.699L121.518 111.696Z" fill="#241953"/>
<path fill-rule="evenodd" clip-rule="evenodd" d="M129.549 107.316C129.549 107.315 129.549 107.315 130.087 107.346C130.622 107.377 130.625 107.378 130.625 107.378C130.625 107.378 130.625 107.378 130.625 107.378L130.625 107.379L130.624 107.387L130.623 107.419C130.621 107.447 130.619 107.491 130.617 107.548C130.612 107.664 130.605 107.837 130.599 108.064C130.588 108.518 130.578 109.188 130.587 110.049C130.604 111.769 130.696 114.249 130.993 117.274C131.588 123.327 133.003 131.557 136.285 140.27C142.842 157.68 156.846 177.021 186.701 184.801L186.429 185.844C156.163 177.957 141.928 158.311 135.276 140.649C131.953 131.826 130.522 123.499 129.921 117.38C129.62 114.319 129.527 111.808 129.509 110.06C129.5 109.186 129.51 108.502 129.522 108.036C129.528 107.802 129.535 107.624 129.54 107.502C129.542 107.442 129.545 107.395 129.546 107.364L129.548 107.328L129.549 107.319L129.549 107.316Z" fill="#241953"/>
<path fill-rule="evenodd" clip-rule="evenodd" d="M134.292 105.488C134.292 105.488 134.292 105.487 134.83 105.525C135.365 105.562 135.368 105.562 135.368 105.562L135.368 105.562L135.367 105.564L135.367 105.571L135.365 105.604C135.363 105.633 135.361 105.677 135.358 105.736C135.352 105.853 135.344 106.03 135.337 106.262C135.322 106.725 135.31 107.41 135.321 108.289C135.342 110.048 135.455 112.582 135.818 115.676C136.545 121.864 138.277 130.279 142.292 139.19C150.311 156.988 167.464 176.818 204.096 184.796L203.867 185.85C166.884 177.795 149.461 157.726 141.309 139.633C137.238 130.598 135.484 122.07 134.748 115.801C134.379 112.666 134.265 110.094 134.243 108.302C134.232 107.407 134.244 106.706 134.259 106.228C134.267 105.989 134.275 105.805 134.281 105.681C134.284 105.618 134.287 105.571 134.289 105.538L134.291 105.501L134.292 105.491L134.292 105.488Z" fill="#241953"/>
<path fill-rule="evenodd" clip-rule="evenodd" d="M134.292 99.8935C134.292 99.8927 134.292 99.8922 134.83 99.9298C135.365 99.9672 135.368 99.9674 135.368 99.9676L135.368 99.9676L135.367 99.9691L135.367 99.9766L135.365 100.009C135.363 100.038 135.361 100.082 135.358 100.141C135.352 100.258 135.344 100.435 135.337 100.667C135.322 101.13 135.31 101.815 135.321 102.694C135.342 104.453 135.455 106.987 135.818 110.081C136.545 116.269 138.277 124.684 142.292 133.595C150.311 151.393 167.464 171.223 204.096 179.202L203.867 180.255C166.884 172.2 149.461 152.131 141.309 134.038C137.238 125.003 135.484 116.476 134.748 110.207C134.379 107.071 134.265 104.499 134.243 102.708C134.232 101.812 134.244 101.111 134.259 100.633C134.267 100.394 134.275 100.21 134.281 100.086C134.284 100.023 134.287 99.9758 134.289 99.9434L134.291 99.9063L134.292 99.8963L134.292 99.8935Z" fill="#241953"/>
<path fill-rule="evenodd" clip-rule="evenodd" d="M139.266 105.558C139.266 105.557 139.266 105.557 139.803 105.514C140.337 105.471 140.34 105.471 140.34 105.471L140.34 105.471L140.34 105.473L140.341 105.48L140.344 105.512C140.346 105.542 140.351 105.586 140.356 105.645C140.368 105.764 140.387 105.942 140.415 106.174C140.472 106.64 140.565 107.327 140.713 108.204C141.008 109.959 141.52 112.475 142.385 115.508C144.115 121.576 147.256 129.708 152.898 137.959C164.168 154.441 185.457 171.467 225.607 173.426L225.554 174.503C185.068 172.527 163.469 155.328 152.008 138.568C146.286 130.199 143.102 121.955 141.348 115.804C140.471 112.727 139.951 110.172 139.65 108.383C139.499 107.488 139.404 106.785 139.345 106.304C139.316 106.063 139.296 105.878 139.284 105.752C139.278 105.689 139.273 105.641 139.27 105.609C139.269 105.592 139.268 105.58 139.267 105.571L139.266 105.561L139.266 105.558Z" fill="#241953"/>
<path fill-rule="evenodd" clip-rule="evenodd" d="M139.346 98.2127C139.351 98.2098 139.395 98.1823 139.803 97.9284C140.261 97.6437 140.261 97.6438 140.261 97.6441L140.263 97.6474L140.269 97.6567L140.29 97.692C140.309 97.7229 140.337 97.7682 140.372 97.8273C140.443 97.9454 140.545 98.1187 140.674 98.3416C140.93 98.7874 141.288 99.4318 141.701 100.23C142.524 101.826 143.566 104.043 144.431 106.523C145.295 109.001 145.99 111.761 146.108 114.439C146.226 117.116 145.767 119.751 144.276 121.93L143.386 121.321C144.702 119.399 145.142 117.021 145.031 114.486C144.92 111.951 144.257 109.3 143.413 106.878C142.569 104.46 141.551 102.291 140.743 100.725C140.339 99.9425 139.988 99.3123 139.739 98.8787C139.614 98.6619 139.515 98.4944 139.448 98.3816C139.414 98.3252 139.388 98.2825 139.371 98.2542L139.351 98.2226L139.347 98.2151L139.345 98.2131C139.345 98.2131 139.345 98.2131 139.346 98.2127Z" fill="#241953"/>
<path fill-rule="evenodd" clip-rule="evenodd" d="M149.746 88.1985C149.746 88.1983 149.746 88.1983 150.274 88.0902C150.802 87.982 150.802 87.9822 150.802 87.9826L150.803 87.9885L150.807 88.0065C150.81 88.0222 150.814 88.0455 150.82 88.076C150.833 88.1372 150.85 88.2276 150.873 88.3455C150.919 88.5815 150.984 88.9277 151.063 89.371C151.221 90.2575 151.436 91.5323 151.662 93.0888C152.114 96.2005 152.613 100.443 152.796 104.962C152.98 109.476 152.851 114.287 152.037 118.528C151.226 122.753 149.719 126.5 147.076 128.785L146.371 127.97C148.74 125.922 150.184 122.466 150.978 118.325C151.77 114.199 151.901 109.479 151.719 105.006C151.538 100.536 151.044 96.3317 150.595 93.2438C150.371 91.7004 150.158 90.4371 150.002 89.5606C149.923 89.1223 149.859 88.7807 149.815 88.5492C149.792 88.4335 149.775 88.3453 149.763 88.2862C149.757 88.2567 149.753 88.2345 149.75 88.2197L149.747 88.2033L149.746 88.1985Z" fill="#241953"/>
<path fill-rule="evenodd" clip-rule="evenodd" d="M157.786 88.2387C157.786 88.2385 157.786 88.2385 158.304 88.0901C158.823 87.9418 158.823 87.942 158.823 87.9424L158.825 87.9494L158.831 87.9702C158.836 87.9885 158.843 88.0155 158.853 88.051C158.873 88.122 158.902 88.2269 158.939 88.3642C159.013 88.6387 159.119 89.0425 159.25 89.5618C159.51 90.6004 159.867 92.1015 160.252 93.956C161.021 97.664 161.903 102.79 162.355 108.459C163.254 119.755 162.46 133.377 155.46 142.156L154.617 141.484C161.339 133.054 162.178 119.812 161.28 108.545C160.833 102.932 159.959 97.8525 159.196 94.1749C158.815 92.3367 158.462 90.8502 158.204 89.8242C158.075 89.3113 157.971 88.9136 157.898 88.6447C157.862 88.5103 157.834 88.4081 157.815 88.3398C157.805 88.3057 157.798 88.28 157.793 88.2631L157.788 88.2442L157.786 88.2387Z" fill="#241953"/>
<path fill-rule="evenodd" clip-rule="evenodd" d="M169.901 143.379C169.901 143.379 169.901 143.379 169.382 143.231L169.005 143.124C168.864 143.084 168.864 143.084 168.864 143.084L168.864 143.083L168.865 143.08L168.869 143.065C168.873 143.052 168.879 143.032 168.886 143.005C168.901 142.951 168.923 142.869 168.951 142.762C169.009 142.546 169.091 142.224 169.193 141.803C169.398 140.961 169.679 139.721 169.986 138.138C170.6 134.97 171.317 130.429 171.723 124.942C172.536 113.965 172.108 99.2215 167.156 84.1256L168.181 83.7897C173.189 99.0602 173.618 113.954 172.798 125.022C172.388 130.557 171.665 135.141 171.044 138.343C170.734 139.944 170.449 141.2 170.241 142.057C170.137 142.486 170.052 142.815 169.994 143.037C169.964 143.149 169.941 143.233 169.925 143.291C169.917 143.319 169.911 143.341 169.907 143.356L169.902 143.373L169.901 143.379Z" fill="#241953"/>
<path fill-rule="evenodd" clip-rule="evenodd" d="M180.285 139.005C180.285 139.005 180.285 139.006 179.752 138.92C179.22 138.834 179.22 138.834 179.22 138.834L179.222 138.826L179.225 138.803C179.229 138.781 179.234 138.749 179.24 138.707C179.254 138.622 179.273 138.495 179.298 138.329C179.348 137.996 179.42 137.506 179.508 136.877C179.683 135.618 179.919 133.803 180.165 131.581C180.656 127.136 181.184 121.066 181.331 114.562C181.479 108.054 181.245 101.128 180.22 94.9656C179.191 88.787 177.379 83.4536 174.427 80.0609L175.24 79.3533C178.391 82.9745 180.245 88.5497 181.283 94.7886C182.324 101.044 182.557 108.044 182.409 114.586C182.261 121.131 181.73 127.234 181.236 131.7C180.989 133.933 180.752 135.758 180.576 137.025C180.488 137.659 180.415 138.153 180.364 138.489C180.339 138.657 180.319 138.786 180.305 138.873C180.299 138.916 180.294 138.949 180.29 138.972L180.285 139.005Z" fill="#241953"/>
<path fill-rule="evenodd" clip-rule="evenodd" d="M188.295 135.393C188.295 135.394 188.295 135.394 187.769 135.276C187.243 135.159 187.243 135.159 187.243 135.159L187.244 135.152L187.249 135.132C187.253 135.114 187.259 135.086 187.267 135.049C187.283 134.975 187.306 134.865 187.337 134.721C187.397 134.431 187.484 134.004 187.59 133.455C187.803 132.357 188.091 130.77 188.393 128.82C188.999 124.919 189.662 119.572 189.893 113.779C190.124 107.984 189.923 101.761 188.808 96.1038C187.691 90.44 185.67 85.3963 182.304 81.9029L183.08 81.1549C186.649 84.8587 188.729 90.1321 189.865 95.8954C191.002 101.665 191.203 107.98 190.97 113.822C190.737 119.667 190.068 125.057 189.459 128.985C189.154 130.95 188.863 132.55 188.649 133.66C188.542 134.214 188.453 134.647 188.392 134.941C188.361 135.088 188.337 135.201 188.321 135.277C188.312 135.315 188.306 135.344 188.302 135.364L188.297 135.386L188.295 135.393Z" fill="#241953"/>
<path fill-rule="evenodd" clip-rule="evenodd" d="M198.326 129.69C198.326 129.69 198.326 129.69 197.79 129.628C197.255 129.565 197.255 129.565 197.255 129.565L197.258 129.54C197.26 129.522 197.263 129.495 197.267 129.46C197.275 129.39 197.286 129.285 197.301 129.147C197.33 128.872 197.372 128.466 197.421 127.946C197.519 126.906 197.647 125.409 197.768 123.583C198.009 119.929 198.219 114.965 198.094 109.714C197.969 104.459 197.51 98.9364 196.419 94.1607C195.324 89.3644 193.613 85.4191 191.06 83.2123L191.765 82.3967C194.587 84.836 196.362 89.0666 197.47 93.9208C198.583 98.7956 199.046 104.398 199.172 109.688C199.298 114.981 199.086 119.98 198.844 123.654C198.722 125.491 198.593 126.999 198.494 128.048C198.444 128.572 198.402 128.982 198.373 129.261C198.358 129.4 198.346 129.507 198.338 129.58C198.334 129.616 198.331 129.643 198.329 129.662L198.327 129.683L198.326 129.69Z" fill="#241953"/>
<path fill-rule="evenodd" clip-rule="evenodd" d="M205.979 123.816C205.979 123.817 205.979 123.817 205.44 123.799C204.902 123.782 204.902 123.782 204.902 123.782L204.902 123.76L204.904 123.692C204.906 123.631 204.908 123.541 204.911 123.422C204.917 123.185 204.924 122.836 204.931 122.389C204.943 121.494 204.953 120.207 204.941 118.638C204.915 115.499 204.801 111.239 204.443 106.746C204.085 102.251 203.486 97.5381 202.494 93.4901C201.497 89.4158 200.126 86.1175 198.293 84.3494L199.041 83.5735C201.11 85.5692 202.537 89.1327 203.542 93.2337C204.552 97.3611 205.158 102.138 205.518 106.661C205.878 111.187 205.993 115.474 206.019 118.629C206.031 120.207 206.021 121.503 206.008 122.404C206.002 122.855 205.995 123.208 205.989 123.448C205.986 123.568 205.984 123.66 205.982 123.722L205.98 123.792L205.979 123.816Z" fill="#241953"/>
<path fill-rule="evenodd" clip-rule="evenodd" d="M212.898 118.23C212.898 118.23 212.898 118.231 212.365 118.151L212.062 118.106C211.831 118.071 211.831 118.071 211.831 118.071L211.832 118.071L211.832 118.068L211.834 118.054C211.836 118.042 211.838 118.024 211.842 118C211.849 117.951 211.859 117.878 211.872 117.782C211.897 117.59 211.934 117.304 211.976 116.936C212.062 116.2 212.172 115.131 212.27 113.807C212.468 111.158 212.619 107.491 212.435 103.418C212.066 95.2441 210.351 85.558 205.071 79.1405L205.903 78.4556C211.417 85.1569 213.141 95.1473 213.512 103.37C213.698 107.496 213.545 111.207 213.345 113.887C213.245 115.227 213.134 116.311 213.047 117.06C213.004 117.435 212.967 117.726 212.94 117.924C212.927 118.024 212.916 118.099 212.909 118.151C212.905 118.177 212.903 118.196 212.901 118.21L212.898 118.225L212.898 118.23Z" fill="#241953"/>
<path fill-rule="evenodd" clip-rule="evenodd" d="M170.995 141.677C164.52 143.714 158.978 144.734 155.875 144.485L156.077 141.978C158.659 142.185 163.801 141.303 170.24 139.277C176.621 137.27 184.113 134.192 191.334 130.146C205.879 121.996 218.885 110.176 220.192 95.6204L222.697 95.8453C221.27 111.738 207.226 124.125 192.563 132.34C185.18 136.477 177.527 139.621 170.995 141.677Z" fill="#241953"/>
<path fill-rule="evenodd" clip-rule="evenodd" d="M172.03 143.836C165.555 145.873 160.013 146.894 156.91 146.645L157.112 144.138C159.694 144.345 164.835 143.463 171.275 141.437C177.656 139.429 185.148 136.351 192.368 132.305C206.914 124.156 219.92 112.336 221.227 97.78L223.732 98.005C222.305 113.898 208.261 126.284 193.598 134.5C186.214 138.637 178.562 141.781 172.03 143.836Z" fill="#241953"/>
<path fill-rule="evenodd" clip-rule="evenodd" d="M176.749 148.898C170.143 150.433 164.597 151.013 161.596 150.54L161.876 148.765C164.509 149.18 169.762 148.677 176.342 147.148C182.88 145.628 190.608 143.124 198.141 139.63C213.283 132.608 227.307 121.748 229.754 107.147L231.526 107.444C228.92 122.991 214.126 134.197 198.897 141.26C191.244 144.81 183.397 147.353 176.749 148.898Z" fill="#241953"/>
<path fill-rule="evenodd" clip-rule="evenodd" d="M183.109 154.05C176.503 155.586 170.957 156.166 167.956 155.693L168.236 153.918C170.869 154.333 176.122 153.83 182.702 152.3C189.24 150.781 196.968 148.276 204.501 144.783C219.643 137.76 233.667 126.901 236.114 112.3L237.886 112.597C235.28 128.143 220.486 139.35 205.257 146.413C197.604 149.962 189.757 152.505 183.109 154.05Z" fill="#241953"/>
<path fill-rule="evenodd" clip-rule="evenodd" d="M189.113 158.463C182.507 159.999 176.962 160.578 173.96 160.105L174.24 158.331C176.873 158.745 182.126 158.243 188.706 156.713C195.244 155.193 202.973 152.689 210.505 149.195C225.648 142.173 239.671 131.313 242.118 116.713L243.89 117.01C241.285 132.556 226.49 143.762 211.261 150.825C203.608 154.375 195.762 156.918 189.113 158.463Z" fill="#241953"/>
<path fill-rule="evenodd" clip-rule="evenodd" d="M200.529 164.331C193.923 165.866 188.377 166.446 185.376 165.973L185.656 164.198C188.289 164.613 193.542 164.11 200.122 162.581C206.66 161.061 214.388 158.557 221.921 155.063C237.063 148.041 251.087 137.181 253.534 122.58L255.306 122.877C252.7 138.424 237.906 149.63 222.677 156.693C215.024 160.242 207.177 162.785 200.529 164.331Z" fill="#241953"/>
<path fill-rule="evenodd" clip-rule="evenodd" d="M194.159 165.02C194.159 165.02 194.159 165.02 195.056 164.974C195.953 164.929 195.953 164.929 195.953 164.929L195.953 164.928C195.953 164.928 195.953 164.928 195.953 164.929L195.953 164.933L195.955 164.957C195.956 164.979 195.958 165.012 195.962 165.056C195.969 165.144 195.98 165.273 195.998 165.431C196.034 165.75 196.095 166.178 196.195 166.625C196.297 167.077 196.432 167.52 196.604 167.88C196.784 168.254 196.96 168.447 197.091 168.526L196.168 170.068C195.601 169.728 195.231 169.171 194.984 168.657C194.731 168.128 194.56 167.542 194.442 167.018C194.324 166.489 194.253 165.994 194.213 165.633C194.192 165.451 194.179 165.301 194.171 165.195C194.167 165.142 194.164 165.1 194.162 165.07C194.161 165.056 194.16 165.044 194.16 165.035L194.159 165.025L194.159 165.022L194.159 165.02Z" fill="#241953"/>
<path fill-rule="evenodd" clip-rule="evenodd" d="M201.348 163.529C201.348 163.529 201.348 163.529 202.224 163.332C203.101 163.136 203.101 163.136 203.101 163.135L203.102 163.14L203.105 163.155C203.108 163.168 203.113 163.189 203.12 163.217C203.133 163.272 203.152 163.354 203.178 163.46C203.229 163.671 203.305 163.974 203.404 164.339C203.601 165.072 203.886 166.048 204.237 167.032C204.592 168.024 205 168.986 205.437 169.711C205.656 170.074 205.864 170.347 206.053 170.531C206.246 170.719 206.368 170.763 206.412 170.771L206.079 172.537C205.561 172.439 205.134 172.144 204.8 171.819C204.462 171.49 204.163 171.076 203.899 170.639C203.371 169.764 202.915 168.672 202.545 167.636C202.173 166.593 201.874 165.568 201.669 164.807C201.566 164.425 201.487 164.108 201.432 163.885C201.405 163.774 201.384 163.686 201.37 163.625C201.363 163.595 201.358 163.571 201.354 163.555L201.35 163.536L201.348 163.529Z" fill="#241953"/>
<path fill-rule="evenodd" clip-rule="evenodd" d="M206.102 162.503C206.102 162.503 206.102 162.503 206.96 162.24L207.819 161.977L207.827 162.002L207.851 162.08C207.872 162.149 207.904 162.25 207.944 162.379C208.026 162.637 208.143 163.006 208.287 163.451C208.576 164.342 208.973 165.533 209.404 166.736C209.838 167.944 210.3 169.146 210.72 170.068C210.931 170.532 211.121 170.901 211.282 171.158C211.362 171.287 211.423 171.368 211.463 171.413C211.472 171.423 211.478 171.43 211.482 171.434C211.469 171.423 211.432 171.396 211.372 171.371L210.684 173.03C210.425 172.923 210.237 172.738 210.119 172.605C209.988 172.458 209.868 172.286 209.758 172.11C209.537 171.756 209.31 171.306 209.085 170.813C208.634 169.823 208.152 168.565 207.713 167.343C207.273 166.116 206.871 164.907 206.578 164.006C206.432 163.555 206.313 163.18 206.231 162.917C206.189 162.786 206.157 162.683 206.135 162.613L206.11 162.532L206.102 162.503ZM211.488 171.439C211.488 171.439 211.486 171.437 211.482 171.434C211.486 171.437 211.488 171.439 211.488 171.439Z" fill="#241953"/>
<path fill-rule="evenodd" clip-rule="evenodd" d="M210.737 160.503C210.737 160.503 210.737 160.502 211.581 160.195C212.425 159.888 212.425 159.888 212.425 159.888L212.427 159.894L212.435 159.913C212.441 159.931 212.451 159.957 212.464 159.992C212.489 160.061 212.528 160.164 212.577 160.294C212.677 160.555 212.821 160.928 213.001 161.373C213.36 162.265 213.858 163.44 214.412 164.582C214.973 165.737 215.569 166.812 216.121 167.534C216.401 167.9 216.627 168.118 216.785 168.221C216.832 168.251 216.859 168.263 216.87 168.267C216.854 168.264 216.803 168.256 216.732 168.288L217.455 169.932C216.821 170.211 216.22 169.996 215.805 169.726C215.395 169.459 215.022 169.054 214.694 168.625C214.029 167.756 213.369 166.548 212.796 165.367C212.217 164.174 211.703 162.958 211.334 162.045C211.15 161.587 211.001 161.203 210.898 160.933C210.847 160.798 210.807 160.691 210.78 160.618C210.766 160.581 210.756 160.553 210.748 160.533L210.74 160.511L210.737 160.503ZM216.875 168.269C216.875 168.269 216.873 168.269 216.87 168.267C216.873 168.268 216.875 168.269 216.875 168.269Z" fill="#241953"/>
<path fill-rule="evenodd" clip-rule="evenodd" d="M217.536 158.04C217.535 158.04 217.535 158.04 218.333 157.626C219.13 157.213 219.13 157.213 219.13 157.213L219.138 157.228L219.163 157.274C219.184 157.316 219.217 157.377 219.258 157.455C219.341 157.612 219.462 157.836 219.61 158.105C219.907 158.646 220.313 159.363 220.752 160.078C221.193 160.799 221.654 161.493 222.06 162C222.265 162.256 222.434 162.437 222.563 162.547C222.621 162.597 222.655 162.618 222.666 162.625C222.65 162.617 222.594 162.595 222.503 162.592L222.456 164.388C221.984 164.376 221.607 164.093 221.396 163.913C221.144 163.698 220.894 163.419 220.657 163.123C220.181 162.528 219.675 161.759 219.22 161.017C218.762 160.27 218.341 159.526 218.036 158.971C217.883 158.693 217.759 158.462 217.672 158.299C217.629 158.217 217.595 158.153 217.572 158.109L217.545 158.058L217.536 158.04Z" fill="#241953"/>
<path d="M130.223 165.183C130.223 165.183 127.209 175.714 116.562 170.429C105.915 165.147 107.485 139.312 107.485 139.312C107.485 139.312 105.739 120.329 86.3645 121.424C71.7006 121.971 71.0035 152.725 55.2939 169.883C52.2756 174.64 37.4895 181.543 23.1777 170.792C8.86584 160.044 24.7479 130.896 24.7479 130.896C24.5143 131.881 29.4622 118.205 40.6335 110.494C53.6087 103.512 59.4261 97.0732 61.9306 84.443L58.2655 82.438C54.6435 100.85 36.8822 105.665 27.856 115.377C20.2671 125.503 16.7278 135.337 13.5802 145.654C7.89208 164.288 18.9915 174.072 18.9915 174.072C18.9915 174.072 37.6691 193.019 57.5684 175.165C64.4458 167.087 67.2198 164.414 71.3592 151.665C75.362 139.337 80.6405 123.616 89.3397 125.251C95.3799 126.387 103.479 131.992 103.303 144.015C103.127 156.038 104.525 170.612 114.474 174.439C124.424 178.266 135.272 175.639 134.474 169.94C131.959 167.299 130.223 165.183 130.223 165.183Z" fill="#F1F1F1"/>
<path fill-rule="evenodd" clip-rule="evenodd" d="M56.3903 83.8129L61.2112 86.3387L61.1289 86.7367C59.8085 93.1228 57.604 97.9811 53.9927 102.127C50.3947 106.258 45.4297 109.647 38.6466 113.148C32.9159 116.946 28.7665 122.217 26.0741 126.437C24.7278 128.547 23.7501 130.388 23.1241 131.641C22.857 132.175 22.6543 132.601 22.5126 132.9C22.4882 132.951 22.4656 132.999 22.4448 133.042C22.3785 133.181 22.32 133.303 22.2808 133.372C22.272 133.387 22.2512 133.424 22.2229 133.461L22.2223 133.461C22.2161 133.469 22.1985 133.492 22.1706 133.52C22.1465 133.563 22.1179 133.616 22.085 133.676C21.9689 133.889 21.7998 134.204 21.5896 134.61C21.169 135.421 20.5838 136.593 19.9278 138.034C18.6147 140.917 17.0218 144.867 15.8934 149.143C14.7637 153.425 14.109 158.001 14.6433 162.148C15.1758 166.283 16.8845 169.969 20.4706 172.55C27.8152 177.833 35.2621 178.769 41.2542 177.813C44.2541 177.334 46.8876 176.381 48.9575 175.261C51.0384 174.136 52.5104 172.865 53.2312 171.777L53.2577 171.737L53.2909 171.702C60.4404 164.22 64.5826 154.121 68.3165 145.017C68.8188 143.792 69.3136 142.586 69.8074 141.406C71.8783 136.458 73.9398 131.965 76.4642 128.674C79 125.369 82.0479 123.22 86.0852 123.074C96.4054 122.518 102.091 127.102 105.168 131.855C106.697 134.219 107.576 136.612 108.073 138.411C108.321 139.311 108.475 140.066 108.567 140.598C108.613 140.864 108.644 141.075 108.663 141.22C108.672 141.293 108.679 141.349 108.684 141.388C108.686 141.408 108.687 141.423 108.689 141.434L108.69 141.446L108.69 141.45L108.69 141.451C108.69 141.451 108.69 141.452 108.154 141.503L108.69 141.452L108.694 141.494L108.692 141.537L108.591 141.531C108.692 141.537 108.692 141.537 108.692 141.537L108.692 141.538L108.691 141.554C108.69 141.566 108.689 141.584 108.688 141.608C108.686 141.635 108.684 141.669 108.682 141.71C108.68 141.743 108.679 141.78 108.677 141.821C108.667 142.009 108.655 142.286 108.644 142.641C108.621 143.352 108.601 144.374 108.611 145.618C108.631 148.108 108.773 151.478 109.259 155.008C109.746 158.542 110.574 162.212 111.954 165.312C113.336 168.417 115.245 170.893 117.861 172.137C120.566 173.425 122.741 173.728 124.474 173.5C126.205 173.273 127.541 172.51 128.562 171.584C129.588 170.654 130.293 169.561 130.743 168.693C130.967 168.261 131.126 167.888 131.228 167.625C131.279 167.494 131.315 167.391 131.339 167.322C131.35 167.287 131.359 167.261 131.364 167.245L131.37 167.227L131.371 167.224L131.371 167.223L131.654 166.277L132.296 167.027L132.297 167.029L132.316 167.05C132.33 167.066 132.35 167.09 132.377 167.121C132.431 167.183 132.511 167.275 132.616 167.393C132.825 167.631 133.131 167.975 133.519 168.403C134.296 169.257 135.399 170.44 136.704 171.756L136.829 171.882L136.854 172.058C137.094 173.693 136.446 175.098 135.23 176.183C134.03 177.254 132.271 178.026 130.206 178.483C126.071 179.398 120.538 179.086 115.258 177.14C109.838 175.143 106.797 170.35 105.134 164.645C103.471 158.94 103.154 152.225 103.246 146.199C103.424 134.498 95.227 129.07 89.1148 127.97C87.0257 127.594 85.1298 128.205 83.3646 129.57C81.5856 130.945 79.9571 133.075 78.4557 135.681C75.4525 140.894 73.0466 147.855 70.9534 154.03C68.7841 160.429 66.9626 164.333 64.7667 167.658C62.8706 170.53 60.7005 172.959 57.8285 176.174C57.3866 176.668 56.9281 177.182 56.4514 177.718L56.4273 177.745L56.3998 177.769C45.8455 186.841 35.5723 186.575 27.9546 184.02C24.1582 182.747 21.0265 180.909 18.8454 179.392C17.754 178.632 16.8982 177.952 16.3137 177.459C16.0214 177.213 15.7968 177.014 15.6442 176.875C15.568 176.806 15.5097 176.751 15.47 176.714C15.4501 176.695 15.4349 176.681 15.4244 176.671L15.4202 176.667C15.418 176.665 15.4155 176.663 15.4128 176.66C15.4075 176.656 15.4012 176.65 15.3941 176.644C15.3698 176.623 15.3349 176.592 15.2905 176.551C15.2017 176.47 15.0745 176.35 14.9162 176.193C14.5997 175.877 14.1581 175.409 13.6491 174.789C12.6312 173.551 11.3412 171.705 10.2412 169.266C8.03666 164.378 6.60929 157.135 9.62071 147.682C12.9147 137.346 16.6319 127.435 24.6108 117.233L24.6285 117.211L24.6485 117.19C27.0453 114.719 30.0103 112.571 33.1363 110.463C34.0025 109.879 34.8801 109.298 35.7626 108.714C38.0802 107.182 40.4315 105.626 42.6967 103.925C48.9329 99.2413 54.3942 93.5353 56.2463 84.5141L56.3903 83.8129ZM16.1586 175.881L16.1605 175.883L16.1696 175.892C16.178 175.9 16.1911 175.912 16.2087 175.929C16.2441 175.962 16.2978 176.012 16.3694 176.077C16.5125 176.207 16.727 176.398 17.0082 176.635C17.5709 177.109 18.4004 177.769 19.461 178.507C21.5841 179.984 24.6239 181.767 28.2974 182.998C35.6128 185.452 45.4614 185.734 55.6698 176.975C56.141 176.445 56.5931 175.939 57.0277 175.452C59.9052 172.23 62.0175 169.865 63.8672 167.064C65.993 163.845 67.7791 160.036 69.9325 153.684C72.0182 147.531 74.4559 140.465 77.5217 135.143C79.0548 132.481 80.7671 130.216 82.7053 128.717C84.6573 127.208 86.8549 126.468 89.3059 126.909C95.8059 128.079 104.512 133.863 104.323 146.215C104.232 152.212 104.552 158.797 106.169 164.343C107.786 169.889 110.667 174.299 115.631 176.129C120.736 178.01 126.058 178.297 129.973 177.431C131.934 176.997 133.498 176.284 134.512 175.379C135.463 174.53 135.921 173.527 135.809 172.384C134.547 171.108 133.48 169.962 132.722 169.128C132.47 168.851 132.252 168.608 132.072 168.406C131.973 168.635 131.85 168.9 131.7 169.189C131.213 170.13 130.436 171.34 129.286 172.383C128.132 173.429 126.599 174.308 124.614 174.569C122.632 174.829 120.247 174.467 117.398 173.111C114.458 171.712 112.405 168.977 110.969 165.751C109.531 162.521 108.685 158.741 108.191 155.155C107.697 151.566 107.553 148.147 107.533 145.627C107.523 144.367 107.543 143.329 107.567 142.606C107.578 142.245 107.59 141.962 107.6 141.769C107.605 141.672 107.609 141.598 107.611 141.547C107.612 141.536 107.613 141.525 107.613 141.516C107.613 141.514 107.613 141.512 107.612 141.51C107.609 141.477 107.603 141.427 107.594 141.361C107.577 141.229 107.548 141.032 107.505 140.781C107.418 140.279 107.272 139.56 107.034 138.698C106.557 136.972 105.716 134.687 104.263 132.441C101.374 127.977 96.0379 123.616 86.1385 124.151L86.1336 124.151L86.1286 124.151C82.5166 124.28 79.736 126.18 77.3195 129.33C74.8907 132.497 72.8757 136.868 70.8018 141.822C70.3122 142.992 69.8199 144.193 69.3185 145.417C65.6008 154.487 61.3842 164.776 54.1027 172.413C53.2405 173.692 51.6135 175.051 49.4703 176.21C47.2933 177.387 44.5439 178.379 41.4241 178.877C35.1768 179.875 27.437 178.889 19.841 173.425C15.9568 170.63 14.135 166.641 13.5741 162.286C13.0149 157.945 13.7037 153.217 14.8511 148.868C16 144.514 17.6181 140.505 18.9467 137.587C19.6115 136.127 20.2048 134.938 20.6326 134.113C20.8465 133.701 21.019 133.379 21.1385 133.16C21.1982 133.05 21.2446 132.966 21.2763 132.91C21.2922 132.881 21.3044 132.859 21.3127 132.845L21.3222 132.828L21.3247 132.823L21.3254 132.822C21.3255 132.822 21.3256 132.822 21.3467 132.834C21.3467 132.834 21.3467 132.834 21.3467 132.834L21.3258 132.821L21.511 132.496C21.5199 132.477 21.5291 132.458 21.5386 132.438C21.6802 132.14 21.8876 131.703 22.1599 131.159C22.7977 129.883 23.7938 128.007 25.1653 125.857C27.9048 121.563 32.1592 116.147 38.076 112.233L38.1004 112.216L38.1263 112.203C44.8727 108.723 49.7073 105.406 53.1798 101.419C56.5698 97.5272 58.6898 92.965 59.9896 86.9156L57.1508 85.4283C55.0893 94.416 49.5187 100.149 43.344 104.787C41.0511 106.509 38.6587 108.092 36.3319 109.631C35.4554 110.21 34.5881 110.784 33.739 111.356C30.6304 113.453 27.7527 115.543 25.4422 117.92C17.5944 127.962 13.9269 137.72 10.6478 148.009C7.72325 157.19 9.12015 164.158 11.2239 168.823C12.278 171.16 13.5131 172.926 14.4819 174.105C14.9661 174.694 15.3833 175.136 15.677 175.429C15.8239 175.575 15.9398 175.684 16.0178 175.755C16.0568 175.791 16.0863 175.817 16.1054 175.834L16.1155 175.843C16.12 175.847 16.1236 175.85 16.1262 175.852L16.1305 175.856L16.131 175.856L16.145 175.868L16.1583 175.881L16.1586 175.881ZM21.3471 132.834C21.3471 132.834 21.3468 132.834 21.3467 132.834C21.3852 132.855 21.4931 132.917 21.7943 133.088L21.3471 132.834Z" fill="#241953"/>
<path fill-rule="evenodd" clip-rule="evenodd" d="M62.3954 71.2146C62.6816 71.3677 63.0304 71.5541 63.4742 71.7795L63.4745 71.7796C64.4353 72.2683 65.1098 72.5716 65.654 72.8163C65.9504 72.9495 66.2082 73.0654 66.4525 73.1845C67.11 73.5047 67.5869 73.8182 67.8987 74.4819C68.0661 74.8365 68.1432 75.2049 68.0897 75.76C68.0404 76.2706 67.8782 76.9648 67.5753 77.9979L67.5606 78.0477C67.0666 79.7269 66.6813 81.036 66.2652 82.0762C65.8391 83.1412 65.3629 83.972 64.6616 84.6796L64.6506 84.6906C64.3405 85.0026 63.6992 85.6477 62.8545 86.1636C62.0024 86.684 60.8643 87.1213 59.5947 86.8812C57.6191 86.5084 56.5571 84.7278 56.3464 84.3747C56.3431 84.3691 56.3401 84.364 56.3372 84.3591L56.3369 84.3587C55.4486 82.8705 55.3759 81.2567 55.6701 79.6289C55.9591 78.0292 56.6184 76.3369 57.2765 74.6473L57.2868 74.6208C57.2868 74.6208 57.2868 74.6209 57.2868 74.6208C57.9039 73.0359 58.4614 72.0805 58.9685 71.5C59.5024 70.8889 59.9838 70.691 60.3814 70.6204C60.5986 70.5814 60.8136 70.5749 61.0475 70.6202C61.2678 70.6629 61.4737 70.746 61.6762 70.8418C61.8699 70.9335 62.0978 71.0554 62.3649 71.1983L62.3954 71.2146ZM60.774 72.0312C60.7407 72.0248 60.7068 72.0222 60.6351 72.0351L60.6329 72.0355C60.6318 72.0357 60.6308 72.0359 60.6297 72.0361C60.5578 72.0487 60.3686 72.082 60.0509 72.4457C59.701 72.8461 59.2164 73.6263 58.6262 75.1423C57.9511 76.8753 57.3455 78.44 57.0845 79.8844C56.8271 81.3091 56.9215 82.5339 57.5711 83.622C57.7798 83.9712 58.5554 85.2224 59.8612 85.4689C60.6432 85.6168 61.4115 85.3607 62.1054 84.937C62.7968 84.5148 63.3362 83.9742 63.641 83.6676C64.1613 83.1426 64.5475 82.5003 64.9307 81.5423C65.3198 80.5698 65.6875 79.3217 66.1961 77.5932C66.4968 76.5675 66.6239 75.9862 66.659 75.6219C66.6899 75.3024 66.6467 75.1966 66.5988 75.0951L66.598 75.0935C66.4966 74.8775 66.3826 74.7491 65.8231 74.4766C65.6538 74.3941 65.4302 74.2932 65.1569 74.1698C64.5844 73.9114 63.7934 73.5544 62.8232 73.0609M60.774 72.0312C60.8213 72.0404 60.9013 72.0652 61.0613 72.1409L60.774 72.0312ZM61.0613 72.1409C61.2225 72.2172 61.4233 72.3246 61.7162 72.4813L61.0613 72.1409ZM61.7162 72.4813L61.7175 72.482L61.7162 72.4813ZM61.7175 72.482C62.0051 72.6358 62.3649 72.8281 62.8229 73.0607L61.7175 72.482Z" fill="#241953"/>
<path fill-rule="evenodd" clip-rule="evenodd" d="M66.4085 49.1103C67.81 50.0179 69.6012 51.1778 72.3878 52.0583L72.3879 52.0583C74.1054 52.6012 75.4764 52.8107 76.6102 52.9839C76.8834 53.0257 77.1429 53.0653 77.3901 53.107C78.6107 53.3129 79.757 53.5936 80.3701 54.7819L80.3711 54.7838C80.8456 55.71 80.7011 56.6104 80.3073 57.643C80.0643 58.2798 79.6881 59.0584 79.2254 60.0158C78.9671 60.5503 78.6818 61.1405 78.3778 61.7929L77.7264 61.4894L78.3778 61.7929C76.7493 65.2888 75.9259 67.6502 75.3396 69.3319C75.2173 69.6824 75.1054 70.0034 74.9987 70.2989C74.6921 71.1475 74.4082 71.8462 74.0177 72.4146C73.6085 73.0103 73.1031 73.4356 72.4027 73.7905C70.4962 74.7569 68.3876 74.584 66.6282 74.1136C64.8646 73.6421 63.3435 72.8421 62.5462 72.4227L62.5413 72.4201L62.5411 72.42L62.5314 72.4149C61.7883 72.0244 60.4058 71.2978 59.0812 70.163C57.75 69.0226 56.4357 67.435 55.8947 65.3103L55.8943 65.3087C55.835 65.0738 55.7754 64.7927 55.7791 64.3723C55.7825 63.9684 55.8439 63.4567 55.9949 62.7433C56.2959 61.3215 56.9744 59.003 58.3734 54.9696M66.4085 49.1103C66.3364 49.0636 66.2654 49.0176 66.1953 48.9724L66.4085 49.1103ZM66.1953 48.9724C65.4923 48.5184 64.8204 48.0943 64.1593 47.8623L66.1953 48.9724ZM64.1593 47.8623C63.4566 47.6157 62.7406 47.5752 61.9702 47.8876L64.1593 47.8623ZM61.9702 47.8876C61.7234 47.9871 61.4646 48.1264 61.2005 48.4027C60.9546 48.6599 60.7298 49.009 60.4884 49.4869C60.0082 50.4373 59.3774 52.0725 58.3735 54.9694M63.6834 49.2185C63.253 49.0675 62.9034 49.06 62.5099 49.2197L62.5083 49.2204C62.3942 49.2663 62.3259 49.3054 62.2394 49.3958C62.1343 49.5057 61.9847 49.7125 61.7712 50.1351C61.3414 50.9857 60.7398 52.5305 59.7315 55.4402L59.7314 55.4404C58.335 59.4664 57.6822 61.713 57.4011 63.0409C57.261 63.7024 57.2186 64.1117 57.2163 64.3847C57.2141 64.6409 57.2465 64.7928 57.2877 64.9564C57.7314 66.6977 58.8208 68.0472 60.0163 69.0715C61.2128 70.0966 62.4738 70.761 63.21 71.1479L63.2102 71.148C64.006 71.5666 65.4035 72.2984 66.9994 72.7251C68.6033 73.1539 70.2998 73.2451 71.7529 72.5084L71.7531 72.5084C72.2654 72.2488 72.5761 71.9748 72.833 71.6008C73.1087 71.1995 73.3407 70.658 73.6469 69.8106C73.7502 69.5247 73.8596 69.2106 73.9801 68.8651C74.5667 67.1822 75.4137 64.7522 77.075 61.1859L77.075 61.1859C77.4117 60.4634 77.7116 59.8436 77.9736 59.3019C78.4104 58.3989 78.7422 57.7131 78.9643 57.1307C79.3042 56.2398 79.2893 55.825 79.0923 55.44C78.8358 54.9438 78.3954 54.7342 77.151 54.5243C76.928 54.4867 76.6857 54.4497 76.4242 54.4099C75.287 54.2367 73.7889 54.0086 71.9547 53.4287C68.9804 52.489 67.0522 51.2398 65.6364 50.3227C65.5614 50.2741 65.4878 50.2264 65.4156 50.1798C64.6845 49.7076 64.1556 49.3843 63.6834 49.2185Z" fill="#241953"/>
<path fill-rule="evenodd" clip-rule="evenodd" d="M62.2298 44.7533C62.2297 44.7535 62.2296 44.7536 62.2295 44.7538L61.0658 46.6861L61.0648 46.6878C60.8607 47.0247 61.0194 47.468 61.3944 47.5986L81.0793 54.4764C81.4663 54.612 81.8825 54.3902 81.9882 54.0026L82.4012 52.4939C82.4013 52.4939 82.4012 52.494 82.4012 52.4939C82.5377 51.9917 82.2706 51.4661 81.7836 51.2813C81.7836 51.2812 81.7837 51.2813 81.7836 51.2813L63.4343 44.336C63.4342 44.336 63.434 44.3359 63.4339 44.3359C62.9856 44.1672 62.4782 44.3426 62.2298 44.7533ZM60.9993 44.0106C61.6061 43.0061 62.8445 42.5779 63.941 42.991L63.9421 42.9914L82.2932 49.9373C83.4733 50.3849 84.1186 51.656 83.7881 52.8711L83.7878 52.8723L83.3748 54.3808C83.0493 55.5742 81.7766 56.2435 80.6042 55.8329L60.9217 48.9559C60.9216 48.9559 60.9218 48.956 60.9217 48.9559M60.9993 44.0106L59.8356 45.9429L60.9993 44.0106Z" fill="#241953"/>
<path d="M68.9949 45.6794C69.0919 44.5044 69.2464 43.3438 69.3973 42.1868L69.6524 40.4584L69.9543 38.7445C70.0621 38.1731 70.1016 37.5839 70.1699 37.0018C70.2417 36.4197 70.4034 35.8663 70.6657 35.3453C70.928 34.8243 71.2442 34.3176 71.6287 33.8325C72.0204 33.351 72.4623 32.8839 73.0768 32.4707L73.3858 32.5677C73.6589 33.254 73.7595 33.89 73.8134 34.5081C73.8565 35.1261 73.8349 35.7226 73.7559 36.2975C73.6768 36.876 73.5008 37.4258 73.2313 37.9432C72.9618 38.4642 72.66 38.9708 72.4264 39.5026L71.7078 41.0908L70.9424 42.6647C70.4142 43.7067 69.8896 44.7523 69.3039 45.7764L68.9949 45.6794Z" fill="#241953"/>
<path d="M76.8605 48.906C76.9575 47.731 77.112 46.5704 77.2629 45.4133L77.518 43.685L77.8199 41.971C77.9277 41.3997 77.9672 40.8104 78.0355 40.2283C78.1073 39.6462 78.269 39.0929 78.5313 38.5718C78.7936 38.0508 79.1098 37.5442 79.4943 37.0591C79.886 36.5776 80.3279 36.1105 80.9424 35.6973L81.2514 35.7943C81.5245 36.4806 81.6251 37.1166 81.679 37.7346C81.7221 38.3527 81.7005 38.9491 81.6215 39.524C81.5424 40.1026 81.3664 40.6523 81.0969 41.1697C80.8274 41.6908 80.5256 42.1974 80.292 42.7292L79.5734 44.3174L78.808 45.8912C78.2798 46.9333 77.7552 47.9789 77.1695 49.003L76.8605 48.906Z" fill="#241953"/>
<path d="M74.6902 59.4845C74.5321 60.3289 74.2662 61.123 73.9787 61.9063C73.6805 62.6861 73.3463 63.4478 72.969 64.188C72.5953 64.9318 72.1821 65.6541 71.7222 66.3547C71.4922 66.7069 71.2407 67.0446 70.982 67.3788C70.8454 67.5405 70.7125 67.7094 70.5651 67.8639C70.4142 68.0148 70.2669 68.1837 70.0729 68.2879C70.2597 67.9142 70.3747 67.5118 70.522 67.1201C70.6694 66.732 70.8131 66.3404 70.9712 65.9595C71.2874 65.1941 71.6323 64.4396 72.006 63.7029C72.3797 62.9663 72.7822 62.2405 73.2169 61.5326C73.6625 60.8284 74.126 60.1349 74.6902 59.4845Z" fill="#241953"/>
<path d="M63.5763 70.1744C64.9812 70.4259 66.361 70.7206 67.7301 70.9541C68.4164 71.0583 69.0991 71.1733 69.753 71.1805C70.0728 71.1841 70.3998 71.1733 70.6118 71.0979C70.716 71.0583 70.7412 71.0296 70.7376 71.0296C70.8095 70.8859 70.8849 70.7493 70.9568 70.5912L72.7282 66.7824C73.3355 65.5068 73.9679 64.242 74.6937 63.0095C74.3847 64.4037 73.9715 65.7619 73.508 67.0986C73.0409 68.4389 72.5522 69.7576 71.927 71.0619C71.8515 71.2236 71.7545 71.3961 71.661 71.5614C71.6251 71.6189 71.5604 71.7015 71.5029 71.7662C71.4455 71.8345 71.3808 71.8704 71.3161 71.9207C71.2478 71.971 71.1903 71.9962 71.1257 72.0249C71.0646 72.0537 70.9999 72.0824 70.9424 72.0968C70.4753 72.2297 70.0836 72.2225 69.7027 72.1938C68.9482 72.1183 68.2403 71.9746 67.5468 71.7698C66.1634 71.3745 64.8375 70.8463 63.5763 70.1744Z" fill="#241953"/>
<path d="M155.157 4.28186H103.231V71.3099H155.157V4.28186Z" fill="#F8F8F8"/>
<path d="M89.4475 49.3948L94.5391 51.098L99.6199 52.8227L109.771 56.3153L110.612 56.6028L109.875 57.1274C105.825 60.0199 101.787 62.9305 97.7191 65.8014L91.6286 70.1205L85.5273 74.4216L85.6998 73.2789C88.9229 77.3465 92.1568 81.4068 95.3548 85.4923L104.967 97.738L106.214 99.3298L104.198 99.1825L89.4116 98.0937L74.6291 96.9475L75.4339 95.9881L77.9636 106.423C78.808 109.901 79.6416 113.383 80.4645 116.865L80.928 118.83L79.559 117.364C76.5766 114.166 73.6122 110.954 70.6478 107.738L66.2137 102.901L61.8012 98.047L66.4617 102.664L71.1005 107.303C74.1835 110.404 77.2665 113.505 80.3279 116.624L79.4224 117.123C78.4918 113.667 77.5683 110.21 76.6592 106.746L73.9284 96.3618L73.6589 95.3306L74.7333 95.4024L89.5266 96.3726L104.316 97.4002L103.547 98.8411L93.9714 86.5667C90.7734 82.4812 87.6114 78.3633 84.435 74.2599L83.9175 73.5915L84.6074 73.1208L90.7734 68.9096L96.9502 64.7199C101.064 61.9172 105.204 59.154 109.332 56.3728L109.437 57.1885L99.4223 53.3222L94.4241 51.371L89.4475 49.3948Z" fill="#241953"/>
<path d="M140.216 1.12339C137.963 1.32101 135.696 1.2743 133.436 1.25634C131.176 1.224 128.915 1.1701 126.655 1.10901C124.395 1.04074 122.135 1.01559 119.875 0.961691C117.615 0.918573 115.355 0.864674 113.105 0.972471C110.856 1.0623 108.617 1.35336 106.436 1.86359C105.894 2.00014 105.351 2.13308 104.816 2.29837C104.277 2.44929 103.745 2.62176 103.235 2.81939C102.218 3.22183 101.266 3.768 100.533 4.52617C99.796 5.27715 99.3324 6.24732 99.1384 7.27139C98.948 8.30265 99.0162 9.38421 99.2175 10.4442C99.3145 10.9832 99.4654 11.4898 99.5983 12.0791C99.6343 12.2121 99.6594 12.3989 99.6882 12.557C99.6989 12.6612 99.6954 12.7942 99.6918 12.9092C99.6666 13.0529 99.6055 13.2433 99.5732 13.29C99.5265 13.3835 99.5121 13.423 99.4941 13.4661C99.4726 13.5056 99.4618 13.5595 99.4474 13.6134L99.4043 13.7715L99.3756 13.9548C99.2893 14.4471 99.2642 15.0004 99.2462 15.5502C99.2211 16.0964 99.239 16.6605 99.2318 17.2138C99.3324 21.691 99.7169 26.1933 100.119 30.6884C100.515 35.1908 100.935 39.6931 101.366 44.1846C101.797 48.6689 102.268 53.1605 103.026 57.5298C103.414 59.7001 103.874 61.8776 104.65 63.7856C105.035 64.7306 105.527 65.5966 106.116 66.1608C106.264 66.3081 106.408 66.4159 106.576 66.5344C106.774 66.6458 106.95 66.7824 107.162 66.8722L107.467 67.0231C107.575 67.0698 107.687 67.1058 107.794 67.1489C108.006 67.2423 108.244 67.2998 108.474 67.3681C109.408 67.6304 110.446 67.7597 111.513 67.8208C112.584 67.8819 113.68 67.8855 114.79 67.8639C117.008 67.8136 119.26 67.6807 121.517 67.5585C126.027 67.289 130.554 67.1633 134.945 66.6207C137.137 66.344 139.282 65.938 141.251 65.187C142.228 64.8025 143.145 64.3066 144 63.7138L144.625 63.2466C144.801 63.0849 144.988 62.9448 145.15 62.758C145.491 62.4202 145.778 62.0106 146.052 61.5866C147.108 59.8403 147.697 57.6879 148.125 55.5284C148.549 53.3581 148.8 51.1267 149.005 48.8881C149.393 44.4074 149.566 39.8907 149.702 35.374C149.814 30.8573 149.925 26.3334 149.972 21.8132C149.983 19.553 149.972 17.2929 149.882 15.0364C149.781 12.7834 149.645 10.5197 149.224 8.30265C149.016 7.19594 148.746 6.09282 148.34 5.04359C147.942 3.99437 147.388 2.98468 146.594 2.17979C146.192 1.78454 145.728 1.45396 145.222 1.21322C144.718 0.954504 144.158 0.825151 143.594 0.828744C143.03 0.825151 142.466 0.893423 141.905 0.947321L140.216 1.12339ZM140.216 1.12339L141.901 0.940133C142.462 0.879048 143.026 0.810779 143.594 0.807185C144.162 0.799999 144.733 0.925759 145.239 1.18088C145.753 1.41803 146.224 1.7522 146.634 2.14746C147.442 2.95234 148.01 3.96563 148.416 5.01844C148.833 6.07485 149.113 7.17797 149.329 8.28828C149.749 10.5161 149.979 12.7726 150.119 15.0328C150.263 17.2929 150.327 19.5566 150.371 21.8168C150.439 26.3406 150.529 30.8609 150.568 35.3884C150.611 39.9158 150.644 44.4433 150.446 48.9887C150.335 51.2632 150.18 53.5413 149.835 55.8266C149.659 56.9693 149.444 58.1119 149.127 59.2546C148.811 60.3936 148.402 61.5327 147.787 62.6214C147.467 63.1568 147.119 63.6922 146.677 64.1737C146.472 64.4216 146.217 64.6408 145.983 64.8636L145.268 65.4385C144.291 66.1751 143.227 66.7932 142.117 67.2782C139.889 68.2197 137.568 68.7443 135.286 69.0784C132.997 69.4198 130.723 69.6354 128.459 69.8258C126.192 70.0127 123.939 70.1816 121.679 70.3217C119.419 70.4654 117.158 70.6163 114.855 70.6882C113.705 70.7205 112.538 70.7277 111.352 70.6702C110.166 70.6056 108.941 70.487 107.694 70.1384C107.381 70.045 107.072 69.9588 106.763 69.8294C106.609 69.7683 106.454 69.7109 106.3 69.6426L105.847 69.4162C105.542 69.2761 105.261 69.0749 104.97 68.8988C104.676 68.694 104.37 68.4532 104.122 68.1981C103.095 67.1704 102.502 65.9919 102.035 64.8528C101.125 62.5567 100.687 60.2679 100.292 57.9933C99.911 55.7188 99.6738 53.4443 99.4546 51.1806C99.239 48.9133 99.0594 46.6495 98.8977 44.3894C98.5815 39.8655 98.3551 35.3488 98.1108 30.8286C97.8844 26.3011 97.7011 21.7736 97.7909 17.2031C97.8233 16.6281 97.8305 16.0568 97.8808 15.4783C97.9275 14.8962 97.9742 14.3213 98.1072 13.7033L98.1575 13.4697C98.179 13.3907 98.2078 13.3044 98.2365 13.2218C98.2653 13.1391 98.2904 13.0565 98.3335 12.9702C98.3731 12.884 98.4162 12.7942 98.4341 12.7618C98.4773 12.69 98.4377 12.7367 98.4557 12.7439C98.4485 12.7187 98.4557 12.7079 98.4557 12.672C98.4377 12.5534 98.4341 12.4564 98.4018 12.3163C98.3084 11.7989 98.1682 11.2132 98.0856 10.6347C97.9131 9.47045 97.8844 8.25235 98.1575 7.06658C98.4341 5.88441 99.0378 4.75613 99.9181 3.91891C100.795 3.07451 101.873 2.51756 102.969 2.12949C103.519 1.93905 104.072 1.78095 104.629 1.648C105.182 1.50068 105.739 1.38569 106.3 1.26712C108.542 0.825151 110.816 0.631116 113.087 0.580811C122.153 0.595183 131.172 1.50427 140.216 1.12339Z" fill="#241953"/>
<path d="M143.504 1.12334C141.176 1.31378 138.836 1.27425 136.501 1.25988C134.165 1.23114 131.83 1.18083 129.494 1.12693C127.158 1.06226 124.823 1.0371 122.487 0.99039C120.152 0.950864 117.816 0.889781 115.488 0.947273C113.159 0.990391 110.838 1.1952 108.556 1.59765C107.417 1.80605 106.285 2.0468 105.171 2.363C104.054 2.66124 102.972 3.02416 102.006 3.58111C101.043 4.12728 100.213 4.88185 99.7133 5.82328C99.2031 6.75751 99.0055 7.83907 99.063 8.92782C99.0881 9.47399 99.1672 10.0202 99.2857 10.5627C99.4007 11.1089 99.5696 11.6335 99.7097 12.2731L99.7565 12.5354C99.7708 12.6288 99.7672 12.7869 99.7637 12.9091C99.6954 13.2864 99.5516 13.4373 99.5445 13.502C99.5049 13.5882 99.4798 13.6996 99.4474 13.8038L99.3792 14.1775C99.3504 14.447 99.3181 14.7165 99.3001 14.9932L99.2606 15.8376C99.2283 18.1229 99.354 20.4513 99.5157 22.7689C99.6702 25.0866 99.875 27.4078 100.091 29.729C100.511 34.3714 100.975 39.0247 101.442 43.6599C101.912 48.2916 102.419 52.9268 103.249 57.4292C103.673 59.6641 104.183 61.9027 105.046 63.8323C105.146 64.0802 105.276 64.2958 105.387 64.5294C105.516 64.7414 105.631 64.9713 105.775 65.1618C106.041 65.5714 106.343 65.9164 106.666 66.1894C106.745 66.2649 106.828 66.326 106.911 66.3799C106.993 66.4374 107.072 66.4985 107.184 66.5559C107.392 66.6745 107.593 66.7967 107.82 66.8865C107.931 66.9332 108.035 66.9907 108.15 67.0339L108.499 67.156C108.725 67.2494 108.98 67.2998 109.225 67.3716C110.216 67.6267 111.301 67.7525 112.412 67.8172C113.522 67.8783 114.658 67.8926 115.807 67.8711C118.1 67.8351 120.428 67.7094 122.757 67.5908C127.417 67.3393 132.092 67.2099 136.67 66.7608C138.955 66.5236 141.215 66.2182 143.357 65.6253C144.413 65.3055 145.459 64.9498 146.418 64.4467C146.67 64.3389 146.889 64.1808 147.126 64.0515L147.478 63.8467C147.593 63.7748 147.701 63.6922 147.812 63.6167C148.028 63.4622 148.272 63.3113 148.463 63.1532L148.75 62.916L149.02 62.6537C149.735 61.9458 150.284 61.0188 150.741 60.0307C151.193 59.0389 151.535 57.9646 151.812 56.8686C152.361 54.6696 152.688 52.3771 152.936 50.0738C153.414 45.4637 153.601 40.7961 153.752 36.1321L153.921 29.1289C153.964 26.7933 154.025 24.4577 154.036 22.1257C154.046 19.7937 154.036 17.4581 153.935 15.1297C153.824 12.8013 153.666 10.4657 153.191 8.18403C152.958 7.04138 152.638 5.9167 152.182 4.84592C151.711 3.78592 151.086 2.76904 150.187 2.02524C149.3 1.28504 148.168 0.781983 146.993 0.839475C145.825 0.868221 144.668 1.03351 143.504 1.12334ZM143.504 1.12334C144.668 1.02632 145.825 0.850256 146.993 0.807137C148.175 0.738866 149.325 1.23832 150.223 1.97853C151.14 2.72232 151.779 3.74639 152.261 4.80999C152.728 5.88436 153.062 7.01263 153.303 8.15887C153.781 10.4513 154.029 12.7834 154.183 15.1154C154.338 17.4509 154.402 19.7866 154.445 22.1221C154.51 26.7969 154.6 31.4645 154.629 36.1393C154.657 40.8141 154.675 45.4961 154.384 50.196C154.23 52.546 154 54.9031 153.515 57.2603C153.267 58.4389 152.951 59.6138 152.483 60.7709C152.009 61.9171 151.405 63.0705 150.493 64.0443C150.378 64.1629 150.266 64.2886 150.148 64.4036L149.771 64.7378C149.519 64.9606 149.267 65.1223 149.016 65.3163C148.89 65.4097 148.764 65.5067 148.635 65.593L148.236 65.8445C147.967 66.0062 147.712 66.193 147.431 66.3296C146.343 66.9512 145.178 67.3932 144.014 67.7884C141.675 68.5214 139.3 68.9347 136.946 69.2221C134.593 69.5132 132.246 69.7036 129.911 69.8797C127.572 70.0522 125.243 70.2175 122.911 70.3504C120.576 70.4869 118.24 70.6307 115.861 70.6882C114.676 70.7205 113.475 70.7169 112.254 70.6594C111.036 70.5947 109.785 70.4762 108.513 70.1492C108.197 70.0557 107.877 69.9839 107.561 69.8581L107.087 69.6857C106.929 69.6246 106.774 69.5455 106.62 69.4772C106.307 69.3443 106.005 69.1682 105.707 68.9922C105.56 68.9131 105.405 68.8053 105.251 68.6903C105.092 68.5825 104.945 68.4675 104.809 68.3418C104.244 67.8567 103.784 67.2962 103.418 66.7284C103.217 66.4446 103.069 66.1535 102.901 65.8625C102.76 65.5714 102.595 65.2803 102.477 64.9857C101.456 62.6321 100.964 60.2678 100.533 57.9214C100.109 55.5715 99.8499 53.2287 99.602 50.8895C99.3612 48.5503 99.1672 46.2147 98.9839 43.8791C98.7971 41.5435 98.6605 39.2115 98.5096 36.8759C98.3695 34.5403 98.2186 32.2155 98.0928 29.8727C97.9598 27.5335 97.8592 25.1943 97.7982 22.848C97.7335 20.5016 97.7011 18.1552 97.8341 15.7729L97.9131 14.871C97.9455 14.5692 97.9958 14.2566 98.0425 13.9476L98.1539 13.4625C98.2114 13.29 98.2581 13.1175 98.3479 12.9415C98.4557 12.7366 98.4916 12.6468 98.4737 12.733C98.4629 12.7115 98.4773 12.7187 98.4701 12.672L98.4449 12.4995C98.3551 11.9928 98.197 11.3928 98.0928 10.7927C97.9886 10.1926 97.9239 9.5746 97.9203 8.95298C97.906 7.71331 98.1862 6.41975 98.8474 5.32382C99.4977 4.2207 100.507 3.39067 101.585 2.82294C102.671 2.24802 103.838 1.90666 104.981 1.64436C106.127 1.36049 107.288 1.15568 108.452 0.986798C110.784 0.652629 113.134 0.552018 115.477 0.548425C117.82 0.544831 120.155 0.656218 122.487 0.753236C124.819 0.843066 127.155 0.954458 129.487 1.01914C131.822 1.091 134.154 1.16286 136.49 1.20958C138.833 1.23832 141.172 1.29581 143.504 1.12334Z" fill="#241953"/>
<path d="M135.739 10.6526C134.183 10.7891 132.62 10.7532 131.061 10.7388L126.379 10.6561C124.819 10.6166 123.26 10.6058 121.697 10.5807C120.137 10.5591 118.578 10.5304 117.029 10.613C115.48 10.6813 113.943 10.8969 112.444 11.2598C111.704 11.4502 110.949 11.6587 110.256 11.9317C109.566 12.212 108.926 12.5857 108.445 13.0959C107.96 13.6026 107.662 14.2458 107.539 14.9285C107.421 15.6184 107.471 16.3406 107.618 17.0557C107.69 17.4186 107.795 17.7599 107.892 18.1768C107.917 18.2666 107.938 18.4103 107.96 18.5253C107.967 18.608 107.967 18.7157 107.963 18.8128C107.945 18.9349 107.888 19.1038 107.866 19.1326C107.83 19.208 107.827 19.226 107.816 19.2475C107.805 19.2691 107.798 19.3014 107.791 19.3338L107.766 19.4272L107.748 19.5458C107.651 20.2033 107.669 21.0046 107.676 21.7556C107.773 24.8314 108.071 27.936 108.377 31.0297L109.307 40.3326C109.62 43.4228 109.965 46.5165 110.497 49.5025C110.766 50.9829 111.097 52.4669 111.611 53.7209C111.862 54.3426 112.182 54.8923 112.52 55.2085C112.606 55.2948 112.678 55.3487 112.775 55.4169C112.897 55.4816 113.001 55.5679 113.134 55.6218C113.256 55.6864 113.386 55.7475 113.526 55.7942C113.659 55.8517 113.81 55.8912 113.953 55.9344C115.157 56.2685 116.677 56.2793 118.183 56.2542C119.699 56.2182 121.255 56.1392 122.807 56.0601C125.919 55.8912 129.041 55.7978 132.045 55.4601C133.544 55.284 134.999 55.0217 136.318 54.5294C136.972 54.2779 137.582 53.9581 138.15 53.57L138.567 53.2646C138.678 53.1604 138.8 53.0778 138.901 52.9592C139.12 52.7472 139.311 52.4849 139.49 52.2082C140.195 51.0727 140.619 49.6139 140.924 48.1407C141.229 46.6602 141.42 45.126 141.574 43.5916C142.146 37.4221 142.25 31.1555 142.404 24.9248C142.422 23.3654 142.433 21.8059 142.372 20.2501C142.307 18.6942 142.214 17.1347 141.934 15.604C141.794 14.8387 141.614 14.0805 141.337 13.3511C141.068 12.6252 140.687 11.9246 140.137 11.3712C139.86 11.0981 139.541 10.8717 139.189 10.7029C138.844 10.5232 138.452 10.437 138.064 10.4406C137.291 10.4621 136.515 10.5915 135.739 10.6526ZM135.739 10.6526C136.515 10.5843 137.288 10.4513 138.067 10.437C138.459 10.4298 138.851 10.5196 139.199 10.6957C139.555 10.861 139.878 11.0873 140.159 11.3604C140.712 11.9174 141.111 12.6109 141.395 13.3367C141.686 14.0625 141.883 14.8243 142.038 15.5896C142.34 17.124 142.498 18.6834 142.599 20.2429C142.699 21.8023 142.76 23.3654 142.8 24.9248L143.012 34.2924C143.069 37.4185 143.123 40.5446 143.015 43.6923C142.954 45.2661 142.861 46.8471 142.634 48.4425C142.519 49.2402 142.376 50.0415 142.16 50.8464C141.945 51.6477 141.661 52.4597 141.226 53.243C141 53.6311 140.748 54.0192 140.428 54.3713C140.281 54.5546 140.094 54.7163 139.925 54.8815L139.419 55.2948C138.725 55.823 137.967 56.2721 137.18 56.6207C135.602 57.2998 133.975 57.6771 132.387 57.925C130.795 58.1765 129.217 58.3382 127.651 58.4748C126.084 58.6077 124.528 58.7263 122.969 58.8341C121.409 58.9383 119.846 59.0605 118.247 59.1036C117.446 59.1251 116.63 59.1287 115.793 59.0892C114.956 59.0425 114.083 58.9563 113.174 58.7047C112.947 58.6365 112.721 58.5754 112.491 58.4784C112.265 58.3957 112.038 58.2915 111.815 58.1765C111.589 58.0723 111.381 57.925 111.165 57.7957C110.942 57.6412 110.705 57.4543 110.518 57.2639C109.738 56.4841 109.311 55.6218 108.973 54.8061C108.323 53.1604 108.032 51.5614 107.762 49.9732C107.503 48.3886 107.349 46.8112 107.205 45.2409C107.062 43.6707 106.95 42.1076 106.846 40.5446C106.645 37.4185 106.519 34.2996 106.375 31.177C106.246 28.0473 106.152 24.9177 106.242 21.752C106.289 20.9471 106.303 20.1746 106.487 19.2978L106.526 19.129C106.544 19.0679 106.566 19.0032 106.587 18.9421C106.609 18.881 106.627 18.82 106.663 18.7517C106.695 18.687 106.727 18.6151 106.738 18.6044C106.77 18.5505 106.727 18.6187 106.738 18.6511C106.731 18.6475 106.735 18.6583 106.738 18.6439C106.727 18.5684 106.727 18.5145 106.709 18.4175C106.652 18.0726 106.555 17.6557 106.501 17.2497C106.386 16.4305 106.372 15.5681 106.573 14.7237C106.774 13.8829 107.216 13.078 107.845 12.4887C108.474 11.8922 109.235 11.5077 110.004 11.2418C110.389 11.1089 110.777 11.0047 111.161 10.9149C111.546 10.8142 111.934 10.7388 112.322 10.6597C113.878 10.3651 115.455 10.2465 117.022 10.2178C123.281 10.2537 129.498 10.94 135.739 10.6526Z" fill="#241953"/>
<path d="M136.562 33.1893C136.565 36.2758 135.362 39.3552 133.199 41.6082C131.061 43.8791 127.988 45.302 124.78 45.417C123.181 45.4745 121.553 45.223 120.033 44.6517C118.513 44.0767 117.094 43.2 115.904 42.0645C114.722 40.9255 113.752 39.5493 113.098 38.0293C112.444 36.5058 112.106 34.8457 112.103 33.1893C112.11 31.5328 112.441 29.8691 113.098 28.3492C113.748 26.8257 114.722 25.4531 115.904 24.3104C117.09 23.1714 118.513 22.2982 120.033 21.7233C121.557 21.1484 123.184 20.9004 124.783 20.9579C127.992 21.0729 131.064 22.4994 133.202 24.7703C135.362 27.0233 136.565 30.1027 136.562 33.1893ZM136.562 33.1893C136.555 31.6478 136.246 30.1063 135.635 28.6941C135.028 27.282 134.122 26.0064 133.023 24.95C131.916 23.8972 130.594 23.0887 129.185 22.5569C127.773 22.0323 126.264 21.8023 124.78 21.8598C121.804 21.9784 118.973 23.3043 116.997 25.4063C115.003 27.4976 113.892 30.3362 113.896 33.1893C113.896 36.0423 114.995 38.8845 116.993 40.9758C118.969 43.0814 121.801 44.4073 124.78 44.5259C126.264 44.5834 127.773 44.3534 129.185 43.8288C130.594 43.297 131.916 42.4921 133.023 41.4357C134.122 40.3793 135.028 39.1037 135.635 37.688C136.246 36.2722 136.555 34.7308 136.562 33.1893Z" fill="#241953"/>
<path d="M119.897 34.508C120.865 34.508 121.65 33.7229 121.65 32.7545C121.65 31.786 120.865 31.001 119.897 31.001C118.928 31.001 118.143 31.786 118.143 32.7545C118.143 33.7229 118.928 34.508 119.897 34.508Z" fill="#241953"/>
<path fill-rule="evenodd" clip-rule="evenodd" d="M119.896 31.1806C119.027 31.1806 118.323 31.8852 118.323 32.7544C118.323 33.6236 119.027 34.3283 119.896 34.3283C120.766 34.3283 121.47 33.6236 121.47 32.7544C121.47 31.8852 120.766 31.1806 119.896 31.1806ZM117.963 32.7544C117.963 31.6868 118.829 30.8213 119.896 30.8213C120.964 30.8213 121.83 31.6868 121.83 32.7544C121.83 33.8221 120.964 34.6876 119.896 34.6876C118.829 34.6876 117.963 33.8221 117.963 32.7544Z" fill="#241953"/>
<path d="M128.412 34.508C129.381 34.508 130.166 33.7229 130.166 32.7545C130.166 31.786 129.381 31.001 128.412 31.001C127.444 31.001 126.659 31.786 126.659 32.7545C126.659 33.7229 127.444 34.508 128.412 34.508Z" fill="#241953"/>
<path fill-rule="evenodd" clip-rule="evenodd" d="M128.412 31.1806C127.543 31.1806 126.839 31.8852 126.839 32.7544C126.839 33.6236 127.543 34.3283 128.412 34.3283C129.282 34.3283 129.986 33.6236 129.986 32.7544C129.986 31.8852 129.282 31.1806 128.412 31.1806ZM126.479 32.7544C126.479 31.6868 127.345 30.8213 128.412 30.8213C129.48 30.8213 130.346 31.6868 130.346 32.7544C130.346 33.8221 129.48 34.6876 128.412 34.6876C127.345 34.6876 126.479 33.8221 126.479 32.7544Z" fill="#241953"/>
</svg>
