<svg width="312" height="300" viewBox="0 0 312 300" fill="none" xmlns="http://www.w3.org/2000/svg">
<path d="M83.998 262.55V230.3C83.998 228.9 84.048 227.5 84.1479 226.1C84.3479 224.7 84.548 223.2 84.748 221.6L54.5979 262.55H83.998ZM110.248 262.55V271.55C110.248 273.65 109.198 274.7 107.098 274.7H98.248V298.25H83.998V274.7H43.7979C42.5979 274.7 41.5979 274.4 40.7979 273.8C40.0979 273.1 39.6479 272.3 39.4479 271.4L37.6479 263.45L82.798 203H98.248V262.55H110.248Z" fill="#CACCDB" fill-opacity="0.3"/>
<path d="M190.7 250.7C190.7 259 189.8 266.2 188 272.3C186.2 278.4 183.7 283.45 180.5 287.45C177.4 291.45 173.7 294.4 169.4 296.3C165.1 298.3 160.45 299.3 155.45 299.3C150.45 299.3 145.85 298.3 141.65 296.3C137.45 294.4 133.8 291.45 130.7 287.45C127.6 283.45 125.15 278.4 123.35 272.3C121.65 266.2 120.8 259 120.8 250.7C120.8 242.3 121.65 235.05 123.35 228.95C125.15 222.85 127.6 217.8 130.7 213.8C133.8 209.8 137.45 206.85 141.65 204.95C145.85 202.95 150.45 201.95 155.45 201.95C160.45 201.95 165.1 202.95 169.4 204.95C173.7 206.85 177.4 209.8 180.5 213.8C183.7 217.8 186.2 222.85 188 228.95C189.8 235.05 190.7 242.3 190.7 250.7ZM173.9 250.7C173.9 243.7 173.4 237.9 172.4 233.3C171.4 228.7 170 225.05 168.2 222.35C166.5 219.55 164.55 217.6 162.35 216.5C160.15 215.4 157.85 214.85 155.45 214.85C153.15 214.85 150.9 215.4 148.7 216.5C146.5 217.6 144.55 219.55 142.85 222.35C141.15 225.05 139.8 228.7 138.8 233.3C137.8 237.9 137.3 243.7 137.3 250.7C137.3 257.6 137.8 263.35 138.8 267.95C139.8 272.55 141.15 276.2 142.85 278.9C144.55 281.6 146.5 283.5 148.7 284.6C150.9 285.7 153.15 286.25 155.45 286.25C157.85 286.25 160.15 285.7 162.35 284.6C164.55 283.5 166.5 281.6 168.2 278.9C170 276.2 171.4 272.55 172.4 267.95C173.4 263.35 173.9 257.6 173.9 250.7Z" fill="#CACCDB" fill-opacity="0.3"/>
<path d="M244.398 262.55V230.3C244.398 228.9 244.448 227.5 244.548 226.1C244.748 224.7 244.948 223.2 245.148 221.6L214.998 262.55H244.398ZM270.648 262.55V271.55C270.648 273.65 269.598 274.7 267.498 274.7H258.648V298.25H244.398V274.7H204.198C202.998 274.7 201.998 274.4 201.198 273.8C200.498 273.1 200.048 272.3 199.848 271.4L198.048 263.45L243.198 203H258.648V262.55H270.648Z" fill="#CACCDB" fill-opacity="0.3"/>
<path d="M187.686 197.296H120.65C119.119 197.3 117.607 196.955 116.229 196.288C114.851 195.62 113.644 194.647 112.699 193.442C111.737 192.227 111.065 190.808 110.735 189.294C110.404 187.779 110.423 186.21 110.791 184.704C116.954 158.89 116.953 131.988 110.79 106.174C110.423 104.669 110.404 103.099 110.735 101.585C111.065 100.071 111.737 98.6521 112.699 97.4367C113.644 96.232 114.851 95.2587 116.229 94.5909C117.607 93.9231 119.119 93.5784 120.65 93.5831H187.686C190.101 93.5903 192.435 94.4544 194.272 96.0215C196.109 97.5886 197.33 99.757 197.718 102.14C202.137 130.837 202.137 160.041 197.718 188.738C197.33 191.122 196.109 193.29 194.272 194.857C192.435 196.424 190.101 197.288 187.686 197.296Z" fill="#F3F3F3"/>
<path d="M154.515 164.848C165.194 164.848 173.85 156.192 173.85 145.513C173.85 134.834 165.194 126.178 154.515 126.178C143.836 126.178 135.18 134.834 135.18 145.513C135.18 156.192 143.836 164.848 154.515 164.848Z" fill="white"/>
<path d="M161.661 139.558L160.47 141.94L158.882 143.032" stroke="#CACCDB" stroke-width="2" stroke-linecap="round" stroke-linejoin="round"/>
<path d="M146.179 145.512H149.883" stroke="#CACCDB" stroke-width="2" stroke-linecap="round" stroke-linejoin="round"/>
<path d="M159.148 145.512H162.852" stroke="#CACCDB" stroke-width="2" stroke-linecap="round" stroke-linejoin="round"/>
<path d="M147.369 139.558L148.56 141.94L150.148 143.032" stroke="#CACCDB" stroke-width="2" stroke-linecap="round" stroke-linejoin="round"/>
<path fill-rule="evenodd" clip-rule="evenodd" d="M155.044 151.468H153.985C152.012 151.468 150.412 149.869 150.412 147.895V144.322C150.412 143.006 151.478 141.94 152.794 141.94H156.235C157.551 141.94 158.617 143.006 158.617 144.322V147.895C158.617 149.869 157.017 151.468 155.044 151.468Z" stroke="#CACCDB" stroke-width="2" stroke-linecap="round" stroke-linejoin="round"/>
<path d="M147.369 151.468L148.56 149.086L150.148 147.994" stroke="#CACCDB" stroke-width="2" stroke-linecap="round" stroke-linejoin="round"/>
<path d="M161.661 151.468L160.47 149.086L158.882 147.994" stroke="#CACCDB" stroke-width="2" stroke-linecap="round" stroke-linejoin="round"/>
<path fill-rule="evenodd" clip-rule="evenodd" d="M156.897 141.94H152.133V139.558C152.133 138.901 152.666 138.367 153.324 138.367H155.706C156.363 138.367 156.897 138.901 156.897 139.558V141.94Z" stroke="#CACCDB" stroke-width="2" stroke-linecap="round" stroke-linejoin="round"/>
<path d="M172.118 107.687H105.082C103.614 107.692 102.165 107.361 100.844 106.721C99.5237 106.081 98.3664 105.148 97.4606 103.994C96.5383 102.828 95.8941 101.468 95.577 100.016C95.2599 98.5634 95.2784 97.0581 95.6309 95.6142C101.809 69.7358 101.809 42.7665 95.6305 16.8882C95.2782 15.4443 95.26 13.9391 95.5771 12.4871C95.8942 11.0351 96.5383 9.67456 97.4604 8.509C98.3662 7.35426 99.5235 6.42138 100.844 5.78134C102.165 5.1413 103.614 4.81096 105.082 4.81548H172.118C174.432 4.82213 176.669 5.65013 178.43 7.15199C180.192 8.65386 181.362 10.7321 181.734 13.0165C186.146 41.6709 186.146 70.8318 181.734 99.4862C181.362 101.771 180.192 103.849 178.43 105.351C176.669 106.853 174.432 107.681 172.118 107.687Z" fill="#F3F3F3"/>
<path d="M105.082 9.8594C104.377 9.85703 103.681 10.0154 103.047 10.3226C102.412 10.6297 101.856 11.0775 101.421 11.6319C100.973 12.1998 100.66 12.8626 100.507 13.5696C100.353 14.2766 100.363 15.0094 100.535 15.7121C106.899 42.3636 106.899 70.1389 100.536 96.7905C100.363 97.493 100.353 98.2256 100.507 98.9325C100.66 99.6395 100.973 100.302 101.421 100.87L101.421 100.87C101.856 101.425 102.412 101.873 103.047 102.18C103.681 102.487 104.377 102.646 105.082 102.643H172.118C173.229 102.644 174.305 102.249 175.153 101.531C176.001 100.812 176.567 99.8162 176.749 98.7198C181.082 70.5733 181.082 41.9293 176.749 13.7828C176.567 12.6863 176.001 11.6901 175.153 10.9717C174.305 10.2532 173.229 9.85901 172.118 9.85939L105.082 9.8594Z" fill="white"/>
<path d="M157.489 34.1134H122.311C120.974 34.1119 119.692 33.58 118.746 32.6345C117.801 31.6889 117.269 30.4068 117.268 29.0696V27.0985C117.269 25.7612 117.801 24.4792 118.746 23.5336C119.692 22.588 120.974 22.0561 122.311 22.0547H157.489C158.826 22.0561 160.108 22.588 161.054 23.5336C162 24.4792 162.531 25.7612 162.533 27.0985V29.0696C162.531 30.4068 162 31.6889 161.054 32.6345C160.108 33.5801 158.826 34.1119 157.489 34.1134Z" fill="#CACCDB"/>
<path d="M157.489 59.0186H122.311C120.974 59.0172 119.692 58.4853 118.746 57.5397C117.801 56.5941 117.269 55.3121 117.268 53.9748V52.0038C117.269 50.6665 117.801 49.3844 118.746 48.4389C119.692 47.4933 120.974 46.9614 122.311 46.96H157.489C158.826 46.9614 160.108 47.4933 161.054 48.4389C162 49.3844 162.531 50.6665 162.533 52.0038V53.9748C162.531 55.3121 162 56.5941 161.054 57.5397C160.108 58.4853 158.826 59.0172 157.489 59.0186Z" fill="#CACCDB"/>
<path d="M157.489 83.9239H122.311C120.974 83.9224 119.692 83.3906 118.746 82.445C117.801 81.4994 117.269 80.2173 117.268 78.8801V76.909C117.269 75.5718 117.801 74.2897 118.746 73.3441C119.692 72.3985 120.974 71.8667 122.311 71.8652H157.489C158.826 71.8667 160.108 72.3985 161.054 73.3441C162 74.2897 162.531 75.5718 162.533 76.909V78.8801C162.531 80.2173 162 81.4994 161.054 82.445C160.108 83.3906 158.826 83.9224 157.489 83.9239Z" fill="#CACCDB"/>
<path d="M155.601 14.2914H120.293C119.29 14.2902 118.328 13.8913 117.619 13.1821C116.91 12.4729 116.511 11.5113 116.51 10.5083V3.783C116.511 2.78004 116.91 1.81847 117.619 1.10926C118.328 0.400058 119.29 0.00113033 120.293 0H155.601C156.604 0.00113033 157.565 0.400058 158.275 1.10926C158.984 1.81847 159.383 2.78004 159.384 3.783V10.5083C159.383 11.5113 158.984 12.4729 158.275 13.1821C157.565 13.8913 156.604 14.2902 155.601 14.2914Z" fill="#F3F3F3"/>
<path d="M298.218 184.578H231.182C229.714 184.582 228.265 184.252 226.944 183.612C225.624 182.972 224.467 182.039 223.561 180.884C222.638 179.719 221.994 178.358 221.677 176.906C221.36 175.454 221.378 173.949 221.731 172.505C227.909 146.626 227.909 119.657 221.731 93.7788C221.378 92.3349 221.36 90.8297 221.677 89.3777C221.994 87.9257 222.638 86.5652 223.561 85.3996C224.466 84.2449 225.624 83.312 226.944 82.672C228.265 82.0319 229.714 81.7016 231.182 81.7061H298.218C300.533 81.7128 302.769 82.5408 304.531 84.0426C306.292 85.5445 307.462 87.6227 307.834 89.9071C312.246 118.562 312.246 147.722 307.834 176.377C307.462 178.661 306.292 180.74 304.531 182.241C302.769 183.743 300.533 184.571 298.218 184.578Z" fill="#F3F3F3"/>
<path d="M231.182 86.75C230.478 86.7477 229.782 86.9061 229.147 87.2132C228.513 87.5203 227.957 87.9681 227.522 88.5225C227.074 89.0905 226.761 89.7532 226.607 90.4602C226.454 91.1673 226.464 91.9 226.636 92.6027C232.999 119.254 232.999 147.029 226.636 173.681C226.464 174.384 226.454 175.116 226.607 175.823C226.761 176.53 227.073 177.193 227.522 177.761L227.522 177.761C227.957 178.315 228.513 178.763 229.147 179.071C229.782 179.378 230.478 179.536 231.182 179.534H298.218C299.33 179.534 300.406 179.14 301.254 178.422C302.102 177.703 302.667 176.707 302.85 175.61C307.183 147.464 307.183 118.82 302.85 90.6734C302.667 89.5769 302.102 88.5808 301.254 87.8623C300.406 87.1438 299.33 86.7496 298.218 86.75L231.182 86.75Z" fill="white"/>
<path d="M283.59 123.613H248.412C247.075 123.612 245.793 123.08 244.847 122.134C243.901 121.189 243.37 119.907 243.368 118.57V116.598C243.37 115.261 243.901 113.979 244.847 113.034C245.793 112.088 247.075 111.556 248.412 111.555H283.59C284.927 111.556 286.209 112.088 287.155 113.034C288.1 113.979 288.632 115.261 288.634 116.598V118.57C288.632 119.907 288.1 121.189 287.155 122.134C286.209 123.08 284.927 123.612 283.59 123.613Z" fill="#CACCDB"/>
<path d="M283.59 148.52H248.412C247.075 148.518 245.793 147.986 244.847 147.041C243.901 146.095 243.37 144.813 243.368 143.476V141.505C243.37 140.167 243.901 138.885 244.847 137.94C245.793 136.994 247.075 136.462 248.412 136.461H283.59C284.927 136.462 286.209 136.994 287.155 137.94C288.1 138.885 288.632 140.167 288.634 141.505V143.476C288.632 144.813 288.1 146.095 287.155 147.041C286.209 147.986 284.927 148.518 283.59 148.52Z" fill="#CACCDB"/>
<path d="M283.382 92.0228H248.074C247.071 92.0217 246.109 91.6227 245.4 90.9135C244.691 90.2043 244.292 89.2428 244.291 88.2398V81.5145C244.292 80.5115 244.691 79.5499 245.4 78.8407C246.109 78.1315 247.071 77.7326 248.074 77.7314H283.382C284.385 77.7326 285.347 78.1315 286.056 78.8407C286.765 79.5499 287.164 80.5115 287.165 81.5145V88.2398C287.164 89.2428 286.765 90.2043 286.056 90.9135C285.347 91.6227 284.385 92.0217 283.382 92.0228Z" fill="#F3F3F3"/>
<path d="M68.3949 252.263L6.48956 226.542C5.1326 225.983 3.92103 225.122 2.94702 224.024C1.97301 222.927 1.26223 221.621 0.868774 220.207C0.464263 218.777 0.391418 217.273 0.65576 215.811C0.920101 214.348 1.51466 212.965 2.3942 211.767C18.0288 190.24 28.3764 165.335 32.5997 139.066C32.8284 137.598 33.3891 136.201 34.239 134.982C35.089 133.762 36.2058 132.753 37.5045 132.03C38.7841 131.312 40.2108 130.894 41.676 130.81C43.1412 130.726 44.6063 130.977 45.9598 131.544L107.865 157.265C110 158.159 111.748 159.782 112.798 161.844C113.848 163.907 114.132 166.275 113.599 168.528C106.679 196.682 95.4904 223.611 80.422 248.379C79.202 250.346 77.3234 251.816 75.1209 252.527C72.9184 253.239 70.5349 253.145 68.3949 252.263Z" fill="#F3F3F3"/>
<path d="M44.0246 136.202C43.3747 135.929 42.6712 135.808 41.9675 135.848C41.2639 135.889 40.5787 136.089 39.964 136.434C39.3323 136.786 38.7892 137.278 38.3761 137.872C37.9631 138.466 37.691 139.147 37.5805 139.862C33.231 166.915 22.5742 192.565 6.47239 214.735C6.04359 215.318 5.75337 215.99 5.62379 216.702C5.49422 217.414 5.5287 218.146 5.72464 218.842L5.72487 218.842C5.91393 219.521 6.25542 220.148 6.72332 220.675C7.19122 221.202 7.7732 221.616 8.42497 221.884L70.3304 247.605C71.3567 248.032 72.5012 248.08 73.56 247.742C74.6189 247.404 75.5233 246.701 76.1123 245.758C90.9135 221.429 101.904 194.977 108.701 167.322C108.954 166.24 108.814 165.103 108.306 164.114C107.799 163.125 106.957 162.348 105.93 161.922L44.0246 136.202Z" fill="white"/>
<path d="M76.9869 193.457L44.5014 179.96C43.267 179.445 42.2872 178.462 41.7768 177.226C41.2664 175.99 41.2671 174.602 41.7789 173.367L42.5351 171.546C43.0496 170.312 44.0326 169.332 45.2686 168.822C46.5046 168.311 47.8927 168.312 49.1281 168.824L81.6136 182.321C82.8479 182.835 83.8278 183.818 84.3382 185.054C84.8486 186.29 84.8478 187.678 84.3361 188.914L83.5798 190.734C83.0654 191.968 82.0823 192.948 80.8463 193.459C79.6103 193.969 78.2223 193.968 76.9869 193.457Z" fill="#CACCDB"/>
<path d="M67.4307 216.457L34.9452 202.96C33.7109 202.445 32.731 201.462 32.2206 200.226C31.7102 198.99 31.711 197.602 32.2227 196.367L32.979 194.546C33.4934 193.312 34.4765 192.332 35.7125 191.822C36.9485 191.311 38.3365 191.312 39.572 191.824L72.0575 205.321C73.2918 205.835 74.2716 206.818 74.782 208.054C75.2924 209.29 75.2917 210.678 74.78 211.914L74.0237 213.734C73.5093 214.969 72.5262 215.948 71.2902 216.459C70.0542 216.969 68.6662 216.968 67.4307 216.457Z" fill="#CACCDB"/>
<path d="M90.0034 161.134C89.5171 161.133 89.0355 161.039 88.585 160.856L55.8511 147.622C54.9217 147.245 54.1798 146.514 53.7881 145.591C53.3964 144.668 53.3869 143.627 53.7617 142.697L56.2827 136.461C56.6589 135.531 57.389 134.789 58.3127 134.397C59.2363 134.005 60.2777 133.996 61.2079 134.372L93.9418 147.607C94.8711 147.984 95.6131 148.714 96.0047 149.637C96.3964 150.561 96.4059 151.602 96.0311 152.532L93.5101 158.767C93.2269 159.465 92.7421 160.063 92.1175 160.485C91.4929 160.906 90.7569 161.132 90.0034 161.134Z" fill="#F3F3F3"/>
</svg>
