<svg width="58" height="58" viewBox="0 0 58 58" fill="none" xmlns="http://www.w3.org/2000/svg">
<rect width="58" height="58" rx="16" fill="#EAEAEA"/>
<path d="M22.8174 30.5677H33.1507" stroke="#A7A3BE" stroke-width="1.3" stroke-linecap="round" stroke-linejoin="round"/>
<path d="M22.8174 35.7318H33.1507" stroke="#A7A3BE" stroke-width="1.3" stroke-linecap="round" stroke-linejoin="round"/>
<path fill-rule="evenodd" clip-rule="evenodd" d="M20.2337 17.6484H32.0809C32.7655 17.6484 33.4229 17.921 33.9073 18.4054L37.5601 22.0582C38.0445 22.5426 38.3171 23.2 38.3171 23.8846V38.3151C38.3171 39.7424 37.161 40.8984 35.7337 40.8984H20.2337C18.8064 40.8984 17.6504 39.7424 17.6504 38.3151V20.2318C17.6504 18.8045 18.8064 17.6484 20.2337 17.6484Z" stroke="#A7A3BE" stroke-width="1.3" stroke-linecap="round" stroke-linejoin="round"/>
<path d="M38.3167 24.1068H33.1501C32.4371 24.1068 31.8584 23.5281 31.8584 22.8151V17.6484" stroke="#A7A3BE" stroke-width="1.3" stroke-linecap="round" stroke-linejoin="round"/>
<path d="M22.8174 25.4017H26.6924" stroke="#A7A3BE" stroke-width="1.3" stroke-linecap="round" stroke-linejoin="round"/>
</svg>
