<svg width="300" height="76" viewBox="0 0 300 76" fill="none" xmlns="http://www.w3.org/2000/svg">
<path d="M0.163319 0.311689C8.68295 0.0604917 17.2385 0.0604917 25.7582 0.311689C26.1536 4.97641 25.6503 9.677 25.9738 14.3776C30.7549 14.6647 35.5718 14.7005 40.3529 14.3418C40.6766 9.677 40.1373 4.97641 40.5686 0.311689C50.023 0.0604917 59.4771 0.0963912 68.9315 0.27579C69.3268 6.2323 68.9675 12.2247 69.0751 18.217C69.0392 21.6976 69.2191 25.1782 68.9315 28.6589C64.2583 29.0893 59.5851 28.5872 54.9119 28.8382C54.5882 32.2831 54.6602 35.7634 54.8399 39.2441C61.8138 39.639 68.7518 39.1724 75.7257 39.4952C75.9054 51.5878 75.9054 63.6801 75.7257 75.8086C66.7747 76.1314 57.8237 75.8444 48.9086 75.952C45.7812 75.952 42.6537 76.0955 39.5262 75.7724C39.2386 64.972 39.7419 54.1353 39.3106 43.3349C34.853 43.1194 30.3955 43.1194 25.9738 43.3349C25.6503 54.1353 26.1895 64.972 25.7582 75.8086C17.2385 76.0238 8.71889 76.0596 0.199267 75.8086C0.12737 74.7678 0.0554743 73.7273 0.0195262 72.6507C0.0554743 51.9465 0.0195262 31.2782 0.0554743 10.5741C0.0554743 7.12936 -0.124263 3.72052 0.163319 0.311689Z" fill="#18E884"/>
<path d="M101.933 42.5446H96.7221V16.7469H101.933V29.6457L111.628 16.7469H117.547L109.322 27.6308L117.547 42.5446H111.628L105.909 32.1103L101.933 37.3812V42.5446ZM137.028 42.5446H135.83L133.905 39.9C133.433 40.3198 132.931 40.7156 132.398 41.0871C131.878 41.4472 131.327 41.7648 130.746 42.0406C130.165 42.3046 129.566 42.5146 128.949 42.6704C128.344 42.8262 127.726 42.9043 127.097 42.9043C125.729 42.9043 124.44 42.6764 123.23 42.2206C122.031 41.7648 120.978 41.1053 120.07 40.2419C119.175 39.3663 118.467 38.2989 117.946 37.0396C117.426 35.7801 117.166 34.3469 117.166 32.74C117.166 31.2408 117.426 29.8675 117.946 28.6203C118.467 27.3609 119.175 26.2815 120.07 25.3821C120.978 24.4826 122.031 23.787 123.23 23.2952C124.44 22.7915 125.729 22.5397 127.097 22.5397C127.726 22.5397 128.349 22.6176 128.967 22.7735C129.584 22.9294 130.183 23.1453 130.764 23.4212C131.345 23.697 131.896 24.0208 132.416 24.3926C132.949 24.7644 133.445 25.1662 133.905 25.5979L135.83 23.3132H137.028V42.5446ZM132.035 32.74C132.035 32.0684 131.902 31.4208 131.636 30.797C131.381 30.1614 131.031 29.6037 130.582 29.124C130.135 28.6322 129.608 28.2425 129.003 27.9546C128.41 27.6548 127.775 27.5049 127.097 27.5049C126.419 27.5049 125.777 27.6188 125.172 27.8467C124.579 28.0746 124.059 28.4104 123.611 28.8541C123.175 29.2979 122.83 29.8496 122.576 30.5092C122.322 31.1568 122.195 31.9005 122.195 32.74C122.195 33.5795 122.322 34.329 122.576 34.9888C122.83 35.6364 123.175 36.182 123.611 36.6257C124.059 37.0694 124.579 37.4054 125.172 37.6331C125.777 37.861 126.419 37.9749 127.097 37.9749C127.775 37.9749 128.41 37.831 129.003 37.5433C129.608 37.2433 130.135 36.8536 130.582 36.3738C131.031 35.8822 131.381 35.3246 131.636 34.7009C131.902 34.0651 132.035 33.4116 132.035 32.74ZM145.779 42.5446H140.822V23.2772H142.021L143.655 25.562C144.454 24.8424 145.361 24.2907 146.378 23.9069C147.395 23.5111 148.448 23.3132 149.537 23.3132H153.913V28.2065H149.537C149.017 28.2065 148.526 28.3024 148.067 28.4943C147.607 28.6862 147.207 28.9501 146.868 29.2859C146.529 29.6217 146.263 30.0175 146.069 30.4732C145.876 30.9289 145.779 31.4147 145.779 31.9303V42.5446ZM174.647 32.74C174.647 34.179 174.386 35.5225 173.866 36.7696C173.346 38.0049 172.637 39.0784 171.742 39.9897C170.846 40.8892 169.793 41.603 168.583 42.1306C167.384 42.6464 166.095 42.9043 164.715 42.9043C163.348 42.9043 162.059 42.6464 160.848 42.1306C159.65 41.603 158.597 40.8892 157.689 39.9897C156.794 39.0784 156.085 38.0049 155.565 36.7696C155.044 35.5225 154.784 34.179 154.784 32.74C154.784 31.2768 155.044 29.9215 155.565 28.6742C156.085 27.4269 156.794 26.3535 157.689 25.454C158.597 24.5425 159.65 23.8289 160.848 23.3132C162.059 22.7975 163.348 22.5397 164.715 22.5397C166.095 22.5397 167.384 22.7855 168.583 23.2772C169.793 23.757 170.846 24.4466 171.742 25.3461C172.637 26.2336 173.346 27.307 173.866 28.5663C174.386 29.8136 174.647 31.2047 174.647 32.74ZM169.654 32.74C169.654 31.9484 169.521 31.2347 169.254 30.5991C169 29.9515 168.649 29.3998 168.201 28.9441C167.753 28.4763 167.227 28.1225 166.622 27.8827C166.029 27.6308 165.393 27.5049 164.715 27.5049C164.038 27.5049 163.396 27.6308 162.791 27.8827C162.198 28.1225 161.677 28.4763 161.229 28.9441C160.794 29.3998 160.449 29.9515 160.195 30.5991C159.941 31.2347 159.813 31.9484 159.813 32.74C159.813 33.4835 159.941 34.1732 160.195 34.8088C160.449 35.4443 160.794 35.9962 161.229 36.4638C161.677 36.9315 162.198 37.3033 162.791 37.5791C163.396 37.8431 164.038 37.9749 164.715 37.9749C165.393 37.9749 166.029 37.8491 166.622 37.5973C167.227 37.3454 167.753 36.9915 168.201 36.5357C168.649 36.0801 169 35.5283 169.254 34.8806C169.521 34.233 169.654 33.5195 169.654 32.74ZM186.811 24.4826C186.811 23.4152 187.017 22.4137 187.428 21.4782C187.84 20.5428 188.397 19.7272 189.099 19.0316C189.813 18.324 190.642 17.7663 191.586 17.3586C192.53 16.9508 193.541 16.7469 194.618 16.7469H206.564V21.91H194.618C194.255 21.91 193.916 21.976 193.601 22.1079C193.286 22.2398 193.008 22.4257 192.766 22.6656C192.536 22.8935 192.355 23.1633 192.221 23.4751C192.088 23.787 192.022 24.1228 192.022 24.4826C192.022 24.8424 192.088 25.1842 192.221 25.508C192.355 25.8198 192.536 26.0957 192.766 26.3355C193.008 26.5634 193.286 26.7433 193.601 26.8752C193.916 27.0071 194.255 27.0731 194.618 27.0731H199.829C200.906 27.0731 201.916 27.277 202.861 27.6848C203.817 28.0806 204.646 28.6322 205.348 29.3398C206.062 30.0355 206.619 30.857 207.018 31.8045C207.43 32.74 207.636 33.7414 207.636 34.8088C207.636 35.8762 207.43 36.8775 207.018 37.8131C206.619 38.7487 206.062 39.57 205.348 40.2776C204.646 40.9732 203.817 41.5251 202.861 41.9327C201.916 42.3406 200.906 42.5446 199.829 42.5446H188.263V37.3812H199.829C200.192 37.3812 200.53 37.3154 200.845 37.1833C201.16 37.0515 201.432 36.8717 201.662 36.6438C201.904 36.4038 202.092 36.128 202.225 35.8162C202.358 35.5043 202.425 35.1685 202.425 34.8088C202.425 34.449 202.358 34.1132 202.225 33.8014C202.092 33.4895 201.904 33.2198 201.662 32.9919C201.432 32.7519 201.16 32.5661 200.845 32.4342C200.53 32.3021 200.192 32.2363 199.829 32.2363H194.618C193.541 32.2363 192.53 32.0324 191.586 31.6245C190.642 31.2168 189.813 30.6651 189.099 29.9695C188.397 29.2619 187.84 28.4404 187.428 27.5049C187.017 26.5574 186.811 25.55 186.811 24.4826ZM227.534 27.1091L223.903 30.7251C223.721 30.2213 223.473 29.7716 223.159 29.3758C222.844 28.9681 222.487 28.6262 222.088 28.3504C221.7 28.0746 221.276 27.8647 220.817 27.7208C220.357 27.5768 219.884 27.5049 219.401 27.5049C218.723 27.5049 218.081 27.6428 217.476 27.9186C216.883 28.1945 216.362 28.5843 215.915 29.088C215.479 29.5797 215.134 30.1674 214.88 30.851C214.625 31.5347 214.499 32.2903 214.499 33.1177C214.499 33.7893 214.625 34.419 214.88 35.0067C215.134 35.5943 215.479 36.1101 215.915 36.5538C216.362 36.9975 216.883 37.3454 217.476 37.5973C218.081 37.8491 218.723 37.9749 219.401 37.9749C219.884 37.9749 220.351 37.9091 220.798 37.777C221.246 37.6452 221.664 37.4594 222.051 37.2194C222.451 36.9675 222.802 36.6678 223.104 36.3199C223.419 35.9601 223.673 35.5643 223.867 35.1325L227.498 38.7486C227.038 39.3963 226.505 39.9779 225.9 40.4937C225.307 41.0092 224.66 41.4472 223.958 41.8069C223.268 42.1667 222.535 42.4364 221.761 42.6164C220.998 42.8083 220.211 42.9043 219.401 42.9043C218.033 42.9043 216.744 42.6525 215.533 42.1488C214.335 41.633 213.282 40.9314 212.374 40.044C211.478 39.1563 210.77 38.1189 210.25 36.9315C209.73 35.7443 209.469 34.473 209.469 33.1177C209.469 31.6426 209.73 30.2633 210.25 28.98C210.77 27.6967 211.478 26.5814 212.374 25.6339C213.282 24.6745 214.335 23.9189 215.533 23.3672C216.744 22.8155 218.033 22.5397 219.401 22.5397C220.211 22.5397 221.004 22.6416 221.779 22.8455C222.566 23.0494 223.31 23.3492 224.012 23.745C224.726 24.1288 225.38 24.6025 225.973 25.1662C226.578 25.7299 227.098 26.3775 227.534 27.1091ZM234.924 42.5446H229.967V15.6135H234.924V24.1228C235.517 23.679 236.128 23.3672 236.757 23.1873C237.387 22.9954 238.028 22.8995 238.682 22.8995C239.88 22.8995 241.006 23.1273 242.059 23.5831C243.112 24.0268 244.026 24.6445 244.8 25.436C245.587 26.2156 246.204 27.1331 246.652 28.1885C247.112 29.2319 247.342 30.3473 247.342 31.5347V42.5446H242.349V31.5347H242.386C242.386 31.0309 242.289 30.5572 242.095 30.1134C241.902 29.6577 241.635 29.2619 241.296 28.9261C240.957 28.5903 240.564 28.3264 240.116 28.1345C239.668 27.9426 239.19 27.8467 238.682 27.8467C238.161 27.8467 237.671 27.9426 237.211 28.1345C236.751 28.3264 236.352 28.5903 236.013 28.9261C235.674 29.2619 235.408 29.6577 235.214 30.1134C235.02 30.5572 234.924 31.0309 234.924 31.5347V42.5446ZM269.674 32.74C269.674 34.179 269.413 35.5225 268.893 36.7696C268.373 38.0049 267.665 39.0784 266.769 39.9897C265.873 40.8892 264.82 41.603 263.61 42.1306C262.411 42.6464 261.122 42.9043 259.742 42.9043C258.375 42.9043 257.086 42.6464 255.875 42.1306C254.677 41.603 253.624 40.8892 252.716 39.9897C251.821 39.0784 251.113 38.0049 250.592 36.7696C250.071 35.5225 249.811 34.179 249.811 32.74C249.811 31.2768 250.071 29.9215 250.592 28.6742C251.113 27.4269 251.821 26.3535 252.716 25.454C253.624 24.5425 254.677 23.8289 255.875 23.3132C257.086 22.7975 258.375 22.5397 259.742 22.5397C261.122 22.5397 262.411 22.7855 263.61 23.2772C264.82 23.757 265.873 24.4466 266.769 25.3461C267.665 26.2336 268.373 27.307 268.893 28.5663C269.413 29.8136 269.674 31.2047 269.674 32.74ZM264.681 32.74C264.681 31.9484 264.548 31.2347 264.281 30.5991C264.027 29.9515 263.676 29.3998 263.228 28.9441C262.781 28.4763 262.254 28.1225 261.649 27.8827C261.056 27.6308 260.42 27.5049 259.742 27.5049C259.065 27.5049 258.423 27.6308 257.818 27.8827C257.225 28.1225 256.704 28.4763 256.257 28.9441C255.821 29.3998 255.476 29.9515 255.222 30.5991C254.968 31.2347 254.84 31.9484 254.84 32.74C254.84 33.4835 254.968 34.1732 255.222 34.8088C255.476 35.4443 255.821 35.9962 256.257 36.4638C256.704 36.9315 257.225 37.3033 257.818 37.5791C258.423 37.8431 259.065 37.9749 259.742 37.9749C260.42 37.9749 261.056 37.8491 261.649 37.5973C262.254 37.3454 262.781 36.9915 263.228 36.5357C263.676 36.0801 264.027 35.5283 264.281 34.8806C264.548 34.233 264.681 33.5195 264.681 32.74ZM291.206 32.74C291.206 34.179 290.946 35.5225 290.425 36.7696C289.905 38.0049 289.198 39.0784 288.301 39.9897C287.406 40.8892 286.354 41.603 285.143 42.1306C283.945 42.6464 282.654 42.9043 281.276 42.9043C279.908 42.9043 278.62 42.6464 277.409 42.1306C276.211 41.603 275.156 40.8892 274.249 39.9897C273.353 39.0784 272.645 38.0049 272.125 36.7696C271.604 35.5225 271.344 34.179 271.344 32.74C271.344 31.2768 271.604 29.9215 272.125 28.6742C272.645 27.4269 273.353 26.3535 274.249 25.454C275.156 24.5425 276.211 23.8289 277.409 23.3132C278.62 22.7975 279.908 22.5397 281.276 22.5397C282.654 22.5397 283.945 22.7855 285.143 23.2772C286.354 23.757 287.406 24.4466 288.301 25.3461C289.198 26.2336 289.905 27.307 290.425 28.5663C290.946 29.8136 291.206 31.2047 291.206 32.74ZM286.213 32.74C286.213 31.9484 286.08 31.2347 285.815 30.5991C285.56 29.9515 285.209 29.3998 284.76 28.9441C284.314 28.4763 283.785 28.1225 283.183 27.8827C282.588 27.6308 281.953 27.5049 281.276 27.5049C280.598 27.5049 279.956 27.6308 279.35 27.8827C278.758 28.1225 278.237 28.4763 277.788 28.9441C277.353 29.3998 277.008 29.9515 276.755 30.5991C276.5 31.2347 276.373 31.9484 276.373 32.74C276.373 33.4835 276.5 34.1732 276.755 34.8088C277.008 35.4443 277.353 35.9962 277.788 36.4638C278.237 36.9315 278.758 37.3033 279.35 37.5791C279.956 37.8431 280.598 37.9749 281.276 37.9749C281.953 37.9749 282.588 37.8491 283.183 37.5973C283.785 37.3454 284.314 36.9915 284.76 36.5357C285.209 36.0801 285.56 35.5283 285.815 34.8806C286.08 34.233 286.213 33.5195 286.213 32.74ZM298.94 42.5446H293.947V15.6135H298.94V42.5446Z" fill="#241953"/>
<path d="M165.357 56.1884C164.298 56.1884 163.478 56.5842 162.897 57.3758C162.316 58.1614 162.026 59.2588 162.026 60.668C162.026 63.6002 163.136 65.0663 165.357 65.0663C166.289 65.0663 167.418 64.8355 168.743 64.3739V66.7124C167.654 67.1622 166.438 67.3872 165.094 67.3872C163.164 67.3872 161.687 66.8085 160.664 65.6511C159.641 64.4879 159.13 62.8207 159.13 60.6499C159.13 59.2827 159.381 58.0863 159.884 57.061C160.386 56.0294 161.106 55.241 162.044 54.6952C162.988 54.1436 164.093 53.8678 165.357 53.8678C166.647 53.8678 167.942 54.1765 169.243 54.7941L168.335 57.061C167.839 56.8271 167.34 56.6231 166.837 56.4492C166.335 56.2755 165.842 56.1884 165.357 56.1884ZM177.022 56.9621C177.398 56.9621 177.709 56.9889 177.958 57.0429L177.749 59.6156C177.525 59.5556 177.252 59.5256 176.932 59.5256C176.048 59.5256 175.358 59.7504 174.862 60.2001C174.372 60.6499 174.127 61.2796 174.127 62.0891V67.2072H171.358V57.1508H173.455L173.863 58.8419H173.999C174.314 58.2782 174.738 57.8256 175.27 57.4837C175.809 57.1358 176.393 56.9621 177.022 56.9621ZM184.003 58.914C183.416 58.914 182.956 59.0998 182.624 59.4717C182.291 59.8375 182.1 60.3591 182.052 61.0367H185.937C185.925 60.3591 185.746 59.8375 185.401 59.4717C185.056 59.0998 184.59 58.914 184.003 58.914ZM184.394 67.3872C182.76 67.3872 181.483 66.9403 180.563 66.0469C179.643 65.1534 179.183 63.8881 179.183 62.251C179.183 60.5659 179.607 59.2648 180.454 58.3471C181.307 57.4237 182.484 56.9621 183.985 56.9621C185.419 56.9621 186.536 57.3669 187.335 58.1764C188.134 58.9859 188.533 60.1043 188.533 61.5315V62.8626H181.988C182.018 63.6423 182.251 64.251 182.687 64.6887C183.123 65.1263 183.734 65.3453 184.521 65.3453C185.132 65.3453 185.71 65.2824 186.255 65.1563C186.799 65.0305 187.368 64.8295 187.961 64.5537V66.6766C187.477 66.9164 186.96 67.0932 186.409 67.2072C185.858 67.3272 185.187 67.3872 184.394 67.3872ZM197.23 67.2072L196.694 65.84H196.622C196.155 66.4216 195.674 66.8264 195.178 67.0543C194.688 67.2761 194.046 67.3872 193.254 67.3872C192.279 67.3872 191.511 67.1114 190.948 66.5595C190.391 66.0079 190.113 65.2224 190.113 64.2029C190.113 63.1355 190.488 62.3499 191.238 61.8462C191.995 61.3365 193.133 61.0546 194.652 61.0007L196.413 60.9467V60.5059C196.413 59.4867 195.886 58.9769 194.833 58.9769C194.022 58.9769 193.069 59.2198 191.974 59.7054L191.057 57.8524C192.225 57.2468 193.52 56.9439 194.942 56.9439C196.304 56.9439 197.348 57.2379 198.074 57.8256C198.8 58.4132 199.163 59.3067 199.163 60.5059V67.2072H197.23ZM196.413 62.5478L195.342 62.5839C194.537 62.6078 193.938 62.7518 193.544 63.0157C193.151 63.2794 192.954 63.6813 192.954 64.221C192.954 64.9945 193.402 65.3813 194.298 65.3813C194.939 65.3813 195.451 65.1984 195.832 64.8326C196.219 64.4668 196.413 63.981 196.413 63.3755V62.5478ZM206.299 65.2013C206.783 65.2013 207.364 65.0963 208.042 64.8866V66.9285C207.352 67.2343 206.504 67.3872 205.5 67.3872C204.392 67.3872 203.584 67.1114 203.076 66.5595C202.574 66.0019 202.323 65.1684 202.323 64.0589V59.2109H200.997V58.0503L202.522 57.1329L203.321 55.0102H205.091V57.1508H207.933V59.2109H205.091V64.0589C205.091 64.4487 205.2 64.7366 205.418 64.9226C205.642 65.1084 205.935 65.2013 206.299 65.2013ZM209.984 54.5512C209.984 53.6578 210.487 53.2112 211.491 53.2112C212.496 53.2112 212.998 53.6578 212.998 54.5512C212.998 54.977 212.871 55.3099 212.617 55.5497C212.369 55.7836 211.994 55.9005 211.491 55.9005C210.487 55.9005 209.984 55.4507 209.984 54.5512ZM212.871 67.2072H210.102V57.1508H212.871V67.2072ZM218.2 67.2072L214.333 57.1508H217.228L219.189 62.8807C219.407 63.6063 219.543 64.2929 219.598 64.9405H219.652C219.682 64.3647 219.818 63.6781 220.061 62.8807L222.012 57.1508H224.908L221.041 67.2072H218.2ZM230.573 58.914C229.986 58.914 229.526 59.0998 229.193 59.4717C228.86 59.8375 228.67 60.3591 228.621 61.0367H232.506C232.494 60.3591 232.316 59.8375 231.971 59.4717C231.626 59.0998 231.16 58.914 230.573 58.914ZM230.963 67.3872C229.329 67.3872 228.052 66.9403 227.132 66.0469C226.212 65.1534 225.753 63.8881 225.753 62.251C225.753 60.5659 226.176 59.2648 227.023 58.3471C227.877 57.4237 229.054 56.9621 230.555 56.9621C231.989 56.9621 233.105 57.3669 233.904 58.1764C234.703 58.9859 235.103 60.1043 235.103 61.5315V62.8626H228.557C228.588 63.6423 228.821 64.251 229.257 64.6887C229.692 65.1263 230.303 65.3453 231.09 65.3453C231.702 65.3453 232.279 65.2824 232.824 65.1563C233.369 65.0305 233.938 64.8295 234.531 64.5537V66.6766C234.046 66.9164 233.529 67.0932 232.979 67.2072C232.428 67.3272 231.756 67.3872 230.963 67.3872ZM250.235 63.5552C250.235 64.7426 249.803 65.6782 248.937 66.3616C248.078 67.0453 246.88 67.3872 245.342 67.3872C243.926 67.3872 242.674 67.1232 241.584 66.5956V64.005C242.48 64.4008 243.237 64.6797 243.854 64.8416C244.477 65.0034 245.046 65.0845 245.56 65.0845C246.178 65.0845 246.65 64.9676 246.977 64.7337C247.309 64.4997 247.476 64.1521 247.476 63.6902C247.476 63.4323 247.403 63.2044 247.258 63.0065C247.113 62.8028 246.898 62.6078 246.613 62.422C246.335 62.236 245.763 61.9391 244.898 61.5315C244.087 61.1536 243.478 60.7909 243.073 60.443C242.668 60.0954 242.344 59.6903 242.102 59.2288C241.86 58.7669 241.739 58.2274 241.739 57.6098C241.739 56.4463 242.135 55.5318 242.928 54.8662C243.727 54.2004 244.828 53.8678 246.232 53.8678C246.922 53.8678 247.579 53.9486 248.202 54.1107C248.831 54.2725 249.488 54.5004 250.172 54.7941L249.264 56.9621C248.556 56.6742 247.969 56.4731 247.503 56.3594C247.043 56.2455 246.589 56.1884 246.141 56.1884C245.609 56.1884 245.2 56.3113 244.916 56.5571C244.631 56.8031 244.489 57.1239 244.489 57.5198C244.489 57.7655 244.547 57.9813 244.662 58.1674C244.777 58.3471 244.958 58.524 245.206 58.6979C245.461 58.8658 246.057 59.1716 246.995 59.6156C248.235 60.2033 249.086 60.7938 249.546 61.3875C250.005 61.9752 250.235 62.6978 250.235 63.5552ZM256.545 67.3872C253.386 67.3872 251.806 65.6692 251.806 62.2331C251.806 60.5241 252.236 59.2198 253.095 58.3203C253.954 57.4147 255.186 56.9621 256.79 56.9621C257.964 56.9621 259.017 57.1897 259.949 57.6455L259.132 59.7685C258.696 59.5946 258.291 59.4535 257.915 59.3456C257.54 59.2317 257.165 59.1748 256.79 59.1748C255.349 59.1748 254.629 60.1883 254.629 62.2152C254.629 64.1818 255.349 65.1653 256.79 65.1653C257.322 65.1653 257.815 65.0963 258.269 64.9584C258.723 64.8145 259.177 64.5926 259.631 64.2929V66.6406C259.183 66.9224 258.729 67.1172 258.269 67.2253C257.815 67.3332 257.241 67.3872 256.545 67.3872ZM271.36 67.2072H268.591V61.3336C268.591 59.8825 268.046 59.1566 266.957 59.1566C266.182 59.1566 265.622 59.4177 265.277 59.9393C264.932 60.4609 264.76 61.3065 264.76 62.476V67.2072H261.991V53.2112H264.76V56.0626C264.76 56.2844 264.739 56.806 264.696 57.6276L264.633 58.4371H264.778C265.395 57.4537 266.376 56.9621 267.719 56.9621C268.912 56.9621 269.816 57.2797 270.434 57.9156C271.051 58.5511 271.36 59.4627 271.36 60.6499V67.2072ZM276.415 62.161C276.415 63.1565 276.58 63.9092 276.907 64.4189C277.239 64.9284 277.778 65.1834 278.522 65.1834C279.26 65.1834 279.791 64.9316 280.11 64.4279C280.436 63.9181 280.601 63.1626 280.601 62.161C280.601 61.1657 280.436 60.4191 280.11 59.9214C279.783 59.4235 279.249 59.1748 278.503 59.1748C277.765 59.1748 277.233 59.4235 276.907 59.9214C276.58 60.413 276.415 61.1596 276.415 62.161ZM283.432 62.161C283.432 63.7981 282.997 65.0784 282.126 66.0019C281.254 66.9253 280.041 67.3872 278.487 67.3872C277.512 67.3872 276.652 67.1772 275.908 66.7574C275.164 66.3316 274.591 65.7232 274.192 64.9316C273.792 64.14 273.593 63.2165 273.593 62.161C273.593 60.518 274.026 59.2406 274.891 58.3293C275.757 57.4176 276.973 56.9621 278.54 56.9621C279.515 56.9621 280.373 57.1718 281.119 57.5916C281.863 58.0113 282.434 58.614 282.835 59.3996C283.233 60.1851 283.432 61.1057 283.432 62.161ZM287.926 62.161C287.926 63.1565 288.091 63.9092 288.417 64.4189C288.749 64.9284 289.289 65.1834 290.032 65.1834C290.771 65.1834 291.302 64.9316 291.621 64.4279C291.947 63.9181 292.112 63.1626 292.112 62.161C292.112 61.1657 291.947 60.4191 291.621 59.9214C291.294 59.4235 290.76 59.1748 290.014 59.1748C289.275 59.1748 288.744 59.4235 288.417 59.9214C288.091 60.413 287.926 61.1596 287.926 62.161ZM294.943 62.161C294.943 63.7981 294.508 65.0784 293.636 66.0019C292.765 66.9253 291.551 67.3872 289.998 67.3872C289.023 67.3872 288.163 67.1772 287.419 66.7574C286.675 66.3316 286.102 65.7232 285.703 64.9316C285.302 64.14 285.103 63.2165 285.103 62.161C285.103 60.518 285.536 59.2406 286.402 58.3293C287.267 57.4176 288.484 56.9621 290.051 56.9621C291.026 56.9621 291.883 57.1718 292.63 57.5916C293.373 58.0113 293.944 58.614 294.346 59.3996C294.744 60.1851 294.943 61.1057 294.943 62.161ZM300 67.2072H297.233V53.2112H300V67.2072Z" fill="#A6AAAD"/>
</svg>
