<svg width="76" height="76" viewBox="0 0 76 76" fill="none" xmlns="http://www.w3.org/2000/svg">
<path d="M0.163319 0.311689C8.68295 0.0604917 17.2385 0.0604917 25.7582 0.311689C26.1536 4.97641 25.6503 9.677 25.9738 14.3776C30.7549 14.6647 35.5718 14.7005 40.3529 14.3418C40.6766 9.677 40.1373 4.97641 40.5686 0.311689C50.023 0.0604917 59.4771 0.0963912 68.9315 0.27579C69.3268 6.2323 68.9675 12.2247 69.0751 18.217C69.0392 21.6976 69.2191 25.1782 68.9315 28.6589C64.2583 29.0893 59.5851 28.5872 54.9119 28.8382C54.5882 32.2831 54.6602 35.7634 54.8399 39.2441C61.8138 39.639 68.7518 39.1724 75.7257 39.4952C75.9054 51.5878 75.9054 63.6801 75.7257 75.8086C66.7747 76.1314 57.8237 75.8444 48.9086 75.952C45.7812 75.952 42.6537 76.0955 39.5262 75.7724C39.2386 64.972 39.7419 54.1353 39.3106 43.3349C34.853 43.1194 30.3955 43.1194 25.9738 43.3349C25.6503 54.1353 26.1895 64.972 25.7582 75.8086C17.2385 76.0238 8.71889 76.0596 0.199267 75.8086C0.12737 74.7678 0.0554743 73.7273 0.0195262 72.6507C0.0554743 51.9465 0.0195262 31.2782 0.0554743 10.5741C0.0554743 7.12936 -0.124263 3.72052 0.163319 0.311689Z" fill="#18E884"/>
</svg>
