<svg width="80" height="79" viewBox="0 0 80 79" fill="none" xmlns="http://www.w3.org/2000/svg">
<path d="M9.74213 28.6762C7.54499 25.4583 8.37244 21.0686 11.5903 18.8715L32.0046 4.93258C35.2224 2.73544 39.6121 3.56288 41.8093 6.78072V6.78072C44.0064 9.99856 48.3961 10.826 51.614 8.62885L51.8363 8.47704C55.1769 6.19606 59.7341 7.05507 62.0151 10.3957L74.8308 29.165C77.1677 32.5875 76.4748 37.2323 73.2407 39.8237L72.9452 40.0606C69.9742 42.4412 69.2569 46.6695 71.2766 49.8967V49.8967C73.4133 53.3109 72.4735 57.803 69.1472 60.0741L59.3225 66.7824L49.1954 73.6972C45.9135 75.9381 41.4364 75.0942 39.1955 71.8123V71.8123C37.0712 68.7011 32.9067 67.7551 29.6467 69.6432L29.0018 70.0167C25.3782 72.1155 20.7492 71.064 18.3879 67.6057L5.66417 48.971C3.35776 45.5932 4.22635 40.9851 7.60422 38.6787L7.894 38.4809C11.1118 36.2837 11.9393 31.894 9.74213 28.6762V28.6762Z" stroke="#8247F5" stroke-width="7" stroke-linecap="round" stroke-linejoin="round"/>
</svg>
