<svg width="525" height="403" viewBox="0 0 525 403" fill="none" xmlns="http://www.w3.org/2000/svg">
<path d="M304.763 370.782L295.681 370.659L286.598 370.491L268.439 370.149C256.334 369.878 244.228 369.594 232.122 369.258C220.016 368.954 207.917 368.56 195.811 368.205L159.507 367.01L123.209 365.672C111.11 365.175 99.0103 364.729 86.911 364.187C74.8117 363.676 62.7188 363.114 50.6195 362.546L32.4802 361.622L23.4106 361.157L14.3409 360.647L23.4235 360.769L32.5061 360.937L50.6647 361.28C62.7705 361.551 74.8763 361.835 86.982 362.171C99.0878 362.475 111.187 362.875 123.293 363.224L159.597 364.426L195.895 365.763C207.995 366.254 220.094 366.706 232.193 367.249C244.293 367.759 256.385 368.315 268.485 368.889L286.624 369.813L295.694 370.278L304.763 370.782Z" fill="#241953"/>
<path d="M124.068 271.54C124.068 271.54 135.205 385.524 124.068 399.606C145.36 401.247 169.597 402.229 169.597 402.229C169.597 402.229 168.615 388.799 157.479 389.781C146.342 390.763 142.085 387.817 140.773 381.59C139.462 375.369 143.067 345.886 143.067 345.886L136.846 349.491L136.193 340.318L143.396 336.881L144.048 320.983L141.426 322.96L141.096 268.917L124.068 271.54Z" fill="#FFFDFD"/>
<path d="M170.295 402.901L169.571 402.868C169.326 402.862 145.076 401.867 124.023 400.246L122.815 400.155L123.571 399.206C134.417 385.485 123.545 272.735 123.435 271.598L123.377 270.99L141.755 268.161L142.078 321.668L144.759 319.64L144.029 337.294L136.872 340.712L137.421 348.412L143.874 344.678L143.719 345.964C143.68 346.261 140.147 375.408 141.419 381.454C142.757 387.791 147.395 390.02 157.433 389.135C160.547 388.863 163.202 389.639 165.321 391.441C169.694 395.162 170.237 401.893 170.256 402.177L170.295 402.901ZM125.218 399.044C143.881 400.452 164.668 401.37 168.861 401.551C168.596 399.768 167.633 395.117 164.462 392.423C162.614 390.853 160.282 390.181 157.53 390.427C146.826 391.37 141.62 388.773 140.134 381.725C138.958 376.144 141.581 352.914 142.266 347.094L136.264 350.569L135.515 339.93L142.769 336.468L143.351 322.32L140.793 324.252L140.463 269.666L124.772 272.082C125.709 281.824 135.043 382.016 125.218 399.044Z" fill="#241953"/>
<path d="M316.83 219.467L313.885 218.149C314.014 217.858 326.74 189.041 318.374 174.635C315.693 170.016 310.991 167.348 304.389 166.702C296.818 165.96 290.267 167.878 284.919 172.4C271.411 183.821 269.576 208.194 269.557 208.44L266.334 208.22C266.405 207.167 268.272 182.251 282.826 169.939C288.866 164.823 296.23 162.659 304.705 163.485C312.399 164.241 317.935 167.445 321.165 173.014C330.357 188.847 317.386 218.22 316.83 219.467Z" fill="#241953"/>
<path d="M336.32 236.488C336.32 236.488 299.305 171.308 245.261 213.562C191.218 255.816 241.004 332.023 296.688 315.208C352.372 298.393 342.87 254.66 342.87 254.66L375.299 235.506L336.32 236.488Z" fill="#FFFDFD"/>
<path d="M280.733 318.574C272.296 318.574 263.95 316.61 256.024 312.702C244.092 306.823 234.067 296.927 227.8 284.84C221.696 273.07 219.668 260.416 221.928 248.239C224.441 234.725 232.303 222.47 244.667 212.806C260.022 200.804 275.507 196.243 290.7 199.247C317.179 204.486 334.414 231.469 336.862 235.513L379 234.453L343.949 255.157C344.394 257.806 345.596 267.534 341.578 278.962C337.321 291.068 326.126 307.346 296.973 316.151C291.579 317.766 286.139 318.574 280.733 318.574ZM281.618 200.287C269.796 200.287 257.807 204.99 245.862 214.325C218.35 235.836 219.383 264.388 229.525 283.942C240.436 304.989 266.023 323.457 296.411 314.278C318.872 307.495 333.858 295.053 339.75 278.303C344.194 265.674 341.953 254.963 341.927 254.86L341.778 254.175L371.59 236.572L335.764 237.477L335.48 236.973C335.305 236.669 317.935 206.605 290.313 201.146C287.425 200.571 284.525 200.287 281.618 200.287Z" fill="#241953"/>
<path d="M170.191 401.26C170.191 401.26 169.21 387.83 158.073 388.812C146.936 389.794 142.679 386.848 141.368 380.621C140.056 374.4 143.661 344.917 143.661 344.917L137.44 348.522L136.787 339.349L143.99 335.912L144.643 320.014L142.02 321.991L142.007 320.059L128.68 326.048C130.224 357.23 130.431 391.338 124.662 398.637C145.954 400.272 170.191 401.26 170.191 401.26Z" fill="#241953"/>
<path d="M170.889 401.932L170.166 401.899C169.92 401.893 145.67 400.898 124.611 399.277L123.403 399.186L124.158 398.237C128.745 392.436 130.089 367.488 128.041 326.08L128.021 325.641L142.66 319.071L142.672 320.705L145.36 318.677L144.63 336.332L137.472 339.749L138.021 347.449L144.475 343.715L144.32 345.001C144.281 345.298 140.747 374.445 142.02 380.491C143.357 386.829 147.995 389.057 158.034 388.172C161.148 387.901 163.803 388.676 165.921 390.478C170.295 394.199 170.837 400.93 170.857 401.215L170.889 401.932ZM125.812 398.075C144.475 399.483 165.263 400.401 169.455 400.582C169.19 398.799 168.228 394.148 165.056 391.454C163.208 389.884 160.876 389.212 158.124 389.458C147.414 390.401 142.214 387.798 140.728 380.756C139.552 375.175 142.175 351.945 142.86 346.125L136.859 349.6L136.096 338.961L143.351 335.499L143.932 321.351L141.374 323.283L141.361 321.054L129.339 326.455C131.316 366.57 130.127 390.64 125.812 398.075Z" fill="#241953"/>
<path d="M184.952 255.002C184.952 255.002 184.61 376.435 171.367 390.11C193.654 394.096 219.118 397.707 219.118 397.707C219.358 373.715 192.891 391.221 190.902 372.882C190.178 366.176 197.11 335.46 197.11 335.46L190.159 338.599L190.443 328.851L198.408 325.99L200.785 309.284L197.814 311.093L203.201 254.046L184.952 255.002Z" fill="#FFFDFD"/>
<path d="M219.752 398.45L219.022 398.347C218.77 398.308 193.292 394.69 171.244 390.75L170.049 390.537L170.896 389.665C183.809 376.331 184.3 256.217 184.3 255.002V254.389L203.905 253.361L198.57 309.872L201.612 308.018L198.99 326.461L191.07 329.31L190.831 337.579L198.021 334.329L197.736 335.595C197.665 335.899 190.837 366.286 191.541 372.804C192.413 380.815 198.001 381.525 204.474 382.339C211.703 383.25 219.9 384.283 219.764 397.707L219.752 398.45ZM172.569 389.671C192.22 393.159 214.202 396.35 218.466 396.964C218.305 385.395 211.502 384.535 204.306 383.631C197.878 382.817 191.231 381.984 190.249 372.953C189.603 366.919 194.875 342.514 196.186 336.584L189.474 339.62L189.797 328.399L197.814 325.518L199.946 310.551L197.039 312.321L202.478 254.731L185.585 255.616C185.553 265.777 184.784 372.914 172.569 389.671Z" fill="#241953"/>
<path d="M219.842 396.745C219.842 396.745 220.23 382.475 208.376 382.326C196.522 382.178 192.342 378.618 191.619 371.913C190.895 365.207 197.827 334.491 197.827 334.491L190.876 337.63L191.16 327.882L199.125 325.021L201.502 308.315L198.531 310.124L198.725 308.089L184.029 312.992C182.349 346.054 178.945 382.061 172.084 389.148C194.377 393.133 219.842 396.745 219.842 396.745Z" fill="#241953"/>
<path d="M220.469 397.487L219.752 397.384C219.5 397.345 194.022 393.728 171.974 389.787L170.779 389.574L171.626 388.702C177.084 383.063 181.154 356.874 183.389 312.967L183.408 312.527L199.461 307.172L199.3 308.916L202.342 307.069L199.72 325.512L191.8 328.36L191.561 336.629L198.751 333.38L198.466 334.646C198.395 334.949 191.567 365.337 192.271 371.855C193.008 378.709 197.678 381.557 208.389 381.687C211.69 381.725 214.396 382.823 216.438 384.942C220.643 389.322 220.501 396.467 220.494 396.764L220.469 397.487ZM173.299 388.708C192.924 392.19 214.887 395.381 219.183 395.995C219.099 394.115 218.589 389.038 215.495 385.827C213.705 383.967 211.309 383.011 208.369 382.972C196.993 382.836 191.793 379.548 190.979 371.984C190.333 365.95 195.605 341.545 196.916 335.615L190.204 338.651L190.527 327.43L198.544 324.549L200.676 309.582L197.769 311.352L197.988 309.02L184.649 313.464C182.465 356.106 178.647 381.396 173.299 388.708Z" fill="#241953"/>
<path d="M29.9544 283.981C29.9544 283.981 -17.209 98.8094 81.0519 67.3692C179.313 35.9291 239.583 221.967 245.262 238.129C229.978 250.358 89.3528 293.594 29.9544 283.981Z" fill="#FCFAFA"/>
<path d="M49.8314 286.346C42.6158 286.346 35.8523 285.913 29.7994 284.937L29.1728 284.834L29.0178 284.22C28.9015 283.755 17.2027 237.231 17.6872 187.458C17.9714 158.169 22.3576 133.486 30.7232 114.093C41.2333 89.7332 58.0613 73.7063 80.7548 66.4454C102.873 59.3654 124.811 62.7245 145.967 76.4259C163.157 87.5562 179.959 105.592 195.902 130.03C208.647 149.564 227.587 183.756 245.442 235.707C245.74 236.579 245.985 237.283 246.172 237.806L246.398 238.452L245.862 238.878C237.432 245.623 196.393 259.66 154.378 270.176C128.261 276.72 83.9976 286.346 49.8314 286.346ZM30.7425 283.129C65.1607 288.432 122.608 276.139 153.913 268.303C198.214 257.212 235.688 243.775 244.112 237.78C243.97 237.367 243.802 236.882 243.614 236.333C225.824 184.57 206.967 150.527 194.28 131.083C158.848 76.7748 120.851 55.6445 81.3426 68.2865C31.1366 84.3522 20.0644 141.968 19.6186 187.471C19.1729 233.891 29.3666 277.463 30.7425 283.129Z" fill="#241953"/>
<path d="M166.212 83.5253C162.168 85.8057 164.326 92.2397 157.479 98.8094C152.459 103.622 146.387 104.882 143.939 105.36C130.67 107.944 124.96 99.6104 114.23 99.914C99.2687 100.334 88.5324 117.142 86.2909 120.644C71.4461 143.88 75.7807 181.334 97.208 196.198C109.663 204.835 124.882 203.763 133.021 203.188C142.298 202.529 141.432 200.681 173.635 190.959C188.777 186.386 192.594 185.701 198.092 181.353C208.544 173.078 212.226 161.696 213.376 157.336C217.471 141.755 212.11 128.751 209.009 121.522C198.512 97.0523 174.449 78.8872 166.212 83.5253Z" fill="#241953"/>
<path d="M124.32 204.538C116.09 204.538 105.703 203.265 96.6589 196.999C86.349 189.848 79.2496 176.98 77.1889 161.696C75.1605 146.69 78.1837 131.541 85.4769 120.127C94.0233 106.748 104.223 99.2292 114.204 98.9514C119.049 98.8158 122.951 100.379 126.723 101.897C131.536 103.829 136.51 105.825 143.758 104.417C145.773 104.022 151.897 102.834 156.813 98.1181C160.373 94.7073 161.38 91.2901 162.194 88.5446C162.931 86.0576 163.564 83.9129 165.741 82.692C167.782 81.5421 170.566 81.5486 174.022 82.7178C185.165 86.4839 201.638 101.891 209.907 121.148C212.723 127.711 218.589 141.367 214.319 157.588C212.807 163.33 208.77 174.151 198.699 182.122C193.835 185.972 190.275 187.032 179.7 190.171C177.976 190.681 176.063 191.25 173.919 191.896C159.494 196.25 151.787 198.995 146.691 200.817C140.444 203.046 138.344 203.795 133.093 204.163C130.689 204.325 127.686 204.538 124.32 204.538ZM114.798 100.883C114.617 100.883 114.436 100.883 114.256 100.889C104.94 101.148 95.2959 108.357 87.1048 121.173C72.1696 144.545 77.4473 181.321 97.7571 195.41C109.927 203.853 124.901 202.794 132.95 202.225C137.937 201.87 139.811 201.205 146.032 198.989C151.148 197.167 158.88 194.409 173.35 190.042C175.495 189.396 177.414 188.827 179.138 188.311C189.442 185.249 192.917 184.215 197.484 180.598C207.116 172.975 210.986 162.6 212.433 157.09C216.528 141.515 210.843 128.273 208.111 121.91C200.165 103.396 183.899 88.0989 173.389 84.5524C170.521 83.5835 168.195 83.5188 166.677 84.378L166.199 83.5318L166.677 84.378C165.185 85.2178 164.707 86.8457 164.035 89.0937C163.157 92.0588 162.065 95.7474 158.137 99.5135C152.814 104.623 146.264 105.896 144.113 106.316C136.31 107.834 131.064 105.728 125.987 103.693C122.401 102.246 118.991 100.883 114.798 100.883Z" fill="#241953"/>
<path d="M175.385 91.3869C168.983 92.7629 169.739 99.3325 158.79 106.671C154.772 109.365 148.499 113.57 140.121 113.984C128.823 114.539 122.841 107.756 110.664 111.225C109.992 111.419 108.539 111.839 106.962 112.562C90.6318 120.075 80.5028 151.373 91.6137 173.95C93.0026 176.773 95.8966 182.865 102.453 187.678C108.539 192.141 114.604 193.227 117.957 193.789C122.815 194.603 128.68 194.758 157.918 186.586C169.352 183.388 172.091 182.348 173.544 181.78C184.255 177.568 191.128 174.868 197.006 168.027C203.447 160.533 205.656 151.593 206.832 146.845C207.361 144.707 208.04 141.922 208.292 138.266C209.125 126.315 204.474 117.117 203.337 114.526C198.182 102.763 185.346 89.2487 175.385 91.3869Z" fill="white"/>
<path d="M159.229 110.385C149.92 116.27 136.736 116.761 131.936 116.936C125.838 117.162 126.058 116.374 122.763 116.936C111.807 118.796 102.899 128.725 98.8552 138.227C93.3773 151.089 95.8191 165.52 102.783 175.565C104.611 178.207 107.783 182.775 113.59 185.72C121.652 189.809 128.183 187.426 152.898 180.804C181.083 173.253 189.81 171.735 196.612 163.246C200.682 158.175 203.201 151.683 203.337 151.321C205.74 145.03 207.865 139.461 205.85 133.796C204.681 130.501 202.859 129.293 201.289 123.996C200.346 120.825 200.152 118.396 200.062 117.582C198.996 108.234 186.322 87.3689 176.477 88.7578C169.022 89.8236 171.819 102.427 159.229 110.385Z" fill="#BCDDE6"/>
<path d="M48.281 290.112C24.3924 158.828 40.3677 128.848 41.0653 127.633C62.3958 93.9321 53.9527 82.763 53.8688 82.6532L55.8455 80.993C56.2654 81.484 65.7937 93.383 43.3004 128.932C43.0679 129.377 39.1661 137.149 38.1003 160.1C37.0925 181.78 38.4878 221.857 50.8197 289.653L48.281 290.112Z" fill="#241953"/>
<path d="M57.5767 230.216C46.511 230.216 39.9994 229.609 39.8702 229.602L40.1157 227.031C40.3612 227.057 64.7536 229.311 99.7402 224.964C132.007 220.959 180.146 210.365 226.244 182.626L227.574 184.842C181.063 212.826 132.518 223.504 99.9792 227.541C82.7896 229.667 68.1192 230.216 57.5767 230.216Z" fill="#241953"/>
<path d="M185.631 132.975C185.663 137.239 183.945 141.483 180.96 144.571C179.468 146.115 177.685 147.4 175.702 148.279C173.719 149.164 171.555 149.655 169.358 149.719C164.972 149.855 160.502 148.176 157.265 145.062C155.663 143.505 154.346 141.625 153.467 139.552C152.595 137.478 152.136 135.224 152.117 132.969C152.13 130.715 152.588 128.46 153.46 126.386C154.333 124.306 155.657 122.433 157.259 120.876C160.489 117.756 164.966 116.083 169.352 116.219C171.542 116.283 173.712 116.774 175.695 117.659C177.678 118.544 179.461 119.83 180.954 121.374C183.945 124.468 185.656 128.712 185.631 132.975ZM185.631 132.975C185.618 130.844 185.185 128.725 184.358 126.768C183.531 124.81 182.284 123.04 180.773 121.574C177.717 118.641 173.499 117.071 169.365 117.201C167.298 117.265 165.256 117.73 163.396 118.57C161.529 119.403 159.856 120.618 158.454 122.071C155.65 124.985 154.042 128.97 154.068 132.982C154.042 136.994 155.644 140.979 158.454 143.899C161.232 146.845 165.224 148.666 169.371 148.77C173.505 148.899 177.724 147.329 180.779 144.39C182.291 142.917 183.538 141.154 184.364 139.196C185.185 137.233 185.611 135.107 185.631 132.975Z" fill="#241953"/>
<path d="M135.373 150.236C142.458 150.236 148.202 144.492 148.202 137.407C148.202 130.322 142.458 124.578 135.373 124.578C128.287 124.578 122.544 130.322 122.544 137.407C122.544 144.492 128.287 150.236 135.373 150.236Z" fill="#241953" stroke="#241953" stroke-miterlimit="10"/>
<path d="M145.489 144.545C145.521 148.809 143.803 153.053 140.819 156.141C139.326 157.684 137.543 158.97 135.56 159.849C133.577 160.734 131.413 161.224 129.217 161.289C124.83 161.425 120.36 159.745 117.124 156.632C115.522 155.075 114.204 153.195 113.325 151.121C112.453 149.048 111.995 146.793 111.975 144.539C111.988 142.284 112.447 140.03 113.319 137.956C114.191 135.876 115.515 134.003 117.117 132.446C120.347 129.326 124.824 127.653 129.21 127.788C131.4 127.853 133.571 128.344 135.554 129.229C137.537 130.114 139.32 131.399 140.812 132.943C143.803 136.037 145.515 140.275 145.489 144.545ZM145.489 144.545C145.476 142.413 145.043 140.295 144.216 138.337C143.39 136.38 142.143 134.61 140.631 133.143C137.576 130.211 133.357 128.641 129.223 128.77C127.156 128.835 125.115 129.3 123.254 130.14C121.387 130.973 119.714 132.187 118.312 133.641C115.509 136.554 113.9 140.54 113.926 144.552C113.9 148.563 115.502 152.549 118.312 155.469C121.09 158.414 125.082 160.236 129.23 160.339C133.364 160.469 137.582 158.899 140.638 155.96C142.149 154.487 143.396 152.723 144.223 150.766C145.043 148.796 145.47 146.67 145.489 144.545Z" fill="#241953"/>
<path d="M175.334 137.407C182.419 137.407 188.163 131.663 188.163 124.578C188.163 117.492 182.419 111.748 175.334 111.748C168.248 111.748 162.504 117.492 162.504 124.578C162.504 131.663 168.248 137.407 175.334 137.407Z" fill="#241953" stroke="#241953" stroke-miterlimit="10"/>
<path d="M164.022 163.453C164.042 165.404 163.266 167.342 161.91 168.77C160.573 170.21 158.628 171.134 156.593 171.205C154.565 171.289 152.472 170.54 150.948 169.099C150.192 168.376 149.572 167.503 149.158 166.534C148.745 165.565 148.532 164.513 148.519 163.453C148.525 162.4 148.745 161.341 149.158 160.372C149.572 159.403 150.198 158.531 150.948 157.807C152.472 156.367 154.565 155.617 156.593 155.701C158.628 155.772 160.573 156.696 161.91 158.137C163.266 159.564 164.035 161.502 164.022 163.453ZM164.022 163.453C164.009 162.478 163.816 161.509 163.434 160.617C163.053 159.726 162.478 158.925 161.781 158.259C160.372 156.942 158.454 156.257 156.593 156.341C154.727 156.412 152.957 157.265 151.736 158.589C150.502 159.9 149.798 161.67 149.811 163.447C149.798 165.23 150.495 166.993 151.736 168.304C152.957 169.629 154.727 170.481 156.593 170.553C158.454 170.636 160.379 169.958 161.781 168.634C162.472 167.969 163.053 167.168 163.434 166.276C163.809 165.398 164.009 164.429 164.022 163.453Z" fill="#241953"/>
<path d="M49.1015 104.249C50.5713 104.249 51.7629 103.057 51.7629 101.587C51.7629 100.117 50.5713 98.9256 49.1015 98.9256C47.6316 98.9256 46.44 100.117 46.44 101.587C46.44 103.057 47.6316 104.249 49.1015 104.249Z" fill="#241953"/>
<path d="M32.2929 193.336C33.7628 193.336 34.9544 192.145 34.9544 190.675C34.9544 189.205 33.7628 188.014 32.2929 188.014C30.8231 188.014 29.6315 189.205 29.6315 190.675C29.6315 192.145 30.8231 193.336 32.2929 193.336Z" fill="#241953"/>
<path d="M40.8134 279.143C42.2833 279.143 43.4749 277.951 43.4749 276.481C43.4749 275.011 42.2833 273.82 40.8134 273.82C39.3435 273.82 38.1519 275.011 38.1519 276.481C38.1519 277.951 39.3435 279.143 40.8134 279.143Z" fill="#241953"/>
<path d="M75.3607 240.978C76.8306 240.978 78.0222 239.786 78.0222 238.316C78.0222 236.847 76.8306 235.655 75.3607 235.655C73.8909 235.655 72.6993 236.847 72.6993 238.316C72.6993 239.786 73.8909 240.978 75.3607 240.978Z" fill="#241953"/>
<path d="M137.434 231.14C138.903 231.14 140.095 229.948 140.095 228.478C140.095 227.008 138.903 225.817 137.434 225.817C135.964 225.817 134.772 227.008 134.772 228.478C134.772 229.948 135.964 231.14 137.434 231.14Z" fill="#241953"/>
<path d="M200.32 213.123C201.79 213.123 202.982 211.931 202.982 210.462C202.982 208.992 201.79 207.8 200.32 207.8C198.85 207.8 197.659 208.992 197.659 210.462C197.659 211.931 198.85 213.123 200.32 213.123Z" fill="#241953"/>
<path d="M80.6966 301.384C59.9346 285.305 49.2177 267.612 48.8301 248.788C48.2229 219.021 73.4486 197.432 74.5274 196.528L76.1941 198.504C75.9422 198.717 50.8262 220.229 51.4205 248.756C51.7952 266.753 62.1762 283.774 82.2857 299.343L80.6966 301.384Z" fill="#241953"/>
<path d="M106.187 72.0978C106.155 71.7942 103.067 41.7753 125.735 31.8981L126.768 34.2689C105.832 43.3902 108.726 71.5229 108.758 71.8071L106.187 72.0978Z" fill="#241953"/>
<path d="M138.344 43.6034C143.425 43.6034 147.543 39.4849 147.543 34.4045C147.543 29.3241 143.425 25.2057 138.344 25.2057C133.264 25.2057 129.146 29.3241 129.146 34.4045C129.146 39.4849 133.264 43.6034 138.344 43.6034Z" fill="#F1F1F1"/>
<path d="M147.672 33.0867C147.621 35.9097 146.542 38.6874 144.617 40.8062C142.711 42.938 139.862 44.314 136.897 44.3785C133.939 44.4561 130.941 43.2998 128.777 41.2068C126.594 39.1332 125.276 36.1487 125.218 33.0867C125.134 30.0312 126.316 26.924 128.467 24.6566C130.605 22.3763 133.771 21.0585 136.897 21.1489C138.454 21.2006 140.005 21.5688 141.381 22.26C142.756 22.9447 143.964 23.9202 144.914 25.07C146.82 27.3762 147.724 30.2767 147.672 33.0867ZM147.414 33.0867C147.382 30.3154 145.993 27.6734 143.939 26.0455C141.878 24.3982 139.346 23.6553 136.897 23.7328C134.443 23.8039 132.072 24.7793 130.276 26.4654C128.461 28.132 127.35 30.5609 127.285 33.0867C127.214 35.6061 128.183 38.1577 129.966 40.0181C131.736 41.8915 134.275 43.0284 136.897 43.0866C139.514 43.1706 142.207 42.2533 144.236 40.4251C146.271 38.6099 147.485 35.8515 147.414 33.0867Z" fill="#241953"/>
<path d="M128.564 15.8583C128.106 14.6051 127.699 13.3325 127.259 12.0728C126.839 10.8067 126.439 9.54053 126.051 8.26148C125.664 6.98889 125.102 5.75505 124.934 4.43078C124.837 3.77188 124.766 3.10651 124.746 2.42822C124.721 1.74994 124.733 1.0652 124.85 0.354611L125.037 0.309387C125.463 0.890775 125.786 1.49801 126.071 2.11169C126.361 2.72538 126.6 3.35198 126.814 3.98505C127.259 5.24472 127.324 6.59484 127.55 7.90619C127.783 9.21754 127.996 10.5289 128.196 11.8467C128.377 13.171 128.59 14.4823 128.745 15.8131L128.564 15.8583Z" fill="#241953"/>
<path d="M149.824 15.7549C150.805 14.844 151.813 13.9784 152.808 13.0869C153.816 12.2084 154.83 11.3492 155.851 10.4965C156.871 9.64384 157.795 8.65549 158.951 7.98366C159.52 7.63483 160.108 7.31829 160.728 7.04052C161.341 6.75628 161.981 6.50435 162.679 6.3364L162.795 6.49144C162.42 7.10512 161.987 7.64129 161.535 8.1387C161.083 8.64257 160.599 9.10768 160.095 9.54695C159.106 10.4449 157.885 11.0263 156.768 11.7433C155.65 12.4603 154.52 13.1709 153.383 13.8621C152.233 14.5404 151.103 15.2445 149.94 15.9034L149.824 15.7549Z" fill="#241953"/>
<path d="M154.817 34.3076C156.154 34.2818 157.485 34.3076 158.822 34.3076C160.153 34.327 161.49 34.3593 162.814 34.4045C164.145 34.4497 165.489 34.327 166.8 34.5983C167.453 34.721 168.105 34.8696 168.757 35.0763C169.403 35.2766 170.049 35.5091 170.683 35.8515L170.663 36.0453C169.972 36.2585 169.3 36.3618 168.622 36.4329C167.95 36.5104 167.278 36.5298 166.613 36.5233C165.276 36.5363 163.977 36.1551 162.666 35.9419C161.354 35.7352 160.037 35.5091 158.725 35.2637C157.414 35.0053 156.103 34.7727 154.798 34.4885L154.817 34.3076Z" fill="#241953"/>
<path d="M141.962 48.4741C142.485 49.7079 142.957 50.9482 143.454 52.1885C143.939 53.4288 144.404 54.682 144.856 55.9288C145.308 57.182 145.928 58.3835 146.161 59.7013C146.29 60.3538 146.393 61.0191 146.445 61.6974C146.503 62.3757 146.523 63.0604 146.445 63.771L146.258 63.8227C145.806 63.2607 145.45 62.6729 145.134 62.0721C144.811 61.4713 144.539 60.8641 144.3 60.2375C143.79 59.0037 143.661 57.6535 143.364 56.3616C143.067 55.0631 142.789 53.7647 142.524 52.4534C142.278 51.142 142.001 49.8371 141.775 48.5193L141.962 48.4741Z" fill="#241953"/>
<path d="M101.207 341.08L99.1136 339.562C99.7273 338.716 113.939 318.748 99.3204 306.255C96.0969 303.503 92.7765 302.476 89.1655 303.115C78.6746 304.982 69.8699 320.486 69.7794 320.641L67.5249 319.375C67.9061 318.69 77.0145 302.657 88.7068 300.57C93.0672 299.788 97.2015 301.042 101 304.285C117.44 318.335 101.368 340.854 101.207 341.08Z" fill="#241953"/>
<path d="M90.1021 316.371C95.6642 316.371 100.173 311.862 100.173 306.3C100.173 300.738 95.6642 296.229 90.1021 296.229C84.5401 296.229 80.0312 300.738 80.0312 306.3C80.0312 311.862 84.5401 316.371 90.1021 316.371Z" fill="white"/>
<path d="M100.27 306.3C100.225 308.955 99.217 311.604 97.3695 313.567C96.4587 314.556 95.3411 315.376 94.0944 315.938C92.8476 316.5 91.4846 316.81 90.1022 316.855C87.3373 316.914 84.5467 315.822 82.5377 313.865C80.5157 311.927 79.2948 309.142 79.2561 306.3C79.1915 303.458 80.3026 300.583 82.3051 298.503C83.3128 297.469 84.5273 296.63 85.8645 296.068C87.2017 295.506 88.6616 295.241 90.1022 295.26C91.5427 295.299 92.9768 295.628 94.2623 296.255C95.5478 296.882 96.6783 297.767 97.5891 298.813C99.4044 300.925 100.315 303.639 100.27 306.3ZM100.076 306.3C100.05 303.677 98.7907 301.151 96.8592 299.543C94.9406 297.909 92.4794 297.146 90.1022 297.198C87.7185 297.263 85.38 298.193 83.6617 299.86C81.9111 301.494 80.8516 303.858 80.8064 306.3C80.7483 308.742 81.7043 311.197 83.4291 312.98C85.141 314.769 87.5893 315.848 90.1086 315.893C92.6215 315.977 95.1796 315.034 97.0853 313.283C98.0219 312.398 98.8036 311.319 99.3268 310.124C99.8372 308.916 100.089 307.605 100.076 306.3Z" fill="#241953"/>
<path d="M4.19244 337.049H29.7412C29.7412 337.049 55.9424 297.741 93.2868 324.601C103.771 333.115 119.359 363.909 90.1086 385.524C60.8583 407.138 28.7593 376.028 26.7955 352.113C11.3952 341.958 4.19244 337.049 4.19244 337.049Z" fill="white"/>
<path d="M69.2045 394.07C64.1787 394.07 59.0948 392.946 54.1078 390.685C39.2501 383.941 27.0862 367.772 25.5617 352.856C10.6846 343.044 3.53355 338.167 3.46249 338.121L0 335.763H29.0629C31.3303 332.585 42.7707 317.747 60.4837 314.53C71.614 312.508 82.8994 315.544 94.0362 323.554L94.0943 323.599C101.168 329.349 108.519 342.663 108.216 356.015C107.944 367.811 101.949 378.373 90.8708 386.564C84.1267 391.544 76.7302 394.07 69.2045 394.07ZM8.41075 338.341C11.9701 340.738 18.2879 344.956 27.4996 351.035L28.0229 351.383L28.0746 352.01C29.2438 366.235 40.8909 381.848 55.1672 388.327C63.3518 392.042 75.9227 394.393 89.3269 384.484C99.8888 376.68 105.367 367.081 105.625 355.957C105.948 341.926 97.7506 329.924 92.4858 325.628C81.9562 318.063 71.3491 315.182 60.9552 317.062C42.6028 320.382 30.9233 337.592 30.8071 337.76L30.4259 338.334L8.41075 338.341Z" fill="#241953"/>
<path d="M65.8002 377.662C65.8002 377.662 43.3845 333.774 55.5614 331.48C67.7317 329.187 67.7317 345.892 67.7317 345.892C67.7317 345.892 77.5572 330.169 83.7845 337.049C90.0053 343.922 76.6463 368.16 65.8002 377.662Z" fill="#FFC8CA"/>
<path d="M248.459 199.37C247.464 199.37 246.502 199.344 245.565 199.292C231.967 198.569 221.825 193.227 221.405 193L222.62 190.72C222.717 190.772 232.749 196.043 245.798 196.715C263.155 197.606 277.393 190.352 288.103 175.145C290.694 171.754 292.67 169.345 294.008 167.936C295.196 166.683 296.275 165.701 297.405 166.334C297.774 166.541 298.562 167.213 297.896 168.892L295.629 167.994C295.694 168.169 295.823 168.369 296.049 168.524C296.456 168.802 296.882 168.731 297.031 168.653C296.831 168.763 295.545 169.648 290.19 176.664C277.206 195.1 260.823 199.37 248.459 199.37Z" fill="#241953"/>
<path d="M304.763 176.282C310.325 176.282 314.834 171.773 314.834 166.211C314.834 160.649 310.325 156.141 304.763 156.141C299.201 156.141 294.692 160.649 294.692 166.211C294.692 171.773 299.201 176.282 304.763 176.282Z" fill="white"/>
<path d="M314.931 166.211C314.886 168.866 313.878 171.515 312.031 173.479C311.12 174.467 310.002 175.288 308.755 175.85C307.509 176.412 306.146 176.722 304.763 176.767C301.998 176.825 299.208 175.733 297.199 173.776C295.177 171.838 293.956 169.054 293.917 166.211C293.853 163.369 294.964 160.495 296.966 158.414C297.974 157.381 299.188 156.541 300.526 155.979C301.863 155.417 303.323 155.152 304.763 155.172C306.204 155.21 307.638 155.54 308.923 156.166C310.209 156.793 311.339 157.678 312.25 158.725C314.065 160.843 314.976 163.556 314.931 166.211ZM314.737 166.211C314.711 163.589 313.452 161.063 311.52 159.454C309.602 157.82 307.14 157.058 304.763 157.11C302.38 157.174 300.041 158.104 298.323 159.771C296.572 161.405 295.513 163.77 295.468 166.211C295.409 168.653 296.365 171.108 298.09 172.891C299.802 174.68 302.25 175.759 304.77 175.804C307.283 175.888 309.841 174.945 311.746 173.195C312.683 172.31 313.465 171.231 313.988 170.036C314.498 168.834 314.75 167.516 314.737 166.211Z" fill="#241953"/>
<path d="M400.191 110.004H310.833V195.461H400.191V110.004Z" stroke="#241953" stroke-width="3" stroke-miterlimit="10"/>
<path d="M336.24 125.85H343.033L350.672 163.768L376.141 139.717L393.967 154.995L345.297 190.082L328.601 128.68L334.825 125.85H336.24Z" fill="#DDDFEC"/>
<path d="M333.13 117.643L320.397 119.342C320.397 119.342 341.903 180.179 342.752 187.822C348.696 183.013 384.914 155.848 384.914 155.848L376.141 144.246L347.842 171.695L337.654 117.647H333.13V117.643Z" fill="#241953"/>
<path d="M523 3.30939H444.688V111.264H523V3.30939Z" stroke="#241953" stroke-width="3" stroke-miterlimit="10"/>
<path d="M464.427 54.2604H327.186V126.985H464.427V54.2604Z" fill="white" stroke="#241953" stroke-width="3" stroke-miterlimit="10"/>
<path d="M393.967 102.646H239.465L255.877 27.9415H397.646L393.967 102.646Z" fill="#F2F2F2"/>
<path d="M395.947 22.8518H214V97.2713H395.947V22.8518Z" stroke="#241953" stroke-width="3" stroke-miterlimit="10" stroke-linecap="round" stroke-linejoin="round"/>
<path d="M260.69 40.448C246.246 40.0964 231.969 49.7985 226.226 59.8104C230.621 71.0027 244.383 79.1729 260.69 79.1729C276.997 79.1729 290.759 71.0027 295.154 59.8104C291.659 50.5645 277.968 40.8665 260.69 40.448Z" fill="white" stroke="#241953" stroke-width="3" stroke-miterlimit="10"/>
<path d="M267.764 80.9141C277.297 80.9141 285.025 73.973 285.025 65.4107C285.025 56.8485 277.297 49.9074 267.764 49.9074C258.231 49.9074 250.502 56.8485 250.502 65.4107C250.502 73.973 258.231 80.9141 267.764 80.9141Z" fill="#241953" stroke="#241953" stroke-width="3" stroke-miterlimit="10"/>
<path d="M345.297 39.3137C330.183 39.8704 317.325 49.4051 310.833 58.6762C315.228 69.8684 328.99 78.0387 345.297 78.0387C361.604 78.0387 375.366 69.8684 379.761 58.6762C375.362 48.0783 361.554 38.7152 345.297 39.3137Z" fill="white" stroke="#241953" stroke-width="3" stroke-miterlimit="10"/>
<path d="M352.371 79.7798C361.904 79.7798 369.632 72.8387 369.632 64.2765C369.632 55.7142 361.904 48.7731 352.371 48.7731C342.838 48.7731 335.11 55.7142 335.11 64.2765C335.11 72.8387 342.838 79.7798 352.371 79.7798Z" fill="#241953" stroke="#241953" stroke-width="3" stroke-miterlimit="10"/>
<path d="M425.095 53.9758C425.095 53.9758 426.225 64.7285 422.266 66.9929C418.306 69.2573 404.155 72.6518 404.155 72.6518C404.155 72.6518 401.325 76.356 404.155 78.0386C406.984 79.7254 415.473 83.9696 415.473 83.9696C415.473 83.9696 418.892 83.685 414.07 108.87C414.07 117.643 417.172 120.472 421.416 121.887C425.66 123.301 430.754 125.846 430.754 125.846" stroke="#241953" stroke-width="3" stroke-miterlimit="10"/>
<path d="M416.749 89.6368C419.018 89.9257 421.408 90.0722 423.743 90.0973C426.091 90.1182 428.44 90.0094 430.746 89.6913C433.044 89.3648 435.325 88.8374 437.376 87.8873C437.635 87.7743 437.878 87.632 438.129 87.5064L438.95 87.0711C439.515 86.7865 440.096 86.5228 440.728 86.3219C441.36 86.1252 442.043 85.9577 442.842 86.0456C443.236 86.0959 443.671 86.234 444.035 86.506C444.399 86.7781 444.659 87.1464 444.813 87.5106C445.123 88.2473 445.136 88.9421 445.106 89.5992C445.069 90.2563 444.956 90.8841 444.805 91.4952C444.73 91.8008 444.642 92.1063 444.541 92.4077C444.491 92.5584 444.437 92.7091 444.378 92.8639C444.32 93.0188 444.223 93.203 444.148 93.3369C443.83 93.902 443.482 94.4 443.123 94.8981C441.67 96.8737 439.971 98.6442 438.058 100.155C436.149 101.658 433.998 102.888 431.679 103.6C429.365 104.324 426.891 104.479 424.526 104.069C426.908 104.358 429.335 104.073 431.562 103.253C433.793 102.441 435.815 101.139 437.589 99.5902C439.364 98.0373 440.925 96.2291 442.214 94.2745C442.532 93.7889 442.842 93.2825 443.089 92.7844C443.152 92.6505 443.194 92.5709 443.236 92.4412C443.277 92.3156 443.319 92.1817 443.357 92.0477C443.432 91.7757 443.499 91.4994 443.549 91.219C443.658 90.6623 443.729 90.0973 443.729 89.5573C443.734 89.0216 443.662 88.4858 443.478 88.1217C443.286 87.7575 443.072 87.6278 442.67 87.5901C442.269 87.5608 441.758 87.6822 441.26 87.8747C440.758 88.0631 440.255 88.3184 439.762 88.5988L439.016 89.0467C438.74 89.2016 438.468 89.3774 438.188 89.5197C435.94 90.7042 433.521 91.3864 431.102 91.8594C428.678 92.324 426.23 92.5626 423.785 92.6672C421.328 92.7635 418.917 92.7467 416.414 92.5584L416.749 89.6368Z" fill="#241953"/>
<path d="M413.916 80.6797C414.267 80.031 414.803 79.5203 415.397 79.1018C415.996 78.6874 416.682 78.3818 417.411 78.2144C418.139 78.0344 418.922 78.0512 419.65 78.2186C420.386 78.3735 421.048 78.7878 421.554 79.3027C420.813 79.2566 420.177 79.152 419.537 79.2022C418.905 79.2315 418.294 79.2901 417.687 79.4408C417.08 79.5789 416.469 79.7631 415.849 79.9766C415.23 80.1942 414.602 80.4328 413.916 80.6797Z" fill="#241953"/>
<path d="M441.08 55.11C441.08 55.11 430.47 68.6922 435.773 75.4854C441.08 82.2786 452.113 85.8866 451.477 92.2528C450.841 98.6191 452.749 99.8455 446.383 104.219C440.021 108.589 428.561 120.828 426.648 125.85C430.75 125.85 462.728 125.85 462.728 125.85V55.11H441.08Z" fill="#241953" stroke="#241953" stroke-width="3" stroke-miterlimit="10"/>
<path d="M470.793 22.0022C476.415 15.8327 487.251 15.0206 494.563 18.6077C504.512 23.4839 506.76 35.5258 508.995 47.4714C511.172 59.1073 513.344 70.739 506.023 78.4572C501.386 83.346 493.186 86.3261 486.498 83.9738C480.55 81.881 477.725 74.799 472.066 60.6308C465.75 44.8094 466.105 37.5265 466.549 33.8892C467.051 29.7706 467.566 25.5432 470.793 22.0022Z" fill="#FFC8CA"/>
<path d="M488.904 84.8193C487.929 85.0536 486.929 85.0662 485.941 84.9993C484.953 84.9155 483.965 84.7272 483.015 84.4049C482.065 84.0742 481.148 83.6222 480.332 83.0153C479.533 82.3874 478.834 81.6048 478.436 80.6839C479.248 81.2741 480.031 81.7638 480.855 82.1782C481.688 82.58 482.546 82.9107 483.421 83.2204C484.3 83.5217 485.2 83.777 486.113 84.0366C487.021 84.2877 487.946 84.5304 488.904 84.8193Z" fill="#241953"/>
<path d="M475.322 75.4812C473.652 72.1537 472.246 68.7048 470.982 65.2015C470.341 63.4519 469.772 61.6814 469.215 59.9025C468.675 58.1195 468.19 56.3197 467.729 54.5115C467.294 52.6992 466.905 50.8701 466.578 49.0326C466.269 47.1909 466.005 45.3367 465.854 43.4741C465.683 41.6116 465.653 39.7322 465.733 37.8655C465.833 35.9987 466.051 34.1278 466.553 32.3322C466.327 34.178 466.281 36.028 466.352 37.8697C466.419 39.7113 466.583 41.5446 466.834 43.3695C467.332 47.0193 468.073 50.6357 468.952 54.2185C469.822 57.8055 470.839 61.3591 471.911 64.9001C472.991 68.4327 474.133 71.957 475.322 75.4812Z" fill="#241953"/>
<path d="M467.964 26.5268C468.479 24.8023 469.408 23.2034 470.567 21.7929C471.145 21.0813 471.81 20.4409 472.522 19.8508C473.242 19.269 474.025 18.7625 474.853 18.3356C475.69 17.9254 476.574 17.6073 477.478 17.3938C478.386 17.1929 479.315 17.0925 480.236 17.0967C482.082 17.1301 483.886 17.5571 485.51 18.323C483.735 18.0551 481.986 17.9296 480.278 18.0761C479.428 18.1849 478.583 18.2979 477.775 18.5449C476.963 18.7834 476.172 19.0848 475.414 19.4573C474.652 19.8215 473.937 20.2819 473.25 20.7883C472.555 21.2822 471.915 21.8598 471.291 22.4542C470.057 23.668 468.943 25.0325 467.964 26.5268Z" fill="#241953"/>
<path d="M490.599 18.6035C493.115 20.5121 495.363 22.7598 497.422 25.1665C499.477 27.5816 501.294 30.2059 502.821 33.0019C503.562 34.4124 504.24 35.8606 504.809 37.3507C505.349 38.8533 505.822 40.3852 506.132 41.9548C506.438 43.5244 506.588 45.1233 506.605 46.7138C506.58 48.3085 506.396 49.8907 506.023 51.4226C506.12 49.8446 506.132 48.2876 505.99 46.7389C505.835 45.1944 505.555 43.6709 505.178 42.1725C504.378 39.1881 503.19 36.3168 501.712 33.5962C500.996 32.2233 500.18 30.9007 499.335 29.599C498.498 28.2889 497.589 27.0249 496.66 25.7734C494.777 23.2913 492.763 20.893 490.599 18.6035Z" fill="#241953"/>
<path d="M508.71 61.899C509.192 63.8119 509.351 65.7958 509.296 67.7756C509.28 68.7676 509.167 69.7595 509.02 70.7473C508.861 71.7351 508.614 72.7104 508.309 73.6689C507.978 74.619 507.589 75.5608 507.07 76.4356C506.542 77.3062 505.948 78.1391 505.22 78.859C504.491 79.5747 503.658 80.1733 502.771 80.642C501.871 81.0983 500.909 81.3955 499.942 81.5629C500.829 81.1318 501.687 80.6923 502.449 80.1189C503.211 79.5538 503.893 78.905 504.5 78.1977C505.082 77.4652 505.605 76.6951 506.032 75.8621C506.475 75.0418 506.831 74.167 507.12 73.2713C507.43 72.3797 507.668 71.4631 507.857 70.5297C508.062 69.6005 508.196 68.6546 508.325 67.7003C508.556 65.7958 508.677 63.8621 508.71 61.899Z" fill="#241953"/>
<path d="M501.637 49.447C501.143 46.7473 500.507 44.0811 499.703 41.4776C498.912 38.87 497.949 36.3252 496.769 33.9017C496.175 32.6921 495.501 31.5327 494.781 30.411C494.053 29.2934 493.224 28.2512 492.324 27.2969C490.52 25.4008 488.31 23.8857 485.807 23.2662C484.576 22.9104 483.266 22.7849 481.998 22.8351C480.726 22.8811 479.478 23.1657 478.361 23.735C477.239 24.2875 476.247 25.1037 475.427 26.0915C474.606 27.0793 473.937 28.2177 473.388 29.419C472.3 31.8383 471.668 34.4961 471.266 37.1749C470.856 39.862 470.68 42.5952 470.676 45.3409C470.308 42.6161 470.262 39.8453 470.45 37.0828C470.668 34.3245 471.128 31.5453 472.187 28.9084C472.71 27.5899 473.384 26.3091 474.292 25.1665C475.188 24.0238 476.322 23.0192 477.645 22.3203C478.964 21.6087 480.458 21.2697 481.914 21.1985C483.375 21.1274 484.836 21.2529 486.242 21.6464C487.644 22.0273 489.005 22.6174 490.21 23.4253C491.416 24.2247 492.542 25.1455 493.483 26.217C495.392 28.3433 496.84 30.7961 497.954 33.3534C498.502 34.6342 499.004 35.9359 499.418 37.2586C499.829 38.5854 500.193 39.9206 500.498 41.2684C501.089 43.9681 501.507 46.7012 501.637 49.447Z" fill="#241953"/>
<path d="M471.785 49.447C472.329 53.2726 473.087 57.048 474.083 60.748C474.598 62.5938 475.146 64.4229 475.829 66.206C476.494 67.9891 477.248 69.7386 478.16 71.3961C479.047 73.0662 480.102 74.6399 481.333 76.0463C482.555 77.4652 484.011 78.6623 485.64 79.5622C487.272 80.4579 489.105 80.9769 490.989 81.1317C492.876 81.2992 494.798 81.0732 496.689 80.6797C494.873 81.341 492.939 81.7429 490.964 81.747C488.996 81.7345 486.992 81.3243 485.196 80.437C483.384 79.5789 481.797 78.2981 480.449 76.8415C479.114 75.3682 477.997 73.7191 477.055 71.9947C475.197 68.5206 473.974 64.7745 473.133 60.9824C472.3 57.1861 471.81 53.3186 471.785 49.447Z" fill="#241953"/>
<path d="M493.148 78.5535C494.521 79.0013 496.007 79.0348 497.25 78.4362C498.506 77.8837 499.536 76.9085 500.364 75.8035C501.189 74.6902 501.867 73.4596 502.403 72.1621C502.947 70.8687 503.378 69.5252 503.696 68.1523C504.039 66.7836 504.253 65.3856 504.378 63.9793C504.521 62.5729 504.533 61.1582 504.483 59.7435C504.332 56.9182 503.767 54.1013 502.629 51.4309C504.236 53.8544 505.123 56.7466 505.458 59.6598C505.781 62.5855 505.592 65.5656 504.918 68.4411C504.211 71.2957 503.081 74.1209 501.122 76.4188C500.892 76.716 500.603 76.9671 500.348 77.2392C500.076 77.4987 499.778 77.7373 499.481 77.9675C499.159 78.1684 498.866 78.4112 498.514 78.566L498.004 78.8213L497.464 79.0097C496.011 79.5078 494.4 79.2566 493.148 78.5535Z" fill="#241953"/>
<path d="M484.233 70.672C484.932 72.07 485.849 73.3591 486.933 74.4558C488.013 75.5482 489.352 76.4272 490.834 76.6699C492.316 76.9378 493.822 76.4774 495.095 75.6947C496.38 74.912 497.501 73.853 498.502 72.6978C498.761 72.4174 498.983 72.1077 499.23 71.8147C499.343 71.6682 499.481 71.5175 499.573 71.371C499.657 71.2203 499.758 71.0906 499.829 70.9231C500.147 70.2869 500.339 69.5754 500.452 68.8429C500.678 67.3738 500.628 65.8377 500.469 64.3183C500.134 61.2796 499.36 58.245 498.418 55.3403L498.389 55.2565L498.38 55.1603C498.041 51.6402 497.451 48.1034 496.66 44.6461C495.857 41.1972 494.844 37.7692 493.253 34.6761C493.044 34.2994 492.851 33.9059 492.617 33.5502L492.282 33.0018L491.918 32.4786C491.688 32.1187 491.403 31.8089 491.148 31.4741C490.859 31.1811 490.595 30.8463 490.277 30.5909C490.122 30.4612 489.976 30.3063 489.813 30.1933L489.323 29.8417C489.16 29.7203 488.98 29.645 488.808 29.5446L488.549 29.4022L488.251 29.2809L487.071 28.8037L485.861 28.4647C485.455 28.381 485.045 28.3391 484.635 28.2679C484.225 28.247 483.819 28.2428 483.409 28.2428C482.605 28.3265 481.793 28.4437 481.056 28.7786C480.311 29.0841 479.6 29.4943 478.985 30.0385C478.675 30.3021 478.382 30.5909 478.11 30.9007C477.972 31.0514 477.85 31.2188 477.725 31.3778C477.607 31.5369 477.482 31.7211 477.407 31.8508L477.453 31.7545C476.896 33.3325 476.482 35.0611 476.184 36.7605C475.891 38.4724 475.72 40.2052 475.657 41.9422C475.577 43.6792 475.703 45.4204 475.904 47.1449C476.042 48.0029 476.151 48.8652 476.364 49.7065C476.465 50.1292 476.54 50.5603 476.657 50.9747L477.034 52.222C477.273 53.0507 477.578 53.913 477.846 54.7543C478.101 55.6081 478.369 56.4578 478.599 57.32C479.072 59.0361 479.462 60.7773 479.817 62.5185C480.496 66.0093 481.01 69.5335 481.123 73.0829C480.96 71.3166 480.663 69.5712 480.362 67.83C480.048 66.0888 479.675 64.3602 479.248 62.6483C478.382 59.2161 477.302 55.8802 476.059 52.5568L475.624 51.2761C475.485 50.8449 475.389 50.4055 475.272 49.9702C475.021 49.0996 474.891 48.208 474.724 47.3165C474.468 45.5293 474.297 43.7253 474.33 41.9213C474.343 40.1173 474.481 38.3133 474.761 36.5261L474.996 35.1909C475.092 34.7472 475.171 34.3036 475.28 33.8641C475.485 32.9767 475.72 32.1229 476.025 31.2188L476.042 31.1727L476.071 31.1225C476.348 30.637 476.624 30.2812 476.942 29.892C477.256 29.5194 477.599 29.172 477.967 28.8497C478.696 28.1968 479.545 27.6694 480.454 27.2927C481.358 26.8825 482.35 26.7235 483.325 26.6272C483.815 26.6188 484.304 26.623 484.79 26.6481C485.267 26.7193 485.753 26.7737 486.221 26.87L487.607 27.2509C488.05 27.4183 488.486 27.5983 488.925 27.7741L489.256 27.908L489.587 28.0838C489.804 28.2094 490.034 28.314 490.235 28.4563L490.842 28.8874C491.043 29.0297 491.215 29.2055 491.403 29.3604C491.784 29.6701 492.085 30.0426 492.424 30.39C492.713 30.7667 493.04 31.1225 493.299 31.516L493.701 32.0978L494.065 32.7005C494.316 33.0981 494.521 33.5125 494.743 33.9227C495.597 35.5718 496.25 37.2962 496.819 39.0291C497.384 40.7661 497.845 42.5282 498.242 44.2987C499.012 47.8523 499.54 51.4225 499.841 55.0556L499.804 54.8756C500.293 56.4076 500.683 57.9311 501.009 59.4882C501.331 61.041 501.587 62.6106 501.716 64.2053C501.834 65.7958 501.871 67.4156 501.557 69.0354C501.398 69.8391 501.156 70.6469 500.749 71.4003C500.657 71.5886 500.519 71.7728 500.402 71.957C500.281 72.1328 500.143 72.2709 500.013 72.4258C499.745 72.7271 499.498 73.0452 499.213 73.3257C498.129 74.4893 496.916 75.5775 495.48 76.3476C494.074 77.1262 492.362 77.5615 490.746 77.1847C489.13 76.8332 487.783 75.8286 486.728 74.6609C485.665 73.4763 484.844 72.1118 484.233 70.672Z" fill="#241953"/>
<path d="M477.582 36.2917C477.708 35.1825 478.172 34.1236 478.834 33.186C479.499 32.2568 480.429 31.4657 481.521 30.9928C482.065 30.7542 482.643 30.5993 483.229 30.5282C483.81 30.4528 484.401 30.4612 484.97 30.5449C486.108 30.7165 487.176 31.1267 488.088 31.7629C486.987 31.6164 485.933 31.495 484.911 31.5285C484.656 31.5243 484.405 31.5662 484.154 31.5788C483.907 31.6248 483.66 31.6374 483.417 31.7001C482.936 31.7964 482.463 31.9387 482.019 32.1396C481.123 32.5289 480.311 33.1065 479.579 33.8222C478.851 34.538 478.198 35.3709 477.582 36.2917Z" fill="#241953"/>
<path d="M483.668 66.0009C482.509 62.5185 481.567 58.9691 480.763 55.3821C479.968 51.7951 479.349 48.1494 479.223 44.4243C479.194 43.4909 479.219 42.5533 479.307 41.6116C479.395 40.6698 479.554 39.7197 479.863 38.7779C480.182 37.8529 480.675 36.8861 481.571 36.1996C481.793 36.0322 482.036 35.8899 482.291 35.7727C482.417 35.7225 482.555 35.6597 482.676 35.622L483.032 35.5132C483.266 35.4378 483.509 35.3793 483.752 35.329C483.995 35.2662 484.246 35.2411 484.497 35.2118C485.501 35.0904 486.573 35.2202 487.544 35.6178C488.515 36.0238 489.348 36.6977 489.997 37.4678C490.645 38.2422 491.139 39.1086 491.524 40.0043C491.91 40.9126 492.194 41.8041 492.387 42.8086L492.374 42.7542C493.027 45.613 493.613 48.4675 494.14 51.3472C494.664 54.2269 495.128 57.1191 495.35 60.0783C495.405 60.8192 495.442 61.5642 495.438 62.326C495.425 63.0919 495.409 63.8495 495.183 64.7076C495.12 64.9252 495.04 65.1512 494.902 65.3982C494.823 65.5238 494.743 65.6493 494.609 65.7833C494.538 65.8586 494.509 65.8795 494.475 65.913L494.371 66.0051C494.094 66.2479 493.81 66.4948 493.513 66.7334C492.91 67.198 492.29 67.7212 491.303 67.9723C490.813 68.0895 490.189 68.0351 489.725 67.7882C489.26 67.5496 488.925 67.2315 488.636 66.9134C488.498 66.7501 488.377 66.5994 488.247 66.4153C488.184 66.3148 488.113 66.206 488.059 66.1097L487.921 65.8293C487.749 65.461 487.611 65.1094 487.477 64.7536C486.966 63.3431 486.565 61.9325 486.179 60.5136C485.414 57.68 484.802 54.8171 484.288 51.9332C484.032 50.4892 483.806 49.041 483.651 47.576C483.572 46.8435 483.517 46.1069 483.484 45.3618C483.455 44.6168 483.455 43.8676 483.568 43.0891C483.61 42.8882 483.635 42.6956 483.71 42.4863C483.748 42.3817 483.785 42.2771 483.827 42.1724L483.978 41.8962C484.036 41.8041 484.103 41.712 484.166 41.6241C484.242 41.5362 484.317 41.4483 484.409 41.3688C484.593 41.2098 484.832 41.0716 485.104 41.0214C485.66 40.9419 486.121 41.1888 486.439 41.4441C486.77 41.7078 487.025 42.0092 487.255 42.3231C488.138 43.5872 488.653 45.0103 488.95 46.471C489.093 47.1993 489.151 47.9611 489.126 48.6936C489.109 49.4135 489.143 50.1376 489.206 50.8575C489.34 52.2931 489.574 53.7372 490.047 55.1142C489.482 53.7707 489.122 52.3392 488.908 50.891C488.808 50.1669 488.733 49.4344 488.712 48.6977C488.699 47.9736 488.603 47.2788 488.431 46.584C488.08 45.2153 487.498 43.8676 486.652 42.7877C486.439 42.524 486.2 42.2813 485.953 42.1013C485.702 41.9171 485.443 41.8376 485.267 41.8753C485.1 41.9171 484.911 42.0845 484.769 42.3566L484.669 42.5617L484.606 42.7668C484.564 42.9007 484.547 43.0723 484.518 43.2272C484.447 43.8927 484.472 44.6042 484.526 45.3116C484.581 46.019 484.664 46.7347 484.769 47.4463C484.974 48.8693 485.225 50.2924 485.518 51.7072C486.1 54.5408 486.807 57.3535 487.594 60.1327C487.996 61.5182 488.419 62.9036 488.921 64.222C489.051 64.5485 489.181 64.8708 489.327 65.1596L489.436 65.3689L489.536 65.5279C489.62 65.641 489.729 65.7749 489.825 65.8837C490.026 66.1056 490.24 66.2772 490.428 66.3692C490.616 66.4571 490.763 66.4655 490.976 66.4153C491.416 66.3148 491.989 65.9214 492.512 65.4861C492.78 65.2726 493.048 65.034 493.312 64.7997L493.412 64.7117C493.446 64.6824 493.487 64.6448 493.475 64.6532C493.475 64.6573 493.492 64.628 493.513 64.6029C493.55 64.5318 493.596 64.4146 493.634 64.2848C493.78 63.7323 493.814 63.0208 493.814 62.3343C493.814 61.6395 493.776 60.928 493.722 60.2206C493.609 58.7975 493.425 57.3661 493.22 55.9388C493.019 54.5115 492.784 53.08 492.533 51.6569C492.031 48.8066 491.457 45.9562 490.83 43.1309L490.825 43.11L490.821 43.0765C490.683 42.2813 490.432 41.4107 490.106 40.628C489.779 39.8369 489.365 39.0877 488.85 38.4515C488.331 37.8153 487.703 37.3004 486.987 36.9823C486.267 36.6768 485.468 36.5554 484.652 36.6391C484.447 36.66 484.242 36.6768 484.036 36.7228C483.831 36.7563 483.626 36.7982 483.421 36.8609L483.116 36.9446C483.015 36.9739 482.944 37.0074 482.856 37.0367C482.693 37.1079 482.538 37.1916 482.392 37.2962C481.801 37.7148 481.374 38.4263 481.081 39.2132C480.508 40.8121 480.378 42.637 480.357 44.4243C480.336 48.0322 480.839 51.6653 481.416 55.2691C482.002 58.8645 482.789 62.4432 483.668 66.0009Z" fill="#241953"/>
<path d="M486.602 68.4788C487.201 69.3368 487.87 70.1321 488.632 70.7892C489.386 71.4505 490.256 71.9612 491.16 72.116C492.06 72.2625 492.973 72.0616 493.772 71.5635C494.588 71.1031 495.304 70.3999 495.928 69.6507C496.007 69.5586 496.099 69.4749 496.175 69.3787L496.384 69.0773L496.807 68.4788C496.932 68.2695 497.037 68.0519 497.154 67.8342C497.271 67.6207 497.388 67.4073 497.468 67.1729L497.74 66.4906C497.815 66.2562 497.87 66.0177 497.937 65.7833C497.966 65.6661 498.004 65.5447 498.033 65.4275L498.092 65.0633C498.129 64.8206 498.192 64.5778 498.209 64.3309C498.41 62.3511 498.15 60.2876 497.535 58.2869C498.632 60.0783 499.218 62.2172 499.188 64.3937C499.197 64.6657 499.151 64.9378 499.138 65.2098L499.096 65.62C499.075 65.754 499.042 65.8879 499.017 66.0218C498.958 66.2897 498.912 66.5618 498.841 66.8297L498.577 67.6165C498.502 67.8844 498.368 68.1272 498.247 68.3741C498.121 68.6211 498.004 68.8722 497.866 69.1108L497.401 69.7972L497.167 70.1405C497.083 70.2493 496.987 70.3497 496.899 70.4544C496.175 71.2789 495.379 72.0616 494.358 72.5974C493.362 73.1415 492.094 73.3926 490.959 73.0662C489.817 72.7648 488.913 72.0281 488.21 71.2161C487.506 70.3916 486.958 69.4708 486.602 68.4788Z" fill="#241953"/>
</svg>
