<svg width="204" height="280" viewBox="0 0 204 280" fill="none" xmlns="http://www.w3.org/2000/svg">
<path d="M81.771 91.5528C94.3018 84.3181 109.74 84.3181 122.271 91.5528L167.007 117.381C179.538 124.616 187.257 137.986 187.257 152.455V204.112C187.257 218.581 179.538 231.951 167.007 239.186L122.271 265.014C109.74 272.249 94.3018 272.249 81.771 265.014L37.035 239.186C24.5043 231.951 16.785 218.581 16.785 204.112V152.455C16.785 137.986 24.5043 124.616 37.035 117.381L81.771 91.5528Z" stroke="#F2F2F2" stroke-width="5"/>
<path d="M95.7019 33.0435C113.82 14.925 143.196 14.925 161.315 33.0435C179.433 51.162 179.433 80.5379 161.315 98.6564C143.196 116.775 113.82 116.775 95.7019 98.6564C77.5834 80.5379 77.5834 51.162 95.7019 33.0435Z" fill="#18E884"/>
<mask id="mask0" mask-type="alpha" maskUnits="userSpaceOnUse" x="82" y="19" width="93" height="94">
<path d="M95.7019 33.0435C113.82 14.925 143.196 14.925 161.315 33.0435C179.433 51.162 179.433 80.5379 161.315 98.6564C143.196 116.775 113.82 116.775 95.7019 98.6564C77.5834 80.5379 77.5834 51.162 95.7019 33.0435Z" fill="#18E884"/>
</mask>
<g mask="url(#mask0)">
<path d="M81.771 91.5528C94.3018 84.3181 109.74 84.3181 122.271 91.5528L167.007 117.381C179.538 124.616 187.257 137.986 187.257 152.455V204.112C187.257 218.581 179.538 231.951 167.007 239.186L122.271 265.014C109.74 272.249 94.3018 272.249 81.771 265.014L37.035 239.186C24.5043 231.951 16.785 218.581 16.785 204.112V152.455C16.785 137.986 24.5043 124.616 37.035 117.381L81.771 91.5528Z" stroke="#241953" stroke-width="5"/>
</g>
</svg>
