<svg width="122" height="152" viewBox="0 0 122 152" fill="none" xmlns="http://www.w3.org/2000/svg">
<path fill-rule="evenodd" clip-rule="evenodd" d="M69.7366 23.9473C68.3316 26.296 66.9242 28.6489 65.7169 31.1173C70.5799 34.3283 75.6335 37.2964 80.8896 39.8269C82.3856 37.6064 83.685 35.2613 84.9847 32.9158L84.9847 32.9157C86.4467 30.2772 87.909 27.638 89.6519 25.175C99.7665 30.6618 109.706 36.4509 119.559 42.3914C119.493 42.5249 119.427 42.6582 119.361 42.7913L119.994 42.7476L121.554 65.3278L121.591 65.8653L121.353 66.3487C119.013 71.1049 114.4 79.2723 110.708 85.8106C109.298 88.3088 108.021 90.5691 107.057 92.3105L105.987 94.2444L104.169 92.9862L103.599 92.5916L104.854 110.786L104.895 111.379L104.606 111.898C97.4288 124.766 90.0627 137.524 82.4851 150.211L81.5104 151.843L79.8311 150.953C73.9638 147.842 68.1732 144.458 62.4335 141.104L62.4332 141.104L62.4327 141.104C58.7515 138.953 55.0913 136.814 51.4452 134.767L51.4347 134.761L51.4242 134.755C50.6908 134.332 49.9384 133.908 49.1754 133.479L49.1748 133.478L49.1746 133.478C46.6196 132.04 43.9464 130.535 41.4748 128.746L40.5819 128.1L40.6516 127L42.1642 103.114L43.1257 103.175C45.6731 98.5181 48.3522 93.9298 51.0405 89.3457L48.7313 87.6485C48.4391 88.1634 48.0954 88.7682 47.7076 89.4495C46.3834 91.7761 44.5441 94.9946 42.4842 98.5624C38.37 105.688 33.3565 114.241 29.8094 119.857L28.8086 121.441L27.1626 120.545C21.0632 117.226 15.7246 113.789 10.2738 110.28L10.2738 110.28C7.53572 108.517 4.76935 106.735 1.86407 104.942L0.914642 104.356L0.914651 103.24L0.914902 79.6604L1.43525 79.6604C1.91138 78.6883 2.39381 77.7146 2.91975 76.7291C9.23627 65.8323 15.5284 54.934 21.8205 44.0357C28.1126 33.1375 34.4048 22.2392 40.7212 11.3425C41.3045 10.3322 41.8715 9.31634 42.4372 8.30264L42.4373 8.30249C43.904 5.67437 45.3627 3.06058 47.0779 0.594849C56.2076 5.51299 65.2224 10.7177 74.0465 16.1652C72.7859 18.8496 71.2627 21.396 69.7366 23.9473ZM4.91488 82.4426L4.91467 102.127C7.60152 103.799 10.1286 105.426 12.6034 107.02L12.6038 107.021L12.604 107.021C17.4745 110.158 22.1426 113.164 27.4274 116.123C30.8343 110.632 35.2829 103.036 39.0201 96.5624C41.075 93.0034 42.91 89.7922 44.2313 87.4708C44.892 86.3102 45.4241 85.3722 45.7909 84.7245C45.9744 84.4006 46.1165 84.1494 46.2126 83.9792L46.3219 83.7858L46.3496 83.7367L46.3566 83.7244L46.3583 83.7214L46.3587 83.7206C46.3588 83.7205 46.3588 83.7204 48.1008 84.7031L46.3588 83.7204L47.4673 81.7555L49.2852 83.0915L53.0746 85.8765C56.1943 80.5481 59.2848 75.2034 62.1536 69.7421C57.588 66.8033 52.8912 64.0916 48.1011 61.6288C44.8492 66.8908 41.7937 72.2774 38.7357 77.6684C35.2945 83.7351 31.85 89.8075 28.1188 95.7143C20.2897 91.454 12.5412 87.0542 4.91488 82.4426ZM45.9739 106.244L44.7144 126.134C46.717 127.502 48.8171 128.685 51.0026 129.916L51.0029 129.916L51.0054 129.917C51.7972 130.363 52.6001 130.815 53.4137 131.285C57.1932 133.407 60.8956 135.571 64.584 137.727L64.5865 137.729C69.7043 140.72 74.7952 143.696 80.0283 146.522C87.1406 134.579 94.0658 122.572 100.823 110.468L99.6566 93.5619C93.5046 104.479 87.2131 115.321 80.7683 126.112C74.9218 123.011 69.212 119.674 63.5107 116.342C59.8233 114.187 56.1395 112.034 52.4246 109.949C51.6496 109.501 50.8698 109.062 50.09 108.623L50.0899 108.623C48.709 107.846 47.3281 107.068 45.9739 106.244ZM98.4884 85.1676L98.9467 84.5056L102.456 86.9352L104.634 88.4428C105.43 87.0224 106.337 85.4156 107.301 83.7086L107.306 83.6995C110.858 77.4101 115.176 69.763 117.526 65.0626L116.372 48.3648C115.271 50.3051 114.131 52.2264 112.991 54.149L112.991 54.1495C111.569 56.5454 110.147 58.9434 108.796 61.383C108.115 62.5344 107.457 63.6989 106.799 64.8634L106.799 64.8643C105.373 67.3866 103.948 69.9088 102.292 72.2979C99.4237 70.9762 96.7286 69.3537 94.0335 67.7313L94.0333 67.7312C91.8564 66.4207 89.6795 65.1102 87.4112 63.9582C84.9745 67.391 82.9332 71.102 81.005 74.8788C84.7141 77.3097 88.5554 79.4875 92.3973 81.6655L92.3976 81.6657L92.3979 81.6658C94.4345 82.8204 96.4712 83.9751 98.4884 85.1676ZM88.7264 34.4162C89.4902 33.0387 90.2271 31.7221 90.9857 30.4626C98.8286 34.7819 106.579 39.2804 114.284 43.8891C112.824 46.5956 111.278 49.1962 109.687 51.8743L109.687 51.8747C108.26 54.2755 106.796 56.7386 105.324 59.3961C104.565 60.6811 103.873 61.9074 103.203 63.0926L103.203 63.0928L103.203 63.0931C102.422 64.4758 101.673 65.8027 100.887 67.1021C99.5672 66.3786 98.2428 65.5941 96.8704 64.7699C96.716 64.6771 96.5608 64.5838 96.4048 64.4899C96.3015 64.4277 96.1979 64.3653 96.094 64.3027C93.9326 63.0012 91.628 61.6135 89.2225 60.3918L86.1464 58.8295L84.1494 61.6429C81.5448 65.3123 79.4001 69.2254 77.4424 73.0601L75.8104 76.2569L78.8124 78.2243C82.4889 80.6339 86.271 82.7899 89.9426 84.8719L90.3935 85.1276L90.3937 85.1277C92.8139 86.4998 95.1828 87.8428 97.5006 89.235C91.566 99.8118 85.5012 110.316 79.2937 120.77C74.6829 118.24 70.1963 115.617 65.6623 112.966L65.6604 112.965C61.9703 110.807 58.2488 108.631 54.4035 106.473C53.5491 105.979 52.722 105.513 51.918 105.061L51.9148 105.059C50.5246 104.276 49.2034 103.531 47.9295 102.753C50.2409 98.6143 52.6479 94.511 55.0803 90.3644L55.0806 90.3639L55.9082 88.9527C59.2355 83.2772 62.5885 77.5155 65.6948 71.6022L67.3977 68.3605L64.3186 66.3786C59.645 63.3704 54.8362 60.5939 49.93 58.0715L46.642 56.381L44.6984 59.526C41.4055 64.8543 38.3152 70.3024 35.2656 75.6788L34.6819 76.7078C32.0555 81.3363 29.448 85.909 26.7171 90.3864C19.8645 86.6101 13.0887 82.7229 6.41531 78.675L6.41622 78.6732C12.7225 67.794 19.0042 56.9138 25.2838 46.0372L25.2846 46.0357C31.577 35.137 37.8674 24.2417 44.1819 13.3485L44.1853 13.3425C44.8359 12.2157 45.4401 11.1329 46.0254 10.0841C46.8391 8.62594 47.616 7.23372 48.4293 5.88116C55.2983 9.64441 62.0963 13.5692 68.7899 17.6363C68.0716 18.9296 67.2969 20.2332 66.4853 21.5906L66.2784 21.9364C64.8935 24.2513 63.4071 26.7356 62.1236 29.3599L60.579 32.5181L63.5129 34.4553C68.4909 37.7422 73.7023 40.806 79.1545 43.4309L82.273 44.9324L84.207 42.0619C85.8041 39.6913 87.1827 37.2026 88.4646 34.8885L88.7264 34.4162Z" fill="#18E884"/>
</svg>
