<svg width="57" height="38" viewBox="0 0 57 38" fill="none" xmlns="http://www.w3.org/2000/svg">
<path opacity="0.4" d="M16.4745 22.7693L4.76031 23.8053C2.13143 23.8053 0 21.6531 0 18.9986C0 16.3441 2.13143 14.1919 4.76031 14.1919L16.4745 15.2279C18.5369 15.2279 20.2088 16.9162 20.2088 18.9986C20.2088 21.0845 18.5369 22.7693 16.4745 22.7693Z" fill="white"/>
<path d="M55.8113 22.5788C55.6282 22.7637 54.9442 23.5451 54.3016 24.1939C50.5535 28.2576 40.7669 34.9025 35.6473 36.9361C34.8701 37.2605 32.9044 37.9512 31.8508 38C30.8456 38 29.8852 37.7663 28.9698 37.3059C27.8263 36.6605 26.9143 35.642 26.41 34.4421C26.0887 33.6119 25.5844 31.1179 25.5844 31.0725C25.0835 28.3483 24.8105 23.9183 24.8105 19.0209C24.8105 14.3607 25.0835 10.1122 25.4945 7.34257C25.5394 7.29374 26.0438 4.19974 26.5931 3.13934C27.5983 1.19992 29.5639 0 31.6677 0H31.8508C33.2223 0.0453453 36.1033 1.24876 36.1033 1.29062C40.95 3.32421 50.5051 9.64824 54.3466 13.8515C54.3466 13.8515 55.4313 14.9328 55.9011 15.606C56.6334 16.5757 56.9996 17.7757 56.9996 18.9756C56.9996 20.315 56.5885 21.5603 55.8113 22.5788Z" fill="white"/>
</svg>
