<svg width="45" height="43" viewBox="0 0 45 43" fill="none" xmlns="http://www.w3.org/2000/svg">
<path fill-rule="evenodd" clip-rule="evenodd" d="M30.9075 0.000356322C32.3156 0.000356322 33.7215 0.198967 35.0582 0.647516C43.295 3.32542 46.263 12.3633 43.7837 20.2631C42.3778 24.3001 40.0793 27.9844 37.0689 30.9948C32.7597 35.1679 28.031 38.8723 22.9407 42.0635L22.3828 42.4005L21.8026 42.0412C16.6945 38.8723 11.939 35.1679 7.58966 30.9725C4.59933 27.9621 2.29857 24.3001 0.870355 20.2631C-1.65134 12.3633 1.31667 3.32542 9.64272 0.600653C10.2899 0.377494 10.9571 0.221283 11.6266 0.134251H11.8944C12.5215 0.0427564 13.1441 0.000356322 13.7689 0.000356322H14.0144C15.4203 0.0427564 16.7816 0.288231 18.1004 0.736779H18.2321C18.3213 0.779179 18.3883 0.826043 18.4329 0.868443C18.9261 1.02689 19.3925 1.20541 19.8388 1.45089L20.6868 1.83026C20.8917 1.93954 21.1217 2.10653 21.3205 2.25085C21.4465 2.34228 21.5599 2.42462 21.6464 2.47742C21.6828 2.4989 21.7198 2.52051 21.7572 2.5423C21.9485 2.65399 22.1478 2.77034 22.3159 2.89918C24.7952 1.00457 27.8056 -0.0219595 30.9075 0.000356322ZM36.8433 16.0678C37.7582 16.0432 38.5393 15.309 38.6062 14.3695V14.104C38.6732 10.9775 36.7786 8.14564 33.8976 7.05217C32.9826 6.73751 31.9784 7.23069 31.6437 8.16796C31.3313 9.10522 31.8222 10.1318 32.7595 10.4643C34.1899 10.9998 35.1473 12.408 35.1473 13.9678V14.037C35.1049 14.5481 35.2589 15.0412 35.5713 15.4206C35.8837 15.8 36.3523 16.0209 36.8433 16.0678Z" fill="url(#paint0_linear_501_200)"/>
<defs>
<linearGradient id="paint0_linear_501_200" x1="22.3161" y1="0" x2="22.3161" y2="42.4005" gradientUnits="userSpaceOnUse">
<stop stop-color="#FF4665"/>
<stop offset="1" stop-color="#CE071D"/>
</linearGradient>
</defs>
</svg>
