<svg width="101" height="1020" viewBox="0 0 101 1020" fill="none" xmlns="http://www.w3.org/2000/svg">
<path opacity="0.4" d="M100.721 113.264C100.721 56.6941 51.6886 56.6941 51.6886 2.25938e-06L0 0C-2.47273e-06 56.5695 49.0327 56.5695 49.0327 113.264C49.0327 169.833 -7.42364e-06 169.833 -9.90182e-06 226.527C-1.23746e-05 283.097 49.0327 283.097 49.0327 339.791C49.0327 396.36 -1.73255e-05 396.36 -1.98036e-05 453.055C-2.22764e-05 509.624 49.0327 509.624 49.0327 566.318C49.0327 622.888 -2.72273e-05 622.888 -2.97055e-05 679.582C-3.21782e-05 736.151 49.0327 736.151 49.0327 792.845C49.0327 849.415 -3.71291e-05 849.415 -3.96073e-05 906.109C-4.208e-05 962.679 49.0327 962.679 49.0327 1019.37L100.721 1019.37C100.721 962.803 51.6886 962.803 51.6886 906.109C51.6886 849.539 100.721 849.54 100.721 792.845C100.721 736.276 51.6886 736.276 51.6886 679.582C51.6886 623.012 100.721 623.012 100.721 566.318C100.721 509.749 51.6886 509.749 51.6886 453.055C51.6886 396.485 100.721 396.485 100.721 339.791C100.721 283.221 51.6886 283.221 51.6886 226.527C51.6886 169.958 100.721 169.958 100.721 113.264Z" fill="#171F22"/>
</svg>
