<svg width="101" height="1020" viewBox="0 0 101 1020" fill="none" xmlns="http://www.w3.org/2000/svg">
<path opacity="0.4" d="M100.721 906.109C100.721 962.679 51.6886 962.679 51.6886 1019.37L0 1019.37C-2.47273e-06 962.803 49.0327 962.803 49.0327 906.109C49.0327 849.54 -7.42364e-06 849.54 -9.90182e-06 792.846C-1.23746e-05 736.276 49.0327 736.276 49.0327 679.582C49.0327 623.012 -1.73255e-05 623.012 -1.98036e-05 566.318C-2.22764e-05 509.749 49.0327 509.749 49.0327 453.055C49.0327 396.485 -2.72273e-05 396.485 -2.97055e-05 339.791C-3.21782e-05 283.221 49.0327 283.221 49.0327 226.527C49.0327 169.958 -3.71291e-05 169.958 -3.96073e-05 113.264C-4.208e-05 56.6943 49.0327 56.6942 49.0327 0.000119927L100.721 0.000117668C100.721 56.5696 51.6886 56.5697 51.6886 113.264C51.6886 169.833 100.721 169.833 100.721 226.527C100.721 283.097 51.6886 283.097 51.6886 339.791C51.6886 396.361 100.721 396.361 100.721 453.055C100.721 509.624 51.6886 509.624 51.6886 566.318C51.6886 622.888 100.721 622.888 100.721 679.582C100.721 736.151 51.6886 736.151 51.6886 792.846C51.6886 849.415 100.721 849.415 100.721 906.109Z" fill="#171F22"/>
</svg>
