<svg width="101" height="1020" viewBox="0 0 101 1020" fill="none" xmlns="http://www.w3.org/2000/svg">
<path opacity="0.4" d="M100.721 906.109C100.721 962.679 51.6887 962.679 51.6887 1019.37L6.10352e-05 1019.37C5.85624e-05 962.804 49.0328 962.804 49.0328 906.109C49.0328 849.54 5.36115e-05 849.54 5.11333e-05 792.846C4.86606e-05 736.276 49.0328 736.276 49.0328 679.582C49.0328 623.013 4.37097e-05 623.013 4.12315e-05 566.318C3.87588e-05 509.749 49.0328 509.749 49.0328 453.055C49.0328 396.485 3.38079e-05 396.485 3.13297e-05 339.791C2.8857e-05 283.222 49.0328 283.222 49.0328 226.528C49.0328 169.958 2.39061e-05 169.958 2.14279e-05 113.264C1.89551e-05 56.6945 49.0327 56.6945 49.0327 0.000364068L100.721 0.000361808C100.721 56.5699 51.6887 56.5699 51.6887 113.264C51.6887 169.834 100.721 169.833 100.721 226.528C100.721 283.097 51.6887 283.097 51.6887 339.791C51.6887 396.361 100.721 396.361 100.721 453.055C100.721 509.624 51.6887 509.624 51.6887 566.318C51.6887 622.888 100.721 622.888 100.721 679.582C100.721 736.152 51.6887 736.152 51.6887 792.846C51.6887 849.415 100.721 849.415 100.721 906.109Z" fill="#171F22"/>
</svg>
