<svg width="1135" height="1135" viewBox="0 0 1135 1135" fill="none" xmlns="http://www.w3.org/2000/svg">
<mask id="mask0_422_433" style="mask-type:alpha" maskUnits="userSpaceOnUse" x="0" y="0" width="1135" height="1135">
<path d="M567.024 1134.05C253.821 1134.05 0 880.228 0 567.024C0 253.821 253.821 0 567.024 0L567.024 1134.05Z" fill="#31B94C"/>
<path d="M567.025 1134.05C880.228 1134.05 1134.05 880.228 1134.05 567.024C1134.05 253.821 880.228 0 567.025 0L567.025 1134.05Z" fill="#31B94C"/>
</mask>
<g mask="url(#mask0_422_433)">
<path d="M567.024 1134.05C253.821 1134.05 0 880.228 0 567.024C0 253.821 253.821 0 567.024 0L567.024 1134.05Z" fill="#31B94C"/>
<path d="M567.025 1134.05C880.228 1134.05 1134.05 880.228 1134.05 567.024C1134.05 253.821 880.228 0 567.025 0L567.025 1134.05Z" fill="#31B94C"/>
<g opacity="0.4">
<path opacity="0.4" fill-rule="evenodd" clip-rule="evenodd" d="M262.721 1473.11C262.721 1501.38 250.477 1515.52 238.225 1529.67C225.977 1543.82 213.723 1557.97 213.689 1586.25H214.23C214.23 1614.62 226.502 1628.79 238.767 1642.96C251.018 1657.11 263.263 1671.25 263.263 1699.52C263.263 1727.88 250.991 1742.05 238.727 1756.22C226.475 1770.37 214.23 1784.51 214.23 1812.78C214.23 1841.14 226.502 1855.32 238.767 1869.48C251.018 1883.63 263.263 1897.78 263.263 1926.05C263.263 1954.41 250.991 1968.58 238.727 1982.75C226.475 1996.9 214.23 2011.04 214.23 2039.31C214.23 2067.67 226.502 2081.85 238.767 2096.01C251.018 2110.16 263.263 2124.3 263.263 2152.57C263.263 2180.94 250.991 2195.11 238.727 2209.27C226.475 2223.42 214.23 2237.57 214.23 2265.84C214.23 2294.2 226.502 2308.37 238.767 2322.54C251.018 2336.69 263.263 2350.83 263.263 2379.1C263.263 2407.46 250.991 2421.64 238.727 2435.8C226.475 2449.95 214.23 2464.09 214.23 2492.36C214.23 2520.73 226.502 2534.9 238.767 2549.07C251.018 2563.22 263.263 2577.36 263.263 2605.63L211.574 2605.63C211.574 2577.26 199.303 2563.09 187.038 2548.93C174.786 2534.77 162.542 2520.63 162.542 2492.36C162.542 2464 174.813 2449.83 187.078 2435.66C199.33 2421.51 211.574 2407.37 211.574 2379.1C211.574 2350.74 199.303 2336.56 187.038 2322.4C174.786 2308.25 162.542 2294.11 162.542 2265.84C162.542 2237.47 174.813 2223.3 187.078 2209.13C199.33 2194.98 211.574 2180.84 211.574 2152.57C211.574 2124.21 199.303 2110.04 187.038 2095.87C174.786 2081.72 162.542 2067.58 162.542 2039.31C162.542 2010.95 174.813 1996.77 187.078 1982.61C199.33 1968.46 211.574 1954.31 211.574 1926.05C211.575 1897.68 199.303 1883.51 187.038 1869.34C174.786 1855.19 162.542 1841.05 162.542 1812.78C162.542 1784.42 174.813 1770.25 187.078 1756.08C199.33 1741.93 211.575 1727.79 211.575 1699.52C211.575 1671.16 199.303 1656.98 187.038 1642.82C174.804 1628.69 162.576 1614.56 162.542 1586.37H162C162 1558.1 174.245 1543.96 186.496 1529.81C198.761 1515.65 211.033 1501.47 211.033 1473.11C211.033 1444.84 198.788 1430.7 186.537 1416.55C174.272 1402.38 162 1388.21 162 1359.85C162 1331.58 174.245 1317.43 186.496 1303.28C198.761 1289.12 211.033 1274.94 211.033 1246.58C211.033 1218.31 198.788 1204.17 186.537 1190.02C174.272 1175.85 162 1161.68 162 1133.32C162 1105.05 174.245 1090.91 186.496 1076.76C198.761 1062.59 211.033 1048.42 211.033 1020.05C211.033 991.786 198.788 977.643 186.537 963.493C174.272 949.328 162 935.154 162 906.791C162 878.522 174.245 864.38 186.496 850.23C198.761 836.064 211.033 821.89 211.033 793.528C211.033 765.258 198.788 751.116 186.537 736.966C174.272 722.8 162 708.627 162 680.264C162 651.995 174.245 637.853 186.496 623.702C198.761 609.537 211.033 595.363 211.033 567H212.032C211.925 538.886 199.707 524.774 187.496 510.671C175.245 496.521 163 482.378 163 454.109C163 425.746 175.272 411.573 187.537 397.407C199.788 383.257 212.033 369.115 212.033 340.845C212.033 312.483 199.761 298.309 187.496 284.144C175.245 269.993 163 255.851 163 227.582C163 199.219 175.272 185.046 187.537 170.88C199.788 156.73 212.033 142.587 212.033 114.318C212.033 85.9556 199.761 71.782 187.496 57.6162C175.245 43.4661 163 29.3237 163 1.05469C163 -27.3081 175.272 -41.4817 187.537 -55.6475C199.788 -69.7976 212.033 -83.9399 212.033 -112.209C212.033 -140.572 199.761 -154.745 187.496 -168.911C175.245 -183.061 163 -197.204 163 -225.473C163 -253.835 175.272 -268.009 187.537 -282.175C199.788 -296.325 212.033 -310.467 212.033 -338.736C212.033 -367.099 199.761 -381.272 187.496 -395.438C175.299 -409.526 163.108 -423.606 163.001 -451.627H163C163 -451.689 163 -451.751 163 -451.813C163 -451.875 163 -451.938 163 -452H163.001C163.108 -480.021 175.299 -494.101 187.496 -508.189C199.761 -522.354 212.033 -536.528 212.033 -564.891C212.033 -593.16 199.788 -607.302 187.537 -621.452C175.272 -635.618 163 -649.792 163 -678.154C163 -706.423 175.245 -720.566 187.496 -734.716C199.761 -748.882 212.033 -763.055 212.033 -791.418C212.033 -819.687 199.788 -833.829 187.537 -847.979C175.272 -862.145 163 -876.319 163 -904.682C163 -932.951 175.245 -947.093 187.496 -961.243C199.761 -975.409 212.033 -989.583 212.033 -1017.95C212.033 -1046.21 199.788 -1060.36 187.537 -1074.51C175.272 -1088.67 163 -1102.85 163 -1131.21C163 -1159.48 175.245 -1173.62 187.496 -1187.77C199.761 -1201.94 212.033 -1216.11 212.033 -1244.47C212.033 -1272.74 199.788 -1286.88 187.537 -1301.03C175.272 -1315.2 163 -1329.37 163 -1357.74C163 -1386.01 175.245 -1400.15 187.496 -1414.3C199.761 -1428.46 212.033 -1442.64 212.033 -1471H263.721C263.721 -1442.73 251.477 -1428.59 239.225 -1414.44C226.96 -1400.27 214.689 -1386.1 214.689 -1357.74C214.689 -1329.47 226.933 -1315.32 239.185 -1301.17C251.45 -1287.01 263.721 -1272.83 263.721 -1244.47C263.721 -1216.2 251.477 -1202.06 239.225 -1187.91C226.96 -1173.74 214.689 -1159.57 214.689 -1131.21C214.689 -1102.94 226.933 -1088.8 239.185 -1074.65C251.45 -1060.48 263.721 -1046.31 263.721 -1017.95C263.721 -989.676 251.477 -975.534 239.225 -961.384C226.96 -947.218 214.689 -933.044 214.689 -904.682C214.689 -876.412 226.933 -862.27 239.185 -848.12C251.45 -833.954 263.721 -819.781 263.721 -791.418C263.721 -763.149 251.477 -749.006 239.225 -734.856C226.96 -720.69 214.689 -706.517 214.689 -678.154C214.689 -649.885 226.933 -635.743 239.185 -621.593C251.45 -607.427 263.721 -593.253 263.721 -564.891C263.721 -536.621 251.477 -522.479 239.225 -508.329C226.987 -494.194 214.743 -480.052 214.689 -451.813C214.743 -423.575 226.987 -409.433 239.225 -395.298C251.477 -381.148 263.721 -367.006 263.721 -338.736C263.721 -310.374 251.45 -296.2 239.185 -282.034C226.933 -267.884 214.689 -253.742 214.689 -225.473C214.689 -197.11 226.96 -182.937 239.225 -168.771C251.477 -154.621 263.721 -140.478 263.721 -112.209C263.721 -83.8464 251.45 -69.6729 239.185 -55.5071C226.933 -41.3569 214.689 -27.2146 214.689 1.05469C214.689 29.4172 226.96 43.5908 239.225 57.7566C251.477 71.9067 263.721 86.0491 263.721 114.318C263.721 142.681 251.45 156.854 239.185 171.02C226.933 185.17 214.689 199.312 214.689 227.582C214.689 255.944 226.96 270.118 239.225 284.284C251.477 298.434 263.721 312.576 263.721 340.845C263.721 369.208 251.45 383.382 239.185 397.547C226.933 411.698 214.689 425.84 214.689 454.109C214.689 482.472 226.96 496.645 239.225 510.811C251.477 524.961 263.721 539.104 263.721 567.373H262.721C262.614 595.394 250.423 609.474 238.225 623.562C225.96 637.728 213.689 651.901 213.689 680.264C213.689 708.533 225.933 722.676 238.185 736.826C250.45 750.992 262.721 765.165 262.721 793.528C262.721 821.797 250.477 835.939 238.225 850.089C225.96 864.255 213.689 878.429 213.689 906.791C213.689 935.061 225.933 949.203 238.185 963.353C250.45 977.519 262.721 991.692 262.721 1020.05C262.721 1048.32 250.477 1062.47 238.225 1076.62C225.96 1090.78 213.689 1104.96 213.689 1133.32C213.689 1161.59 225.933 1175.73 238.185 1189.88C250.45 1204.05 262.721 1218.22 262.721 1246.58C262.721 1274.85 250.477 1288.99 238.225 1303.14C225.96 1317.31 213.689 1331.48 213.689 1359.85C213.689 1388.12 225.933 1402.26 238.185 1416.41C250.45 1430.57 262.721 1444.75 262.721 1473.11Z" fill="#171F22"/>
<path opacity="0.4" fill-rule="evenodd" clip-rule="evenodd" d="M687.721 1473.11C687.721 1501.38 675.477 1515.52 663.225 1529.67C650.977 1543.82 638.723 1557.97 638.689 1586.25H639.23C639.23 1614.62 651.502 1628.79 663.767 1642.96C676.018 1657.11 688.263 1671.25 688.263 1699.52C688.263 1727.88 675.991 1742.05 663.727 1756.22C651.475 1770.37 639.23 1784.51 639.23 1812.78C639.23 1841.14 651.502 1855.32 663.767 1869.48C676.018 1883.63 688.263 1897.78 688.263 1926.05C688.263 1954.41 675.991 1968.58 663.727 1982.75C651.475 1996.9 639.23 2011.04 639.23 2039.31C639.23 2067.67 651.502 2081.85 663.767 2096.01C676.018 2110.16 688.263 2124.3 688.263 2152.57C688.263 2180.94 675.991 2195.11 663.727 2209.27C651.475 2223.42 639.23 2237.57 639.23 2265.84C639.23 2294.2 651.502 2308.37 663.767 2322.54C676.018 2336.69 688.263 2350.83 688.263 2379.1C688.263 2407.46 675.991 2421.64 663.727 2435.8C651.475 2449.95 639.23 2464.09 639.23 2492.36C639.23 2520.73 651.502 2534.9 663.767 2549.07C676.018 2563.22 688.263 2577.36 688.263 2605.63L636.574 2605.63C636.574 2577.26 624.303 2563.09 612.038 2548.93C599.786 2534.77 587.542 2520.63 587.542 2492.36C587.542 2464 599.813 2449.83 612.078 2435.66C624.33 2421.51 636.574 2407.37 636.574 2379.1C636.574 2350.74 624.303 2336.56 612.038 2322.4C599.786 2308.25 587.542 2294.11 587.542 2265.84C587.542 2237.47 599.813 2223.3 612.078 2209.13C624.33 2194.98 636.574 2180.84 636.574 2152.57C636.574 2124.21 624.303 2110.04 612.038 2095.87C599.786 2081.72 587.542 2067.58 587.542 2039.31C587.542 2010.95 599.813 1996.77 612.078 1982.61C624.33 1968.46 636.574 1954.31 636.574 1926.05C636.575 1897.68 624.303 1883.51 612.038 1869.34C599.786 1855.19 587.542 1841.05 587.542 1812.78C587.542 1784.42 599.813 1770.25 612.078 1756.08C624.33 1741.93 636.575 1727.79 636.575 1699.52C636.575 1671.16 624.303 1656.98 612.038 1642.82C599.804 1628.69 587.576 1614.56 587.542 1586.37H587C587 1558.1 599.245 1543.96 611.496 1529.81C623.761 1515.65 636.033 1501.47 636.033 1473.11C636.033 1444.84 623.788 1430.7 611.537 1416.55C599.272 1402.38 587 1388.21 587 1359.85C587 1331.58 599.245 1317.43 611.496 1303.28C623.761 1289.12 636.033 1274.94 636.033 1246.58C636.033 1218.31 623.788 1204.17 611.537 1190.02C599.272 1175.85 587 1161.68 587 1133.32C587 1105.05 599.245 1090.91 611.496 1076.76C623.761 1062.59 636.033 1048.42 636.033 1020.05C636.033 991.786 623.788 977.643 611.537 963.493C599.272 949.328 587 935.154 587 906.791C587 878.522 599.245 864.38 611.496 850.23C623.761 836.064 636.033 821.89 636.033 793.528C636.033 765.258 623.788 751.116 611.537 736.966C599.272 722.8 587 708.627 587 680.264C587 651.995 599.245 637.853 611.496 623.702C623.761 609.537 636.033 595.363 636.033 567H637.032C636.925 538.886 624.707 524.774 612.496 510.671C600.245 496.521 588 482.378 588 454.109C588 425.746 600.272 411.573 612.537 397.407C624.788 383.257 637.033 369.115 637.033 340.845C637.033 312.483 624.761 298.309 612.496 284.144C600.245 269.993 588 255.851 588 227.582C588 199.219 600.272 185.046 612.537 170.88C624.788 156.73 637.033 142.587 637.033 114.318C637.033 85.9556 624.761 71.782 612.496 57.6162C600.245 43.4661 588 29.3237 588 1.05469C588 -27.3081 600.272 -41.4817 612.537 -55.6475C624.788 -69.7976 637.033 -83.9399 637.033 -112.209C637.033 -140.572 624.761 -154.745 612.496 -168.911C600.245 -183.061 588 -197.204 588 -225.473C588 -253.835 600.272 -268.009 612.537 -282.175C624.788 -296.325 637.033 -310.467 637.033 -338.736C637.033 -367.099 624.761 -381.272 612.496 -395.438C600.299 -409.526 588.108 -423.606 588.001 -451.627H588C588 -451.689 588 -451.751 588 -451.813C588 -451.875 588 -451.938 588 -452H588.001C588.108 -480.021 600.299 -494.101 612.496 -508.189C624.761 -522.354 637.033 -536.528 637.033 -564.891C637.033 -593.16 624.788 -607.302 612.537 -621.452C600.272 -635.618 588 -649.792 588 -678.154C588 -706.423 600.245 -720.566 612.496 -734.716C624.761 -748.882 637.033 -763.055 637.033 -791.418C637.033 -819.687 624.788 -833.829 612.537 -847.979C600.272 -862.145 588 -876.319 588 -904.682C588 -932.951 600.245 -947.093 612.496 -961.243C624.761 -975.409 637.033 -989.583 637.033 -1017.95C637.033 -1046.21 624.788 -1060.36 612.537 -1074.51C600.272 -1088.67 588 -1102.85 588 -1131.21C588 -1159.48 600.245 -1173.62 612.496 -1187.77C624.761 -1201.94 637.033 -1216.11 637.033 -1244.47C637.033 -1272.74 624.788 -1286.88 612.537 -1301.03C600.272 -1315.2 588 -1329.37 588 -1357.74C588 -1386.01 600.245 -1400.15 612.496 -1414.3C624.761 -1428.46 637.033 -1442.64 637.033 -1471H688.721C688.721 -1442.73 676.477 -1428.59 664.225 -1414.44C651.96 -1400.27 639.689 -1386.1 639.689 -1357.74C639.689 -1329.47 651.933 -1315.32 664.185 -1301.17C676.45 -1287.01 688.721 -1272.83 688.721 -1244.47C688.721 -1216.2 676.477 -1202.06 664.225 -1187.91C651.96 -1173.74 639.689 -1159.57 639.689 -1131.21C639.689 -1102.94 651.933 -1088.8 664.185 -1074.65C676.45 -1060.48 688.721 -1046.31 688.721 -1017.95C688.721 -989.676 676.477 -975.534 664.225 -961.384C651.96 -947.218 639.689 -933.044 639.689 -904.682C639.689 -876.412 651.933 -862.27 664.185 -848.12C676.45 -833.954 688.721 -819.781 688.721 -791.418C688.721 -763.149 676.477 -749.006 664.225 -734.856C651.96 -720.69 639.689 -706.517 639.689 -678.154C639.689 -649.885 651.933 -635.743 664.185 -621.593C676.45 -607.427 688.721 -593.253 688.721 -564.891C688.721 -536.621 676.477 -522.479 664.225 -508.329C651.987 -494.194 639.743 -480.052 639.689 -451.813C639.743 -423.575 651.987 -409.433 664.225 -395.298C676.477 -381.148 688.721 -367.006 688.721 -338.736C688.721 -310.374 676.45 -296.2 664.185 -282.034C651.933 -267.884 639.689 -253.742 639.689 -225.473C639.689 -197.11 651.96 -182.937 664.225 -168.771C676.477 -154.621 688.721 -140.478 688.721 -112.209C688.721 -83.8464 676.45 -69.6729 664.185 -55.5071C651.933 -41.3569 639.689 -27.2146 639.689 1.05469C639.689 29.4172 651.96 43.5908 664.225 57.7566C676.477 71.9067 688.721 86.0491 688.721 114.318C688.721 142.681 676.45 156.854 664.185 171.02C651.933 185.17 639.689 199.312 639.689 227.582C639.689 255.944 651.96 270.118 664.225 284.284C676.477 298.434 688.721 312.576 688.721 340.845C688.721 369.208 676.45 383.382 664.185 397.547C651.933 411.698 639.689 425.84 639.689 454.109C639.689 482.472 651.96 496.645 664.225 510.811C676.477 524.961 688.721 539.104 688.721 567.373H687.721C687.614 595.394 675.423 609.474 663.225 623.562C650.96 637.728 638.689 651.901 638.689 680.264C638.689 708.533 650.933 722.676 663.185 736.826C675.45 750.992 687.721 765.165 687.721 793.528C687.721 821.797 675.477 835.939 663.225 850.089C650.96 864.255 638.689 878.429 638.689 906.791C638.689 935.061 650.933 949.203 663.185 963.353C675.45 977.519 687.721 991.692 687.721 1020.05C687.721 1048.32 675.477 1062.47 663.225 1076.62C650.96 1090.78 638.689 1104.96 638.689 1133.32C638.689 1161.59 650.933 1175.73 663.185 1189.88C675.45 1204.05 687.721 1218.22 687.721 1246.58C687.721 1274.85 675.477 1288.99 663.225 1303.14C650.96 1317.31 638.689 1331.48 638.689 1359.85C638.689 1388.12 650.933 1402.26 663.185 1416.41C675.45 1430.57 687.721 1444.75 687.721 1473.11Z" fill="#171F22"/>
<path opacity="0.4" fill-rule="evenodd" clip-rule="evenodd" d="M404.443 1473.11C404.443 1501.38 392.198 1515.52 379.947 1529.67C367.699 1543.82 355.444 1557.97 355.41 1586.25H355.952C355.952 1614.62 368.224 1628.79 380.488 1642.96C392.74 1657.11 404.985 1671.25 404.985 1699.52C404.985 1727.88 392.713 1742.05 380.448 1756.22C368.197 1770.37 355.952 1784.51 355.952 1812.78C355.952 1841.14 368.224 1855.32 380.488 1869.48C392.74 1883.63 404.985 1897.78 404.985 1926.05C404.985 1954.41 392.713 1968.58 380.448 1982.75C368.197 1996.9 355.952 2011.04 355.952 2039.31C355.952 2067.67 368.224 2081.85 380.488 2096.01C392.74 2110.16 404.985 2124.3 404.985 2152.57C404.985 2180.94 392.713 2195.11 380.448 2209.27C368.197 2223.42 355.952 2237.57 355.952 2265.84C355.952 2294.2 368.223 2308.37 380.488 2322.54C392.74 2336.69 404.985 2350.83 404.985 2379.1C404.985 2407.46 392.713 2421.64 380.448 2435.8C368.197 2449.95 355.952 2464.09 355.952 2492.36C355.952 2520.73 368.223 2534.9 380.488 2549.07C392.74 2563.22 404.985 2577.36 404.985 2605.63L353.296 2605.63C353.296 2577.26 341.024 2563.09 328.759 2548.93C316.508 2534.77 304.263 2520.63 304.263 2492.36C304.263 2464 316.535 2449.83 328.8 2435.66C341.051 2421.51 353.296 2407.37 353.296 2379.1C353.296 2350.74 341.024 2336.56 328.759 2322.4C316.508 2308.25 304.263 2294.11 304.263 2265.84C304.263 2237.47 316.535 2223.3 328.8 2209.13C341.051 2194.98 353.296 2180.84 353.296 2152.57C353.296 2124.21 341.024 2110.04 328.759 2095.87C316.508 2081.72 304.263 2067.58 304.263 2039.31C304.263 2010.95 316.535 1996.77 328.8 1982.61C341.051 1968.46 353.296 1954.31 353.296 1926.05C353.296 1897.68 341.024 1883.51 328.759 1869.34C316.508 1855.19 304.263 1841.05 304.263 1812.78C304.263 1784.42 316.535 1770.25 328.8 1756.08C341.051 1741.93 353.296 1727.79 353.296 1699.52C353.296 1671.16 341.024 1656.98 328.759 1642.82C316.525 1628.69 304.298 1614.56 304.263 1586.37H303.721C303.721 1558.1 315.966 1543.96 328.218 1529.81C340.483 1515.65 352.754 1501.47 352.754 1473.11C352.754 1444.84 340.51 1430.7 328.258 1416.55C315.993 1402.38 303.721 1388.21 303.721 1359.85C303.721 1331.58 315.966 1317.43 328.218 1303.28C340.483 1289.12 352.754 1274.94 352.754 1246.58C352.754 1218.31 340.509 1204.17 328.258 1190.02C315.993 1175.85 303.721 1161.68 303.721 1133.32C303.721 1105.05 315.966 1090.91 328.218 1076.76C340.483 1062.59 352.754 1048.42 352.754 1020.05C352.754 991.786 340.509 977.643 328.258 963.493C315.993 949.328 303.721 935.154 303.721 906.791C303.721 878.522 315.966 864.38 328.218 850.23C340.482 836.064 352.754 821.89 352.754 793.528C352.754 765.258 340.509 751.116 328.258 736.966C315.993 722.8 303.721 708.627 303.721 680.264C303.721 651.995 315.966 637.853 328.218 623.702C340.482 609.537 352.754 595.363 352.754 567H353.753C353.647 538.886 341.429 524.774 329.218 510.671C316.966 496.521 304.721 482.378 304.721 454.109C304.721 425.746 316.993 411.573 329.258 397.407C341.509 383.257 353.754 369.115 353.754 340.845C353.754 312.483 341.483 298.309 329.218 284.144C316.966 269.993 304.721 255.851 304.721 227.582C304.721 199.219 316.993 185.046 329.258 170.88C341.509 156.73 353.754 142.587 353.754 114.318C353.754 85.9556 341.482 71.782 329.218 57.6162C316.966 43.4661 304.721 29.3237 304.721 1.05469C304.721 -27.3081 316.993 -41.4817 329.258 -55.6475C341.51 -69.7976 353.754 -83.9399 353.754 -112.209C353.754 -140.572 341.482 -154.745 329.218 -168.911C316.966 -183.061 304.721 -197.204 304.721 -225.473C304.721 -253.835 316.993 -268.009 329.258 -282.175C341.509 -296.325 353.754 -310.467 353.754 -338.736C353.754 -367.099 341.483 -381.272 329.218 -395.438C317.02 -409.526 304.829 -423.606 304.722 -451.627H304.721C304.721 -451.689 304.722 -451.751 304.722 -451.813C304.722 -451.875 304.721 -451.938 304.721 -452H304.722C304.829 -480.021 317.02 -494.101 329.218 -508.189C341.483 -522.354 353.754 -536.528 353.754 -564.891C353.754 -593.16 341.509 -607.302 329.258 -621.452C316.993 -635.618 304.721 -649.792 304.721 -678.154C304.721 -706.423 316.966 -720.566 329.218 -734.716C341.482 -748.882 353.754 -763.055 353.754 -791.418C353.754 -819.687 341.51 -833.829 329.258 -847.979C316.993 -862.145 304.721 -876.319 304.721 -904.682C304.721 -932.951 316.966 -947.093 329.218 -961.243C341.482 -975.409 353.754 -989.583 353.754 -1017.95C353.754 -1046.21 341.509 -1060.36 329.258 -1074.51C316.993 -1088.67 304.721 -1102.85 304.721 -1131.21C304.721 -1159.48 316.966 -1173.62 329.218 -1187.77C341.483 -1201.94 353.754 -1216.11 353.754 -1244.47C353.754 -1272.74 341.509 -1286.88 329.258 -1301.03C316.993 -1315.2 304.721 -1329.37 304.721 -1357.74C304.721 -1386.01 316.966 -1400.15 329.218 -1414.3C341.482 -1428.46 353.754 -1442.64 353.754 -1471H405.443C405.443 -1442.73 393.198 -1428.59 380.947 -1414.44C368.682 -1400.27 356.41 -1386.1 356.41 -1357.74C356.41 -1329.47 368.655 -1315.32 380.906 -1301.17C393.171 -1287.01 405.443 -1272.83 405.443 -1244.47C405.443 -1216.2 393.198 -1202.06 380.947 -1187.91C368.682 -1173.74 356.41 -1159.57 356.41 -1131.21C356.41 -1102.94 368.655 -1088.8 380.906 -1074.65C393.171 -1060.48 405.443 -1046.31 405.443 -1017.95C405.443 -989.676 393.198 -975.534 380.947 -961.384C368.682 -947.218 356.41 -933.044 356.41 -904.682C356.41 -876.412 368.655 -862.27 380.906 -848.12C393.171 -833.954 405.443 -819.781 405.443 -791.418C405.443 -763.149 393.198 -749.006 380.947 -734.856C368.682 -720.69 356.41 -706.517 356.41 -678.154C356.41 -649.885 368.655 -635.743 380.906 -621.593C393.171 -607.427 405.443 -593.253 405.443 -564.891C405.443 -536.621 393.198 -522.479 380.947 -508.329C368.709 -494.194 356.464 -480.052 356.41 -451.813C356.464 -423.575 368.709 -409.433 380.947 -395.298C393.198 -381.148 405.443 -367.006 405.443 -338.736C405.443 -310.374 393.171 -296.2 380.906 -282.034C368.655 -267.884 356.41 -253.742 356.41 -225.473C356.41 -197.11 368.682 -182.937 380.947 -168.771C393.198 -154.621 405.443 -140.478 405.443 -112.209C405.443 -83.8464 393.171 -69.6729 380.906 -55.5071C368.655 -41.3569 356.41 -27.2146 356.41 1.05469C356.41 29.4172 368.682 43.5908 380.947 57.7566C393.198 71.9067 405.443 86.0491 405.443 114.318C405.443 142.681 393.171 156.854 380.906 171.02C368.655 185.17 356.41 199.312 356.41 227.582C356.41 255.944 368.682 270.118 380.947 284.284C393.198 298.434 405.443 312.576 405.443 340.845C405.443 369.208 393.171 383.382 380.906 397.547C368.655 411.698 356.41 425.84 356.41 454.109C356.41 482.472 368.682 496.645 380.947 510.811C393.198 524.961 405.443 539.104 405.443 567.373H404.442C404.335 595.394 392.144 609.474 379.947 623.562C367.682 637.728 355.41 651.901 355.41 680.264C355.41 708.533 367.655 722.676 379.906 736.826C392.171 750.992 404.443 765.165 404.443 793.528C404.443 821.797 392.198 835.939 379.947 850.089C367.682 864.255 355.41 878.429 355.41 906.791C355.41 935.061 367.655 949.203 379.906 963.353C392.171 977.519 404.443 991.692 404.443 1020.05C404.443 1048.32 392.198 1062.47 379.947 1076.62C367.682 1090.78 355.41 1104.96 355.41 1133.32C355.41 1161.59 367.655 1175.73 379.906 1189.88C392.171 1204.05 404.443 1218.22 404.443 1246.58C404.443 1274.85 392.198 1288.99 379.947 1303.14C367.682 1317.31 355.41 1331.48 355.41 1359.85C355.41 1388.12 367.655 1402.26 379.906 1416.41C392.171 1430.57 404.443 1444.75 404.443 1473.11Z" fill="#171F22"/>
<path opacity="0.4" fill-rule="evenodd" clip-rule="evenodd" d="M829.443 1473.11C829.443 1501.38 817.198 1515.52 804.947 1529.67C792.699 1543.82 780.444 1557.97 780.41 1586.25H780.952C780.952 1614.62 793.224 1628.79 805.488 1642.96C817.74 1657.11 829.985 1671.25 829.985 1699.52C829.985 1727.88 817.713 1742.05 805.448 1756.22C793.197 1770.37 780.952 1784.51 780.952 1812.78C780.952 1841.14 793.224 1855.32 805.488 1869.48C817.74 1883.63 829.985 1897.78 829.985 1926.05C829.985 1954.41 817.713 1968.58 805.448 1982.75C793.197 1996.9 780.952 2011.04 780.952 2039.31C780.952 2067.67 793.224 2081.85 805.488 2096.01C817.74 2110.16 829.985 2124.3 829.985 2152.57C829.985 2180.94 817.713 2195.11 805.448 2209.27C793.197 2223.42 780.952 2237.57 780.952 2265.84C780.952 2294.2 793.223 2308.37 805.488 2322.54C817.74 2336.69 829.985 2350.83 829.985 2379.1C829.985 2407.46 817.713 2421.64 805.448 2435.8C793.197 2449.95 780.952 2464.09 780.952 2492.36C780.952 2520.73 793.223 2534.9 805.488 2549.07C817.74 2563.22 829.985 2577.36 829.985 2605.63L778.296 2605.63C778.296 2577.26 766.024 2563.09 753.759 2548.93C741.508 2534.77 729.263 2520.63 729.263 2492.36C729.263 2464 741.535 2449.83 753.8 2435.66C766.051 2421.51 778.296 2407.37 778.296 2379.1C778.296 2350.74 766.024 2336.56 753.759 2322.4C741.508 2308.25 729.263 2294.11 729.263 2265.84C729.263 2237.47 741.535 2223.3 753.8 2209.13C766.051 2194.98 778.296 2180.84 778.296 2152.57C778.296 2124.21 766.024 2110.04 753.759 2095.87C741.508 2081.72 729.263 2067.58 729.263 2039.31C729.263 2010.95 741.535 1996.77 753.8 1982.61C766.051 1968.46 778.296 1954.31 778.296 1926.05C778.296 1897.68 766.024 1883.51 753.759 1869.34C741.508 1855.19 729.263 1841.05 729.263 1812.78C729.263 1784.42 741.535 1770.25 753.8 1756.08C766.051 1741.93 778.296 1727.79 778.296 1699.52C778.296 1671.16 766.024 1656.98 753.759 1642.82C741.525 1628.69 729.298 1614.56 729.263 1586.37H728.721C728.721 1558.1 740.966 1543.96 753.218 1529.81C765.483 1515.65 777.754 1501.47 777.754 1473.11C777.754 1444.84 765.51 1430.7 753.258 1416.55C740.993 1402.38 728.721 1388.21 728.721 1359.85C728.721 1331.58 740.966 1317.43 753.218 1303.28C765.483 1289.12 777.754 1274.94 777.754 1246.58C777.754 1218.31 765.509 1204.17 753.258 1190.02C740.993 1175.85 728.721 1161.68 728.721 1133.32C728.721 1105.05 740.966 1090.91 753.218 1076.76C765.483 1062.59 777.754 1048.42 777.754 1020.05C777.754 991.786 765.509 977.643 753.258 963.493C740.993 949.328 728.721 935.154 728.721 906.791C728.721 878.522 740.966 864.38 753.218 850.23C765.482 836.064 777.754 821.89 777.754 793.528C777.754 765.258 765.509 751.116 753.258 736.966C740.993 722.8 728.721 708.627 728.721 680.264C728.721 651.995 740.966 637.853 753.218 623.702C765.482 609.537 777.754 595.363 777.754 567H778.753C778.647 538.886 766.429 524.774 754.218 510.671C741.966 496.521 729.721 482.378 729.721 454.109C729.721 425.746 741.993 411.573 754.258 397.407C766.509 383.257 778.754 369.115 778.754 340.845C778.754 312.483 766.483 298.309 754.218 284.144C741.966 269.993 729.721 255.851 729.721 227.582C729.721 199.219 741.993 185.046 754.258 170.88C766.509 156.73 778.754 142.587 778.754 114.318C778.754 85.9556 766.482 71.782 754.218 57.6162C741.966 43.4661 729.721 29.3237 729.721 1.05469C729.721 -27.3081 741.993 -41.4817 754.258 -55.6475C766.51 -69.7976 778.754 -83.9399 778.754 -112.209C778.754 -140.572 766.482 -154.745 754.218 -168.911C741.966 -183.061 729.721 -197.204 729.721 -225.473C729.721 -253.835 741.993 -268.009 754.258 -282.175C766.509 -296.325 778.754 -310.467 778.754 -338.736C778.754 -367.099 766.483 -381.272 754.218 -395.438C742.02 -409.526 729.829 -423.606 729.722 -451.627H729.721C729.721 -451.689 729.722 -451.751 729.722 -451.813C729.722 -451.875 729.721 -451.938 729.721 -452H729.722C729.829 -480.021 742.02 -494.101 754.218 -508.189C766.483 -522.354 778.754 -536.528 778.754 -564.891C778.754 -593.16 766.509 -607.302 754.258 -621.452C741.993 -635.618 729.721 -649.792 729.721 -678.154C729.721 -706.423 741.966 -720.566 754.218 -734.716C766.482 -748.882 778.754 -763.055 778.754 -791.418C778.754 -819.687 766.51 -833.829 754.258 -847.979C741.993 -862.145 729.721 -876.319 729.721 -904.682C729.721 -932.951 741.966 -947.093 754.218 -961.243C766.482 -975.409 778.754 -989.583 778.754 -1017.95C778.754 -1046.21 766.509 -1060.36 754.258 -1074.51C741.993 -1088.67 729.721 -1102.85 729.721 -1131.21C729.721 -1159.48 741.966 -1173.62 754.218 -1187.77C766.483 -1201.94 778.754 -1216.11 778.754 -1244.47C778.754 -1272.74 766.509 -1286.88 754.258 -1301.03C741.993 -1315.2 729.721 -1329.37 729.721 -1357.74C729.721 -1386.01 741.966 -1400.15 754.218 -1414.3C766.482 -1428.46 778.754 -1442.64 778.754 -1471H830.443C830.443 -1442.73 818.198 -1428.59 805.947 -1414.44C793.682 -1400.27 781.41 -1386.1 781.41 -1357.74C781.41 -1329.47 793.655 -1315.32 805.906 -1301.17C818.171 -1287.01 830.443 -1272.83 830.443 -1244.47C830.443 -1216.2 818.198 -1202.06 805.947 -1187.91C793.682 -1173.74 781.41 -1159.57 781.41 -1131.21C781.41 -1102.94 793.655 -1088.8 805.906 -1074.65C818.171 -1060.48 830.443 -1046.31 830.443 -1017.95C830.443 -989.676 818.198 -975.534 805.947 -961.384C793.682 -947.218 781.41 -933.044 781.41 -904.682C781.41 -876.412 793.655 -862.27 805.906 -848.12C818.171 -833.954 830.443 -819.781 830.443 -791.418C830.443 -763.149 818.198 -749.006 805.947 -734.856C793.682 -720.69 781.41 -706.517 781.41 -678.154C781.41 -649.885 793.655 -635.743 805.906 -621.593C818.171 -607.427 830.443 -593.253 830.443 -564.891C830.443 -536.621 818.198 -522.479 805.947 -508.329C793.709 -494.194 781.464 -480.052 781.41 -451.813C781.464 -423.575 793.709 -409.433 805.947 -395.298C818.198 -381.148 830.443 -367.006 830.443 -338.736C830.443 -310.374 818.171 -296.2 805.906 -282.034C793.655 -267.884 781.41 -253.742 781.41 -225.473C781.41 -197.11 793.682 -182.937 805.947 -168.771C818.198 -154.621 830.443 -140.478 830.443 -112.209C830.443 -83.8464 818.171 -69.6729 805.906 -55.5071C793.655 -41.3569 781.41 -27.2146 781.41 1.05469C781.41 29.4172 793.682 43.5908 805.947 57.7566C818.198 71.9067 830.443 86.0491 830.443 114.318C830.443 142.681 818.171 156.854 805.906 171.02C793.655 185.17 781.41 199.312 781.41 227.582C781.41 255.944 793.682 270.118 805.947 284.284C818.198 298.434 830.443 312.576 830.443 340.845C830.443 369.208 818.171 383.382 805.906 397.547C793.655 411.698 781.41 425.84 781.41 454.109C781.41 482.472 793.682 496.645 805.947 510.811C818.198 524.961 830.443 539.104 830.443 567.373H829.442C829.335 595.394 817.144 609.474 804.947 623.562C792.682 637.728 780.41 651.901 780.41 680.264C780.41 708.533 792.655 722.676 804.906 736.826C817.171 750.992 829.443 765.165 829.443 793.528C829.443 821.797 817.198 835.939 804.947 850.089C792.682 864.255 780.41 878.429 780.41 906.791C780.41 935.061 792.655 949.203 804.906 963.353C817.171 977.519 829.443 991.692 829.443 1020.05C829.443 1048.32 817.198 1062.47 804.947 1076.62C792.682 1090.78 780.41 1104.96 780.41 1133.32C780.41 1161.59 792.655 1175.73 804.906 1189.88C817.171 1204.05 829.443 1218.22 829.443 1246.58C829.443 1274.85 817.198 1288.99 804.947 1303.14C792.682 1317.31 780.41 1331.48 780.41 1359.85C780.41 1388.12 792.655 1402.26 804.906 1416.41C817.171 1430.57 829.443 1444.75 829.443 1473.11Z" fill="#171F22"/>
<path opacity="0.4" fill-rule="evenodd" clip-rule="evenodd" d="M546.164 1473.11C546.164 1501.38 533.92 1515.52 521.668 1529.67C509.42 1543.82 497.166 1557.97 497.132 1586.25H497.673C497.673 1614.62 509.945 1628.79 522.21 1642.96C534.461 1657.11 546.706 1671.25 546.706 1699.52C546.706 1727.88 534.434 1742.05 522.169 1756.22C509.918 1770.37 497.673 1784.51 497.673 1812.78C497.673 1841.14 509.945 1855.32 522.21 1869.48C534.461 1883.63 546.706 1897.78 546.706 1926.05C546.706 1954.41 534.434 1968.58 522.169 1982.75C509.918 1996.9 497.673 2011.04 497.673 2039.31C497.673 2067.67 509.945 2081.85 522.21 2096.01C534.461 2110.16 546.706 2124.3 546.706 2152.57C546.706 2180.94 534.434 2195.11 522.169 2209.27C509.918 2223.42 497.673 2237.57 497.673 2265.84C497.673 2294.2 509.945 2308.37 522.21 2322.54C534.461 2336.69 546.706 2350.83 546.706 2379.1C546.706 2407.46 534.434 2421.64 522.169 2435.8C509.918 2449.95 497.673 2464.09 497.673 2492.36C497.673 2520.73 509.945 2534.9 522.21 2549.07C534.461 2563.22 546.706 2577.36 546.706 2605.63L495.017 2605.63C495.017 2577.26 482.746 2563.09 470.481 2548.93C458.229 2534.77 445.985 2520.63 445.985 2492.36C445.985 2464 458.256 2449.83 470.521 2435.66C482.773 2421.51 495.017 2407.37 495.017 2379.1C495.017 2350.74 482.746 2336.56 470.481 2322.4C458.229 2308.25 445.985 2294.11 445.985 2265.84C445.985 2237.47 458.256 2223.3 470.521 2209.13C482.773 2194.98 495.017 2180.84 495.017 2152.57C495.017 2124.21 482.746 2110.04 470.481 2095.87C458.229 2081.72 445.985 2067.58 445.985 2039.31C445.985 2010.95 458.256 1996.77 470.521 1982.61C482.773 1968.46 495.017 1954.31 495.017 1926.05C495.017 1897.68 482.746 1883.51 470.481 1869.34C458.229 1855.19 445.985 1841.05 445.985 1812.78C445.985 1784.42 458.256 1770.25 470.521 1756.08C482.773 1741.93 495.017 1727.79 495.017 1699.52C495.017 1671.16 482.746 1656.98 470.481 1642.82C458.247 1628.69 446.019 1614.56 445.985 1586.37H445.443C445.443 1558.1 457.688 1543.96 469.939 1529.81C482.204 1515.65 494.476 1501.47 494.476 1473.11C494.476 1444.84 482.231 1430.7 469.98 1416.55C457.715 1402.38 445.443 1388.21 445.443 1359.85C445.443 1331.58 457.688 1317.43 469.939 1303.28C482.204 1289.12 494.476 1274.94 494.476 1246.58C494.476 1218.31 482.231 1204.17 469.979 1190.02C457.715 1175.85 445.443 1161.68 445.443 1133.32C445.443 1105.05 457.688 1090.91 469.939 1076.76C482.204 1062.59 494.476 1048.42 494.476 1020.05C494.476 991.786 482.231 977.643 469.979 963.493C457.715 949.328 445.443 935.154 445.443 906.791C445.443 878.522 457.688 864.38 469.939 850.23C482.204 836.064 494.476 821.89 494.476 793.528C494.476 765.258 482.231 751.116 469.979 736.966C457.715 722.8 445.443 708.627 445.443 680.264C445.443 651.995 457.688 637.853 469.939 623.702C482.204 609.537 494.476 595.363 494.476 567H495.475C495.368 538.886 483.15 524.774 470.939 510.671C458.688 496.521 446.443 482.378 446.443 454.109C446.443 425.746 458.715 411.573 470.979 397.407C483.231 383.257 495.476 369.115 495.476 340.845C495.476 312.483 483.204 298.309 470.939 284.144C458.688 269.993 446.443 255.851 446.443 227.582C446.443 199.219 458.715 185.046 470.979 170.88C483.231 156.73 495.476 142.587 495.476 114.318C495.476 85.9556 483.204 71.782 470.939 57.6162C458.688 43.4661 446.443 29.3237 446.443 1.05469C446.443 -27.3081 458.715 -41.4817 470.98 -55.6475C483.231 -69.7976 495.476 -83.9399 495.476 -112.209C495.476 -140.572 483.204 -154.745 470.939 -168.911C458.688 -183.061 446.443 -197.204 446.443 -225.473C446.443 -253.835 458.715 -268.009 470.979 -282.175C483.231 -296.325 495.476 -310.467 495.476 -338.736C495.476 -367.099 483.204 -381.272 470.939 -395.438C458.742 -409.526 446.551 -423.606 446.444 -451.627H446.443C446.443 -451.689 446.443 -451.751 446.443 -451.813C446.443 -451.875 446.443 -451.938 446.443 -452H446.444C446.551 -480.021 458.742 -494.101 470.939 -508.189C483.204 -522.354 495.476 -536.528 495.476 -564.891C495.476 -593.16 483.231 -607.302 470.979 -621.452C458.715 -635.618 446.443 -649.792 446.443 -678.154C446.443 -706.423 458.688 -720.566 470.939 -734.716C483.204 -748.882 495.476 -763.055 495.476 -791.418C495.476 -819.687 483.231 -833.829 470.98 -847.979C458.715 -862.145 446.443 -876.319 446.443 -904.682C446.443 -932.951 458.688 -947.093 470.939 -961.243C483.204 -975.409 495.476 -989.583 495.476 -1017.95C495.476 -1046.21 483.231 -1060.36 470.979 -1074.51C458.715 -1088.67 446.443 -1102.85 446.443 -1131.21C446.443 -1159.48 458.688 -1173.62 470.939 -1187.77C483.204 -1201.94 495.476 -1216.11 495.476 -1244.47C495.476 -1272.74 483.231 -1286.88 470.979 -1301.03C458.715 -1315.2 446.443 -1329.37 446.443 -1357.74C446.443 -1386.01 458.688 -1400.15 470.939 -1414.3C483.204 -1428.46 495.476 -1442.64 495.476 -1471H547.164C547.164 -1442.73 534.92 -1428.59 522.668 -1414.44C510.403 -1400.27 498.132 -1386.1 498.132 -1357.74C498.132 -1329.47 510.376 -1315.32 522.628 -1301.17C534.893 -1287.01 547.164 -1272.83 547.164 -1244.47C547.164 -1216.2 534.92 -1202.06 522.668 -1187.91C510.403 -1173.74 498.132 -1159.57 498.132 -1131.21C498.132 -1102.94 510.376 -1088.8 522.628 -1074.65C534.893 -1060.48 547.164 -1046.31 547.164 -1017.95C547.164 -989.676 534.92 -975.534 522.668 -961.384C510.403 -947.218 498.132 -933.044 498.132 -904.682C498.132 -876.412 510.376 -862.27 522.628 -848.12C534.893 -833.954 547.164 -819.781 547.164 -791.418C547.164 -763.149 534.92 -749.006 522.668 -734.856C510.403 -720.69 498.132 -706.517 498.132 -678.154C498.132 -649.885 510.376 -635.743 522.628 -621.593C534.893 -607.427 547.164 -593.253 547.164 -564.891C547.164 -536.621 534.92 -522.479 522.668 -508.329C510.43 -494.194 498.185 -480.052 498.132 -451.813C498.185 -423.575 510.43 -409.433 522.668 -395.298C534.92 -381.148 547.164 -367.006 547.164 -338.736C547.164 -310.374 534.893 -296.2 522.628 -282.034C510.376 -267.884 498.132 -253.742 498.132 -225.473C498.132 -197.11 510.403 -182.937 522.668 -168.771C534.92 -154.621 547.164 -140.478 547.164 -112.209C547.164 -83.8464 534.893 -69.6729 522.628 -55.5071C510.376 -41.3569 498.132 -27.2146 498.132 1.05469C498.132 29.4172 510.403 43.5908 522.668 57.7566C534.92 71.9067 547.164 86.0491 547.164 114.318C547.164 142.681 534.893 156.854 522.628 171.02C510.376 185.17 498.132 199.312 498.132 227.582C498.132 255.944 510.403 270.118 522.668 284.284C534.92 298.434 547.164 312.576 547.164 340.845C547.164 369.208 534.893 383.382 522.628 397.547C510.376 411.698 498.132 425.84 498.132 454.109C498.132 482.472 510.403 496.645 522.668 510.811C534.92 524.961 547.164 539.104 547.164 567.373H546.164C546.057 595.394 533.866 609.474 521.668 623.562C509.403 637.728 497.132 651.901 497.132 680.264C497.132 708.533 509.376 722.676 521.628 736.826C533.893 750.992 546.164 765.165 546.164 793.528C546.164 821.797 533.92 835.939 521.668 850.089C509.403 864.255 497.132 878.429 497.132 906.791C497.132 935.061 509.376 949.203 521.628 963.353C533.893 977.519 546.164 991.692 546.164 1020.05C546.164 1048.32 533.92 1062.47 521.668 1076.62C509.403 1090.78 497.132 1104.96 497.132 1133.32C497.132 1161.59 509.376 1175.73 521.628 1189.88C533.893 1204.05 546.164 1218.22 546.164 1246.58C546.164 1274.85 533.92 1288.99 521.668 1303.14C509.403 1317.31 497.132 1331.48 497.132 1359.85C497.132 1388.12 509.376 1402.26 521.628 1416.41C533.893 1430.57 546.164 1444.75 546.164 1473.11Z" fill="#171F22"/>
<path opacity="0.4" fill-rule="evenodd" clip-rule="evenodd" d="M971.164 1473.11C971.164 1501.38 958.92 1515.52 946.668 1529.67C934.42 1543.82 922.166 1557.97 922.132 1586.25H922.673C922.673 1614.62 934.945 1628.79 947.21 1642.96C959.461 1657.11 971.706 1671.25 971.706 1699.52C971.706 1727.88 959.434 1742.05 947.169 1756.22C934.918 1770.37 922.673 1784.51 922.673 1812.78C922.673 1841.14 934.945 1855.32 947.21 1869.48C959.461 1883.63 971.706 1897.78 971.706 1926.05C971.706 1954.41 959.434 1968.58 947.169 1982.75C934.918 1996.9 922.673 2011.04 922.673 2039.31C922.673 2067.67 934.945 2081.85 947.21 2096.01C959.461 2110.16 971.706 2124.3 971.706 2152.57C971.706 2180.94 959.434 2195.11 947.169 2209.27C934.918 2223.42 922.673 2237.57 922.673 2265.84C922.673 2294.2 934.945 2308.37 947.21 2322.54C959.461 2336.69 971.706 2350.83 971.706 2379.1C971.706 2407.46 959.434 2421.64 947.169 2435.8C934.918 2449.95 922.673 2464.09 922.673 2492.36C922.673 2520.73 934.945 2534.9 947.21 2549.07C959.461 2563.22 971.706 2577.36 971.706 2605.63L920.017 2605.63C920.017 2577.26 907.746 2563.09 895.481 2548.93C883.229 2534.77 870.985 2520.63 870.985 2492.36C870.985 2464 883.256 2449.83 895.521 2435.66C907.773 2421.51 920.017 2407.37 920.017 2379.1C920.017 2350.74 907.746 2336.56 895.481 2322.4C883.229 2308.25 870.985 2294.11 870.985 2265.84C870.985 2237.47 883.256 2223.3 895.521 2209.13C907.773 2194.98 920.017 2180.84 920.017 2152.57C920.017 2124.21 907.746 2110.04 895.481 2095.87C883.229 2081.72 870.985 2067.58 870.985 2039.31C870.985 2010.95 883.256 1996.77 895.521 1982.61C907.773 1968.46 920.017 1954.31 920.017 1926.05C920.017 1897.68 907.746 1883.51 895.481 1869.34C883.229 1855.19 870.985 1841.05 870.985 1812.78C870.985 1784.42 883.256 1770.25 895.521 1756.08C907.773 1741.93 920.017 1727.79 920.017 1699.52C920.017 1671.16 907.746 1656.98 895.481 1642.82C883.247 1628.69 871.019 1614.56 870.985 1586.37H870.443C870.443 1558.1 882.688 1543.96 894.939 1529.81C907.204 1515.65 919.476 1501.47 919.476 1473.11C919.476 1444.84 907.231 1430.7 894.98 1416.55C882.715 1402.38 870.443 1388.21 870.443 1359.85C870.443 1331.58 882.688 1317.43 894.939 1303.28C907.204 1289.12 919.476 1274.94 919.476 1246.58C919.476 1218.31 907.231 1204.17 894.979 1190.02C882.715 1175.85 870.443 1161.68 870.443 1133.32C870.443 1105.05 882.688 1090.91 894.939 1076.76C907.204 1062.59 919.476 1048.42 919.476 1020.05C919.476 991.786 907.231 977.643 894.979 963.493C882.715 949.328 870.443 935.154 870.443 906.791C870.443 878.522 882.688 864.38 894.939 850.23C907.204 836.064 919.476 821.89 919.476 793.528C919.476 765.258 907.231 751.116 894.979 736.966C882.715 722.8 870.443 708.627 870.443 680.264C870.443 651.995 882.688 637.853 894.939 623.702C907.204 609.537 919.476 595.363 919.476 567H920.475C920.368 538.886 908.15 524.774 895.939 510.671C883.688 496.521 871.443 482.378 871.443 454.109C871.443 425.746 883.715 411.573 895.979 397.407C908.231 383.257 920.476 369.115 920.476 340.845C920.476 312.483 908.204 298.309 895.939 284.144C883.688 269.993 871.443 255.851 871.443 227.582C871.443 199.219 883.715 185.046 895.979 170.88C908.231 156.73 920.476 142.587 920.476 114.318C920.476 85.9556 908.204 71.782 895.939 57.6162C883.688 43.4661 871.443 29.3237 871.443 1.05469C871.443 -27.3081 883.715 -41.4817 895.98 -55.6475C908.231 -69.7976 920.476 -83.9399 920.476 -112.209C920.476 -140.572 908.204 -154.745 895.939 -168.911C883.688 -183.061 871.443 -197.204 871.443 -225.473C871.443 -253.835 883.715 -268.009 895.979 -282.175C908.231 -296.325 920.476 -310.467 920.476 -338.736C920.476 -367.099 908.204 -381.272 895.939 -395.438C883.742 -409.526 871.551 -423.606 871.444 -451.627H871.443C871.443 -451.689 871.443 -451.751 871.443 -451.813C871.443 -451.875 871.443 -451.938 871.443 -452H871.444C871.551 -480.021 883.742 -494.101 895.939 -508.189C908.204 -522.354 920.476 -536.528 920.476 -564.891C920.476 -593.16 908.231 -607.302 895.979 -621.452C883.715 -635.618 871.443 -649.792 871.443 -678.154C871.443 -706.423 883.688 -720.566 895.939 -734.716C908.204 -748.882 920.476 -763.055 920.476 -791.418C920.476 -819.687 908.231 -833.829 895.98 -847.979C883.715 -862.145 871.443 -876.319 871.443 -904.682C871.443 -932.951 883.688 -947.093 895.939 -961.243C908.204 -975.409 920.476 -989.583 920.476 -1017.95C920.476 -1046.21 908.231 -1060.36 895.979 -1074.51C883.715 -1088.67 871.443 -1102.85 871.443 -1131.21C871.443 -1159.48 883.688 -1173.62 895.939 -1187.77C908.204 -1201.94 920.476 -1216.11 920.476 -1244.47C920.476 -1272.74 908.231 -1286.88 895.979 -1301.03C883.715 -1315.2 871.443 -1329.37 871.443 -1357.74C871.443 -1386.01 883.688 -1400.15 895.939 -1414.3C908.204 -1428.46 920.476 -1442.64 920.476 -1471H972.164C972.164 -1442.73 959.92 -1428.59 947.668 -1414.44C935.403 -1400.27 923.132 -1386.1 923.132 -1357.74C923.132 -1329.47 935.376 -1315.32 947.628 -1301.17C959.893 -1287.01 972.164 -1272.83 972.164 -1244.47C972.164 -1216.2 959.92 -1202.06 947.668 -1187.91C935.403 -1173.74 923.132 -1159.57 923.132 -1131.21C923.132 -1102.94 935.376 -1088.8 947.628 -1074.65C959.893 -1060.48 972.164 -1046.31 972.164 -1017.95C972.164 -989.676 959.92 -975.534 947.668 -961.384C935.403 -947.218 923.132 -933.044 923.132 -904.682C923.132 -876.412 935.376 -862.27 947.628 -848.12C959.893 -833.954 972.164 -819.781 972.164 -791.418C972.164 -763.149 959.92 -749.006 947.668 -734.856C935.403 -720.69 923.132 -706.517 923.132 -678.154C923.132 -649.885 935.376 -635.743 947.628 -621.593C959.893 -607.427 972.164 -593.253 972.164 -564.891C972.164 -536.621 959.92 -522.479 947.668 -508.329C935.43 -494.194 923.185 -480.052 923.132 -451.813C923.185 -423.575 935.43 -409.433 947.668 -395.298C959.92 -381.148 972.164 -367.006 972.164 -338.736C972.164 -310.374 959.893 -296.2 947.628 -282.034C935.376 -267.884 923.132 -253.742 923.132 -225.473C923.132 -197.11 935.403 -182.937 947.668 -168.771C959.92 -154.621 972.164 -140.478 972.164 -112.209C972.164 -83.8464 959.893 -69.6729 947.628 -55.5071C935.376 -41.3569 923.132 -27.2146 923.132 1.05469C923.132 29.4172 935.403 43.5908 947.668 57.7566C959.92 71.9067 972.164 86.0491 972.164 114.318C972.164 142.681 959.893 156.854 947.628 171.02C935.376 185.17 923.132 199.312 923.132 227.582C923.132 255.944 935.403 270.118 947.668 284.284C959.92 298.434 972.164 312.576 972.164 340.845C972.164 369.208 959.893 383.382 947.628 397.547C935.376 411.698 923.132 425.84 923.132 454.109C923.132 482.472 935.403 496.645 947.668 510.811C959.92 524.961 972.164 539.104 972.164 567.373H971.164C971.057 595.394 958.866 609.474 946.668 623.562C934.403 637.728 922.132 651.901 922.132 680.264C922.132 708.533 934.376 722.676 946.628 736.826C958.893 750.992 971.164 765.165 971.164 793.528C971.164 821.797 958.92 835.939 946.668 850.089C934.403 864.255 922.132 878.429 922.132 906.791C922.132 935.061 934.376 949.203 946.628 963.353C958.893 977.519 971.164 991.692 971.164 1020.05C971.164 1048.32 958.92 1062.47 946.668 1076.62C934.403 1090.78 922.132 1104.96 922.132 1133.32C922.132 1161.59 934.376 1175.73 946.628 1189.88C958.893 1204.05 971.164 1218.22 971.164 1246.58C971.164 1274.85 958.92 1288.99 946.668 1303.14C934.403 1317.31 922.132 1331.48 922.132 1359.85C922.132 1388.12 934.376 1402.26 946.628 1416.41C958.893 1430.57 971.164 1444.75 971.164 1473.11Z" fill="#171F22"/>
</g>
</g>
</svg>
