<svg width="19" height="19" viewBox="0 0 19 19" fill="none" xmlns="http://www.w3.org/2000/svg">
<path d="M14.0837 6.46643H14.8794C15.5244 6.46643 16.0464 6.98843 16.0464 7.63343V15.0502C16.0464 15.6944 15.5244 16.2164 14.8794 16.2164H6.71345C6.06845 16.2164 5.54645 15.6944 5.54645 15.0494V13.9664" stroke="#CACCDB" stroke-linecap="round" stroke-linejoin="round"/>
<path fill-rule="evenodd" clip-rule="evenodd" d="M3.29721 13.9664H11.7812C12.283 13.9664 12.751 13.7159 13.0292 13.2982L13.5797 12.4717C13.9082 11.9789 14.0837 11.3999 14.0837 10.8074V4.96643C14.0837 4.13768 13.4125 3.46643 12.5837 3.46643H5.08371C4.25496 3.46643 3.58371 4.13768 3.58371 4.96643V10.2584C3.58371 10.7242 3.47496 11.1832 3.26721 11.6002L2.62671 12.8812C2.37696 13.3799 2.73996 13.9664 3.29721 13.9664Z" stroke="#CACCDB" stroke-linecap="round" stroke-linejoin="round"/>
<path d="M10.5347 7.66113L8.42494 9.77088L7.15894 8.50563" stroke="#CACCDB" stroke-linecap="round" stroke-linejoin="round"/>
<path d="M6.58145 2.71643V4.21643" stroke="#CACCDB" stroke-linecap="round" stroke-linejoin="round"/>
<path d="M11.0815 2.71643V4.21643" stroke="#CACCDB" stroke-linecap="round" stroke-linejoin="round"/>
</svg>
