<svg width="25" height="25" viewBox="0 0 25 25" fill="none" xmlns="http://www.w3.org/2000/svg">
<path d="M13.5 10.3501H17.5" stroke="white" stroke-width="1.5" stroke-linecap="round" stroke-linejoin="round"/>
<path d="M7.5 10.076L8.419 10.904L10.269 9.23804" stroke="white" stroke-width="1.5" stroke-linecap="round" stroke-linejoin="round"/>
<path d="M11.5 21.3501H8.5C5.73858 21.3501 3.5 19.1115 3.5 16.3501V8.3501C3.5 5.58867 5.73858 3.3501 8.5 3.3501H16.5C19.2614 3.3501 21.5 5.58867 21.5 8.3501V11.3501" stroke="white" stroke-width="1.5" stroke-linecap="round" stroke-linejoin="round"/>
<path d="M7.5 15.076L8.419 15.904L10.269 14.238" stroke="white" stroke-width="1.5" stroke-linecap="round" stroke-linejoin="round"/>
<path d="M15.5244 18.27V20.5972C15.5243 21.1084 15.8131 21.5758 16.2704 21.8042L16.7924 22.0652C17.5523 22.445 18.4466 22.445 19.2064 22.0652L19.7284 21.8042C20.1857 21.5758 20.4745 21.1084 20.4744 20.5972V18.27" stroke="white" stroke-width="1.5" stroke-linecap="round" stroke-linejoin="round"/>
<path fill-rule="evenodd" clip-rule="evenodd" d="M13.9149 17.464L16.9998 19.005C17.6309 19.3198 18.3733 19.3198 19.0044 19.005L22.0863 17.464C22.3396 17.3377 22.4997 17.079 22.4997 16.796C22.4997 16.5129 22.3396 16.2542 22.0863 16.1279L18.9984 14.5869C18.3675 14.2712 17.6247 14.2712 16.9938 14.5869L13.9119 16.1279C13.6589 16.2548 13.4994 16.5139 13.5 16.7969C13.5006 17.0799 13.6613 17.3383 13.9149 17.464V17.464Z" stroke="white" stroke-width="1.5" stroke-linecap="round" stroke-linejoin="round"/>
<path d="M22.5002 16.7971V18.5979" stroke="white" stroke-width="1.5" stroke-linecap="round" stroke-linejoin="round"/>
</svg>
