<svg width="24" height="25" viewBox="0 0 24 25" fill="none" xmlns="http://www.w3.org/2000/svg">
<path fill-rule="evenodd" clip-rule="evenodd" d="M7.5 3.31445H16.504C18.987 3.31445 21 5.32745 21 7.81045V16.8195C21 19.3015 18.987 21.3145 16.504 21.3145H7.496C5.013 21.3145 3 19.3015 3 16.8185V7.81445C3 5.32945 5.015 3.31445 7.5 3.31445V3.31445Z" stroke="#CACCDB" stroke-width="1.5" stroke-linecap="round" stroke-linejoin="round"/>
<path d="M9.65101 14.6604C11.834 16.8444 14.6 18.2364 16.245 16.5984L16.644 16.1994C17.176 15.6684 17.102 14.7884 16.484 14.3594C16.095 14.0884 15.677 13.7974 15.215 13.4724C14.737 13.1364 14.082 13.1894 13.667 13.6004L13.216 14.0484C12.657 13.6944 12.104 13.2394 11.59 12.7264L11.588 12.7244C11.075 12.2114 10.62 11.6574 10.266 11.0984L10.714 10.6474C11.126 10.2334 11.177 9.57739 10.842 9.09939C10.516 8.63739 10.225 8.21939 9.95501 7.83039C9.52601 7.21339 8.64601 7.13939 8.11501 7.67039L7.71601 8.06939C6.07901 9.71439 7.47001 12.4784 9.65301 14.6634" stroke="#CACCDB" stroke-width="1.5" stroke-linecap="round" stroke-linejoin="round"/>
</svg>
