<svg width="21" height="21" viewBox="0 0 21 21" fill="none" xmlns="http://www.w3.org/2000/svg">
<path d="M12.3838 14.5631V16.5006C12.3837 16.9266 12.6244 17.3161 13.0055 17.5065L13.4405 17.724C14.0737 18.0404 14.8189 18.0404 15.4521 17.724L15.8871 17.5065C16.2682 17.3161 16.5089 16.9266 16.5088 16.5006V14.5631" stroke="#241953" stroke-width="1.3" stroke-linecap="round" stroke-linejoin="round"/>
<path fill-rule="evenodd" clip-rule="evenodd" d="M11.0406 13.8913L13.6131 15.1763C14.1393 15.4388 14.7584 15.4388 15.2847 15.1763L17.8547 13.8913C18.0659 13.786 18.1994 13.5702 18.1994 13.3342C18.1994 13.0982 18.0659 12.8825 17.8547 12.7771L15.2797 11.4921C14.7536 11.2288 14.1342 11.2288 13.6081 11.4921L11.0381 12.7771C10.8271 12.8829 10.6941 13.099 10.6946 13.335C10.6951 13.571 10.8291 13.7865 11.0406 13.8913Z" stroke="#241953" stroke-width="1.3" stroke-linecap="round" stroke-linejoin="round"/>
<path d="M17.363 9.62818V4.62818C17.363 3.70771 16.6168 2.96152 15.6963 2.96152H4.86296C3.94248 2.96152 3.19629 3.70771 3.19629 4.62818V14.6282C3.19629 15.5487 3.94248 16.2948 4.86296 16.2948H9.86296" stroke="#241953" stroke-width="1.3" stroke-linecap="round" stroke-linejoin="round"/>
<path d="M8.40454 9.62721H10.6962" stroke="#241953" stroke-width="1.3" stroke-linecap="round" stroke-linejoin="round"/>
<path d="M8.40454 6.39778H14.0295" stroke="#241953" stroke-width="1.3" stroke-linecap="round" stroke-linejoin="round"/>
<path d="M5.80046 9.73137C5.85799 9.73137 5.90462 9.68474 5.90462 9.62721C5.90462 9.56968 5.85799 9.52304 5.80046 9.52304C5.74293 9.52304 5.69629 9.56968 5.69629 9.62721C5.69629 9.68474 5.74293 9.73137 5.80046 9.73137" stroke="#241953" stroke-width="1.3" stroke-linecap="round" stroke-linejoin="round"/>
<path d="M5.80046 6.50194C5.85799 6.50194 5.90462 6.45531 5.90462 6.39778C5.90462 6.34025 5.85799 6.29361 5.80046 6.29361C5.74293 6.29361 5.69629 6.34025 5.69629 6.39778C5.69629 6.45531 5.74293 6.50194 5.80046 6.50194" stroke="#241953" stroke-width="1.3" stroke-linecap="round" stroke-linejoin="round"/>
<path d="M18.1962 13.3332V14.8332" stroke="#241953" stroke-width="1.3" stroke-linecap="round" stroke-linejoin="round"/>
</svg>
