<svg width="21" height="21" viewBox="0 0 21 21" fill="none" xmlns="http://www.w3.org/2000/svg">
<path d="M8.96517 12.9609H6.46517C4.62422 12.9609 3.13184 14.4533 3.13184 16.2943V17.1276" stroke="#241953" stroke-width="1.3" stroke-linecap="round" stroke-linejoin="round"/>
<path d="M17.2986 17.9609H12.2986" stroke="#241953" stroke-width="1.3" stroke-linecap="round" stroke-linejoin="round"/>
<path fill-rule="evenodd" clip-rule="evenodd" d="M12.5427 13.2396L15.0773 10.705C15.2335 10.5487 15.4455 10.4609 15.6665 10.4609C15.8875 10.4609 16.0995 10.5487 16.2558 10.705L17.0545 11.5038C17.38 11.8292 17.38 12.3568 17.0545 12.6823L14.5199 15.2169C14.3636 15.3731 14.1517 15.4609 13.9306 15.4609H12.7153C12.4851 15.4609 12.2986 15.2744 12.2986 15.0443V13.8289C12.2986 13.6079 12.3864 13.3959 12.5427 13.2396Z" stroke="#241953" stroke-width="1.3" stroke-linecap="round" stroke-linejoin="round"/>
<circle cx="9.79842" cy="6.29427" r="3.33333" stroke="#241953" stroke-width="1.3" stroke-linecap="round" stroke-linejoin="round"/>
</svg>
