<svg width="78" height="92" viewBox="0 0 78 92" fill="none" xmlns="http://www.w3.org/2000/svg">
<path fill-rule="evenodd" clip-rule="evenodd" d="M39.8935 13.3603C34.7342 11.3084 29.4971 9.4022 24.2259 7.6578C23.5508 9.11738 23.0247 10.6312 22.4957 12.1533C22.2916 12.7404 22.0871 13.3288 21.8735 13.9158C19.5561 20.2485 17.2516 26.5798 14.9472 32.9112C12.6428 39.2426 10.3383 45.5741 8.02083 51.9071C7.8031 52.5737 7.6154 53.2262 7.42765 53.8789L7.42728 53.8802C7.50899 53.9127 7.59072 53.9451 7.67247 53.9775L9.77294 65.8907L9.84075 66.2752L10.2036 66.4196C11.9162 67.1007 13.547 67.7854 15.1574 68.4616L15.1574 68.4616C18.3498 69.8021 21.4623 71.109 24.9745 72.2878L25.5963 72.4965L25.845 71.8895C27.1901 68.6065 29.0362 63.637 30.543 59.4969C31.2971 57.4251 31.9674 55.5578 32.4492 54.2084C32.658 53.6235 32.8315 53.1358 32.961 52.7709L34.7302 53.6459C33.6993 56.4184 32.6699 59.1911 31.7212 61.989L31.5144 62.0121L31.5639 62.4553C31.5455 62.5102 31.5271 62.5651 31.5088 62.62C31.5347 62.6326 31.5606 62.6451 31.5865 62.6576L32.9376 74.7473L32.9804 75.1307L33.3275 75.2992C34.7761 76.0026 36.2979 76.5378 37.7753 77.0574C38.221 77.2142 38.6627 77.3696 39.0971 77.5277L39.1051 77.5305C41.2317 78.2756 43.3653 79.0649 45.5077 79.8574L45.5079 79.8575C48.8384 81.0895 52.1899 82.3293 55.5687 83.4229L56.2016 83.6277L56.4384 83.006C59.2531 75.6153 61.9496 68.2067 64.5361 60.7578L64.6043 60.5613L64.5542 60.3595L62.015 50.1343L63.0529 50.6116L63.7558 50.9348L64.0073 50.2032C64.356 49.1889 64.8205 47.8737 65.3331 46.4223L65.3342 46.4193C66.6721 42.6314 68.3373 37.9166 69.1261 35.2021L69.1787 35.021L69.1332 34.838L66.2492 23.2301C66.2762 23.1392 66.3029 23.0483 66.3294 22.9573C60.582 20.7411 54.8028 18.6127 48.9595 16.6601C48.2695 18.1208 47.7438 19.6483 47.2183 21.1755C46.751 22.5331 46.2839 23.8904 45.7016 25.2003C42.6949 24.3547 39.7543 23.2596 36.8916 22.0186C37.2987 20.6048 37.822 19.2334 38.3444 17.8644C38.9119 16.3772 39.4784 14.8929 39.8935 13.3603ZM65.4332 25.7519C64.967 27.0976 64.4633 28.4321 63.9592 29.7677C63.4325 31.1632 62.9054 32.5599 62.42 33.9718C62.1681 34.6424 61.9293 35.3178 61.6906 35.9931C61.1736 37.4555 60.6566 38.918 60.0056 40.3316C58.3701 39.9014 56.7982 39.2965 55.2262 38.6916C53.9566 38.203 52.6869 37.7144 51.3838 37.3179C50.4182 39.3545 49.6868 41.501 49.0213 43.6717C51.203 44.6086 53.431 45.3997 55.6593 46.191C56.8193 46.6029 57.9793 47.0148 59.1329 47.4473L59.201 47.2994L61.2773 48.2542L61.527 48.369L61.5738 48.3574L61.583 48.3948L62.9364 49.0171C63.2519 48.1106 63.6275 47.047 64.0311 45.9044L64.0332 45.8985L64.0332 45.8983C65.3376 42.2053 66.9325 37.6896 67.7288 34.9918L65.4332 25.7519ZM60.8217 51.1379C58.5223 57.6851 56.1368 64.2032 53.6597 70.7074C50.2888 69.6164 46.9679 68.3877 43.6519 67.1608C41.5073 66.3673 39.3648 65.5746 37.2121 64.8204C36.7618 64.6565 36.3098 64.4975 35.8578 64.3385C34.9227 64.0095 33.9875 63.6805 33.068 63.3085L34.2856 74.2042C35.5477 74.789 36.8502 75.2473 38.1889 75.7184L38.1907 75.719C38.647 75.8796 39.1076 76.0417 39.5722 76.2107C41.749 76.9735 43.8984 77.7688 46.0432 78.5625L46.0448 78.5631C49.1388 79.708 52.2234 80.8495 55.3672 81.8844C58.0667 74.7784 60.6569 67.6552 63.1453 60.495L60.8217 51.1379ZM35.2205 52.3265C36.403 49.1408 37.5709 45.9499 38.6038 42.7158C35.9232 41.5908 33.1946 40.5976 30.4399 39.7444C29.2145 42.8213 28.1043 45.9455 26.9931 49.0724C25.7426 52.5912 24.491 56.1133 23.0728 59.5747C18.4116 58.0103 13.7817 56.3597 9.19982 54.5773L11.084 65.2635C12.7144 65.9166 14.2534 66.5629 15.7624 67.1967L15.7625 67.1967L15.7627 67.1969C18.7335 68.4446 21.5883 69.6436 24.7974 70.7488C26.1044 67.5078 27.8117 62.9078 29.2275 59.0181C29.9803 56.9496 30.6496 55.0851 31.1307 53.7377C31.3712 53.064 31.5647 52.5197 31.698 52.1439L31.8512 51.7114L31.8908 51.5991L31.9009 51.5706L31.9034 51.5634L31.9041 51.5616L31.9042 51.5612C31.9043 51.5611 31.9043 51.5611 32.5644 51.7939L31.9043 51.5611L32.1669 50.8164L32.8747 51.1664L35.2205 52.3265Z" fill="#18E884"/>
</svg>
