<svg width="101" height="79" viewBox="0 0 101 79" fill="none" xmlns="http://www.w3.org/2000/svg">
<circle cx="57.2682" cy="39.3093" r="39.3017" fill="#FFCBCA"/>
<path d="M4.71479 7.64453L2.90775 8.998L21.4477 33.7509L23.2547 32.3974L4.71479 7.64453Z" fill="white"/>
<path fill-rule="evenodd" clip-rule="evenodd" d="M0.992302 5.9611C1.15893 6.61412 1.67568 7.48544 2.712 8.51907L2.71523 8.52229L22.5228 34.462C23.2628 34.5001 24.0084 34.8399 24.7016 35.3125C25.4056 35.7924 26.0611 36.4132 26.6096 37.0078C27.0924 37.53 27.4942 38.034 27.7754 38.4075C27.916 38.5942 28.0265 38.7484 28.1019 38.856C28.1109 38.8689 28.1194 38.8811 28.1274 38.8927C28.145 38.8027 28.1663 38.6853 28.1824 38.5711C28.1989 38.4539 28.2092 38.3448 28.2058 38.2725C28.2051 38.2591 28.204 38.2478 28.2026 38.2386C28.194 38.2386 28.1864 38.2373 28.1805 38.2358C28.1669 38.2324 28.1552 38.2262 28.1465 38.2208C28.1289 38.2099 28.1106 38.194 28.0925 38.1765C28.0555 38.1407 28.0088 38.0871 27.9545 38.02C27.8454 37.8852 27.7 37.6884 27.5314 37.4511C27.194 36.976 26.7606 36.3342 26.3331 35.69C25.9054 35.0457 25.4832 34.3984 25.168 33.9123C25.0104 33.6693 24.8794 33.4665 24.7879 33.3244C24.7422 33.2534 24.7063 33.1975 24.6818 33.1595L24.6459 33.1035L4.61778 7.21607L4.61465 7.20951C4.09292 6.11404 3.45152 5.3998 2.85162 5.00659C2.24882 4.61147 1.6998 4.5467 1.35055 4.72117C1.00987 4.89136 0.825817 5.30863 0.992302 5.9611ZM28.1615 39.0625L28.2275 39.0771L28.1929 39.2328L28.105 39.0997L28.1049 39.0996L28.1046 39.0991L28.1033 39.0971L28.0978 39.089C28.093 39.0817 28.0857 39.0709 28.0761 39.0568C28.0569 39.0285 28.0284 38.9869 27.9911 38.9337C27.9164 38.8272 27.8069 38.6742 27.6673 38.4888C27.3881 38.118 26.9891 37.6176 26.5102 37.0996C25.9656 36.5092 25.3178 35.8963 24.6254 35.4242C23.9323 34.9517 23.2 34.6241 22.4855 34.5957L22.4537 34.5945L2.61324 8.61162C1.57055 7.5709 1.03615 6.68009 0.861231 5.99455C0.685987 5.30775 0.870544 4.80975 1.29009 4.60016C1.70107 4.39486 2.30387 4.48582 2.92578 4.89345C3.54936 5.30219 4.2042 6.03562 4.73365 7.14478L24.7566 33.0255L24.7582 33.028L24.7536 33.031C24.7582 33.0281 24.7582 33.028 24.7582 33.028L24.7583 33.0283L24.7956 33.0863C24.8201 33.1244 24.8559 33.1802 24.9016 33.2511C24.9931 33.3931 25.1239 33.5958 25.2815 33.8387C25.5966 34.3246 26.0185 34.9714 26.4458 35.6152C26.8731 36.2591 27.3055 36.8995 27.6417 37.3728C27.8099 37.6096 27.9533 37.8035 28.0597 37.9349C28.1131 38.001 28.1557 38.0494 28.1866 38.0794C28.1951 38.0875 28.2019 38.0936 28.2072 38.098C28.2209 38.095 28.2362 38.0944 28.2523 38.0986C28.2832 38.1065 28.3025 38.1278 28.3135 38.1465C28.3332 38.1799 28.3389 38.2257 28.3409 38.266C28.345 38.3521 28.333 38.4721 28.3164 38.59C28.2996 38.7092 28.2773 38.8309 28.2594 38.9226C28.2504 38.9686 28.2424 39.0071 28.2367 39.0342C28.2339 39.0477 28.2316 39.0584 28.23 39.0657L28.2282 39.0741L28.2277 39.0763L28.2275 39.0769L28.2275 39.0771C28.2275 39.0771 28.2275 39.0771 28.1615 39.0625Z" fill="#241953"/>
<path d="M26.6992 37.2065L27.1402 37.2079L27.0563 36.6465L28.4428 38.4226L28.3035 38.6418L28.1628 39.0651L26.6992 37.2065Z" fill="#241953"/>
<path fill-rule="evenodd" clip-rule="evenodd" d="M26.9514 36.4022L28.5255 38.4186L28.3651 38.671L28.1874 39.2057L26.5595 37.1385L27.0616 37.14L26.9514 36.4022ZM27.1612 36.8908L27.2187 37.2757L26.8389 37.2746L28.1382 38.9246L28.2419 38.6125L28.3601 38.4266L27.1612 36.8908Z" fill="#241953"/>
<path d="M2.73867 8.66435L4.6744 7.18042C4.6744 7.18042 3.56518 4.49394 1.99468 4.38167C0.424183 4.26939 0.836758 6.19971 0.836758 6.19971C0.836758 6.19971 1.56452 8.06916 2.73867 8.66435Z" fill="#241953"/>
<path fill-rule="evenodd" clip-rule="evenodd" d="M1.10575 4.56827C1.3043 4.38824 1.59242 4.2851 1.99948 4.31421C2.41093 4.34362 2.78769 4.54123 3.11893 4.81414C3.45032 5.08719 3.74028 5.43897 3.9791 5.78471C4.21814 6.13077 4.4074 6.47291 4.53685 6.72833C4.60161 6.85612 4.6515 6.9624 4.68525 7.03685C4.70212 7.07408 4.71497 7.10336 4.72363 7.12342C4.72796 7.13344 4.73124 7.14117 4.73346 7.14642L4.73598 7.15243L4.73664 7.15401L4.73682 7.15443C4.73683 7.15447 4.73689 7.15461 4.67438 7.18043L4.73689 7.15461L4.75668 7.20255L2.74602 8.74392L2.70807 8.72468C2.1034 8.41816 1.61975 7.78812 1.28956 7.24392C1.12366 6.97049 0.994885 6.71599 0.907562 6.52984C0.863882 6.43672 0.830527 6.3606 0.808043 6.30763C0.7968 6.28114 0.788272 6.26044 0.782527 6.24629C0.779655 6.23921 0.777478 6.23378 0.776006 6.23007L0.774326 6.22582L0.773884 6.2247L0.773763 6.22439C0.773752 6.22436 0.773709 6.22425 0.836737 6.19971C0.770595 6.21385 0.770588 6.21382 0.77058 6.21378L0.770478 6.2133L0.770217 6.21205L0.769289 6.20749C0.7685 6.20356 0.76738 6.19785 0.766003 6.19049C0.763251 6.17577 0.75947 6.15443 0.755252 6.12743C0.746819 6.07347 0.736612 5.99677 0.729385 5.90517C0.714976 5.72256 0.712184 5.478 0.760425 5.2354C0.808597 4.99314 0.908916 4.74674 1.10575 4.56827ZM0.836737 6.19971L0.77058 6.21378L0.771733 6.21917L0.773709 6.22425L0.836737 6.19971ZM0.901812 6.18036C0.903166 6.18376 0.905186 6.18881 0.907866 6.19541C0.913355 6.20894 0.921609 6.22898 0.932559 6.25477C0.954461 6.30637 0.987135 6.38095 1.03003 6.47239C1.11585 6.65535 1.2424 6.90541 1.40521 7.17375C1.72522 7.70117 2.1792 8.2888 2.73169 8.58446L4.59149 7.15875C4.5838 7.14116 4.57396 7.11899 4.56204 7.0927C4.529 7.01979 4.47996 6.91531 4.41619 6.78948C4.28858 6.53769 4.10238 6.20119 3.8678 5.86159C3.63301 5.52168 3.35119 5.18079 3.03291 4.91854C2.71446 4.65616 2.36364 4.47586 1.98984 4.44913C1.61165 4.4221 1.3624 4.51815 1.19661 4.66848C1.0291 4.82036 0.938094 5.03549 0.893098 5.26178C0.84817 5.48772 0.850365 5.71872 0.864237 5.89453C0.87115 5.98215 0.880906 6.05538 0.888901 6.10654C0.892896 6.13211 0.896446 6.15213 0.89897 6.16563C0.900171 6.17205 0.901139 6.177 0.901812 6.18036Z" fill="#241953"/>
<path d="M3.1647 11.3224C3.21205 11.2494 5.56441 8.44115 5.7592 8.33429L3.1647 11.3224Z" fill="#241953"/>
<path d="M3.1647 11.3224C3.28915 10.9978 3.4623 10.711 3.64221 10.431C3.82618 10.1537 4.02773 9.8899 4.24146 9.6383C4.45654 9.38669 4.6865 9.14726 4.93269 8.92271C5.05714 8.81044 5.18565 8.70222 5.31957 8.60077C5.4589 8.50473 5.59282 8.39516 5.7592 8.33293C5.66992 8.47902 5.59146 8.62512 5.50624 8.7685C5.41967 8.91054 5.32904 9.04987 5.2357 9.18649C5.04768 9.45839 4.84612 9.71946 4.63239 9.96836C4.41867 10.2186 4.19141 10.458 3.95063 10.6853C3.70849 10.9166 3.45418 11.1317 3.1647 11.3224Z" fill="#241953"/>
<path d="M4.33347 12.0664C4.33347 12.0664 8.26444 10.9288 8.4687 10.7259L4.33347 12.0664Z" fill="#241953"/>
<path d="M4.33347 12.0664C4.65135 11.8635 4.98277 11.7079 5.31959 11.5673C5.65506 11.4279 5.9973 11.3062 6.34224 11.1993C6.68853 11.0924 7.03753 11.0005 7.39194 10.9234C7.56915 10.8855 7.74771 10.8503 7.92762 10.8219L8.19951 10.78C8.29014 10.7651 8.38213 10.7556 8.47005 10.7272C8.41189 10.8057 8.32802 10.8571 8.25227 10.9112C8.17381 10.9653 8.094 11.0099 8.01284 11.0573C7.85186 11.1493 7.68548 11.2304 7.51774 11.3048C7.18227 11.4536 6.84004 11.5808 6.49374 11.6863C6.1461 11.7932 5.79304 11.8811 5.43457 11.9487C5.07475 12.0164 4.71087 12.0664 4.33347 12.0664Z" fill="#241953"/>
<path d="M7.37031 13.4895C7.51674 13.4895 7.63544 13.3708 7.63544 13.2243C7.63544 13.0779 7.51674 12.9592 7.37031 12.9592C7.22388 12.9592 7.10518 13.0779 7.10518 13.2243C7.10518 13.3708 7.22388 13.4895 7.37031 13.4895Z" fill="#241953"/>
<path fill-rule="evenodd" clip-rule="evenodd" d="M7.37033 13.0268C7.26126 13.0268 7.17284 13.1152 7.17284 13.2243C7.17284 13.3334 7.26126 13.4218 7.37033 13.4218C7.47941 13.4218 7.56783 13.3334 7.56783 13.2243C7.56783 13.1152 7.47941 13.0268 7.37033 13.0268ZM7.03757 13.2243C7.03757 13.0405 7.18655 12.8915 7.37033 12.8915C7.55411 12.8915 7.7031 13.0405 7.7031 13.2243C7.7031 13.4081 7.55411 13.5571 7.37033 13.5571C7.18655 13.5571 7.03757 13.4081 7.03757 13.2243Z" fill="#241953"/>
<path d="M12.3667 18.0859C12.5521 17.7948 12.4986 17.429 12.2472 17.2689C11.9958 17.1088 11.6417 17.215 11.4563 17.5061C11.2709 17.7972 11.3244 18.163 11.5758 18.3231C11.8272 18.4832 12.1813 18.377 12.3667 18.0859Z" fill="#241953"/>
<path fill-rule="evenodd" clip-rule="evenodd" d="M11.5133 17.5424C11.3428 17.8101 11.3998 18.1308 11.6121 18.2661C11.8244 18.4013 12.1391 18.3174 12.3097 18.0496C12.4802 17.7819 12.4232 17.4612 12.2109 17.326C11.9986 17.1907 11.6839 17.2747 11.5133 17.5424ZM11.5394 18.3801C11.249 18.1951 11.1989 17.7842 11.3992 17.4697C11.5995 17.1553 11.9931 17.0269 12.2836 17.2119C12.574 17.3969 12.6241 17.8078 12.4238 18.1223C12.2235 18.4368 11.8299 18.5652 11.5394 18.3801Z" fill="#241953"/>
<path d="M14.6137 21.2825C14.71 21.1312 14.641 20.9149 14.4595 20.7994C14.2781 20.6838 14.0529 20.7127 13.9566 20.8639C13.8602 21.0151 13.9293 21.2314 14.1107 21.347C14.2922 21.4626 14.5174 21.4337 14.6137 21.2825Z" fill="#241953"/>
<path fill-rule="evenodd" clip-rule="evenodd" d="M14.0136 20.9002C13.9433 21.0107 13.9869 21.1879 14.1471 21.2899C14.3072 21.3919 14.4863 21.3565 14.5566 21.2461C14.627 21.1357 14.5833 20.9584 14.4232 20.8564C14.263 20.7544 14.0839 20.7898 14.0136 20.9002ZM14.0744 21.404C13.8716 21.2749 13.7772 21.0196 13.8995 20.8276C14.0218 20.6355 14.2931 20.6132 14.4959 20.7423C14.6986 20.8715 14.793 21.1268 14.6707 21.3188C14.5484 21.5108 14.2772 21.5332 14.0744 21.404Z" fill="#241953"/>
<path d="M16.3658 24.7717C16.4654 24.6154 16.448 24.4263 16.327 24.3492C16.206 24.2722 16.0273 24.3364 15.9277 24.4926C15.8282 24.6489 15.8456 24.838 15.9666 24.9151C16.0875 24.9921 16.2663 24.9279 16.3658 24.7717Z" fill="#241953"/>
<path fill-rule="evenodd" clip-rule="evenodd" d="M15.9848 24.529C15.8961 24.6681 15.9261 24.8091 16.0029 24.858C16.0796 24.9069 16.2201 24.8745 16.3088 24.7353C16.3974 24.5961 16.3674 24.4551 16.2906 24.4062C16.2139 24.3574 16.0734 24.3898 15.9848 24.529ZM15.9302 24.9721C15.765 24.8669 15.7603 24.6296 15.8707 24.4563C15.9811 24.283 16.1981 24.1869 16.3633 24.2922C16.5285 24.3974 16.5333 24.6347 16.4229 24.808C16.3125 24.9813 16.0954 25.0773 15.9302 24.9721Z" fill="#241953"/>
<path d="M20.3685 30.2157C20.7122 30.2157 20.9908 29.9371 20.9908 29.5935C20.9908 29.2498 20.7122 28.9712 20.3685 28.9712C20.0249 28.9712 19.7463 29.2498 19.7463 29.5935C19.7463 29.9371 20.0249 30.2157 20.3685 30.2157Z" fill="#241953"/>
<path fill-rule="evenodd" clip-rule="evenodd" d="M20.3685 29.0389C20.0622 29.0389 19.8139 29.2872 19.8139 29.5935C19.8139 29.8998 20.0622 30.1481 20.3685 30.1481C20.6748 30.1481 20.9231 29.8998 20.9231 29.5935C20.9231 29.2872 20.6748 29.0389 20.3685 29.0389ZM19.6786 29.5935C19.6786 29.2125 19.9875 28.9036 20.3685 28.9036C20.7495 28.9036 21.0584 29.2125 21.0584 29.5935C21.0584 29.9745 20.7495 30.2834 20.3685 30.2834C19.9875 30.2834 19.6786 29.9745 19.6786 29.5935Z" fill="#241953"/>
<path d="M22.8196 31.6523C23.0019 31.6523 23.1497 31.5045 23.1497 31.3222C23.1497 31.14 23.0019 30.9922 22.8196 30.9922C22.6373 30.9922 22.4896 31.14 22.4896 31.3222C22.4896 31.5045 22.6373 31.6523 22.8196 31.6523Z" fill="#241953"/>
<path fill-rule="evenodd" clip-rule="evenodd" d="M22.8196 31.0598C22.6747 31.0598 22.5572 31.1773 22.5572 31.3223C22.5572 31.4672 22.6747 31.5847 22.8196 31.5847C22.9646 31.5847 23.082 31.4672 23.082 31.3223C23.082 31.1773 22.9646 31.0598 22.8196 31.0598ZM22.4219 31.3223C22.4219 31.1026 22.6 30.9246 22.8196 30.9246C23.0393 30.9246 23.2173 31.1026 23.2173 31.3223C23.2173 31.5419 23.0393 31.72 22.8196 31.72C22.6 31.72 22.4219 31.5419 22.4219 31.3223Z" fill="#241953"/>
<path fill-rule="evenodd" clip-rule="evenodd" d="M22.2877 31.9752L24.0161 33.436L24.5483 32.8837L24.6457 32.9775L24.0255 33.6211L22.5561 32.3791L23.1459 34.2602L22.5195 34.5881L22.4568 34.4682L22.983 34.1928L22.2877 31.9752Z" fill="#241953"/>
<path d="M28.0776 38.5051C27.9315 38.9055 27.7949 39.3465 27.6718 39.7767C27.546 40.2095 27.4377 40.6478 27.3349 41.0875C27.132 41.9681 26.9711 42.8595 26.8561 43.755C26.6234 45.546 26.5639 47.3613 26.7438 49.1496L26.7749 49.4851C26.7857 49.5974 26.806 49.7069 26.8209 49.8178L26.917 50.4847L27.0468 51.1435L27.1117 51.4736L27.1956 51.7982L27.3633 52.4475L27.569 53.0846L27.6718 53.4039C27.7083 53.5094 27.7529 53.6122 27.7935 53.715L28.0411 54.3372C28.7526 55.974 29.7603 57.4742 31.0021 58.7565C32.2439 60.0416 33.7197 61.0981 35.3173 61.9286C36.9243 62.7673 38.6138 63.4572 40.3426 64.0281C43.8042 65.1684 47.42 65.838 51.0588 66.2046C54.7016 66.5671 58.3769 66.6226 62.0401 66.4508C62.9558 66.4075 63.8716 66.3493 64.7847 66.2749C65.6991 66.2019 66.6109 66.1126 67.5212 66.0057C67.9757 65.9503 68.4303 65.8948 68.8821 65.8285L69.2202 65.7785L69.388 65.7528L69.4651 65.7406C69.48 65.7379 69.4813 65.7379 69.4948 65.7352L69.5354 65.7257C69.7559 65.6757 69.9791 65.6229 70.201 65.5688C71.0897 65.351 71.9744 65.1102 72.855 64.8546C76.3761 63.8292 79.835 62.5712 83.1626 61.0359C84.8251 60.2662 86.4551 59.4221 88.027 58.486C89.5988 57.5499 91.1166 56.5205 92.5328 55.3667C93.9464 54.2128 95.2626 52.9345 96.3881 51.5047C97.5122 50.0776 98.4415 48.4895 99.0434 46.7797C99.6305 45.0577 100.03 43.2626 100.203 41.4473C100.369 39.6306 100.307 37.795 100.043 35.9877C100.027 35.8755 100.015 35.7618 99.9944 35.6496L99.9322 35.3127L99.8077 34.6391L99.6535 33.9708L99.5764 33.6367L99.4871 33.3067L99.3059 32.6452L99.0989 31.9918L98.9947 31.6645L98.8784 31.3412L98.6444 30.6959C98.313 29.8437 97.9437 29.0051 97.5392 28.184C97.1267 27.3669 96.6803 26.5661 96.1973 25.7883C95.7144 25.0105 95.1963 24.2543 94.6431 23.5252C94.0871 22.7961 93.5054 22.09 92.8507 21.4583C91.5278 20.2003 90.0073 19.1506 88.4328 18.2172C86.8542 17.2838 85.1836 16.506 83.4737 15.8391C83.0422 15.6809 82.6148 15.5145 82.1819 15.363L80.8725 14.9328C80.4329 14.8016 79.9892 14.6785 79.5482 14.5513L79.2168 14.4567L78.8826 14.3755L78.2131 14.2132L77.5435 14.0508L76.8685 13.9142L76.1935 13.7776C75.9676 13.7343 75.7444 13.6816 75.5158 13.6491L74.1549 13.4299L73.814 13.3758L73.4718 13.3353L72.7873 13.2527C71.8756 13.1269 70.9585 13.0688 70.0413 12.993L69.6978 12.966L69.3528 12.9511L68.6629 12.9227C68.203 12.9064 67.7444 12.878 67.2845 12.8726C63.6051 12.8145 59.9231 13.085 56.2789 13.6112C52.6347 14.1374 49.0283 14.9152 45.4707 15.8702C49.0229 14.8936 52.6252 14.0914 56.2694 13.5436C59.9122 12.9957 63.5984 12.7008 67.2872 12.7374C67.7485 12.7401 68.2084 12.7658 68.6697 12.7793L69.3609 12.8036L69.7059 12.8158L70.0508 12.8415C70.9706 12.9119 71.8918 12.9646 72.8063 13.085L73.4935 13.1635L73.837 13.2027L74.1793 13.2554L75.5469 13.4665C75.7755 13.4976 76.0014 13.5476 76.2273 13.5909L76.9063 13.7235L77.5854 13.8574L78.2591 14.017L78.9327 14.1766L79.2695 14.2565L79.6036 14.3498C80.0473 14.4756 80.4937 14.5946 80.9374 14.7245L82.2563 15.1492C82.6932 15.2994 83.1247 15.4631 83.559 15.62C85.2837 16.2801 86.9705 17.0525 88.5681 17.9845C90.1643 18.9165 91.7036 19.9649 93.0604 21.2391C93.2295 21.3961 93.3972 21.5665 93.5528 21.7342C93.7138 21.9047 93.868 22.0778 94.0208 22.2523C94.3252 22.6027 94.616 22.9638 94.8987 23.3304C95.4628 24.065 95.9917 24.8265 96.4855 25.6097C96.9779 26.3943 97.4351 27.2005 97.8571 28.0257C98.2724 28.8535 98.6512 29.7003 98.992 30.5634L99.2328 31.2154L99.3519 31.5414L99.4587 31.8728L99.6724 32.5343L99.8605 33.2039L99.9538 33.5393L100.034 33.8775L100.195 34.5552L100.326 35.2397L100.391 35.5819C100.412 35.6956 100.425 35.8119 100.442 35.9269C100.722 37.7625 100.797 39.6333 100.638 41.4865C100.472 43.3397 100.078 45.1672 99.4871 46.9352C98.8757 48.7059 97.9275 50.3454 96.7844 51.8158C95.64 53.2889 94.3035 54.601 92.8724 55.7833C91.4399 56.9669 89.9059 58.0193 88.3192 58.977C86.7324 59.9348 85.0902 60.7978 83.4156 61.5851C80.0636 63.1569 76.5857 64.4447 73.0403 65.5012C72.1529 65.7649 71.2615 66.0125 70.3633 66.2384C70.1387 66.2952 69.9128 66.3507 69.6856 66.4034L69.6423 66.4129C69.6288 66.4156 69.6004 66.4224 69.5882 66.4237L69.4948 66.4399L69.3217 66.4683L68.9768 66.5211C68.5182 66.5901 68.0583 66.6496 67.5997 66.7078C66.6812 66.8214 65.76 66.9174 64.8388 66.9973C63.9176 67.0784 62.9951 67.1434 62.0712 67.1921C58.3769 67.3868 54.6664 67.3557 50.9735 67.0108C47.2847 66.6631 43.608 66.0057 40.0612 64.8627C38.2892 64.2891 36.5537 63.5925 34.8885 62.7376C33.2138 61.88 31.6474 60.7748 30.319 59.418C28.9893 58.064 27.9017 56.4651 27.1347 54.7282L26.8669 54.0681C26.8236 53.9571 26.7763 53.8489 26.7357 53.7366L26.6234 53.3998L26.4002 52.7248L26.2176 52.039L26.127 51.6954L26.0553 51.3478L25.9146 50.6525L25.8091 49.9518C25.7928 49.8354 25.7712 49.7191 25.759 49.6014L25.7239 49.2497C25.5237 47.3735 25.5751 45.4811 25.805 43.6197C25.92 42.6891 26.0796 41.7638 26.2852 40.848C26.3894 40.3908 26.5003 39.9349 26.6275 39.4818C26.7546 39.0259 26.8872 38.5849 27.0549 38.1196L28.0776 38.5051Z" fill="#241953"/>
<path fill-rule="evenodd" clip-rule="evenodd" d="M74.8196 30.3525C75.0041 30.3476 75.1585 30.4915 75.1665 30.6759L76.1269 52.8306C76.1308 52.9206 76.0986 53.0084 76.0376 53.0746C75.9765 53.1408 75.8915 53.1798 75.8015 53.1832L38.6953 54.5548C38.6035 54.5582 38.5143 54.5241 38.4482 54.4604C38.382 54.3966 38.3447 54.3087 38.3447 54.2169V31.6523C38.3447 31.469 38.4906 31.3191 38.6738 31.3143L74.8196 30.3525ZM39.021 31.9816V53.866L75.4364 52.5198L74.5051 31.0374L39.021 31.9816Z" fill="#241953"/>
<path d="M78.7217 52.9818H76.4748L75.4468 30.6905L77.9845 31.3222L78.7217 52.9818Z" fill="#241953"/>
<path d="M48.0801 36.6465C48.5319 36.3624 49.0243 36.1392 49.5424 35.9823C50.0591 35.824 50.6097 35.7388 51.1724 35.7848C51.4524 35.8119 51.7338 35.8754 52.0016 35.9877C52.2681 36.1 52.5184 36.261 52.7294 36.4625C52.9404 36.6627 53.123 36.894 53.261 37.1443C53.2989 37.2052 53.3313 37.2687 53.3624 37.331C53.3936 37.3945 53.426 37.4568 53.4544 37.5203C53.5072 37.6502 53.5626 37.7787 53.6046 37.9113C53.7872 38.4388 53.8846 38.9853 53.9333 39.5305C53.9725 40.077 53.9671 40.6221 53.9238 41.1632C53.8765 41.7029 53.7926 42.2372 53.683 42.7648C53.564 43.2923 53.4328 43.8091 53.2502 44.3231L53.0946 44.0986C53.3124 44.1161 53.5478 44.1175 53.775 44.1094C54.005 44.1026 54.2349 44.0891 54.4636 44.062C54.6922 44.0363 54.9221 44.0025 55.1494 43.9565C55.378 43.9132 55.6025 43.8537 55.8284 43.7901C55.6174 43.893 55.4023 43.9903 55.1791 44.0647C54.9559 44.1432 54.7287 44.2108 54.4974 44.2622C54.2661 44.315 54.032 44.361 53.7967 44.3894C53.5586 44.4192 53.3259 44.4394 53.077 44.4421L52.8633 44.4449L52.9215 44.2176C53.0486 43.7171 53.1568 43.1977 53.2339 42.6809C53.3192 42.1642 53.3787 41.6447 53.4057 41.1253C53.4409 40.6059 53.4382 40.0878 53.3949 39.5751C53.3476 39.0638 53.2691 38.5565 53.1081 38.0776C52.9472 37.5988 52.7402 37.1362 52.4007 36.7993C52.2329 36.6302 52.0395 36.4855 51.8231 36.3773C51.6066 36.2691 51.3685 36.1987 51.1224 36.1582C50.6286 36.0716 50.1065 36.1108 49.5938 36.2014C49.0825 36.2975 48.5725 36.4449 48.0801 36.6465Z" fill="#241953"/>
<path d="M59.4659 35.4778C59.9096 35.398 60.356 35.3695 60.8024 35.3655C61.2488 35.3587 61.6951 35.3817 62.1402 35.4331C62.5852 35.4859 63.0289 35.563 63.4631 35.6996C63.6796 35.7659 63.8947 35.8484 64.0976 35.9553C64.2951 36.0662 64.502 36.2042 64.6089 36.4084C64.433 36.2664 64.2301 36.1961 64.0232 36.1392C63.8162 36.0811 63.6025 36.0432 63.3887 36.0067C62.9613 35.9377 62.5271 35.8863 62.0928 35.8349C61.6586 35.7835 61.2217 35.7361 60.7834 35.6793C60.3465 35.6252 59.9069 35.5657 59.4659 35.4778Z" fill="#241953"/>
<path d="M49.5208 45.0265C49.8914 45.6055 50.3283 46.133 50.8126 46.6051C51.2942 47.0786 51.8299 47.4925 52.4061 47.8253C53.5559 48.4962 54.8924 48.8046 56.2059 48.7221C57.518 48.6437 58.772 48.0918 59.8325 47.2788C60.1017 47.0786 60.3533 46.8554 60.6008 46.6268C60.8484 46.3982 61.0837 46.1547 61.3097 45.9017C61.7642 45.3972 62.1794 44.8534 62.5514 44.2744C62.285 44.9115 61.9224 45.5054 61.5166 46.0681C61.1027 46.6254 60.6346 47.1503 60.099 47.6061C59.8311 47.8347 59.5525 48.0525 59.2522 48.2392C58.9532 48.4286 58.6435 48.6031 58.3161 48.7451C58.1565 48.8236 57.9847 48.8777 57.8183 48.9413C57.6465 48.9913 57.4788 49.0522 57.3029 49.0901C56.9566 49.1821 56.5995 49.228 56.2424 49.2605C55.8839 49.274 55.5282 49.2754 55.1738 49.2362C54.8194 49.2037 54.4663 49.1442 54.1227 49.0508C53.4355 48.8655 52.7741 48.576 52.187 48.1824C51.5931 47.7969 51.0723 47.3153 50.6205 46.7837C50.1741 46.2467 49.7873 45.6623 49.5208 45.0265Z" fill="#241953"/>
<path d="M50.6665 40.8426C51.2634 40.8426 51.7473 40.3587 51.7473 39.7618C51.7473 39.1649 51.2634 38.681 50.6665 38.681C50.0696 38.681 49.5857 39.1649 49.5857 39.7618C49.5857 40.3587 50.0696 40.8426 50.6665 40.8426Z" fill="#241953"/>
<path d="M62.0374 40.9468C62.6343 40.9468 63.1182 40.4629 63.1182 39.866C63.1182 39.2691 62.6343 38.7852 62.0374 38.7852C61.4405 38.7852 60.9566 39.2691 60.9566 39.866C60.9566 40.4629 61.4405 40.9468 62.0374 40.9468Z" fill="#241953"/>
<path fill-rule="evenodd" clip-rule="evenodd" d="M61.772 27.9707C60.7063 26.3282 58.9808 24.7396 56.2811 24.7886C53.5839 24.8376 52.1075 26.4206 51.2916 28.0233C50.8824 28.8271 50.6433 29.6307 50.5067 30.235C50.4385 30.5367 50.3962 30.7872 50.371 30.9615C50.3584 31.0486 50.3501 31.1165 50.345 31.162C50.3425 31.1848 50.3407 31.202 50.3396 31.2132C50.3391 31.2188 50.3387 31.2229 50.3385 31.2254L50.3382 31.2281M61.772 27.9707C62.3046 28.7915 62.6661 29.6176 62.8945 30.2397L61.772 27.9707ZM62.8945 30.2397C63.0085 30.5503 63.0889 30.8089 63.1406 30.989L62.8945 30.2397ZM63.1406 30.989C63.1665 31.079 63.1851 31.1493 63.1972 31.1966L63.1406 30.989ZM63.1972 31.1966C63.2032 31.2202 63.2076 31.2381 63.2104 31.2498L63.1972 31.1966ZM63.2104 31.2498C63.2118 31.2556 63.2128 31.2599 63.2134 31.2626L63.2104 31.2498ZM63.2134 31.2626L63.2141 31.2655L63.2134 31.2626ZM63.2141 31.2655L63.2142 31.266L63.2141 31.2655ZM63.2142 31.266L63.2142 31.266L63.2142 31.266ZM63.2142 31.266C63.2142 31.266 63.2142 31.2659 63.478 31.2059L63.2142 31.266ZM63.478 31.2059C63.7418 31.146 63.7418 31.1458 63.7418 31.1457L63.478 31.2059ZM63.7418 31.1457L63.7417 31.1452L63.7418 31.1457ZM63.7417 31.1452L63.7414 31.1439L63.7417 31.1452ZM63.7414 31.1439L63.7403 31.1394L63.7414 31.1439ZM63.7403 31.1394C63.74 31.138 63.7396 31.1365 63.7392 31.1348L63.7403 31.1394ZM63.7392 31.1348C63.7385 31.1315 63.7375 31.1277 63.7364 31.1231L63.7392 31.1348ZM63.7364 31.1231C63.7331 31.1091 63.7281 31.0889 63.7214 31.0628L63.7364 31.1231ZM63.7214 31.0628C63.7081 31.0106 63.6881 30.9351 63.6607 30.8397L63.7214 31.0628ZM63.6607 30.8397C63.6059 30.6488 63.5215 30.3777 63.4024 30.0533L63.6607 30.8397ZM63.4024 30.0533C63.1646 29.4054 62.7866 28.5402 62.226 27.6762L63.4024 30.0533ZM62.226 27.6762C61.1053 25.9491 59.2299 24.1939 56.2713 24.2476L62.226 27.6762ZM50.3382 31.2285C50.3382 31.2285 50.3382 31.2284 50.0686 31.2059C49.799 31.1834 49.799 31.1833 49.799 31.1831L49.7991 31.1827L49.7992 31.1813L49.7996 31.1768C49.7999 31.1731 49.8004 31.1677 49.8011 31.1608C49.8024 31.1471 49.8044 31.1273 49.8073 31.1018C49.813 31.0509 49.822 30.9772 49.8355 30.884C49.8624 30.6978 49.9072 30.4331 49.9789 30.1158C50.1221 29.4822 50.374 28.6331 50.8094 27.7778C51.6827 26.0623 53.3101 24.3014 56.2713 24.2476" fill="#241953"/>
<path fill-rule="evenodd" clip-rule="evenodd" d="M51.9464 27.6004C53.0171 25.7582 54.8932 23.8835 58.0581 23.904L58.0717 23.9041L58.0851 23.9055C61.2296 24.2416 63.1796 25.925 64.3371 27.518C64.9147 28.3129 65.296 29.0862 65.5331 29.6609C65.6518 29.9485 65.7347 30.1872 65.7881 30.3551C65.8149 30.4391 65.8343 30.5055 65.8472 30.5514C65.8537 30.5744 65.8585 30.5923 65.8618 30.6048C65.8634 30.6111 65.8647 30.616 65.8656 30.6194L65.8666 30.6236L65.867 30.6249L65.8671 30.6254C65.8671 30.6255 65.8671 30.6257 65.6045 30.6905C65.3418 30.7553 65.3418 30.7554 65.3419 30.7555L65.3412 30.7531C65.3407 30.7509 65.3398 30.7474 65.3385 30.7425C65.3359 30.7328 65.3319 30.7177 65.3262 30.6976C65.315 30.6573 65.2973 30.597 65.2726 30.5194C65.2231 30.3641 65.1453 30.1396 65.0329 29.8673C64.808 29.3221 64.4462 28.5886 63.8993 27.836C62.8096 26.3363 60.9894 24.7643 58.0411 24.445C55.1473 24.4316 53.4263 26.1309 52.4143 27.8723C51.907 28.7453 51.583 29.6219 51.3859 30.2819C51.2875 30.6113 51.2211 30.8855 51.1795 31.0763C51.1587 31.1717 51.1441 31.2462 51.1347 31.2963C51.1301 31.3214 51.1267 31.3403 51.1246 31.3527C51.1236 31.3589 51.1228 31.3635 51.1223 31.3663L51.1218 31.3694L51.1217 31.3699C51.1218 31.3699 51.1218 31.3698 50.8545 31.3276C50.5873 31.2855 50.5873 31.2853 50.5873 31.2852L50.5874 31.2847L50.5876 31.2833L50.5884 31.2785C50.5891 31.2745 50.59 31.2687 50.5913 31.2613C50.5939 31.2465 50.5976 31.225 50.6028 31.1974C50.613 31.1422 50.6287 31.0622 50.6508 30.961C50.695 30.7587 50.7646 30.4712 50.8674 30.127C51.0727 29.4396 51.4117 28.5207 51.9464 27.6004Z" fill="#241953"/>
<path fill-rule="evenodd" clip-rule="evenodd" d="M37.7166 24.3377L40.4781 28.702H46.3026L42.4883 32.7797L47.0946 37.4563L39.5695 35.3694L35.4433 41.0658L36.0674 34.2695L31.048 30.5544L36.3174 29.3914L37.7166 24.3377ZM37.9122 25.6589L36.752 29.8496L32.3253 30.8266L36.6341 34.0157L36.1625 39.1504L39.3518 34.7475L45.2888 36.394L41.7383 32.7893L45.0555 29.2431H40.1801L37.9122 25.6589Z" fill="#241953"/>
<path fill-rule="evenodd" clip-rule="evenodd" d="M80.9235 18.2711L82.184 22.2591H85.7277L83.0384 24.5953L84.5844 28.4986L80.9189 25.9014L78.4512 28.4123V25.1082L75.7845 22.3683L79.2432 22.2644L80.9235 18.2711ZM80.8513 19.8379L79.6071 22.7948L77.03 22.8722L78.9923 24.8884V27.0898L80.8559 25.1936L83.4102 27.0035L82.3942 24.4382L84.2797 22.8002H81.7876L80.8513 19.8379Z" fill="#241953"/>
<path d="M86.6486 44.9346L83.3575 42.4537L84.4545 46.639L80.7048 49.0035L85.0037 49.9639L86.6486 54.2168L88.4788 49.7813H92.4112L89.3933 47.4033L90.4903 42.8311L86.6486 44.9346Z" fill="#241953"/>
<path fill-rule="evenodd" clip-rule="evenodd" d="M82.8982 41.7687L86.6719 44.6133L90.8958 42.3006L89.6967 47.298L93.1916 50.0519H88.6599L86.6405 54.9458L84.8036 50.1964L80.0057 49.1245L84.1426 46.5159L82.8982 41.7687ZM83.8167 43.1387L84.7665 46.7621L81.4039 48.8825L85.2039 49.7314L86.6567 53.4879L88.2978 49.5108H91.6307L89.0898 47.5086L90.0848 43.3616L86.6253 45.2558L83.8167 43.1387Z" fill="#241953"/>
</svg>
