<svg width="80" height="79" viewBox="0 0 80 79" fill="none" xmlns="http://www.w3.org/2000/svg">
<circle cx="40.2682" cy="39.3093" r="39.3017" fill="#AFD6E0"/>
<path d="M71.0089 31.0065C71.1446 31.7303 71.1101 32.4797 70.94 33.1924C70.7654 33.9039 70.4686 34.581 70.0984 35.2059C69.3557 36.4611 68.3661 37.5463 67.291 38.5124C66.2092 39.4764 65.0496 40.348 63.8355 41.1363C62.6203 41.9212 61.3684 42.6517 60.0809 43.3144C59.4371 43.6457 58.7878 43.9648 58.1341 44.2783C57.4792 44.5885 56.8188 44.8865 56.1528 45.1722C54.8209 45.7437 53.4667 46.2685 52.0969 46.7476C49.3608 47.7183 46.5645 48.5354 43.725 49.1914C42.3052 49.5183 40.8743 49.8096 39.4345 50.0564C38.714 50.1809 37.9913 50.2955 37.2664 50.3966C36.904 50.45 36.5404 50.4956 36.1768 50.5434C35.8133 50.5867 35.4486 50.629 35.0839 50.6646C33.6241 50.8158 32.1565 50.9192 30.6811 50.9714C29.2057 51.0215 27.7226 51.027 26.2361 50.937C24.7496 50.8536 23.2553 50.7102 21.7632 50.4489C20.2712 50.1887 18.7725 49.8507 17.2904 49.3193C16.5499 49.0547 15.8106 48.7534 15.0812 48.3842C14.7165 48.1997 14.3541 47.9995 13.9961 47.7794C13.6392 47.5548 13.2867 47.3169 12.9432 47.0456C12.2561 46.5108 11.599 45.8649 11.0442 45.0788C10.4939 44.2916 10.0636 43.3455 9.87792 42.3404C9.69447 41.3353 9.75562 40.298 9.98687 39.3663C10.2226 38.4335 10.605 37.5952 11.0542 36.8491C11.5012 36.0987 12.0259 35.4427 12.573 34.8356C13.1211 34.2297 13.7026 33.6827 14.2996 33.1701C14.8955 32.6576 15.5148 32.1884 16.1463 31.7503C16.7779 31.3123 17.4194 30.902 18.0709 30.514C19.3695 29.7346 20.7148 29.0698 22.0723 28.456C23.4276 27.839 24.8163 27.3175 26.2094 26.8328C27.6047 26.3525 29.0112 25.9222 30.4287 25.5397C33.265 24.7848 36.1379 24.2267 39.0231 23.8175C41.9082 23.4106 44.8112 23.1727 47.713 23.0949C49.164 23.0504 50.6149 23.0559 52.0636 23.1104C53.5123 23.1638 54.9576 23.2805 56.3963 23.4351C57.835 23.5929 59.2659 23.8242 60.6824 24.1211C62.0977 24.4213 63.4942 24.8182 64.8495 25.3307C66.2003 25.8477 67.5123 26.5059 68.6563 27.4109C69.2267 27.8623 69.7459 28.3871 70.1651 28.9886C70.5753 29.5945 70.8766 30.2828 71.0089 31.0065ZM70.791 31.0466C70.6598 30.3561 70.3696 29.7024 69.9683 29.1242C69.5625 28.5483 69.0577 28.0424 68.4996 27.6066C67.38 26.7316 66.078 26.109 64.7416 25.6165C63.4008 25.125 62.0099 24.7737 60.6057 24.5058C59.2003 24.2378 57.7783 24.0588 56.3507 23.9432C53.4956 23.7108 50.6227 23.7319 47.7642 23.9243C44.9046 24.1188 42.0583 24.4924 39.241 25.0183C36.4248 25.5464 33.6363 26.228 30.9013 27.0796C28.1684 27.9335 25.4834 28.9519 22.9084 30.1994C21.6209 30.822 20.3623 31.5024 19.1516 32.2596C17.9419 33.0167 16.7745 33.8439 15.7072 34.7834C14.6432 35.7218 13.6603 36.768 12.941 37.9754C12.5819 38.5769 12.2983 39.2218 12.1316 39.8933C11.9692 40.5648 11.937 41.2631 12.0615 41.9379C12.1883 42.6117 12.4685 43.2521 12.8609 43.8202C13.2578 44.3873 13.7526 44.8876 14.3041 45.3212C15.4081 46.1906 16.7011 46.8155 18.0309 47.3091C19.3639 47.8028 20.7504 48.1574 22.1513 48.4298C23.5533 48.7011 24.9719 48.8857 26.3973 49.0057C29.248 49.247 32.1198 49.2348 34.9772 49.0524C37.8357 48.8668 40.683 48.5032 43.5015 47.9862C46.3199 47.467 49.1106 46.7943 51.8501 45.9516C54.5874 45.1055 57.2769 44.096 59.8585 42.8552C61.1493 42.2359 62.4124 41.5577 63.6287 40.805C64.8428 40.0512 66.0158 39.224 67.0909 38.2856C68.1616 37.3472 69.1544 36.2988 69.886 35.0802C70.2507 34.4732 70.5409 33.8205 70.7132 33.1368C70.8789 32.453 70.9155 31.7381 70.791 31.0466Z" fill="#241953"/>
<path d="M11.2677 42.9441C11.8225 46.2473 12.3573 49.555 13.0077 52.8359C13.1711 53.6554 13.3446 54.4736 13.5458 55.2775C13.5981 55.4776 13.6525 55.6766 13.7148 55.8668L13.7637 56.0068C13.7815 56.0502 13.8004 56.0902 13.8171 56.1325C13.8582 56.2192 13.9094 56.3104 13.9594 56.396C14.1606 56.7429 14.4052 57.0675 14.6765 57.3666C15.2247 57.9636 15.8684 58.4751 16.5644 58.9042C17.2604 59.3334 18.0053 59.6881 18.7736 59.9827L19.0604 60.0961L19.3528 60.1962C19.5485 60.2607 19.742 60.3318 19.9388 60.3918C20.3357 60.5041 20.7293 60.6298 21.1329 60.7187L21.7355 60.8633L22.3447 60.9844C22.7494 61.0723 23.1597 61.1268 23.5688 61.1935C25.2088 61.4347 26.8676 61.5559 28.5298 61.5904C29.3603 61.6182 30.193 61.5971 31.0247 61.5882C31.8563 61.5548 32.688 61.5348 33.5196 61.4703C35.1829 61.3769 36.8417 61.2013 38.4983 61.0122C45.1092 60.1473 51.7089 58.8898 57.9896 56.6717C59.5528 56.1025 61.0927 55.4721 62.5892 54.7516C64.0857 54.0323 65.5377 53.2195 66.8975 52.2745C67.5712 51.7942 68.2372 51.3016 68.8542 50.7524C69.1722 50.4878 69.4624 50.1954 69.7626 49.9119C70.0483 49.615 70.3396 49.3226 70.602 49.0057C71.139 48.382 71.6238 47.7138 72.0229 46.9978C72.2253 46.642 72.3987 46.2696 72.5466 45.8904C72.6211 45.7003 72.6856 45.508 72.7401 45.3134L72.7801 45.1677L72.8134 45.021C72.8346 44.9254 72.8535 44.8209 72.8624 44.7375L72.8657 44.7886L71.7906 39.1439L71.2536 36.321L70.731 33.4959L71.3692 36.2977L71.9929 39.1028L73.2393 44.713L73.2448 44.7386L73.2426 44.7642C73.2326 44.8887 73.2159 44.991 73.1959 45.0999L73.1636 45.26L73.1247 45.4179C73.0714 45.628 73.0069 45.8337 72.9335 46.0361C72.7867 46.4397 72.6133 46.8332 72.411 47.209C72.0118 47.9651 71.5237 48.67 70.9823 49.3259C70.7177 49.6595 70.4241 49.9675 70.1362 50.2799C69.8349 50.579 69.538 50.8836 69.2167 51.1615C68.5919 51.7364 67.917 52.2522 67.2354 52.7537C65.859 53.741 64.3936 54.5959 62.8816 55.3464C61.3673 56.0936 59.8118 56.7484 58.2331 57.3399C55.0688 58.5018 51.8134 59.3834 48.528 60.0983C45.2404 60.8077 41.9272 61.3614 38.5895 61.7672C36.9184 61.9517 35.2451 62.1274 33.5641 62.2119C32.7247 62.2686 31.8819 62.2808 31.0402 62.3064C30.1975 62.3075 29.3558 62.3197 28.512 62.2842C26.8276 62.2297 25.1398 62.1018 23.471 61.825C23.0541 61.7505 22.636 61.6882 22.2235 61.5915L21.602 61.4581L20.9861 61.3002C20.5736 61.2024 20.17 61.0667 19.7642 60.9444C19.5619 60.8799 19.3628 60.8032 19.1627 60.7332L18.8625 60.6253L18.5668 60.5041C17.7785 60.1851 17.008 59.8093 16.2887 59.3412C15.5693 58.8764 14.9011 58.3228 14.3308 57.6723C14.0472 57.3466 13.7926 56.9919 13.5814 56.6106C13.528 56.5138 13.478 56.4216 13.4313 56.3182C13.4091 56.2637 13.3846 56.2081 13.3646 56.1536L13.3134 55.9957C13.249 55.7867 13.1989 55.581 13.1489 55.3742C12.9577 54.5504 12.8153 53.7232 12.6741 52.8971C12.3962 51.2427 12.1527 49.585 11.9181 47.9273C11.6846 46.2673 11.4712 44.6063 11.2677 42.9441Z" fill="#241953"/>
<path d="M71.0812 33.4926L70.333 49.694C70.333 49.694 72.491 47.6793 73.0547 45.1989C72.8179 42.5505 71.0812 33.4926 71.0812 33.4926Z" fill="#241953"/>
<path fill-rule="evenodd" clip-rule="evenodd" d="M71.1358 33.4821L71.0812 33.4926C71.1358 33.4821 71.1358 33.482 71.1358 33.4821L71.1554 33.5845C71.1682 33.6515 71.1869 33.7501 71.2109 33.8766C71.2589 34.1295 71.3276 34.4937 71.4109 34.939C71.5774 35.8297 71.802 37.0449 72.0339 38.3428C72.4975 40.9375 72.9914 43.8668 73.1101 45.1939L73.1108 45.2027L73.1089 45.2112C72.8246 46.4623 72.1391 47.5933 71.5269 48.4099C71.2206 48.8186 70.9319 49.1495 70.7197 49.3782C70.6136 49.4926 70.5266 49.5815 70.466 49.6419C70.4358 49.6721 70.4121 49.6952 70.3959 49.7108C70.3878 49.7186 70.3816 49.7245 70.3774 49.7284L70.3726 49.733L70.3714 49.7342L70.371 49.7345L70.3709 49.7346C70.3709 49.7346 70.3709 49.7346 70.333 49.694L70.3709 49.7346L70.2711 49.8277L71.0474 33.0207L71.1358 33.4821ZM70.395 49.5557C70.4543 49.4965 70.5375 49.4112 70.6382 49.3026C70.8483 49.0761 71.1344 48.7483 71.438 48.3433C72.0443 47.5344 72.718 46.4211 72.9985 45.1951C72.879 43.8698 72.3873 40.9531 71.9244 38.3624C71.6926 37.0648 71.4681 35.8499 71.3016 34.9595C71.2258 34.5538 71.1619 34.2154 71.1149 33.9673L70.395 49.5557Z" fill="#241953"/>
<path d="M67.8758 51.9187L60.4256 43.3944L57.7216 57.1454C61.3739 55.8846 64.7928 54.2046 67.8758 51.9187Z" fill="#241953"/>
<path fill-rule="evenodd" clip-rule="evenodd" d="M60.3929 43.2725L67.9573 51.9275L67.9089 51.9634C64.8205 54.2532 61.3964 55.9356 57.7397 57.1979L57.6484 57.2294L60.3929 43.2725ZM60.4582 43.5163L57.7948 57.0612C61.3894 55.8121 64.755 54.1545 67.7943 51.9099L60.4582 43.5163Z" fill="#241953"/>
<path d="M41.3724 61.0056L46.221 48.3553L54.971 58.0515C49.771 59.5958 44.8813 61.3747 41.3724 61.0056Z" fill="#241953"/>
<path fill-rule="evenodd" clip-rule="evenodd" d="M46.2015 48.2508L55.0713 58.0797L54.9868 58.1048C54.1528 58.3525 53.3262 58.6064 52.5117 58.8566C50.7894 59.3856 49.1212 59.898 47.5513 60.2999C45.2391 60.8919 43.1313 61.2465 41.3665 61.0609L41.2945 61.0533L46.2015 48.2508ZM46.2405 48.4599L41.4503 60.9576C43.1798 61.1241 45.2457 60.7754 47.5237 60.1922C49.0911 59.791 50.7549 59.2799 52.4758 58.7513C53.2634 58.5093 54.063 58.2637 54.8707 58.0233L46.2405 48.4599Z" fill="#241953"/>
<path d="M25.2177 61.7316L29.984 50.2699L38.356 61.2368C34.0232 62.4009 29.5504 62.3209 25.2177 61.7316Z" fill="#241953"/>
<path fill-rule="evenodd" clip-rule="evenodd" d="M29.9697 50.1595L38.4505 61.269L38.3704 61.2905C34.0279 62.4572 29.5469 62.3765 25.2102 61.7867L25.1386 61.7769L29.9697 50.1595ZM29.9983 50.3802L25.2967 61.6862C29.5763 62.2625 33.9872 62.3373 38.2614 61.2045L29.9983 50.3802Z" fill="#241953"/>
<path d="M13.6359 56.2481L16.7923 48.3553L22.7683 61.2368C20.6548 60.9266 17.4416 61.2368 13.6359 56.2481Z" fill="#241953"/>
<path fill-rule="evenodd" clip-rule="evenodd" d="M16.7885 48.2151L22.862 61.3068L22.7602 61.2918C22.5036 61.2542 22.2292 61.2256 21.9383 61.1954C21.0414 61.1022 19.9879 60.9926 18.817 60.5489C17.2626 59.9598 15.4998 58.7831 13.5917 56.2818L13.5725 56.2568L16.7885 48.2151ZM16.7961 48.4956L13.6992 56.2394C15.5894 58.7097 17.3295 59.8663 18.8564 60.4449C20.0124 60.883 21.0454 60.9905 21.9402 61.0836C22.1965 61.1103 22.4416 61.1357 22.6749 61.1675L16.7961 48.4956Z" fill="#241953"/>
<path d="M27.945 15.7613C28.1173 15.9114 28.2663 16.0548 28.4186 16.2071C28.5698 16.3584 28.7154 16.514 28.8578 16.6719C29.1424 16.9899 29.4114 17.3212 29.6616 17.6681C30.163 18.3596 30.5889 19.1179 30.8768 19.9417C31.0202 20.3531 31.1181 20.7845 31.1681 21.2226C31.177 21.3326 31.1948 21.4416 31.1959 21.5528L31.2015 21.8852C31.1881 22.1064 31.1815 22.3299 31.1392 22.549C31.1125 22.7702 31.0458 22.9837 30.9924 23.1994C30.9146 23.4073 30.8512 23.6219 30.7478 23.8175C30.5688 24.2245 30.3165 24.5869 30.053 24.936L29.8395 25.184C29.7683 25.2662 29.6994 25.3507 29.6182 25.4241C29.4593 25.5742 29.3114 25.7365 29.1357 25.8677L28.8811 26.0734C28.7944 26.139 28.701 26.1968 28.612 26.258C28.5209 26.3169 28.433 26.3825 28.3385 26.4359L28.0539 26.5937C27.2901 27.0073 26.4629 27.2775 25.6257 27.4409C24.7874 27.6055 23.938 27.6744 23.0919 27.6766C22.2458 27.6789 21.403 27.6166 20.5681 27.5054C19.7331 27.3943 18.907 27.2308 18.0909 27.024C17.2749 26.8161 16.471 26.5659 15.685 26.2346C15.4882 26.1501 15.2936 26.0612 15.1001 25.9578L14.9556 25.8788C14.9078 25.851 14.8589 25.8188 14.8111 25.7877L14.7388 25.741L14.6643 25.6832L14.5909 25.6254L14.5331 25.5764C14.2396 25.3252 13.8871 25.0772 13.5647 24.797C13.2378 24.5202 12.931 24.2078 12.6653 23.8587C12.3995 23.5107 12.1783 23.1238 12.0193 22.7124C11.8603 22.301 11.7636 21.8685 11.7191 21.4349C11.6924 21.2181 11.6924 21.0002 11.688 20.7834C11.6991 20.5677 11.7013 20.3509 11.7313 20.1374C11.7714 19.7083 11.8648 19.2902 11.9648 18.8755C12.0237 18.6709 12.0804 18.4664 12.1449 18.264C12.2161 18.0639 12.2795 17.8615 12.3562 17.6647C12.6553 16.8731 13.0222 16.1138 13.428 15.38C13.5258 15.1943 13.6314 15.0131 13.7382 14.8329C13.846 14.6528 13.9438 14.4705 14.0606 14.2915C14.2818 13.9279 14.5387 13.5844 14.8111 13.2564C15.3581 12.6004 16.0141 12.0301 16.7412 11.5787C17.4705 11.1306 18.2688 10.7993 19.0916 10.5847C19.9143 10.3712 20.7593 10.2578 21.602 10.2267C22.4448 10.1933 23.2876 10.2322 24.1214 10.3201C25.7914 10.4935 27.4268 10.8549 29.0423 11.2551C29.8506 11.4541 30.6533 11.6665 31.4572 11.8544C31.8586 11.9478 32.2621 12.0323 32.6624 12.0934C32.8625 12.1223 33.0627 12.1446 33.2583 12.1512C33.3562 12.1546 33.4529 12.1535 33.5452 12.1446C33.6341 12.139 33.7431 12.1168 33.842 12.1023C35.462 11.8455 37.0563 11.3719 38.5962 10.7882C39.3667 10.4946 40.1193 10.1555 40.8576 9.79085C41.5892 9.41284 42.303 9.00146 42.9789 8.53561C43.6483 8.06087 44.2831 7.54054 44.8446 6.94794C45.416 6.33755 46.0175 5.75385 46.6502 5.20684C47.2817 4.65871 47.9432 4.14505 48.6292 3.66808C49.3174 3.19111 50.0201 2.74527 50.7739 2.35725L50.7972 2.34502L50.8217 2.3428C51.4855 2.28387 52.1325 2.30833 52.7818 2.37281C53.43 2.43619 54.0715 2.55626 54.7008 2.72081C55.9594 3.04991 57.1702 3.57358 58.2575 4.28959C58.5333 4.46192 58.7923 4.66093 59.0547 4.85328C59.3049 5.06007 59.5628 5.2602 59.7974 5.4859C60.0431 5.70048 60.2644 5.93841 60.4923 6.17078C60.6046 6.28863 60.7069 6.41427 60.8147 6.53546C60.9214 6.65776 61.0304 6.77895 61.1271 6.90903C61.9354 7.92634 62.5981 9.05372 63.1228 10.2378L63.1262 10.2445L63.1284 10.2511C63.3218 10.8993 63.3763 11.5709 63.3797 12.2335C63.3797 12.8973 63.3241 13.5577 63.2563 14.2126C63.1907 14.8674 63.1039 15.52 63.0773 16.1682C63.0717 16.3306 63.0706 16.4918 63.0817 16.6508C63.0895 16.8109 63.1139 16.9665 63.1573 17.1111C63.2018 17.2556 63.2752 17.3846 63.3874 17.4546L63.4297 17.4813C63.4442 17.4902 63.4653 17.4969 63.4831 17.5046L63.5931 17.5502C63.6654 17.5825 63.7432 17.6014 63.8177 17.628C64.4303 17.8126 65.0908 17.7926 65.7378 17.7359C66.0625 17.7059 66.3882 17.6647 66.7151 17.6258L67.2065 17.5691C67.2866 17.558 67.3744 17.558 67.46 17.5547L67.589 17.5524L67.7158 17.5658C67.887 17.5758 68.0504 17.6192 68.215 17.6547C68.3751 17.7059 68.5374 17.7504 68.6908 17.8171C69.0032 17.9371 69.2968 18.0983 69.5814 18.2718C69.7204 18.363 69.8627 18.4508 69.9939 18.552C70.0606 18.602 70.1295 18.6487 70.194 18.7021L70.3863 18.8611C70.5164 18.9656 70.632 19.0856 70.7555 19.1979L70.9267 19.3792C70.9845 19.4392 71.0412 19.5004 71.0923 19.5659L71.2513 19.7594C71.3014 19.8261 71.3481 19.895 71.397 19.9629L71.4692 20.0652C71.4926 20.0996 71.5126 20.1374 71.5337 20.173L71.6616 20.3898C71.7305 20.5432 71.8128 20.6911 71.8606 20.8523C71.8862 20.9324 71.9206 21.0091 71.9395 21.0914L71.9985 21.336C72.1441 21.9908 72.123 22.6713 72.0051 23.3228C71.9907 23.4051 71.9807 23.4873 71.964 23.5685L71.9029 23.8098C71.8584 23.9699 71.8272 24.1333 71.7728 24.2901C71.6594 24.6014 71.5682 24.9205 71.4248 25.2195L71.2258 25.6743C71.1557 25.8244 71.0746 25.9678 70.9989 26.1145L70.7688 26.5526L70.5131 26.9762C69.826 28.1025 69.0355 29.162 68.1683 30.1538L67.8481 30.5296C67.7424 30.6552 67.6257 30.7719 67.5156 30.8942L66.8441 31.618C66.734 31.7403 66.6173 31.8571 66.5005 31.9727L66.1514 32.3218L65.4532 33.0189L65.4521 33.02L65.4499 33.0212C64.1691 34.0385 62.7704 34.9279 61.2405 35.5216C60.8558 35.6628 60.4689 35.7985 60.0709 35.8996C59.8741 35.9563 59.6729 35.9953 59.4727 36.042C59.2715 36.0775 59.0703 36.1198 58.8668 36.1442C58.0552 36.2621 57.2291 36.2665 56.4152 36.1809C56.0083 36.1398 55.6036 36.0709 55.2 36.0119C54.9988 35.9853 54.7942 35.9519 54.5963 35.9786C54.5018 35.9953 54.4073 36.0486 54.3072 36.072C54.2083 36.0998 54.1082 36.122 54.0082 36.142C53.2043 36.2966 52.3927 36.3977 51.5877 36.5389C50.7828 36.6779 49.9801 36.8347 49.1951 37.0659C48.8038 37.1827 48.4168 37.3172 48.0488 37.4962C47.8643 37.584 47.6875 37.6875 47.5196 37.8042C47.3562 37.9254 47.2016 38.0621 47.0804 38.2278C47.2005 38.0621 47.3551 37.9243 47.5185 37.802C47.6864 37.6852 47.862 37.5796 48.0466 37.4918C48.4135 37.3105 48.8004 37.1749 49.1918 37.0559C49.9756 36.8213 50.7783 36.6601 51.5833 36.5178C52.3882 36.3733 53.1999 36.2677 54.0004 36.1098C54.1004 36.0887 54.1994 36.0664 54.2972 36.0386C54.3962 36.0153 54.4829 35.963 54.5896 35.943C54.7987 35.9141 55.0032 35.9475 55.2056 35.973C55.6103 36.0308 56.0139 36.0975 56.4197 36.1365C57.2313 36.2176 58.0518 36.2098 58.859 36.0887C59.0614 36.0631 59.2604 36.0208 59.4616 35.9841C59.6595 35.9375 59.8597 35.8974 60.0553 35.8396C60.45 35.7373 60.8347 35.6006 61.2161 35.4583C62.7348 34.8601 64.1235 33.9695 65.3943 32.95L65.3909 32.9522L66.0847 32.2529L66.4316 31.9038C66.5483 31.7881 66.6629 31.6714 66.7729 31.5491L67.4389 30.8242C67.549 30.7019 67.6635 30.5852 67.7691 30.4595L68.086 30.0826C68.9454 29.0909 69.7281 28.0313 70.4041 26.9106L70.6565 26.4892L70.8822 26.0534C70.9556 25.9078 71.0368 25.7643 71.1046 25.6165L71.2991 25.1662C71.4392 24.8704 71.5282 24.5558 71.6382 24.2478C71.6905 24.0933 71.7205 23.9332 71.7639 23.7753L71.8239 23.5385C71.8406 23.4584 71.8506 23.3784 71.8639 23.2983C71.9762 22.6601 71.994 21.9986 71.8506 21.3682L71.7928 21.1336C71.7739 21.0547 71.7416 20.9813 71.7161 20.9046C71.6694 20.75 71.5904 20.6099 71.5237 20.4632L71.4003 20.2553C71.3792 20.2208 71.3603 20.1852 71.3381 20.1519L71.268 20.0529C71.2202 19.9873 71.1746 19.9206 71.1257 19.8561L70.97 19.6693C70.92 19.606 70.8644 19.5459 70.8077 19.4881L70.6398 19.3125C70.5186 19.2046 70.4063 19.0879 70.2785 18.9867L70.0906 18.8321C70.0272 18.781 69.9605 18.7354 69.8949 18.6876C69.7659 18.5887 69.6281 18.5042 69.4913 18.4163C69.2145 18.2496 68.9276 18.0939 68.6263 17.9794C68.4785 17.9149 68.3228 17.8738 68.1694 17.8248C68.0126 17.7926 67.857 17.7515 67.6991 17.7437L67.5812 17.7315L67.4634 17.7348C67.3844 17.7381 67.3077 17.737 67.2254 17.7492L66.7374 17.8071C66.4116 17.8482 66.0847 17.8904 65.7556 17.9227C65.1008 17.9838 64.417 18.0105 63.7621 17.8171C63.6821 17.7893 63.5987 17.7693 63.5209 17.7348L63.403 17.6859C63.383 17.677 63.3641 17.6714 63.343 17.6603L63.2796 17.6225C63.1106 17.5158 63.0161 17.339 62.965 17.1722C62.9127 17.0032 62.8871 16.832 62.8782 16.663C62.866 16.494 62.8671 16.3272 62.8716 16.1605C62.896 15.4956 62.9805 14.8418 63.0428 14.1892C63.1073 13.5366 63.1595 12.8839 63.1562 12.2324C63.1506 11.5831 63.0928 10.9316 62.906 10.3167L62.9105 10.3301C62.3868 9.16379 61.7297 8.05864 60.9314 7.06357C60.8358 6.93571 60.7291 6.81786 60.6235 6.69778C60.5167 6.57882 60.4156 6.45652 60.3055 6.34089C60.0809 6.11519 59.863 5.88171 59.6228 5.6738C59.3927 5.45366 59.1392 5.2602 58.8935 5.05785C58.6355 4.87107 58.3832 4.67761 58.1119 4.51084C57.0456 3.81595 55.8605 3.30897 54.6286 2.99321C54.0126 2.83533 53.3844 2.72192 52.7518 2.66189C52.1214 2.60185 51.4754 2.58184 50.8573 2.64076L50.9062 2.62631C50.1835 3.0021 49.482 3.45016 48.8082 3.92269C48.1333 4.39743 47.4829 4.90665 46.8625 5.44921C46.241 5.99178 45.6517 6.56881 45.0914 7.17364C44.5121 7.79181 43.8606 8.32993 43.178 8.81913C42.4875 9.29832 41.7626 9.72192 41.0199 10.1088C40.2717 10.4835 39.509 10.8304 38.7285 11.1317C37.1675 11.731 35.562 12.218 33.8998 12.4892C33.7931 12.5048 33.6986 12.5259 33.5796 12.5348C33.4651 12.5459 33.3539 12.547 33.245 12.5437C33.026 12.537 32.8125 12.5148 32.6024 12.4848C32.1821 12.4225 31.7707 12.3369 31.3638 12.2446C30.5488 12.059 29.7461 11.8499 28.94 11.6554C27.3301 11.264 25.7113 10.916 24.0747 10.7526C22.4426 10.5903 20.7793 10.6092 19.2083 11.0272C18.4245 11.2351 17.674 11.552 16.9902 11.9767C16.3087 12.4047 15.6961 12.9406 15.1824 13.5621C14.9267 13.8734 14.6865 14.1992 14.4775 14.5461C14.3686 14.7151 14.2696 14.8997 14.1651 15.0753C14.0606 15.2532 13.9583 15.4311 13.8638 15.6134C13.4691 16.3339 13.1155 17.0755 12.8309 17.8404C12.7587 18.0305 12.6975 18.2251 12.6308 18.4163C12.5696 18.6098 12.5174 18.8055 12.4618 19C12.3695 19.3925 12.2817 19.7883 12.2472 20.1863C12.2194 20.3854 12.2205 20.5844 12.2105 20.7834C12.2172 20.9813 12.2161 21.1803 12.2417 21.376C12.2828 21.7673 12.3706 22.152 12.5141 22.5145C12.7965 23.2438 13.3034 23.8653 13.9172 24.3801C14.0695 24.5113 14.2307 24.6358 14.393 24.7615C14.5565 24.8882 14.7243 25.0127 14.8933 25.1584C14.9134 25.1751 14.9378 25.1973 14.9545 25.2106L15.0034 25.2484L15.0523 25.2862L15.1113 25.3229C15.1513 25.3474 15.1891 25.373 15.2302 25.3974L15.3592 25.4664C15.5315 25.5575 15.7161 25.6409 15.9018 25.7199C16.6489 26.0312 17.435 26.2724 18.2299 26.4714C19.0249 26.6705 19.8309 26.8261 20.6437 26.9295C22.2647 27.1352 23.9213 27.1652 25.5067 26.8495C26.2972 26.6916 27.0666 26.4348 27.7626 26.0534C28.4608 25.6743 29.0735 25.1662 29.566 24.5458C29.7995 24.2311 30.0252 23.9065 30.1786 23.5507C30.2698 23.3784 30.3209 23.1916 30.3898 23.0115C30.4343 22.8236 30.4932 22.639 30.5144 22.4478C30.5511 22.2588 30.5544 22.0642 30.5666 21.8719L30.56 21.5817C30.5588 21.4849 30.5422 21.3882 30.5344 21.2915C30.4877 20.9057 30.401 20.5221 30.2687 20.1497C30.0052 19.4047 29.6082 18.6998 29.1324 18.0505C28.8956 17.7248 28.6387 17.4124 28.3674 17.1122C28.2318 16.9621 28.0928 16.8164 27.9494 16.6741C27.8082 16.5329 27.657 16.3906 27.5147 16.2683L27.945 15.7613Z" fill="#241953"/>
<path d="M8.32628 13.9322L6.96649 15.3699L28.2697 35.5178L29.6295 34.08L8.32628 13.9322Z" fill="#CACCDB"/>
<path fill-rule="evenodd" clip-rule="evenodd" d="M7.24347 15.26L8.91036 13.4975L30.9066 34.3009L29.2397 36.0633L7.24347 15.26ZM7.71497 15.2469L29.2266 35.5918L30.4351 34.314L8.92351 13.969L7.71497 15.2469Z" fill="#241953"/>
<path d="M33.7798 37.1182C34.1422 36.2599 34.5269 35.4138 34.916 34.571L35.5031 33.308L36.0968 32.0483L36.6916 30.7908L36.9896 30.1627C37.0852 29.9514 37.1842 29.7424 37.2831 29.5323C37.3843 29.3232 37.4743 29.1098 37.5733 28.9008C37.6734 28.6917 37.7656 28.4794 37.8568 28.2659L37.998 27.9479L38.1281 27.6255C38.2226 27.412 38.2871 27.1919 38.366 26.9706C38.3227 27.1975 38.286 27.432 38.2159 27.6544L38.1203 27.9913L38.0113 28.3237C37.8646 28.7673 37.6967 29.2021 37.5244 29.6346C37.1808 30.5007 36.7928 31.3468 36.3992 32.1906C35.999 33.03 35.5842 33.8628 35.1495 34.6855C34.7148 35.5083 34.2656 36.3232 33.7798 37.1182Z" fill="#241953"/>
<path d="M33.7798 38.3212C34.339 37.8709 34.9072 37.4362 35.4764 37.0048L37.1819 35.7118L37.6089 35.3893L38.0302 35.0613C38.3126 34.8445 38.5917 34.6233 38.8686 34.3998C39.4222 33.9518 39.9715 33.5015 40.4685 32.9834C40.0782 33.5904 39.5646 34.1085 39.0387 34.5966C38.5105 35.0858 37.9546 35.5416 37.3832 35.9764C36.8095 36.4078 36.2269 36.8258 35.6254 37.216C35.0272 37.6096 34.4157 37.9854 33.7798 38.3212Z" fill="#241953"/>
<path d="M29.8717 39.373C29.2613 39.1817 28.6632 38.9638 28.0695 38.7359C27.7715 38.6247 27.478 38.5035 27.1811 38.3879L26.2995 38.0266C25.7146 37.7786 25.1309 37.5296 24.5506 37.2694L23.6811 36.8792C23.5366 36.8136 23.3921 36.7457 23.2464 36.6846L23.0274 36.589L22.805 36.5011L23.0418 36.5412L23.2753 36.5979C23.4321 36.6346 23.5833 36.6835 23.7378 36.7268C24.0425 36.8214 24.3471 36.9203 24.6462 37.0281C24.9486 37.1304 25.2432 37.2494 25.5423 37.3606L26.4273 37.7186L27.3034 38.0977C27.5925 38.23 27.8838 38.3579 28.1706 38.4969C28.7466 38.7704 29.3158 39.0561 29.8717 39.373Z" fill="#241953"/>
<path d="M58.5639 6.47L56.729 5.77768L47.2433 30.9186L49.0783 31.611L58.5639 6.47Z" fill="#CACCDB"/>
<path fill-rule="evenodd" clip-rule="evenodd" d="M58.058 2.95513C57.6567 3.38266 57.2593 4.16878 56.9854 5.41114L56.9846 5.4148L47.2205 32.0398C47.5378 32.5993 47.6367 33.3041 47.6138 34.0333C47.5906 34.7731 47.4417 35.5435 47.2621 36.224M49.2126 32.9633L58.8354 6.20194L58.8386 6.19688C59.3981 5.30273 59.6224 4.49863 59.6306 3.87467C59.6388 3.24784 59.4299 2.81378 59.1377 2.63839C58.8523 2.46707 58.459 2.52793 58.058 2.95513M49.2641 32.9845C49.3145 33.0078 49.3145 33.0078 49.3145 33.0079L49.3144 33.008L49.2892 33.0625C49.2728 33.0981 49.2486 33.1505 49.218 33.2171C49.1566 33.3504 49.0692 33.5409 48.9647 33.7698C48.7557 34.2275 48.4786 34.8386 48.2062 35.4523C47.9338 36.0661 47.6663 36.682 47.4764 37.1494C47.3814 37.3833 47.3061 37.5791 47.2594 37.7185C47.236 37.7885 47.2203 37.8426 47.2127 37.8794C47.2105 37.8904 47.2091 37.8989 47.2084 37.9052C47.2172 37.9138 47.2249 37.9247 47.2294 37.9385C47.2376 37.9638 47.2313 37.9869 47.223 38.0032C47.2081 38.0326 47.1778 38.0578 47.1492 38.0781C47.0882 38.1212 46.9948 38.1684 46.9007 38.2113C46.8056 38.2546 46.706 38.2951 46.6304 38.3247C46.5926 38.3396 46.5606 38.3517 46.5381 38.3602C46.5269 38.3644 46.518 38.3677 46.5119 38.3699L46.5049 38.3725L46.503 38.3732L46.5026 38.3734L46.5024 38.3734C46.5024 38.3734 46.5024 38.3734 46.4834 38.3212L46.5024 38.3734L46.3792 38.4182L46.4326 38.2985L46.4327 38.2984L46.4338 38.296L46.4372 38.2882C46.4402 38.2813 46.4448 38.2709 46.4506 38.2573C46.4624 38.23 46.4796 38.1896 46.5012 38.1375C46.5445 38.0331 46.6054 37.8814 46.6762 37.6925C46.8178 37.3148 46.9984 36.7888 47.1545 36.1957C47.3329 35.5197 47.4798 34.7581 47.5027 34.0298C47.5256 33.3007 47.4241 32.6105 47.1113 32.0729L47.0982 32.0504L47.1072 32.0258M49.2641 32.9845L49.3145 33.0079L49.3155 33.0056L58.936 6.25079" fill="#241953"/>
<path d="M47.1616 36.3811L47.3662 36.7046L47.7386 36.3811L47.0849 38.2267H46.8592L46.4834 38.3212L47.1616 36.3811Z" fill="#241953"/>
<path fill-rule="evenodd" clip-rule="evenodd" d="M47.8615 36.2007L47.1241 38.2823H46.866L46.3968 38.4003L47.1471 36.2541L47.3786 36.6202L47.8615 36.2007ZM47.6157 36.5614L47.3538 36.789L47.1761 36.508L46.5699 38.2421L46.8523 38.1711H47.0456L47.6157 36.5614Z" fill="#241953"/>
<path d="M56.8944 5.49924L58.8857 6.22526C58.8857 6.22526 60.3366 4.15839 59.6862 2.95541C59.0358 1.75242 57.8139 2.95541 57.8139 2.95541C57.8139 2.95541 56.7821 4.36074 56.8944 5.49924Z" fill="#241953"/>
<path fill-rule="evenodd" clip-rule="evenodd" d="M59.1339 2.39429C59.3575 2.45548 59.5668 2.61776 59.7351 2.92898C59.9051 3.24337 59.9361 3.61092 59.8907 3.98061C59.8453 4.35048 59.7229 4.72685 59.5811 5.06307C59.4391 5.39959 59.2768 5.69784 59.1501 5.91184C59.0867 6.01891 59.0321 6.10503 58.9933 6.16448C58.9739 6.19421 58.9585 6.21728 58.9478 6.23297C58.9425 6.24081 58.9384 6.24682 58.9356 6.25089L58.9324 6.25553L58.9315 6.25674L58.9313 6.25707L58.9312 6.25716C58.9312 6.25719 58.9312 6.25721 58.8857 6.22527L58.9312 6.25716L58.9067 6.2921L56.8425 5.5395L56.8391 5.50471C56.7814 4.91929 57.0173 4.27152 57.2622 3.77577C57.3853 3.52675 57.5118 3.31375 57.6075 3.16299C57.6554 3.08757 57.6957 3.02765 57.724 2.9865C57.7382 2.96592 57.7494 2.95002 57.7571 2.93923C57.7609 2.93383 57.7639 2.9297 57.7659 2.9269L57.7682 2.9237L57.7688 2.92285L57.769 2.92262C57.769 2.9226 57.7691 2.92252 57.8139 2.95542C57.7749 2.9158 57.7749 2.91578 57.7749 2.91576L57.7752 2.91547L57.776 2.9147L57.7789 2.91191C57.7814 2.9095 57.7851 2.90603 57.7898 2.9016C57.7993 2.89273 57.8131 2.88002 57.8309 2.86436C57.8665 2.83304 57.9179 2.78983 57.9815 2.74185C58.1085 2.64618 58.2861 2.5302 58.486 2.45248C58.6856 2.37487 58.9122 2.3336 59.1339 2.39429ZM57.8139 2.95542L57.7749 2.91576L57.7717 2.91893L57.7691 2.92252L57.8139 2.95542ZM57.856 2.99207C57.8541 2.99465 57.8513 2.99856 57.8476 3.00373C57.8403 3.01407 57.8294 3.02948 57.8156 3.04955C57.7879 3.0897 57.7485 3.14847 57.7014 3.22259C57.6072 3.3709 57.4828 3.58039 57.3619 3.82502C57.1241 4.30632 56.9045 4.91476 56.9467 5.45914L58.8641 6.15824C58.8737 6.14408 58.8858 6.12581 58.9002 6.10373C58.9382 6.04545 58.9919 5.9607 59.0544 5.8552C59.1794 5.64407 59.3392 5.35042 59.4786 5.01985C59.6182 4.68899 59.7366 4.32308 59.7803 3.96707C59.8241 3.61088 59.7925 3.26896 59.6373 2.98186C59.4804 2.69158 59.2931 2.55312 59.1046 2.50153C58.9143 2.44943 58.7134 2.48335 58.5263 2.55611C58.3394 2.62877 58.1709 2.73835 58.0484 2.83064C57.9874 2.87665 57.9382 2.91802 57.9044 2.94779C57.8875 2.96267 57.8745 2.97463 57.8658 2.9828C57.8615 2.98683 57.8582 2.98999 57.856 2.99207Z" fill="#241953"/>
<path d="M55.1455 7.05247C55.2211 7.05247 58.3776 7.46607 58.5466 7.55946L55.1455 7.05247Z" fill="#241953"/>
<path d="M55.1455 7.05247C55.4413 6.99243 55.7326 6.98464 56.0216 6.98687C56.3107 6.99243 56.5976 7.01689 56.8822 7.0558C57.1668 7.09583 57.4492 7.15253 57.7294 7.22813C57.8695 7.26705 58.0085 7.31041 58.1463 7.36155C58.282 7.41825 58.4243 7.46606 58.5477 7.55945C58.3987 7.56279 58.2553 7.5728 58.1096 7.57724C57.9651 7.58058 57.8206 7.57947 57.6771 7.57391C57.3903 7.56279 57.1045 7.53722 56.8221 7.49719C56.5386 7.45717 56.2573 7.40269 55.9783 7.33265C55.697 7.26149 55.4201 7.17477 55.1455 7.05247Z" fill="#241953"/>
<path d="M55.1455 8.25543C55.1455 8.25543 57.8139 10.6047 58.0585 10.6603L55.1455 8.25543Z" fill="#241953"/>
<path d="M55.1455 8.25543C55.4424 8.39441 55.7114 8.56452 55.9716 8.74463C56.2307 8.92586 56.4797 9.11931 56.7187 9.32278C56.9589 9.52624 57.189 9.73971 57.4103 9.96318C57.5204 10.0755 57.6293 10.19 57.7349 10.3078L57.8928 10.4868C57.9462 10.5458 57.9951 10.6091 58.0574 10.6603C57.9729 10.6536 57.8962 10.6169 57.8206 10.5869C57.745 10.5547 57.6738 10.5169 57.6015 10.4802C57.4592 10.4046 57.3225 10.3212 57.189 10.2334C56.9233 10.0577 56.6709 9.86534 56.4308 9.66077C56.1906 9.4562 55.9605 9.23828 55.7437 9.00702C55.528 8.77576 55.3223 8.53227 55.1455 8.25543Z" fill="#241953"/>
<path d="M55.7148 11.2518C55.8419 11.2518 55.9449 11.1487 55.9449 11.0216C55.9449 10.8945 55.8419 10.7915 55.7148 10.7915C55.5877 10.7915 55.4846 10.8945 55.4846 11.0216C55.4846 11.1487 55.5877 11.2518 55.7148 11.2518Z" fill="#241953"/>
<path fill-rule="evenodd" clip-rule="evenodd" d="M55.7148 10.8471C55.6184 10.8471 55.5402 10.9252 55.5402 11.0216C55.5402 11.118 55.6184 11.1962 55.7148 11.1962C55.8112 11.1962 55.8893 11.118 55.8893 11.0216C55.8893 10.9252 55.8112 10.8471 55.7148 10.8471ZM55.429 11.0216C55.429 10.8638 55.557 10.7359 55.7148 10.7359C55.8726 10.7359 56.0005 10.8638 56.0005 11.0216C56.0005 11.1794 55.8726 11.3074 55.7148 11.3074C55.557 11.3074 55.429 11.1794 55.429 11.0216Z" fill="#241953"/>
<path d="M54.4851 16.9543C54.7848 16.9543 55.0277 16.7442 55.0277 16.4851C55.0277 16.226 54.7848 16.0159 54.4851 16.0159C54.1855 16.0159 53.9426 16.226 53.9426 16.4851C53.9426 16.7442 54.1855 16.9543 54.4851 16.9543Z" fill="#241953"/>
<path fill-rule="evenodd" clip-rule="evenodd" d="M54.4851 16.0715C54.2083 16.0715 53.9981 16.264 53.9981 16.4851C53.9981 16.7062 54.2083 16.8987 54.4851 16.8987C54.7619 16.8987 54.9721 16.7062 54.9721 16.4851C54.9721 16.264 54.7619 16.0715 54.4851 16.0715ZM53.887 16.4851C53.887 16.188 54.1626 15.9603 54.4851 15.9603C54.8076 15.9603 55.0833 16.188 55.0833 16.4851C55.0833 16.7822 54.8076 17.0099 54.4851 17.0099C54.1626 17.0099 53.887 16.7822 53.887 16.4851Z" fill="#241953"/>
<path d="M53.1921 20.0929C53.348 20.0929 53.4745 19.9416 53.4745 19.755C53.4745 19.5683 53.348 19.417 53.1921 19.417C53.0361 19.417 52.9097 19.5683 52.9097 19.755C52.9097 19.9416 53.0361 20.0929 53.1921 20.0929Z" fill="#241953"/>
<path fill-rule="evenodd" clip-rule="evenodd" d="M53.1921 19.4726C53.0758 19.4726 52.9653 19.5892 52.9653 19.755C52.9653 19.9207 53.0758 20.0374 53.1921 20.0374C53.3084 20.0374 53.4189 19.9207 53.4189 19.755C53.4189 19.5892 53.3084 19.4726 53.1921 19.4726ZM52.8541 19.755C52.8541 19.5474 52.9965 19.3614 53.1921 19.3614C53.3877 19.3614 53.5301 19.5474 53.5301 19.755C53.5301 19.9626 53.3877 20.1485 53.1921 20.1485C52.9965 20.1485 52.8541 19.9626 52.8541 19.755Z" fill="#241953"/>
<path d="M51.4532 23.0059C51.6141 23.0059 51.7445 22.9049 51.7445 22.7802C51.7445 22.6556 51.6141 22.5545 51.4532 22.5545C51.2923 22.5545 51.1619 22.6556 51.1619 22.7802C51.1619 22.9049 51.2923 23.0059 51.4532 23.0059Z" fill="#241953"/>
<path fill-rule="evenodd" clip-rule="evenodd" d="M51.4532 22.6101C51.309 22.6101 51.2175 22.6986 51.2175 22.7802C51.2175 22.8618 51.309 22.9503 51.4532 22.9503C51.5974 22.9503 51.6889 22.8618 51.6889 22.7802C51.6889 22.6986 51.5974 22.6101 51.4532 22.6101ZM51.1063 22.7802C51.1063 22.6125 51.2756 22.4989 51.4532 22.4989C51.6307 22.4989 51.8001 22.6125 51.8001 22.7802C51.8001 22.9479 51.6307 23.0615 51.4532 23.0615C51.2756 23.0615 51.1063 22.9479 51.1063 22.7802Z" fill="#241953"/>
<path d="M49.7855 28.7284C50.0839 28.7284 50.3258 28.4865 50.3258 28.1881C50.3258 27.8897 50.0839 27.6477 49.7855 27.6477C49.4871 27.6477 49.2451 27.8897 49.2451 28.1881C49.2451 28.4865 49.4871 28.7284 49.7855 28.7284Z" fill="#241953"/>
<path fill-rule="evenodd" clip-rule="evenodd" d="M49.7855 27.7033C49.5177 27.7033 49.3007 27.9204 49.3007 28.1881C49.3007 28.4558 49.5177 28.6728 49.7855 28.6728C50.0532 28.6728 50.2702 28.4558 50.2702 28.1881C50.2702 27.9204 50.0532 27.7033 49.7855 27.7033ZM49.1895 28.1881C49.1895 27.859 49.4563 27.5921 49.7855 27.5921C50.1146 27.5921 50.3814 27.859 50.3814 28.1881C50.3814 28.5172 50.1146 28.784 49.7855 28.784C49.4563 28.784 49.1895 28.5172 49.1895 28.1881Z" fill="#241953"/>
<path d="M49.6632 31.0777C49.8216 31.0777 49.95 30.9493 49.95 30.7908C49.95 30.6324 49.8216 30.504 49.6632 30.504C49.5048 30.504 49.3763 30.6324 49.3763 30.7908C49.3763 30.9493 49.5048 31.0777 49.6632 31.0777Z" fill="#241953"/>
<path fill-rule="evenodd" clip-rule="evenodd" d="M49.6632 30.5596C49.5355 30.5596 49.4319 30.6631 49.4319 30.7909C49.4319 30.9186 49.5355 31.0221 49.6632 31.0221C49.7909 31.0221 49.8944 30.9186 49.8944 30.7909C49.8944 30.6631 49.7909 30.5596 49.6632 30.5596ZM49.3207 30.7909C49.3207 30.6017 49.4741 30.4484 49.6632 30.4484C49.8523 30.4484 50.0056 30.6017 50.0056 30.7909C50.0056 30.98 49.8523 31.1333 49.6632 31.1333C49.4741 31.1333 49.3207 30.98 49.3207 30.7909Z" fill="#241953"/>
<path fill-rule="evenodd" clip-rule="evenodd" d="M48.9311 30.7165L48.669 32.6579L49.3251 32.791L49.303 32.9L48.5449 32.7462L48.7697 31.0808L47.6612 32.3976L47.1317 32.0932L47.1871 31.9968L47.636 32.2549L48.9311 30.7165Z" fill="#241953"/>
<path d="M27.6915 20.4065L25.6624 16.9532L21.453 18.2518L24.5728 14.7195L22.5059 11.6376L25.9626 13.5922L29.3458 10.2089L28.1428 14.7195L32.0509 15.3077L27.9171 16.4851L27.6915 20.4065Z" fill="#241953"/>
<path fill-rule="evenodd" clip-rule="evenodd" d="M29.4529 10.0232L28.2126 14.6738L32.3128 15.2909L27.9704 16.5277L27.7364 20.5927L25.6367 17.0193L21.2805 18.3632L24.5027 14.7149L22.3291 11.4737L25.9531 13.523L29.4529 10.0232ZM29.2388 10.3946L25.972 13.6613L22.6827 11.8014L24.6429 14.7242L21.6256 18.1404L25.688 16.8871L27.6465 20.2202L27.8639 16.4425L31.789 15.3245L28.0731 14.7653L29.2388 10.3946Z" fill="#241953"/>
<path d="M31.0202 38.3379C32.3275 38.3379 33.3873 37.2781 33.3873 35.9708C33.3873 34.6635 32.3275 33.6038 31.0202 33.6038C29.7129 33.6038 28.6532 34.6635 28.6532 35.9708C28.6532 37.2781 29.7129 38.3379 31.0202 38.3379Z" fill="#241953"/>
<path fill-rule="evenodd" clip-rule="evenodd" d="M31.0202 33.6593C29.7436 33.6593 28.7088 34.6942 28.7088 35.9708C28.7088 37.2474 29.7436 38.2823 31.0202 38.2823C32.2968 38.2823 33.3317 37.2474 33.3317 35.9708C33.3317 34.6942 32.2968 33.6593 31.0202 33.6593ZM28.5976 35.9708C28.5976 34.6328 29.6822 33.5482 31.0202 33.5482C32.3582 33.5482 33.4429 34.6328 33.4429 35.9708C33.4429 37.3088 32.3582 38.3935 31.0202 38.3935C29.6822 38.3935 28.5976 37.3088 28.5976 35.9708Z" fill="#241953"/>
</svg>
