<svg width="91" height="79" viewBox="0 0 91 79" fill="none" xmlns="http://www.w3.org/2000/svg">
<circle cx="44.2683" cy="39.3093" r="39.3017" fill="#FFD35E"/>
<path fill-rule="evenodd" clip-rule="evenodd" d="M28.4642 10.7496L69.6034 19.4168V21.6912L69.6015 21.7067C68.5647 30.0685 62.4848 39.588 53.4636 46.3058C44.4353 53.0289 32.429 56.9704 19.5128 54.1288C13.0633 52.71 8.68815 50.351 5.76073 47.5944C2.832 44.8366 1.36613 41.6936 0.715184 38.7316C0.0649117 35.7727 0.228113 32.9966 0.552226 30.9631C0.714394 29.9457 0.917174 29.1122 1.07978 28.532C1.1611 28.2418 1.23242 28.0148 1.28366 27.8597C1.30929 27.7821 1.3299 27.7225 1.34424 27.6819C1.35141 27.6616 1.35702 27.646 1.3609 27.6354L1.3654 27.6231L1.36665 27.6197L1.36702 27.6188C1.36713 27.6185 1.36721 27.6183 1.60415 27.7071L1.36721 27.6183L1.43503 27.4374L11.2588 28.3424L28.4642 10.7496ZM1.77792 27.9772C1.77355 27.9903 1.76898 28.004 1.76423 28.0184C1.71523 28.1668 1.64619 28.3863 1.56711 28.6685C1.40891 29.233 1.21068 30.0474 1.05202 31.0428C0.734488 33.035 0.576786 35.744 1.20949 38.623C1.84153 41.499 3.26253 44.5468 6.10769 47.2259C8.95415 49.9063 13.2399 52.2306 19.6215 53.6346C32.3675 56.4386 44.2266 52.5532 53.1613 45.8999C62.0974 39.2455 68.0762 29.8467 69.0973 21.6599V19.8274L28.6318 11.3021L11.4523 28.8685L1.77792 27.9772Z" fill="#241953"/>
<path d="M24.384 22.5828C24.2082 23.2787 24.0715 24.01 23.9842 24.7312C23.8982 25.4524 23.859 26.1837 23.945 26.8796C23.988 27.2263 24.074 27.5603 24.2196 27.84C24.2967 27.9753 24.384 28.0981 24.4916 28.1904C24.6244 28.2992 24.7699 28.4144 24.9154 28.5156C25.2065 28.7231 25.5127 28.9078 25.8315 29.0533C25.9909 29.1242 26.1529 29.19 26.3174 29.2368C26.3996 29.2608 26.4819 29.2811 26.5628 29.2975C26.6033 29.3039 26.6438 29.3127 26.683 29.3165C26.7033 29.3191 26.7223 29.3216 26.74 29.3228L26.783 29.3254L27.012 29.3406L27.0512 29.5266C27.0626 29.5822 27.0677 29.6164 27.0715 29.6581C27.0765 29.6986 27.0778 29.7379 27.0791 29.7771C27.0816 29.8555 27.0803 29.9327 27.0715 30.0099C27.0601 30.1642 27.0209 30.3148 26.9728 30.4616C26.8716 30.7539 26.6932 31.0158 26.4755 31.2195C26.4249 31.2764 26.3642 31.3169 26.3072 31.365C26.249 31.4118 26.1921 31.4586 26.1288 31.494L25.9428 31.6092C25.8796 31.6433 25.8138 31.6724 25.7493 31.7041C25.6215 31.7711 25.4873 31.8142 25.3545 31.8635L25.1672 31.9306C25.109 31.9495 25.0521 31.9711 24.9977 31.9964C24.5485 32.1823 24.2018 32.5404 24.0399 32.9972C23.8754 33.4489 23.8729 33.9866 23.9754 34.4611L23.9804 34.4826V34.4851C24.0437 35.095 24.0386 35.6909 23.9792 36.2907C23.9172 36.8879 23.7932 37.4851 23.5578 38.0469C23.3237 38.6036 22.9707 39.135 22.4697 39.4969C22.2217 39.6791 21.9459 39.8182 21.6574 39.9169C21.3626 40.0093 21.0754 40.0586 20.7856 40.1257C19.6241 40.3572 18.4525 40.5205 17.2796 40.6457C16.1054 40.7723 14.9287 40.8646 13.7507 40.9241C14.9274 40.8342 16.1003 40.7115 17.2694 40.5546C18.4373 40.399 19.6013 40.2067 20.7477 39.9473C21.0311 39.8739 21.3246 39.8144 21.5916 39.7221C21.8586 39.6221 22.1104 39.4867 22.3343 39.3147C22.786 38.9705 23.0998 38.4733 23.3073 37.9431C23.5148 37.4092 23.6198 36.836 23.6641 36.2603C23.7071 35.6859 23.6945 35.0963 23.6223 34.5332L23.6274 34.556C23.554 34.2688 23.5262 33.9967 23.5262 33.7108C23.5287 33.4274 23.5667 33.1402 23.6603 32.8631C23.7514 32.586 23.9007 32.3203 24.1031 32.1026C24.3031 31.8812 24.5523 31.7104 24.8168 31.5889C24.8826 31.5573 24.9496 31.5282 25.0167 31.5054L25.2052 31.4333C25.3216 31.3865 25.4418 31.346 25.5481 31.2853C25.6025 31.2562 25.6582 31.2309 25.7113 31.2005L25.8631 31.1005C25.9163 31.0702 25.9606 31.0297 26.0048 30.9917C26.0491 30.9525 26.0997 30.9183 26.1352 30.8728C26.3022 30.7083 26.4262 30.5122 26.4945 30.2984C26.5261 30.1908 26.5527 30.0807 26.5578 29.9681C26.5628 29.9125 26.5616 29.8555 26.559 29.8011C26.5578 29.7733 26.5552 29.7467 26.5514 29.7201C26.5489 29.6961 26.5426 29.6632 26.5401 29.6543L26.8083 29.8555C26.764 29.8568 26.7412 29.8555 26.7109 29.8543C26.6818 29.853 26.6552 29.8505 26.6286 29.8479C26.5742 29.8441 26.5236 29.8353 26.4717 29.8277C26.3705 29.81 26.2705 29.7885 26.1731 29.7619C25.977 29.7113 25.791 29.6417 25.6088 29.5658C25.2457 29.4102 24.9053 29.2153 24.5827 28.9989C24.4195 28.8901 24.2689 28.7775 24.1107 28.6548C23.9285 28.5093 23.7944 28.3271 23.6831 28.1411C23.473 27.7628 23.3693 27.3642 23.3086 26.9732C23.1909 26.1888 23.2175 25.417 23.2871 24.6578C23.3604 23.8961 23.4781 23.1534 23.6489 22.398L24.384 22.5828Z" fill="#241953"/>
<path d="M13.7507 26.2647C13.7507 26.2647 17.0657 29.3444 16.3597 31.4612C15.6536 33.5779 14.8198 33.9955 13.9544 34.1878C13.0877 34.3801 12.1577 34.2523 11.5807 34.637C11.0038 35.0216 10.17 35.7593 10.2332 37.3953C10.2978 39.0313 11.1961 39.5449 11.3239 40.5394C11.4517 41.5339 10.4572 43.2345 10.4572 43.2345C10.4572 43.2345 9.52721 44.6452 8.08354 45.0944C6.63987 45.5436 4.61924 45.3829 4.61924 45.3829C4.61924 45.3829 2.14944 42.7524 1.41179 40.1864C0.674138 37.6205 0.193336 31.141 1.2511 29.4089L1.63574 27.8374L5.26073 28.3182L8.78956 28.446L11.6465 28.6118L13.7507 26.2647Z" fill="#241953"/>
<path d="M24.3473 15.4543C24.3473 15.4543 24.4118 17.7634 25.7265 19.207C27.0411 20.6507 26.8816 21.9982 25.5987 22.2538C24.3157 22.5106 21.4612 23.4406 19.6 20.5216C20.2858 19.2399 24.3473 15.4543 24.3473 15.4543Z" fill="#241953"/>
<path d="M20.9222 27.0213C21.5022 27.0213 21.9724 26.5761 21.9724 26.0268C21.9724 25.4776 21.5022 25.0323 20.9222 25.0323C20.3422 25.0323 19.8721 25.4776 19.8721 26.0268C19.8721 26.5761 20.3422 27.0213 20.9222 27.0213Z" fill="#241953"/>
<path d="M15.7182 40.8545C15.2121 42.0426 14.711 43.2345 14.2252 44.4301C13.981 45.0286 13.7419 45.6283 13.509 46.2306C13.3926 46.5317 13.28 46.8341 13.17 47.1378C13.1181 47.2909 13.0624 47.4427 13.0156 47.5958L12.946 47.8274C12.9245 47.9046 12.9131 47.9843 12.8954 48.064C12.908 47.9843 12.9169 47.9033 12.9346 47.8248L12.9928 47.5895C13.0333 47.4326 13.0814 47.2783 13.1257 47.1226C13.2206 46.8139 13.318 46.5052 13.4205 46.1977C13.6229 45.5841 13.833 44.9717 14.048 44.3618C14.477 43.1408 14.9173 41.9262 15.3665 40.7115L15.7182 40.8545Z" fill="#241953"/>
<path d="M14.2189 44.8376C14.8123 45.2209 15.4145 45.5917 16.0409 45.8966C16.3534 46.0484 16.6722 46.1889 16.9961 46.2736C17.0771 46.2989 17.1568 46.3078 17.2353 46.323C17.3124 46.3382 17.4073 46.3458 17.4921 46.3571L18.0172 46.4179C18.7194 46.4951 19.4204 46.59 20.1226 46.7C20.4743 46.757 20.8236 46.824 21.1804 46.9151C21.2702 46.9379 21.36 46.9645 21.4537 46.9986C21.5005 47.0151 21.5498 47.0353 21.6017 47.0606C21.6321 47.0783 21.6561 47.0897 21.6915 47.1138C21.7105 47.1277 21.7282 47.1429 21.7459 47.1581C21.7611 47.1707 21.7586 47.1682 21.7662 47.1732C21.7763 47.1808 21.7826 47.1884 21.7966 47.1973L21.8421 47.2264C21.8699 47.2454 21.9117 47.2681 21.9459 47.2896L22.1774 47.4263C22.4925 47.6186 22.7873 47.8565 23.0492 48.1146C23.3136 48.3727 23.549 48.6536 23.759 48.9497C24.1803 49.5393 24.5245 50.1795 24.8243 50.8185C25.4355 52.0913 26.0251 53.3768 26.5375 54.6965C25.8353 53.4692 25.1482 52.2368 24.4726 50.9994C24.3878 50.845 24.303 50.6882 24.2157 50.5401C24.1284 50.3908 24.0487 50.2352 23.9551 50.0897C23.8627 49.9429 23.7754 49.7936 23.6755 49.6532L23.53 49.4406L23.3756 49.2356C22.9657 48.6852 22.4874 48.2019 21.913 47.8577L21.6903 47.7236C21.6498 47.6983 21.6131 47.6793 21.5688 47.6477L21.5043 47.6034C21.4815 47.587 21.4562 47.5642 21.4322 47.544C21.422 47.5351 21.4031 47.5187 21.4018 47.5174C21.4018 47.5187 21.4031 47.5199 21.4043 47.5199C21.4031 47.5187 21.3879 47.5111 21.3803 47.506C21.3524 47.4934 21.3208 47.4794 21.2854 47.4655C21.2133 47.4389 21.1348 47.4149 21.0538 47.3921C20.7287 47.3023 20.3833 47.239 20.0416 47.1707C19.3546 47.0353 18.6587 46.9303 17.9641 46.8076L17.4415 46.7177C17.3529 46.7013 17.2707 46.6912 17.1758 46.6671C17.0822 46.6444 16.9885 46.6241 16.9025 46.59C16.5508 46.4672 16.2319 46.2977 15.9244 46.1142C15.3133 45.7384 14.7465 45.3095 14.2189 44.8376Z" fill="#241953"/>
<path d="M11.8262 51.1032C11.8262 51.1032 15.2475 48.622 15.8042 45.6284C17.0442 45.6284 17.1732 46.1421 17.1732 46.1421C17.1732 46.1421 16.9594 49.7341 13.752 52.0875C11.8262 51.4448 11.8262 51.1032 11.8262 51.1032Z" fill="#241953"/>
<path d="M20.22 51.7661C20.4387 51.7661 20.616 51.5888 20.616 51.3701C20.616 51.1514 20.4387 50.9741 20.22 50.9741C20.0013 50.9741 19.824 51.1514 19.824 51.3701C19.824 51.5888 20.0013 51.7661 20.22 51.7661Z" fill="#241953"/>
<path d="M15.7397 51.1563C15.8488 51.1563 15.9371 51.0679 15.9371 50.9589C15.9371 50.8499 15.8488 50.7615 15.7397 50.7615C15.6307 50.7615 15.5424 50.8499 15.5424 50.9589C15.5424 51.0679 15.6307 51.1563 15.7397 51.1563Z" fill="#241953"/>
<path d="M22.1875 48.8573C22.4062 48.8573 22.5835 48.68 22.5835 48.4613C22.5835 48.2426 22.4062 48.0652 22.1875 48.0652C21.9688 48.0652 21.7914 48.2426 21.7914 48.4613C21.7914 48.68 21.9688 48.8573 22.1875 48.8573Z" fill="#241953"/>
<path d="M24.155 53.3908C24.3025 53.3908 24.422 53.2712 24.422 53.1238C24.422 52.9763 24.3025 52.8568 24.155 52.8568C24.0076 52.8568 23.8881 52.9763 23.8881 53.1238C23.8881 53.2712 24.0076 53.3908 24.155 53.3908Z" fill="#241953"/>
<path d="M22.3583 25.5903C21.9939 25.3372 21.584 25.2499 21.1791 25.1917L21.0272 25.1715C20.9766 25.1664 20.9248 25.1639 20.8729 25.1614C20.7704 25.1563 20.6692 25.1424 20.5642 25.1475C20.4604 25.1487 20.3579 25.1411 20.2542 25.1449L19.9429 25.1576C19.8392 25.1563 19.7341 25.1715 19.6304 25.1791L19.3166 25.2031C19.1078 25.2322 18.8965 25.2474 18.684 25.274C18.4727 25.3056 18.2576 25.3246 18.0425 25.3512C17.8274 25.3777 17.611 25.4068 17.3858 25.4144C17.5769 25.2993 17.7768 25.2069 17.9779 25.112C18.1804 25.0222 18.3917 24.9564 18.6017 24.8843C18.813 24.8172 19.0319 24.7755 19.2495 24.7274C19.471 24.6957 19.6924 24.6616 19.9176 24.6515C20.3668 24.6249 20.8286 24.6717 21.2676 24.8058C21.4878 24.8704 21.6991 24.9728 21.8914 25.0968C22.0799 25.2284 22.2609 25.3853 22.3583 25.5903Z" fill="#241953"/>
<path fill-rule="evenodd" clip-rule="evenodd" d="M22.4986 23.5532C22.4814 23.5462 22.4642 23.5443 22.4383 23.5529C22.3297 23.5891 22.1516 23.6184 21.947 23.6443C21.7346 23.6712 21.4701 23.6972 21.1743 23.7221C20.5822 23.7717 19.856 23.8172 19.1521 23.8559C18.4478 23.8945 17.7642 23.9264 17.2568 23.9485C17.003 23.9596 16.7933 23.9683 16.6469 23.9742C16.5954 23.9763 16.5518 23.978 16.5169 23.9794C16.5089 23.9875 16.5002 23.9962 16.491 24.0056C16.4298 24.0676 16.3418 24.1575 16.2352 24.2688C16.0395 24.473 15.7815 24.7484 15.5111 25.0539C15.717 26.8211 16.5456 27.6662 17.3042 28.0814C17.6979 28.2968 18.0817 28.401 18.3676 28.4512C18.5102 28.4762 18.6273 28.4875 18.7074 28.4926C18.7475 28.4952 18.7782 28.4962 18.7981 28.4965C18.8081 28.4967 18.8153 28.4967 18.8197 28.4967L18.824 28.4967C18.8241 28.4967 18.8242 28.4967 18.8243 28.4967C18.8243 28.4967 18.8244 28.4967 18.8244 28.4967C18.8244 28.4967 18.8246 28.4967 18.8246 28.4967C18.8246 28.4967 18.8246 28.4967 18.8246 28.4967L18.8389 28.4964L18.8535 28.4978L18.8538 28.4978L18.8582 28.4982C18.8621 28.4985 18.8685 28.499 18.8771 28.4996C18.8945 28.5008 18.921 28.5024 18.9557 28.5038C19.0252 28.5065 19.127 28.5082 19.2529 28.5041C19.5054 28.4957 19.8512 28.4638 20.2254 28.3699C20.9749 28.1821 21.8132 27.7543 22.2745 26.7952C22.7625 25.7815 22.8773 24.8776 22.8032 24.2703C22.7657 23.963 22.6827 23.7532 22.5968 23.6398C22.555 23.5846 22.5199 23.5618 22.4986 23.5532ZM18.8196 29.0028C18.812 29.0028 18.8017 29.0028 18.7889 29.0025C18.7618 29.002 18.7234 29.0008 18.6753 28.9977C18.5791 28.9916 18.4434 28.9783 18.2802 28.9497C17.9546 28.8926 17.515 28.7737 17.0613 28.5254C16.1405 28.0215 15.1963 27.003 14.9957 24.9955L14.9848 24.8862L15.0572 24.8036C15.3603 24.4577 15.653 24.1448 15.8699 23.9186C15.9784 23.8054 16.068 23.7137 16.1307 23.6501C16.162 23.6184 16.1866 23.5937 16.2034 23.5768C16.2119 23.5684 16.2183 23.5619 16.2227 23.5575L16.2278 23.5525L16.2296 23.5507C16.2296 23.5507 16.2297 23.5506 16.4078 23.7304C16.3982 23.4775 16.3982 23.4775 16.3983 23.4775L16.4576 23.4752C16.4964 23.4737 16.5535 23.4715 16.6265 23.4685C16.7724 23.4626 16.9816 23.454 17.2347 23.4429C17.741 23.4208 18.4226 23.3891 19.1244 23.3505C19.8265 23.312 20.5471 23.2668 21.132 23.2177C21.4246 23.1932 21.6811 23.1679 21.8834 23.1422C22.0935 23.1156 22.2237 23.091 22.2783 23.0728C22.4157 23.027 22.557 23.0309 22.6883 23.0839C22.8155 23.1354 22.9189 23.2268 23.0002 23.3341C23.1604 23.5456 23.2622 23.8536 23.3056 24.209C23.3932 24.9271 23.2536 25.9281 22.7306 27.0146C22.181 28.1572 21.1827 28.6518 20.3485 28.8609C19.9308 28.9656 19.5479 29.0007 19.2696 29.0099C19.1301 29.0145 19.0161 29.0126 18.936 29.0095C18.8959 29.0079 18.8643 29.006 18.8421 29.0045C18.833 29.0039 18.8255 29.0033 18.8196 29.0028ZM16.4078 23.7304L16.3983 23.4775L16.2997 23.4812L16.2296 23.5507L16.4078 23.7304Z" fill="#241953"/>
<path fill-rule="evenodd" clip-rule="evenodd" d="M24.9033 24.986L23.2357 25.1998L23.1713 24.6978L24.8389 24.484L24.9033 24.986Z" fill="#241953"/>
<path d="M24.7484 31.284C24.446 31.1613 24.174 31.0436 23.8893 30.9525C23.7476 30.9057 23.6059 30.8639 23.4591 30.8285C23.3124 30.7868 23.1618 30.7653 23.0011 30.7222C23.1529 30.6602 23.3187 30.6286 23.4832 30.6311C23.6477 30.6311 23.8134 30.659 23.969 30.7121C24.1259 30.764 24.2752 30.8374 24.4081 30.9323C24.5397 31.0284 24.6624 31.1423 24.7484 31.284Z" fill="#241953"/>
<path d="M23.5021 33.6526C23.1466 33.6184 22.7923 33.6248 22.4418 33.6513C22.0913 33.683 21.7459 33.7386 21.4119 33.8323C21.2436 33.8728 21.0804 33.9322 20.9172 33.9879C20.8375 34.0195 20.759 34.0562 20.6793 34.0891L20.5616 34.141L20.4478 34.2005C20.1365 34.346 19.8632 34.5547 19.5975 34.766L19.5861 34.7749L19.5811 34.7787C19.4571 34.8609 19.3166 34.8862 19.1926 34.8862C19.0674 34.8875 18.9522 34.866 18.8447 34.8356C18.7371 34.8053 18.6334 34.7686 18.5347 34.7243C18.4347 34.6787 18.3424 34.6344 18.2449 34.5737L18.4259 34.2422C18.808 34.4143 19.2255 34.5535 19.6393 34.6724C20.0543 34.7939 20.4781 34.8812 20.9045 34.952C21.3322 35.0216 21.7649 35.0482 22.1989 35.0469C22.6341 35.0495 23.0656 34.9862 23.5009 34.9052C23.0896 35.0646 22.6557 35.181 22.2103 35.2304C21.7662 35.2747 21.3157 35.2899 20.8704 35.243C20.4237 35.2051 19.9821 35.1241 19.5469 35.0166C19.1104 34.9052 18.6903 34.766 18.2677 34.5851L18.4486 34.2536C18.522 34.2966 18.6093 34.3434 18.6916 34.3814C18.7763 34.4206 18.8624 34.4522 18.9472 34.4776C19.1167 34.5307 19.29 34.5332 19.3799 34.475L19.3647 34.4864C19.6595 34.2625 19.9682 34.0537 20.3086 33.9082L20.4338 33.85L20.5642 33.8032C20.6515 33.7728 20.7362 33.7399 20.8235 33.7121C21.0007 33.664 21.1766 33.6121 21.3562 33.5817C21.7156 33.5185 22.0787 33.4868 22.4393 33.4995C22.7986 33.5096 23.158 33.5577 23.5021 33.6526Z" fill="#241953"/>
<path fill-rule="evenodd" clip-rule="evenodd" d="M34.1009 14.3241L56.2599 21.4928V21.677L56.2599 21.6784L56.2599 21.6849C56.26 21.691 56.2601 21.7003 56.2603 21.7128C56.2607 21.7379 56.2616 21.7757 56.2633 21.8255C56.2667 21.9251 56.2735 22.0725 56.2873 22.2611C56.3149 22.6385 56.3701 23.1803 56.4809 23.8339C56.7026 25.1423 57.1456 26.8932 58.0297 28.6694C59.791 32.2075 63.3079 35.8628 70.3856 36.3071C73.9531 36.3043 77.4851 34.353 80.0904 32.061C81.3912 30.9167 82.4499 29.6968 83.1574 28.6117C83.5112 28.0689 83.7739 27.5649 83.936 27.125C84.0997 26.6807 84.1528 26.3234 84.1138 26.0645L84.075 25.807L84.3335 25.7756C86.1453 25.5555 87.5718 25.5551 88.5482 25.6105C89.0364 25.6382 89.412 25.6798 89.667 25.7148C89.7945 25.7322 89.8919 25.7481 89.9581 25.7597C89.984 25.7642 90.0051 25.7681 90.0214 25.7712C90.026 25.7721 90.0301 25.7729 90.0339 25.7736C90.0426 25.7753 90.0493 25.7767 90.0541 25.7776L90.0597 25.7788L90.0613 25.7791L90.0621 25.7793C90.0622 25.7793 90.0622 25.7793 90.0096 26.0268L90.0622 25.7793L90.2683 25.8231L90.2626 26.0337L90.0993 26.0293C90.2626 26.0338 90.2626 26.0338 90.2626 26.0339L90.2626 26.0345L90.2625 26.0365L90.2623 26.0444L90.2614 26.0753C90.2605 26.1025 90.2593 26.1428 90.2575 26.1956C90.2539 26.3013 90.2483 26.4569 90.2402 26.6572C90.2238 27.0577 90.1972 27.637 90.156 28.3529C90.0737 29.7845 89.9331 31.7631 89.7 33.951C89.2348 38.3163 88.3982 43.5518 86.9045 46.9277C83.9478 53.6134 80.8423 58.4183 76.0292 61.4111C75.8788 61.5046 75.7205 61.6036 75.5548 61.7073C70.51 64.8625 58.4679 72.3943 45.1261 64.1062C38.2434 59.8305 34.3915 53.0036 32.2606 47.2672C31.1944 44.3969 30.5567 41.7931 30.1853 39.9064C29.9996 38.9629 29.8805 38.1983 29.8076 37.6687C29.7712 37.4039 29.7464 37.1979 29.7306 37.0576C29.7228 36.9874 29.7171 36.9337 29.7135 36.8973C29.7116 36.8791 29.7103 36.8652 29.7094 36.8558L29.7084 36.845L29.7081 36.8421L29.708 36.8413C29.708 36.8411 29.708 36.8409 29.96 36.8183C29.7071 36.8244 29.7071 36.8243 29.7071 36.8241L29.7068 36.8121C29.7066 36.8042 29.7064 36.7924 29.7061 36.777C29.7055 36.746 29.7047 36.7002 29.7038 36.6403C29.7021 36.5204 29.7002 36.3442 29.6995 36.1179C29.698 35.6654 29.701 35.0126 29.7191 34.2102C29.7554 32.6057 29.8519 30.4014 30.0934 28.0033C30.3348 25.606 30.7215 23.0099 31.3394 20.6234C31.9563 18.2409 32.8086 16.0467 33.9925 14.4686L34.1009 14.3241ZM29.96 36.8183L29.7071 36.8244L29.7073 36.8327L29.708 36.8409L29.96 36.8183ZM30.2128 36.8037L30.2132 36.8079C30.214 36.8164 30.2153 36.8293 30.217 36.8466C30.2205 36.8811 30.2259 36.9329 30.2336 37.0011C30.2489 37.1374 30.2732 37.3393 30.309 37.5998C30.3807 38.1207 30.4983 38.8757 30.6819 39.8087C31.0492 41.6751 31.6804 44.2517 32.7351 47.091C34.8461 52.7739 38.644 59.4835 45.3932 63.6763C58.462 71.7948 70.2493 64.4267 75.3013 61.2688C75.4617 61.1685 75.6153 61.0725 75.762 60.9813C80.4434 58.0703 83.4973 53.3807 86.4417 46.723C87.8999 43.4271 88.7315 38.2633 89.1967 33.8974C89.4287 31.7196 89.5688 29.7495 89.6508 28.3239C89.6918 27.6111 89.7183 27.0346 89.7345 26.6366C89.7412 26.4725 89.7461 26.3387 89.7496 26.2382C89.7059 26.2315 89.6554 26.224 89.5983 26.2162C89.356 26.1829 88.9937 26.1427 88.5195 26.1158C87.6137 26.0644 86.2993 26.0618 84.6321 26.2502C84.6301 26.5689 84.549 26.9253 84.4109 27.3C84.2321 27.7853 83.9493 28.3236 83.5813 28.8881C82.8451 30.0173 81.7545 31.2711 80.4247 32.441C77.771 34.7757 74.1208 36.8132 70.3777 36.8132H70.3699L70.362 36.8128C63.074 36.3578 59.4075 32.5728 57.5767 28.8949C56.6644 27.0623 56.2093 25.2606 55.9819 23.9185C55.8681 23.2469 55.8111 22.6891 55.7825 22.298C55.7691 22.1142 55.7619 21.9671 55.7581 21.8624L34.2908 14.9174C33.2187 16.4083 32.4202 18.4683 31.8293 20.7502C31.2201 23.1031 30.8368 25.6716 30.5969 28.054C30.3571 30.4356 30.2611 32.6262 30.2251 34.2216C30.2071 35.0191 30.2041 35.6675 30.2056 36.1162C30.2063 36.3406 30.2082 36.515 30.2099 36.6331C30.2107 36.6921 30.2115 36.7371 30.2121 36.7672C30.2124 36.7823 30.2126 36.7937 30.2128 36.8012L30.2128 36.8037Z" fill="#241953"/>
<path d="M36.4408 15.7757C35.8537 17.3699 35.321 18.9806 34.8238 20.6001C34.5796 21.4112 34.3442 22.2247 34.1215 23.0408C33.9001 23.8582 33.6939 24.6781 33.5028 25.5018C33.3105 26.3255 33.141 27.1529 32.9891 27.983C32.8373 28.813 32.7044 29.6468 32.6121 30.4831C32.4109 32.1545 32.3426 33.8437 32.5033 35.5075L32.4261 35.3582C32.5627 35.4645 32.688 35.5784 32.8322 35.6783C32.9777 35.7783 33.1169 35.8833 33.2688 35.9782L33.7205 36.2629L34.1823 36.5362C34.801 36.8968 35.4324 37.2409 36.0701 37.5737C36.709 37.9039 37.3492 38.2341 37.9958 38.553C38.6423 38.8706 39.2889 39.1907 39.9405 39.4969L39.8228 39.5741L39.8608 38.3556L39.9063 37.1372L39.9519 38.3556L39.9899 39.5741L39.9936 39.7019L39.8709 39.6512C39.2016 39.3767 38.5361 39.0983 37.8756 38.8035C37.2164 38.5087 36.5572 38.2114 35.9056 37.8963C35.254 37.5813 34.6074 37.2536 33.9697 36.9069L33.4952 36.6374L33.0258 36.3527C32.8689 36.2591 32.7184 36.149 32.5653 36.0478C32.4122 35.9453 32.2667 35.82 32.1161 35.7061L32.0503 35.6568L32.0389 35.5581C31.9352 34.7015 31.9099 33.8411 31.9263 32.9833C31.9415 32.1254 32.0098 31.2701 32.111 30.4211C32.316 28.7231 32.6462 27.0454 33.065 25.3929C33.1663 24.9792 33.2789 24.568 33.389 24.1568C33.5066 23.7481 33.623 23.3382 33.7483 22.9307C33.9937 22.1159 34.2582 21.3061 34.5403 20.504C34.82 19.7005 35.1198 18.9047 35.4336 18.1151C35.7512 17.3281 36.0802 16.5449 36.4408 15.7757Z" fill="#241953"/>
<path d="M36.0345 19.8169C36.7013 20.0775 37.3783 20.2635 38.0602 20.3875C38.7435 20.5039 39.4305 20.5457 40.1112 20.4926C40.4503 20.4635 40.7869 20.409 41.1197 20.3331C41.4524 20.2572 41.7763 20.1471 42.1002 20.0295C42.7392 19.7714 43.3491 19.4259 43.9463 19.0274C43.4908 19.5816 42.9138 20.0446 42.2647 20.3875C41.9383 20.5558 41.5954 20.695 41.2411 20.7975C40.8856 20.8974 40.5199 20.9632 40.153 20.9961C39.4166 21.0518 38.6726 20.9746 37.9717 20.7709C37.272 20.5672 36.6014 20.261 36.0345 19.8169Z" fill="#241953"/>
<path d="M50.1689 23.9872C49.4793 23.9202 48.8074 23.7253 48.1596 23.471C47.5131 23.2141 46.8944 22.8763 46.3263 22.4626C45.7607 22.045 45.2482 21.5453 44.8472 20.9607C44.6434 20.6722 44.4828 20.3546 44.3449 20.0333C44.2133 19.7081 44.1222 19.369 44.0728 19.0261C44.2297 19.3361 44.379 19.6385 44.565 19.9194C44.7472 20.2003 44.9433 20.4698 45.1622 20.719C45.5937 21.2213 46.0922 21.6604 46.6249 22.0552C47.1613 22.4461 47.7307 22.7966 48.3254 23.1117C48.9213 23.4292 49.535 23.7165 50.1689 23.9872Z" fill="#241953"/>
<path d="M36.3332 18.5984C36.9532 18.7579 37.5668 18.873 38.1843 18.9401C38.8005 19.0122 39.4166 19.0312 40.029 18.9957L40.2593 18.9869C40.3352 18.9818 40.4111 18.9692 40.4883 18.9616C40.6402 18.9439 40.7945 18.9337 40.9464 18.911C41.2475 18.8553 41.5549 18.8161 41.8523 18.7338C42.0016 18.6946 42.1572 18.6718 42.304 18.6212L42.7506 18.4833C42.905 18.4466 43.0467 18.3821 43.196 18.3289C43.344 18.2745 43.4946 18.2201 43.649 18.1708C43.5224 18.2682 43.3921 18.3618 43.2605 18.4542C43.1277 18.5453 42.9961 18.6402 42.8518 18.711L42.4191 18.9325C42.3483 18.973 42.2724 19.0008 42.1964 19.0286L41.9687 19.1134C41.6663 19.2387 41.3474 19.3045 41.0299 19.3829C40.8704 19.4171 40.7072 19.4322 40.5465 19.4576C40.4656 19.4677 40.3846 19.4803 40.3036 19.4879L40.0594 19.5006C39.4078 19.5373 38.7511 19.4803 38.1197 19.3298C37.4871 19.1792 36.8709 18.9514 36.3332 18.5984Z" fill="#241953"/>
<path d="M36.6748 17.2294C36.9468 17.3598 37.2037 17.442 37.4618 17.5065C37.7199 17.5711 37.978 17.6065 38.2387 17.6305L38.4361 17.6457C38.5019 17.6508 38.5689 17.6482 38.636 17.6508C38.7701 17.6622 38.9042 17.6495 39.0421 17.6558C39.18 17.6558 39.3179 17.6457 39.4622 17.652C39.6052 17.6482 39.7481 17.6419 39.9025 17.6571C39.7823 17.7495 39.652 17.8216 39.5191 17.8937C39.3825 17.9519 39.2433 18.0101 39.0978 18.0493C38.9523 18.0835 38.8042 18.1227 38.6524 18.1303C38.5765 18.1366 38.5006 18.143 38.4247 18.1442L38.1944 18.1341C37.8882 18.1063 37.582 18.024 37.3112 17.8735C37.0468 17.7229 36.8001 17.5116 36.6748 17.2294Z" fill="#241953"/>
<path d="M46.0846 19.264C46.6008 19.6828 47.1031 20.1003 47.6156 20.5027C48.1255 20.9063 48.643 21.2973 49.1744 21.6591C49.7071 22.0197 50.2537 22.3576 50.8306 22.6334C51.1191 22.7713 51.4126 22.8991 51.7201 22.994C52.025 23.0965 52.3413 23.1673 52.6716 23.2167C52.0136 23.3343 51.3152 23.2243 50.6813 23.0016C50.0398 22.7802 49.4439 22.4537 48.891 22.0779C48.3368 21.6996 47.8256 21.2682 47.3537 20.8C46.8842 20.3281 46.4452 19.8258 46.0846 19.264Z" fill="#241953"/>
<path d="M35.7777 21.8059C35.6069 22.8358 35.4057 23.8543 35.2008 24.8716L34.8933 26.3963C34.7896 26.9036 34.682 27.4097 34.5859 27.9184C34.4796 28.4245 34.3821 28.9331 34.2885 29.4405C34.1873 29.9479 34.1038 30.4565 34.0165 30.9651C33.9355 31.4751 33.8558 31.9837 33.8064 32.4961C33.7558 33.0086 33.7217 33.5223 33.8102 34.0372C33.709 33.7968 33.6521 33.5349 33.6167 33.2743C33.58 33.0124 33.5673 32.7492 33.5585 32.486C33.5496 31.9596 33.5762 31.4358 33.6242 30.9145C33.7153 29.8707 33.89 28.8408 34.0899 27.8172C34.1961 27.3073 34.3062 26.7974 34.4264 26.2913C34.5517 25.7851 34.6744 25.2803 34.8174 24.7793C35.0958 23.7759 35.4045 22.7814 35.7777 21.8059Z" fill="#241953"/>
<path d="M35.4349 35.1532C35.2464 34.8128 35.1135 34.4548 35.0009 34.0929C34.8908 33.7298 34.8048 33.3603 34.7466 32.9858C34.6884 32.6113 34.6555 32.2292 34.6643 31.8433C34.6707 31.6509 34.6858 31.4561 34.7225 31.2638C34.7643 31.074 34.8149 30.8728 34.9364 30.7146C34.9224 30.9082 34.944 31.0879 34.9705 31.2714C34.9971 31.4536 35.0287 31.6345 35.0604 31.8154C35.1236 32.1786 35.1894 32.5417 35.2451 32.9074C35.302 33.273 35.3514 33.6425 35.3881 34.0145C35.4248 34.3877 35.4501 34.7635 35.4349 35.1532Z" fill="#241953"/>
<path d="M51.4304 25.441C51.2823 25.7434 51.1735 26.0597 51.066 26.376C51.0179 26.5367 50.9584 26.6924 50.9154 26.853L50.7788 27.3338C50.6117 27.9804 50.4637 28.6295 50.3448 29.2849C50.222 29.939 50.1183 30.5982 50.0297 31.2587C49.9918 31.5902 49.9449 31.9204 49.9032 32.2507C49.8652 32.5822 49.8387 32.9149 49.8058 33.2464L49.7526 33.7437C49.7374 33.9094 49.7273 34.0765 49.7147 34.2422L49.64 35.2405C49.5932 35.9073 49.5704 36.5754 49.5261 37.2422L49.4907 38.2455C49.4768 38.5795 49.4578 38.9148 49.449 39.2501C49.4312 39.9207 49.4148 40.5913 49.3756 41.2644C49.3022 40.5964 49.2516 39.9258 49.1997 39.2539C49.1655 38.5821 49.1466 37.909 49.1301 37.2358C49.1263 36.8993 49.1326 36.5627 49.139 36.2261C49.1466 35.8896 49.1453 35.5518 49.1617 35.2152L49.2212 34.2055C49.2326 34.0372 49.2402 33.869 49.2541 33.7007L49.3022 33.1971C49.4274 31.8534 49.6388 30.5147 49.9601 29.2014C50.1145 28.5434 50.3182 27.8956 50.5434 27.2592C50.6687 26.9441 50.7889 26.6291 50.9356 26.3229C51.004 26.1685 51.0875 26.0205 51.1634 25.8699C51.2494 25.7244 51.3329 25.5789 51.4304 25.441Z" fill="#241953"/>
<path d="M52.5008 24.6717C52.621 25.5384 52.7057 26.4013 52.7842 27.2655L53.0119 29.8517C53.0891 30.7121 53.1613 31.5725 53.2663 32.4265C53.3207 32.8529 53.3776 33.2793 53.4649 33.6981C53.5054 33.9082 53.5585 34.1144 53.6256 34.3169C53.699 34.513 53.7762 34.7217 53.9546 34.8508C53.8495 34.8141 53.7635 34.7357 53.6876 34.6521C53.6155 34.5661 53.5547 34.4712 53.4965 34.3751C53.3865 34.1802 53.303 33.974 53.2245 33.7665C53.0765 33.3489 52.9651 32.9225 52.8753 32.4923C52.6956 31.6332 52.5818 30.7652 52.5071 29.896C52.4312 29.0268 52.3958 28.1563 52.3907 27.2845C52.3869 26.4127 52.4109 25.541 52.5008 24.6717Z" fill="#241953"/>
<path d="M56.6066 34.594C56.2371 34.0334 55.9259 33.4426 55.6361 32.8428C55.3489 32.2418 55.0895 31.6269 54.8605 31.0006C54.6328 30.373 54.4341 29.7328 54.2886 29.0774C54.2165 28.7484 54.1633 28.4157 54.1292 28.0791C54.1039 27.7438 54.09 27.3971 54.1709 27.0681C54.2038 27.4022 54.2823 27.7185 54.3746 28.0335C54.4619 28.3486 54.5695 28.6599 54.6733 28.9698C54.8858 29.5911 55.1136 30.2073 55.3375 30.8273C55.5627 31.446 55.788 32.0672 56.0056 32.6923C56.2156 33.3186 56.4282 33.9461 56.6066 34.594Z" fill="#241953"/>
<path d="M50.1689 24.2011C49.6742 25.7295 49.2339 27.2681 48.834 28.8142C48.6392 29.5898 48.4456 30.3642 48.2773 31.1436C48.1027 31.9217 47.9445 32.7037 47.8066 33.4894C47.6586 34.2726 47.5397 35.0609 47.4359 35.8516C47.322 36.6412 47.2512 37.4345 47.1829 38.2291L47.1398 38.825L47.1095 39.4222C47.0968 39.6209 47.0905 39.8208 47.0854 40.0207C47.0816 40.2206 47.0715 40.4193 47.0715 40.6192C47.0576 41.4188 47.0867 42.2172 47.1221 43.0206C46.9741 42.2311 46.8779 41.4302 46.8223 40.6255C46.778 39.8208 46.7552 39.0135 46.7868 38.2076C46.8349 36.5944 47.026 34.9875 47.3081 33.4008C47.4574 32.6088 47.6181 31.8192 47.8104 31.036C48.0078 30.2554 48.2128 29.476 48.4544 28.7079C48.9302 27.1694 49.4793 25.6536 50.1689 24.2011Z" fill="#241953"/>
<path d="M58.6158 30.7134C58.6196 31.1739 58.6171 31.6345 58.612 32.095C58.6032 32.5556 58.5994 33.0149 58.5842 33.4755C58.5715 33.9347 58.5614 34.3953 58.5424 34.8546L58.4893 36.2325L58.4855 36.3185L58.4172 36.3818C58.0123 36.75 57.6049 37.1055 57.1911 37.4573C56.7748 37.8052 56.3535 38.1481 55.9271 38.4846C55.5032 38.8237 55.0667 39.1476 54.6289 39.469C54.1899 39.7904 53.7471 40.1055 53.2916 40.4028C52.8373 40.7027 52.3818 40.9987 51.9086 41.2708C51.4379 41.5441 50.9635 41.8123 50.47 42.0464C49.9791 42.2842 49.478 42.5031 48.9606 42.679C48.4431 42.8523 47.9079 42.9865 47.3651 43.0194C48.4279 42.7941 49.3882 42.2918 50.322 41.768C50.7863 41.4998 51.2456 41.2214 51.6935 40.9253L52.3654 40.48C52.5868 40.3269 52.8095 40.1763 53.0284 40.0194C53.9077 39.3994 54.7681 38.7529 55.6184 38.0912C56.0435 37.7609 56.4648 37.4256 56.8824 37.0853C57.3025 36.7487 57.7213 36.4058 58.1274 36.0591L58.0553 36.2072L58.173 34.8331C58.2109 34.3751 58.259 33.917 58.3033 33.459C58.3463 33.001 58.3994 32.5442 58.4475 32.0862C58.5007 31.6269 58.5563 31.1701 58.6158 30.7134Z" fill="#241953"/>
<path d="M37.3062 20.7658C37.0266 22.5613 36.7836 24.3579 36.6065 26.1571C36.5243 27.0567 36.4483 27.9576 36.4167 28.8572C36.38 29.7568 36.3712 30.6577 36.4332 31.5497C36.4888 32.4392 36.6052 33.3325 36.8887 34.1549C36.9582 34.3611 37.0405 34.5598 37.1404 34.7483C37.2391 34.9368 37.3517 35.1165 37.4871 35.2721C37.6238 35.4303 37.7718 35.5606 37.9515 35.6745L38.5196 36.0275C39.2914 36.4741 40.1138 36.8385 40.9767 37.0777C41.4069 37.2004 41.8485 37.2902 42.2951 37.3358C42.7418 37.3826 43.196 37.3978 43.6452 37.3307C43.4263 37.3927 43.1998 37.4256 42.9721 37.4522C42.7443 37.4712 42.5153 37.48 42.2863 37.4762C41.827 37.4712 41.369 37.4092 40.9185 37.3193C40.0177 37.1308 39.1434 36.8056 38.3285 36.3729L37.725 36.0338C37.5175 35.9136 37.315 35.7466 37.1531 35.5644C36.9861 35.3822 36.8507 35.1772 36.733 34.9672C36.6154 34.7572 36.5179 34.5383 36.4357 34.3168C36.2687 33.8727 36.1662 33.416 36.0865 32.958C36.0068 32.4999 35.9587 32.0406 35.927 31.5813C35.8208 29.7416 35.9663 27.9146 36.2143 26.1103C36.4686 24.3061 36.8216 22.5182 37.3062 20.7658Z" fill="#241953"/>
<path d="M37.1506 21.5073C37.5871 21.4807 38.0274 21.5048 38.4639 21.5668C38.6828 21.5971 38.9004 21.6376 39.1143 21.6933C39.3294 21.7477 39.5432 21.811 39.752 21.8919C39.9607 21.9717 40.1644 22.0691 40.3606 22.183C40.5579 22.293 40.7439 22.4284 40.916 22.5802C41.0894 22.7321 41.2399 22.9105 41.3766 23.0977C41.5018 23.2926 41.6195 23.4988 41.6891 23.7215C41.8523 24.1606 41.8688 24.6401 41.8536 25.0766L41.851 25.2436L41.8371 25.4107L41.8093 25.7447C41.7966 25.856 41.7764 25.9661 41.7599 26.0774L41.7334 26.2432L41.6954 26.4077C41.5955 26.8455 41.4411 27.2782 41.2032 27.6704C41.0805 27.864 40.9451 28.05 40.7806 28.2132C40.6984 28.2942 40.6123 28.3726 40.5187 28.441C40.4226 28.5118 40.3327 28.5726 40.2075 28.6244L40.2555 28.589C40.2593 28.5827 40.2479 28.6004 40.2454 28.6105C40.2404 28.6219 40.2391 28.6358 40.2378 28.6497C40.2353 28.6636 40.2416 28.6801 40.2416 28.6965L40.2581 28.7472C40.277 28.7813 40.2935 28.818 40.3239 28.8509C40.3492 28.8863 40.3808 28.918 40.415 28.9496C40.5529 29.0736 40.7148 29.1862 40.8907 29.2773C40.9755 29.3267 41.0666 29.3684 41.1564 29.4114C41.245 29.457 41.3373 29.4962 41.4297 29.5342C41.6132 29.6151 41.8017 29.6847 41.989 29.7594C41.7941 29.7113 41.5942 29.6733 41.4019 29.6113C41.3044 29.5835 41.207 29.5557 41.1121 29.5202C41.016 29.4861 40.9198 29.4532 40.8262 29.4102L40.6845 29.3494L40.5465 29.2773C40.4997 29.2545 40.4554 29.2267 40.4112 29.1976C40.3669 29.1698 40.3226 29.1407 40.2808 29.104C40.2378 29.0711 40.1961 29.0344 40.1594 28.9901C40.1189 28.9509 40.0873 28.8977 40.0544 28.8471C40.0417 28.818 40.0291 28.7876 40.0177 28.7573C40.0113 28.7231 40.0012 28.6902 40.0012 28.6548C40 28.6181 40.0025 28.5827 40.0126 28.546C40.0227 28.508 40.0329 28.4789 40.0657 28.4308L40.0771 28.4144L40.1138 28.3954C40.1872 28.3575 40.277 28.2929 40.353 28.2297C40.4314 28.1651 40.5035 28.0918 40.5719 28.0158C40.7098 27.864 40.8211 27.6881 40.9249 27.5085C41.1298 27.1479 41.2576 26.743 41.3399 26.3305L41.374 26.1761L41.3968 26.0192C41.4107 25.9142 41.4297 25.8105 41.4398 25.7055L41.4626 25.3879L41.474 25.2285L41.4753 25.069L41.4803 24.7489C41.4854 24.6414 41.4715 24.5427 41.4677 24.4389C41.4588 24.3364 41.4398 24.2365 41.4246 24.1353C41.3968 24.0378 41.3829 23.9353 41.3437 23.8417L41.2931 23.6987L41.2298 23.5608C41.1918 23.4659 41.1336 23.3824 41.0856 23.2939C40.9717 23.1256 40.8452 22.9636 40.6946 22.8232C40.396 22.5398 40.0392 22.3082 39.6507 22.1349C39.2661 21.9527 38.8549 21.8249 38.4361 21.7211C38.0148 21.6199 37.5858 21.5453 37.1506 21.5073Z" fill="#241953"/>
<path d="M44.0741 22.9282C44.1538 23.013 44.2576 23.0598 44.3575 23.1066C44.4587 23.1521 44.565 23.1914 44.6726 23.2255C44.8851 23.2989 45.1028 23.3609 45.3204 23.4267C45.7556 23.5532 46.1934 23.6848 46.6274 23.8367C47.0601 23.9898 47.4916 24.1606 47.9015 24.3896C48.1065 24.5034 48.3064 24.6338 48.4823 24.7995C48.524 24.8438 48.5683 24.8843 48.605 24.9349C48.6442 24.9805 48.6784 25.0323 48.7062 25.088C48.7619 25.1981 48.7885 25.3259 48.7581 25.4397C48.7278 25.2031 48.5468 25.0614 48.3659 24.9476C48.1824 24.8312 47.9774 24.7426 47.7712 24.6565C47.3562 24.4908 46.9285 24.3453 46.5009 24.1947C46.0732 24.0429 45.6418 23.8898 45.2192 23.7038C45.0079 23.6127 44.7978 23.5102 44.5954 23.3938C44.4954 23.3318 44.3955 23.2711 44.3031 23.1952C44.2133 23.1205 44.1196 23.0383 44.0741 22.9282Z" fill="#241953"/>
<path d="M44.0741 25.441C44.3398 25.6839 44.6131 25.8927 44.9054 26.0597C45.1964 26.228 45.5039 26.3495 45.824 26.4102C45.9024 26.4342 45.9846 26.438 46.0656 26.4469C46.1466 26.457 46.2276 26.4709 46.3098 26.4659C46.3921 26.4659 46.4743 26.4659 46.5578 26.4697C46.6401 26.4596 46.7236 26.4507 46.8071 26.4431L46.9336 26.433L47.0589 26.4077L47.3132 26.3609C47.4827 26.3229 47.6485 26.2672 47.8281 26.2331C47.6864 26.3419 47.5359 26.4456 47.3777 26.5355L47.1272 26.6468L46.9994 26.7012L46.8653 26.7366C46.7754 26.7594 46.6843 26.7822 46.5932 26.8024C46.5009 26.8126 46.406 26.8189 46.3124 26.8265C46.2187 26.8391 46.1238 26.8277 46.0289 26.8214C45.934 26.8126 45.8391 26.8088 45.748 26.7835C45.3748 26.7113 45.0243 26.5405 44.7358 26.3052C44.4511 26.0686 44.212 25.7763 44.0741 25.441Z" fill="#241953"/>
<path d="M38.2361 23.9872C38.4753 24.1998 38.7119 24.3934 38.9573 24.5642C39.2028 24.735 39.4597 24.8767 39.7266 24.9804C39.795 25.0032 39.8595 25.0349 39.9291 25.0513L40.1366 25.1044C40.2062 25.1196 40.2783 25.1234 40.3491 25.1361C40.42 25.1513 40.4921 25.1525 40.5655 25.1525C40.8603 25.1778 41.1539 25.1184 41.4752 25.0779C41.2184 25.2639 40.9147 25.4144 40.5807 25.4511L40.4567 25.4688C40.4149 25.4739 40.3732 25.4701 40.3314 25.4701C40.2479 25.4676 40.1631 25.4688 40.0784 25.4587L39.8291 25.4119C39.7469 25.3942 39.6697 25.36 39.5887 25.3335C39.2749 25.212 38.994 25.0222 38.7638 24.7907C38.5385 24.5578 38.3462 24.2909 38.2361 23.9872Z" fill="#241953"/>
<path d="M39.8569 31.7066C40.6958 31.5649 41.5385 31.4662 42.3837 31.3865C42.8063 31.3435 43.2289 31.3157 43.654 31.2878C43.8666 31.2739 44.0791 31.2676 44.293 31.2613C44.4005 31.2587 44.5068 31.2562 44.6181 31.2587C44.6725 31.2587 44.7269 31.2587 44.794 31.2663C44.8282 31.2701 44.8522 31.2701 44.8952 31.279C44.9218 31.2866 44.9484 31.2941 44.9749 31.3068C45.0028 31.3232 45.0319 31.341 45.0547 31.365C45.104 31.4156 45.1306 31.4789 45.1407 31.532C45.1508 31.5864 45.1483 31.6294 45.1445 31.6725C45.1318 31.7496 45.1103 31.8167 45.0838 31.8736C45.0319 31.9913 44.9674 32.0887 44.899 32.1824C44.7611 32.3671 44.6055 32.5278 44.4334 32.672C44.0905 32.9554 43.7033 33.1832 43.2833 33.3249C43.0732 33.3958 42.8581 33.4489 42.6393 33.4742C42.4254 33.497 42.2129 33.5172 41.999 33.5273C41.7852 33.5362 41.5701 33.5375 41.355 33.521C41.2475 33.5134 41.1412 33.4982 41.0349 33.4767C40.9311 33.4514 40.8211 33.4261 40.7388 33.354C40.8299 33.4084 40.94 33.4122 41.0425 33.4198C41.1475 33.4236 41.2513 33.4236 41.3563 33.4147C41.565 33.3996 41.7738 33.3768 41.9801 33.3414C42.1876 33.3097 42.3951 33.2705 42.5988 33.2287C42.7974 33.1857 42.9923 33.1263 43.1783 33.0478C43.5502 32.8884 43.9007 32.6733 44.1968 32.4013C44.3461 32.2671 44.4853 32.1216 44.5979 31.9647C44.6536 31.8863 44.7042 31.8053 44.7371 31.7281C44.7548 31.6889 44.7624 31.6535 44.7687 31.6257C44.7687 31.6155 44.7687 31.6054 44.7687 31.6079C44.7687 31.6092 44.7712 31.6231 44.7852 31.6345C44.7902 31.6396 44.794 31.6446 44.8016 31.6459C44.8054 31.6472 44.8041 31.6484 44.8067 31.6484C44.7978 31.6472 44.7687 31.6446 44.7497 31.6434C44.7118 31.6383 44.6599 31.637 44.608 31.6358C44.5081 31.632 44.403 31.6332 44.298 31.6345C44.0893 31.6358 43.878 31.6446 43.6679 31.6484L42.4001 31.6839C41.5549 31.7041 40.7072 31.7218 39.8569 31.7066Z" fill="#241953"/>
<path d="M41.8295 29.0445C41.8941 28.9256 41.9801 28.8433 42.0737 28.7737C42.1686 28.7067 42.2711 28.6535 42.3824 28.6194C42.4938 28.5865 42.6127 28.5675 42.7405 28.5814C42.8051 28.5903 42.8696 28.6042 42.9328 28.6358C42.9936 28.6662 43.0556 28.7206 43.0708 28.7864C42.9986 28.7864 42.9569 28.799 42.9088 28.8205L42.7734 28.8775C42.6836 28.9154 42.59 28.9534 42.4925 28.9812C42.3951 29.0103 42.2926 29.0344 42.1851 29.0483C42.075 29.0609 41.9611 29.0673 41.8295 29.0445Z" fill="#241953"/>
<path d="M30.8318 41.682C31.6428 41.334 32.5108 41.119 33.3914 40.9937C33.5015 40.9747 33.6128 40.9646 33.7229 40.9545L34.057 40.9241C34.2796 40.9165 34.5036 40.8988 34.7288 40.9013C34.9528 40.9089 35.178 40.9051 35.4019 40.933L35.7385 40.9646C35.8511 40.976 35.9624 41 36.0738 41.0177C36.1851 41.0367 36.2977 41.0544 36.4078 41.0785L36.7368 41.167C36.9582 41.2176 37.1708 41.3037 37.3846 41.3834L37.5453 41.4441L37.6933 41.5036C37.7908 41.5441 37.8882 41.582 37.9869 41.6162C38.183 41.6845 38.3816 41.744 38.5765 41.7718C38.7713 41.8022 38.9649 41.8035 39.1307 41.7617C39.2964 41.72 39.4318 41.6339 39.528 41.4947C39.7241 41.2176 39.7545 40.7685 39.7102 40.3838L39.7064 40.3497V40.3446C39.7203 40.0574 39.7291 39.7702 39.7469 39.4817L39.7962 38.6188C39.8367 38.0444 39.8747 37.4687 39.9366 36.8942C39.986 37.4699 40.0138 38.0456 40.0429 38.6213L40.0758 39.4842C40.0872 39.7714 40.091 40.0599 40.0986 40.3471L40.0948 40.3079C40.1201 40.4344 40.134 40.5458 40.1416 40.666C40.1492 40.7849 40.1505 40.9039 40.1391 41.0253C40.1163 41.2657 40.0581 41.5188 39.9113 41.7491C39.7696 41.9806 39.5178 42.1603 39.261 42.2286C39.0016 42.2982 38.746 42.2919 38.5082 42.2602C38.2678 42.2286 38.0425 42.1653 37.8237 42.0919C37.7148 42.054 37.606 42.0173 37.5023 41.9705L37.3454 41.9047L37.1986 41.8477C37.0025 41.7718 36.8089 41.6896 36.6014 41.639L36.2965 41.5517L35.9852 41.4871C35.8815 41.4669 35.7777 41.4391 35.6727 41.4252L35.3551 41.3821C35.1438 41.3467 34.9287 41.3442 34.7149 41.3239C34.5011 41.3075 34.2847 41.31 34.0696 41.3024C33.8545 41.31 33.6381 41.3087 33.4218 41.3227C32.5589 41.3695 31.6909 41.4859 30.8318 41.682Z" fill="#241953"/>
<path fill-rule="evenodd" clip-rule="evenodd" d="M46.9223 38.8675L39.9254 38.3538L39.9531 37.9753L46.9501 38.489L46.9223 38.8675Z" fill="#241953"/>
<path d="M55.9309 38.1646C56.2561 38.3695 56.542 38.6238 56.8052 38.9009C57.0684 39.178 57.3063 39.4817 57.5049 39.8145C57.7035 40.146 57.8655 40.5104 57.9376 40.9013C57.9743 41.0974 57.9819 41.2999 57.9553 41.4973C57.925 41.6946 57.8566 41.887 57.7402 42.0401C57.825 41.6643 57.763 41.31 57.6517 40.9747C57.5327 40.6394 57.367 40.3206 57.1797 40.008C56.995 39.6955 56.7862 39.3931 56.5775 39.0869C56.3636 38.7845 56.1447 38.4821 55.9309 38.1646Z" fill="#241953"/>
<path d="M64.0046 37.0739C63.5466 38.0001 63.2151 38.9819 62.962 39.9777C62.8368 40.4762 62.7406 40.9823 62.6533 41.4871L62.5977 41.868L62.5698 42.059C62.5572 42.1274 62.547 42.197 62.5243 42.2627C62.4496 42.5322 62.2902 42.7726 62.0979 42.9662C61.7069 43.3534 61.2109 43.5837 60.7149 43.757C60.2152 43.9291 59.7002 44.0379 59.1827 44.1176C59.0549 44.1379 58.9208 44.1531 58.7955 44.1682C58.6728 44.1834 58.5501 44.2049 58.4286 44.2315C58.1869 44.2859 57.9503 44.3618 57.7352 44.4681C57.5239 44.5719 57.319 44.7174 57.2405 44.8844C57.2038 44.9666 57.2 45.0425 57.2316 45.1248C57.2633 45.207 57.3291 45.2931 57.4113 45.369L57.3544 45.3323C57.5416 45.4031 57.7504 45.4537 57.9604 45.5056L58.5981 45.66C59.0245 45.7726 59.4623 45.8928 59.8697 46.1408C60.0709 46.2648 60.267 46.4343 60.3936 46.6659C60.4593 46.7797 60.4948 46.9088 60.5176 47.0366C60.5327 47.1644 60.5353 47.2947 60.5138 47.4162C60.4758 47.6654 60.391 47.8767 60.3025 48.0855C60.2114 48.293 60.1101 48.4917 60.0026 48.6852C59.5724 49.4596 59.0827 50.182 58.6361 50.9248C58.4121 51.2955 58.1933 51.6675 58.0098 52.0521C57.9162 52.2432 57.8339 52.438 57.7707 52.6354C57.7074 52.8315 57.6606 53.0327 57.6618 53.2212C57.6593 53.3174 57.6783 53.4034 57.7036 53.4882C57.7428 53.5869 57.777 53.6881 57.82 53.7843C57.9022 53.9779 57.9946 54.1638 58.1135 54.3207C58.2325 54.4776 58.383 54.5978 58.5627 54.6902C58.7424 54.7826 58.9448 54.8509 59.1498 54.9192C59.5648 55.0559 59.9747 55.1912 60.3936 55.3178C60.8098 55.4506 61.2362 55.5771 61.631 55.8125C61.8246 55.9302 62.0144 56.0833 62.1333 56.2971L62.1763 56.3768C62.1902 56.4034 62.1966 56.4337 62.2067 56.4628L62.2345 56.5501C62.2421 56.5792 62.2434 56.6096 62.2472 56.6387C62.2649 56.7627 62.2611 56.8639 62.2661 56.974L62.3066 58.281C62.3345 59.1528 62.361 60.0246 62.38 60.8963C62.3092 60.0271 62.2459 59.1566 62.1839 58.2873L62.0903 56.9829C62.0751 56.7576 62.0662 56.5628 61.9625 56.3958C61.8638 56.2288 61.7018 56.0997 61.5222 55.9972C61.1603 55.7922 60.739 55.6758 60.324 55.5556C59.9039 55.4405 59.4826 55.3127 59.0663 55.1874C58.8563 55.1229 58.6424 55.0584 58.4311 54.9559C58.2198 54.8559 58.0174 54.7029 57.8681 54.5143C57.7175 54.3271 57.6125 54.1196 57.5227 53.9146C57.4746 53.8121 57.4379 53.7071 57.3961 53.6033C57.3544 53.4819 57.3291 53.3515 57.3291 53.2288C57.3253 52.9808 57.3784 52.7518 57.4455 52.5329C57.5138 52.314 57.5998 52.1053 57.6947 51.9041C57.8845 51.5005 58.0996 51.1146 58.3261 50.7388C58.7753 49.9859 59.2624 49.2609 59.6749 48.5068C59.7786 48.3183 59.8735 48.1285 59.957 47.9362C60.0393 47.7451 60.1139 47.5465 60.1418 47.363C60.1595 47.2694 60.1557 47.1796 60.1468 47.0923C60.1304 47.0062 60.1101 46.9215 60.0659 46.8468C59.9836 46.6937 59.8419 46.5621 59.6736 46.4584C59.3358 46.2483 58.9221 46.1256 58.5083 46.0168L57.8757 45.8599C57.6618 45.8068 57.4467 45.7511 57.2266 45.6663L57.1937 45.6537L57.1684 45.6296C57.0634 45.5297 56.9634 45.4069 56.9039 45.2475C56.8407 45.0893 56.8521 44.8869 56.9292 44.7363C57.0039 44.5845 57.1152 44.4732 57.2291 44.3833C57.3443 44.2948 57.467 44.2239 57.591 44.1644C57.8402 44.0455 58.1009 43.9683 58.3628 43.9114C58.4944 43.8835 58.6272 43.8633 58.7601 43.8481L59.1422 43.8051C59.647 43.7418 60.1494 43.6469 60.6302 43.4951C61.1084 43.342 61.5791 43.1332 61.9334 42.7967C62.108 42.6297 62.2484 42.4272 62.318 42.1995C62.3383 42.1438 62.3484 42.0843 62.361 42.0274L62.3939 41.8364L62.4597 41.453C62.5572 40.9431 62.6837 40.4382 62.8267 39.941C63.1227 38.949 63.4909 37.9722 64.0046 37.0739Z" fill="#241953"/>
<path d="M60.52 47.7236C60.7364 47.9008 60.9894 48.0159 61.2475 48.0855C61.5057 48.1601 61.7739 48.1715 62.0345 48.15C62.2977 48.1272 62.5495 48.0501 62.8 47.9628C63.0569 47.8704 63.3061 47.7641 63.5516 47.649C63.6756 47.5933 63.7971 47.5326 63.9211 47.4718C64.0451 47.4111 64.1741 47.3453 64.3234 47.2909C64.4714 47.2365 64.6511 47.1998 64.8181 47.2099C64.9029 47.2125 64.9814 47.2251 65.0598 47.2378L65.1724 47.2631C65.1914 47.2681 65.2078 47.2707 65.2306 47.277L65.2989 47.2985C65.39 47.3314 65.4849 47.382 65.5659 47.4605C65.6469 47.5402 65.7051 47.6439 65.7342 47.7439C65.7924 47.9463 65.7696 48.1247 65.7355 48.2829C65.6557 48.6005 65.5267 48.8573 65.3647 49.1205L65.3799 49.0926C65.3445 49.161 65.3167 49.204 65.2838 49.2533C65.2521 49.3027 65.218 49.3457 65.1838 49.3925C65.1142 49.4811 65.0433 49.5671 64.9624 49.643C64.808 49.8025 64.6359 49.9366 64.4601 50.0631C64.1058 50.3149 63.7098 50.4908 63.3099 50.6262C63.2087 50.6578 63.1088 50.6919 63.0063 50.7198L62.6975 50.7881L62.5432 50.821L62.3876 50.8438L62.0776 50.8843C61.8701 50.902 61.6626 50.9108 61.4551 50.9172C61.2476 50.9121 61.0413 50.9033 60.8363 50.8919C61.04 50.8564 61.2425 50.8248 61.4449 50.797C61.6448 50.7514 61.8448 50.716 62.0421 50.6704C62.4331 50.5642 62.8215 50.4591 63.1821 50.2921C63.5465 50.1352 63.8894 49.9391 64.1956 49.7038C64.3462 49.5836 64.4917 49.457 64.617 49.3153C64.6815 49.247 64.7397 49.1724 64.7966 49.099C64.8232 49.061 64.8523 49.0243 64.8751 48.9876C64.8991 48.9522 64.9244 48.9067 64.9358 48.8851L64.9421 48.8712L64.951 48.856C65.0762 48.646 65.1927 48.3968 65.242 48.1728C65.2686 48.0615 65.2749 47.9539 65.2547 47.8881C65.2357 47.8236 65.2104 47.797 65.1294 47.7629C65.0965 47.7489 65.0206 47.7338 64.9649 47.7198C64.9067 47.711 64.8485 47.6996 64.7941 47.6971C64.684 47.692 64.5853 47.7021 64.4715 47.7375C64.2437 47.8109 63.9805 47.9438 63.7174 48.045C63.4516 48.1462 63.1809 48.2348 62.9076 48.3094C62.628 48.3854 62.3331 48.4309 62.0409 48.4246C61.4601 48.4094 60.8705 48.1665 60.52 47.7236Z" fill="#241953"/>
<path d="M59.809 45.6549C59.9342 45.5436 60.0709 45.4715 60.21 45.4107C60.3492 45.3513 60.4935 45.3082 60.6402 45.2791C60.787 45.25 60.9376 45.2349 61.0919 45.2412C61.1691 45.245 61.2476 45.2526 61.3273 45.2703C61.3678 45.2817 61.407 45.2905 61.4487 45.3082C61.469 45.3184 61.4892 45.3272 61.5107 45.3449C61.5196 45.3538 61.5348 45.3677 61.5335 45.388C61.531 45.4057 61.5183 45.4107 61.5095 45.4158C61.5107 45.4057 61.5095 45.3943 61.5044 45.393C61.5006 45.393 61.4956 45.3968 61.4892 45.3981C61.4766 45.4019 61.4589 45.4069 61.4424 45.4145C61.4095 45.4284 61.3754 45.4411 61.3412 45.4575C61.2729 45.4866 61.2045 45.5132 61.1362 45.5373C60.9983 45.5853 60.8579 45.6246 60.7136 45.6524C60.5707 45.6802 60.4239 45.6979 60.2746 45.703C60.1227 45.7043 59.9709 45.6967 59.809 45.6549Z" fill="#241953"/>
<path d="M63.2087 41.8541C63.6035 41.7351 64.0198 41.6985 64.4335 41.7098C64.8485 41.7187 65.2635 41.7895 65.6646 41.9199C66.0632 42.0527 66.4478 42.2514 66.7692 42.5285C67.0931 42.8005 67.35 43.1522 67.4917 43.5382C67.2133 43.2332 66.921 42.9726 66.5933 42.7663C66.2656 42.5601 65.9126 42.4032 65.5457 42.2805C65.1775 42.1603 64.7954 42.0717 64.4057 42.0046C64.0135 41.9388 63.6174 41.8908 63.2087 41.8541Z" fill="#241953"/>
<path d="M64.1387 43.5229C64.6523 43.5229 65.0687 43.1462 65.0687 42.6815C65.0687 42.2168 64.6523 41.8401 64.1387 41.8401C63.6251 41.8401 63.2087 42.2168 63.2087 42.6815C63.2087 43.1462 63.6251 43.5229 64.1387 43.5229Z" fill="#241953"/>
<path d="M64.9244 38.6466C65.0054 38.8592 65.1471 38.9971 65.3053 39.1249C65.4634 39.2514 65.6342 39.3653 65.8088 39.4754C66.1593 39.6968 66.5237 39.9081 66.883 40.1396C67.2424 40.3699 67.6004 40.6166 67.937 40.9076C68.104 41.0544 68.266 41.2126 68.4064 41.396C68.4747 41.4897 68.5418 41.5858 68.5886 41.6959C68.6342 41.8047 68.6709 41.9262 68.6456 42.0401C68.5443 41.8389 68.3659 41.7377 68.1939 41.6238C68.0193 41.515 67.8345 41.415 67.6498 41.3138C67.2803 41.1113 66.9058 40.9051 66.5414 40.671C66.177 40.437 65.819 40.1776 65.4976 39.86C65.3382 39.6993 65.1863 39.5247 65.0674 39.321C64.951 39.1249 64.8637 38.868 64.9244 38.6466Z" fill="#241953"/>
<path d="M63.0214 36.6576C63.0214 36.6576 66.4655 38.2936 68.2938 38.3252C70.1221 38.3569 71.6303 39.192 71.3089 40.7634C70.9875 42.3349 69.5768 45.6549 69.5768 45.6549L71.3519 46.6975C71.3519 46.6975 73.0411 40.6888 76.0562 43.0194C77.467 44.5466 75.4147 48.0121 75.4147 48.0121C75.4147 48.0121 73.4902 50.4174 71.2773 49.8721C71.2128 50.8881 71.2128 51.7004 71.2128 51.7004L74.2595 53.1441C74.2595 53.1441 78.4615 50.6161 80.3429 45.1286C82.2244 39.6399 79.8368 33.3755 78.8499 33.3856C78.006 33.9753 76.5256 35.1811 74.5657 35.7517C72.6058 36.3223 66.8704 37.3257 64.0058 34.9533C63.0214 35.8339 63.0214 36.6576 63.0214 36.6576Z" fill="#241953"/>
<path d="M72.1415 46.3609C72.2352 45.9156 72.4022 45.7688 73.2486 44.6288C73.7914 43.8962 73.9433 43.6596 74.1153 43.6988C74.3355 43.7494 74.419 44.2176 74.4203 44.501C74.4241 45.3247 73.732 45.9016 73.6991 45.9282C73.2195 46.3166 72.8741 46.2154 72.7691 46.5216C72.7413 46.6039 72.7387 46.6899 73.074 47.6768C73.1993 48.045 73.2626 48.2209 73.1702 48.3664C73.0816 48.5043 72.8741 48.584 72.7046 48.5423C72.3111 48.4448 72.1947 47.7046 72.1428 47.3719C72.1048 47.1327 72.0517 46.7899 72.1415 46.3609Z" fill="#241953"/>
<path d="M61.0109 63.8052C61.0679 63.3155 61.1286 62.8271 61.1931 62.3387L61.3918 60.8748L61.4006 60.8065L61.4715 60.7774L63.1113 60.0891L64.7561 59.4134C65.8556 58.9719 66.9552 58.5278 68.0597 58.0988C69.1618 57.6623 70.2701 57.2435 71.3773 56.8196C72.4869 56.4046 73.5965 55.9858 74.7125 55.5847L74.9782 55.4899L74.9719 55.7632L74.9542 56.6185L74.9365 56.5426C75.0896 56.8918 75.2237 57.2397 75.3489 57.594C75.4742 57.9483 75.5843 58.3076 75.6728 58.6733C75.7627 59.0377 75.8348 59.4097 75.8601 59.7854C75.8854 60.1587 75.874 60.5509 75.7209 60.8938C75.8361 60.5357 75.8006 60.1587 75.7462 59.7981C75.7171 59.6159 75.6766 59.4375 75.6298 59.2591C75.5843 59.0807 75.5324 58.9035 75.4742 58.7289C75.3603 58.3785 75.2262 58.0343 75.0858 57.6939C74.9428 57.3549 74.7897 57.0158 74.6239 56.6931L74.6075 56.6615L74.6062 56.6185L74.5885 55.7632L74.8479 55.9416C73.7534 56.3958 72.6514 56.8336 71.5506 57.2739C70.4473 57.7053 69.3452 58.1419 68.2356 58.5619C67.1298 58.9883 66.0189 59.4008 64.9079 59.8133L63.2365 60.4206L61.5601 61.0153L61.6398 60.9179L61.3323 62.3628C61.2324 62.8449 61.1235 63.3257 61.0109 63.8052Z" fill="#241953"/>
<path d="M70.9344 61.7529C69.8058 62.0831 68.6734 62.3792 67.5385 62.669C66.9729 62.8195 66.4035 62.9524 65.838 63.1004L64.1362 63.5256C63.5693 63.666 63.0012 63.8064 62.4369 63.9532C61.8688 64.0873 61.3083 64.2493 60.7415 64.3897C60.4606 64.4657 60.1797 64.5466 59.8975 64.62C59.6166 64.6972 59.3383 64.7832 59.0574 64.8629C58.774 64.9389 58.5032 65.0413 58.2223 65.1261C58.0806 65.1666 57.9465 65.2223 57.8111 65.2754L57.3986 65.4298C57.6517 65.283 57.9022 65.1223 58.1692 64.9971L58.569 64.8085C58.7031 64.7453 58.8372 64.6833 58.9739 64.6289C59.2472 64.5201 59.5205 64.4087 59.7963 64.3037C60.0721 64.2025 60.3518 64.1088 60.6288 64.0114C60.9072 63.9153 61.1881 63.8292 61.469 63.7419C61.7499 63.6533 62.032 63.5711 62.3142 63.4901C62.8785 63.3269 63.4479 63.1827 64.016 63.0334C64.5879 62.8992 65.1572 62.7575 65.7304 62.6348C66.3048 62.5133 66.878 62.3893 67.455 62.2843C68.6064 62.0667 69.7641 61.8782 70.9344 61.7529Z" fill="#241953"/>
<path d="M57.3974 67.3226C57.5467 66.5799 57.5973 65.822 57.5568 65.0768C57.5074 64.3341 57.3543 63.5939 57.0077 62.9549C56.8381 62.6361 56.6218 62.3451 56.3624 62.0996C56.2333 61.9769 56.0941 61.8655 55.9461 61.7656C55.8727 61.715 55.7968 61.6694 55.7171 61.6226L55.4716 61.4733C55.1477 61.2721 54.8251 61.0646 54.5113 60.8369C54.1962 60.6116 53.9002 60.3586 53.6129 60.1384L53.6547 60.1637C53.637 60.1549 53.6104 60.1384 53.6016 60.1308L53.575 60.1093L53.5396 60.0777L53.4839 60.022L53.3852 59.9183L53.1979 59.7158L52.8272 59.3185C52.5792 59.0579 52.3236 58.8036 52.0592 58.5657C51.7948 58.3266 51.5227 58.0988 51.2355 57.904C50.9496 57.7104 50.6421 57.5459 50.3372 57.4788C50.1853 57.4472 50.0373 57.4434 49.9032 57.475C49.7678 57.5079 49.6527 57.575 49.5337 57.6813C49.3035 57.8837 49.2452 58.1305 49.3654 58.4177C49.4819 58.7011 49.7185 58.9668 49.969 59.2059C50.2233 59.4438 50.5118 59.664 50.8041 59.85L50.8407 59.874L50.8585 59.8993L51.5708 60.9204L52.2768 61.9465C52.745 62.6323 53.2093 63.3206 53.6636 64.0165C53.1334 63.3763 52.6147 62.7284 52.0997 62.0768L51.3304 61.0975L50.5662 60.1144L50.6206 60.1637C50.2891 59.9714 49.9867 59.7589 49.6957 59.5096C49.411 59.2591 49.1326 58.9794 48.9568 58.5897C48.872 58.3974 48.8214 58.1583 48.8707 57.9217C48.9175 57.6838 49.058 57.4826 49.2136 57.3371C49.3616 57.1954 49.5641 57.0613 49.7855 57.0056C50.0069 56.95 50.2322 56.9588 50.4371 57.0006C50.8483 57.0879 51.195 57.2815 51.5139 57.4902C51.8327 57.7028 52.1237 57.9407 52.4008 58.1925C52.6754 58.4455 52.9373 58.7087 53.1891 58.9795L53.5623 59.3856L53.7445 59.5868L53.8331 59.6817L53.8736 59.7234L53.8888 59.7373C53.89 59.7386 53.8736 59.726 53.8647 59.7234L53.9065 59.7487C54.2203 59.9891 54.4898 60.2422 54.7858 60.4636C55.0794 60.6888 55.3894 60.8989 55.7019 61.1051L55.9372 61.2582C56.0182 61.3113 56.103 61.367 56.1827 61.4265C56.3434 61.5454 56.4952 61.677 56.6344 61.8212C56.914 62.1085 57.1418 62.4425 57.3113 62.7993C57.6466 63.518 57.7668 64.305 57.7567 65.0704C57.7542 65.4551 57.7187 65.8359 57.6567 66.213C57.5998 66.5913 57.5138 66.962 57.3974 67.3226Z" fill="#241953"/>
<path d="M51.5809 66.5432C51.6568 66.2244 51.6986 65.8979 51.7201 65.574C51.7403 65.2501 51.7302 64.9224 51.6568 64.6124C51.6201 64.4581 51.5657 64.3088 51.4873 64.1759C51.448 64.1101 51.4025 64.0481 51.3506 63.9937C51.2975 63.9368 51.2456 63.8963 51.1773 63.8431C50.9141 63.6369 50.6699 63.4142 50.432 63.1865C49.9538 62.7322 49.5021 62.254 49.0605 61.7643C48.8403 61.5188 48.624 61.2708 48.4165 61.0102C48.3127 60.8786 48.2115 60.7496 48.1153 60.6028C48.0913 60.5661 48.0672 60.5319 48.0432 60.4851C48.0192 60.4408 47.9951 60.3953 47.9825 60.3598L47.8888 60.1308C47.6421 59.5197 47.4131 58.9023 47.2107 58.2734C47.1094 57.9584 47.0158 57.6408 46.9336 57.3181C46.8513 56.9968 46.7855 56.6602 46.7488 56.33C46.6071 55.0128 46.554 53.7045 46.5148 52.3912L46.5135 52.3494L46.5287 52.3178C46.6223 52.123 46.7286 51.9534 46.8665 51.7915C47.0044 51.6333 47.1778 51.4777 47.4194 51.4182C47.5384 51.3891 47.6699 51.3942 47.7851 51.4309C47.9002 51.4663 48.0027 51.527 48.0862 51.5979C48.2583 51.7371 48.3785 51.9066 48.4873 52.0774L48.4936 52.0875L48.4949 52.0913C48.5885 52.3355 48.5923 52.538 48.6138 52.7543C48.6303 52.9669 48.6366 53.1769 48.6442 53.3882L48.6746 54.6459C48.6885 55.0634 48.7024 55.4822 48.7758 55.8897L48.8112 56.039C48.8239 56.0883 48.8466 56.1313 48.8644 56.1794C48.9099 56.2718 48.963 56.3641 49.0073 56.4603C49.0959 56.6501 49.1883 56.8424 49.2288 57.0499C49.1731 56.8475 49.0668 56.6653 48.9643 56.4843C48.9124 56.3932 48.8555 56.3072 48.8036 56.2148C48.7821 56.1655 48.753 56.1161 48.7366 56.0655L48.6897 55.9112C48.5885 55.4962 48.5518 55.0761 48.5114 54.6573C48.4734 54.2385 48.4506 53.8197 48.419 53.4021C48.4025 53.1946 48.3874 52.9859 48.362 52.7809C48.3519 52.6772 48.3342 52.5785 48.3203 52.4772L48.2887 52.3343C48.2773 52.2874 48.2596 52.2533 48.2482 52.2115L48.2558 52.2254C48.1533 52.0736 48.0394 51.9281 47.9053 51.8282C47.7724 51.7231 47.6282 51.6814 47.4941 51.7206C47.3574 51.7573 47.2246 51.8699 47.1145 52.004C47.0044 52.1369 46.907 52.3001 46.8361 52.4557L46.8501 52.3823C46.8792 53.0352 46.9209 53.6881 46.9601 54.341C47.0032 54.9926 47.0474 55.6455 47.1246 56.2882C47.1942 56.9234 47.3688 57.5434 47.5624 58.1659C47.7598 58.7846 47.9787 59.3995 48.2089 60.0094L48.2975 60.2371C48.3127 60.2789 48.3279 60.3054 48.3431 60.3333C48.3557 60.3611 48.3772 60.394 48.3975 60.4269C48.4785 60.556 48.5771 60.6863 48.6746 60.8141C48.8719 61.0697 49.0769 61.324 49.287 61.572C49.7083 62.0692 50.1448 62.5551 50.5952 63.0258C50.8205 63.2598 51.052 63.4901 51.2962 63.6989C51.3544 63.7495 51.4291 63.8153 51.4822 63.8824C51.5391 63.9507 51.5859 64.0253 51.6264 64.1025C51.7061 64.2581 51.7542 64.4239 51.7846 64.5896C51.8428 64.9224 51.8314 65.2577 51.7922 65.5854C51.753 65.908 51.6783 66.2294 51.5809 66.5432Z" fill="#241953"/>
<path d="M48.4152 51.98C48.5 51.756 48.6037 51.5371 48.7303 51.3309C48.8555 51.1221 49.0023 50.9248 49.2047 50.7552C49.3085 50.6755 49.43 50.5958 49.5919 50.5793C49.74 50.5642 49.8829 50.5869 50.0196 50.6502C50.1537 50.7147 50.2638 50.8172 50.3485 50.9298C50.4321 51.0462 50.4915 51.1601 50.5358 51.3069L50.5307 51.2904C50.5548 51.3625 50.5611 51.4106 50.57 51.4701C50.5763 51.527 50.5788 51.584 50.5788 51.6409C50.5763 51.7548 50.5573 51.8686 50.5244 51.9775C50.508 52.0319 50.4865 52.085 50.4624 52.1369L50.3941 52.271C50.3764 52.3064 50.3561 52.3494 50.3372 52.3912C50.3182 52.433 50.2992 52.476 50.2815 52.5203C50.2068 52.6936 50.1385 52.8733 50.0702 53.0529L49.8614 53.5907L49.4489 54.6699C49.3819 54.8509 49.3123 55.0305 49.2478 55.2127C49.1845 55.3949 49.1124 55.5746 49.077 55.7657C49.063 55.5695 49.0947 55.3734 49.125 55.1811C49.1579 54.9888 49.1946 54.7965 49.2414 54.6079C49.3275 54.2284 49.4325 53.8538 49.5476 53.4819C49.6058 53.2971 49.6653 53.1111 49.7286 52.9264C49.7944 52.7429 49.8614 52.5607 49.9348 52.3773C49.9525 52.3317 49.9715 52.2862 49.9917 52.2394C50.012 52.1925 50.0297 52.147 50.0575 52.0977L50.1233 51.9749C50.1398 51.9382 50.1562 51.9028 50.1689 51.8648C50.1942 51.7902 50.2081 51.7105 50.2119 51.632C50.2132 51.5928 50.2119 51.5523 50.2081 51.5131C50.2043 51.4764 50.1954 51.4296 50.1904 51.4093L50.1853 51.3929C50.1664 51.3119 50.1221 51.2069 50.0702 51.1285C50.0171 51.0475 49.95 50.9817 49.8728 50.9374C49.7982 50.8919 49.7007 50.8666 49.6122 50.8678C49.5337 50.8628 49.4388 50.9096 49.349 50.9614C49.1668 51.0753 49.0023 51.2436 48.8492 51.4195C48.6986 51.5953 48.5531 51.7826 48.4152 51.98Z" fill="#241953"/>
<path d="M50.3966 52.1508C50.6117 52.1495 50.8395 52.2482 50.9926 52.438C51.0293 52.4861 51.0622 52.538 51.0849 52.5949C51.114 52.6493 51.1267 52.7088 51.1431 52.767C51.1697 52.8847 51.171 53.0061 51.1609 53.1213C51.1596 53.1807 51.1469 53.2364 51.1368 53.2933C51.1267 53.3503 51.1166 53.4072 51.0976 53.4604C51.0647 53.5692 51.028 53.678 50.9913 53.7729L50.7674 54.3625C50.6155 54.7547 50.4624 55.1457 50.3055 55.5354C50.2309 55.7315 50.1499 55.9251 50.0778 56.1225C50.0398 56.2199 50.0057 56.3186 49.9728 56.4186C49.9449 56.5185 49.907 56.6185 49.9133 56.7247C49.864 56.6248 49.8703 56.5096 49.869 56.4008C49.8715 56.292 49.8842 56.1845 49.8969 56.0757C49.9272 55.8618 49.9715 55.6518 50.0234 55.443C50.1259 55.0268 50.26 54.6206 50.4131 54.2233C50.4903 54.0247 50.5712 53.8273 50.6585 53.6337C50.7054 53.5337 50.7408 53.4439 50.78 53.3528C50.8015 53.3073 50.8129 53.2604 50.8281 53.2149C50.842 53.1693 50.8623 53.1225 50.8673 53.0757C50.9103 52.8897 50.9129 52.7012 50.8344 52.5342C50.7598 52.3697 50.5953 52.2305 50.3966 52.1508Z" fill="#241953"/>
<path d="M51.0305 53.5401C51.1178 53.5325 51.2102 53.5603 51.2912 53.6109C51.3734 53.6615 51.4354 53.7412 51.4835 53.826C51.5695 54.0019 51.5898 54.198 51.5797 54.3802C51.5518 54.7496 51.4405 55.0824 51.3102 55.4038C51.1786 55.7239 51.0179 56.0276 50.8471 56.3211L50.5889 56.7564C50.5447 56.8285 50.5042 56.9006 50.4675 56.9753C50.4333 57.0499 50.3928 57.1246 50.3979 57.2106C50.3511 57.1321 50.3599 57.0335 50.3663 56.9462C50.3751 56.8563 50.3966 56.7715 50.4169 56.6855C50.4637 56.5172 50.5168 56.3527 50.5776 56.1933C50.6978 55.8745 50.8319 55.5657 50.9584 55.2583C51.0837 54.9521 51.2102 54.6434 51.2836 54.341C51.3165 54.1891 51.338 54.036 51.3089 53.8905C51.2848 53.7488 51.1925 53.6109 51.0305 53.5401Z" fill="#241953"/>
<path fill-rule="evenodd" clip-rule="evenodd" d="M73.8242 56.0746L74.1886 52.857L74.5658 52.8997L74.2014 56.1173L73.8242 56.0746Z" fill="#241953"/>
</svg>
