<svg width="125" height="125" viewBox="0 0 125 125" fill="none" xmlns="http://www.w3.org/2000/svg">
<path d="M40.9332 25.9116C52.8442 14.0006 72.1557 14.0006 84.0667 25.9116L99.1659 41.0108C111.077 52.9218 111.077 72.2333 99.1659 84.1443L84.0667 99.2435C72.1557 111.154 52.8442 111.154 40.9332 99.2435L25.834 84.1443C13.923 72.2333 13.923 52.9218 25.834 41.0108L40.9332 25.9116Z" stroke="#F8F8F8" stroke-width="5"/>
<path fill-rule="evenodd" clip-rule="evenodd" d="M92.4245 61.1291C91.8112 62.1544 91.1968 63.1816 90.6698 64.2591C92.7927 65.6609 94.9988 66.9566 97.2934 68.0613C97.9464 67.092 98.5137 66.0682 99.081 65.0443L99.0811 65.0442C99.7193 63.8924 100.358 62.7403 101.119 61.665C105.534 64.0603 109.873 66.5875 114.174 69.1808C114.146 69.2391 114.117 69.2973 114.088 69.3554L114.191 69.3483L114.872 79.2056L114.885 79.3937L114.802 79.5629C113.783 81.6344 111.774 85.191 110.163 88.044C109.546 89.1364 108.988 90.1257 108.565 90.889L108.191 91.5659L107.554 91.1255L107.01 90.7483L107.582 99.05L107.597 99.2575L107.495 99.4392C104.363 105.055 101.148 110.623 97.8412 116.16L97.5001 116.732L96.9123 116.42C94.3528 115.063 91.8319 113.59 89.3295 112.127L89.3295 112.127L89.3293 112.127C87.7218 111.188 86.1219 110.253 84.5243 109.356L84.5169 109.352C84.1933 109.165 83.8625 108.979 83.528 108.791L83.5276 108.79C82.4137 108.163 81.2586 107.513 80.1885 106.738L79.876 106.512L79.9003 106.127L80.5607 95.6999L80.8077 95.7155C81.9475 93.6319 83.1478 91.5796 84.3509 89.5284L83.2003 88.6828C83.0545 88.9401 82.8713 89.2625 82.6575 89.6383C82.0795 90.6537 81.2768 92.0584 80.3777 93.6155C78.5817 96.7264 76.3946 100.457 74.8481 102.906L74.4979 103.46L73.9218 103.147C71.2645 101.701 68.9433 100.206 66.5672 98.6762L66.5671 98.6761L66.5668 98.6759C65.3704 97.9056 64.1601 97.1263 62.886 96.3398L62.5537 96.1346L62.5537 95.7441L62.5538 85.7043C62.5359 85.6932 62.5179 85.6822 62.5 85.6711L62.5004 85.6702C62.5182 85.6338 62.536 85.5974 62.5538 85.561L62.5538 85.4505H62.6079C62.8157 85.0261 63.0263 84.601 63.2559 84.1708C66.0131 79.4143 68.7597 74.6571 71.5063 69.8999L71.507 69.8986C74.2538 65.141 77.0006 60.3834 79.758 55.6265C80.0126 55.1855 80.2601 54.7421 80.5071 54.2996L80.5072 54.2994C81.1474 53.1521 81.7843 52.0111 82.533 50.9347C86.5185 53.0817 90.4539 55.3538 94.306 57.7319C93.7557 58.9037 93.0908 60.0153 92.4246 61.1291L92.4245 61.1291ZM63.9538 86.5602L63.9537 95.3543C65.1518 96.0988 66.2784 96.8244 67.3826 97.5355L67.3826 97.5355L67.3827 97.5356C69.5563 98.9355 71.6426 100.279 74.0145 101.6C75.5143 99.1901 77.5019 95.7967 79.1653 92.9155C80.0625 91.3615 80.8638 89.9593 81.4408 88.9457C81.7292 88.4389 81.9616 88.0293 82.1218 87.7465L82.306 87.421L82.3537 87.3365L82.3658 87.3151L82.3688 87.3097L82.3696 87.3083L82.3698 87.308C82.3698 87.308 82.3698 87.3079 82.9795 87.6519L82.3698 87.3079L82.7578 86.6202L83.3941 87.0878L85.0629 88.3143C86.4546 85.9384 87.8349 83.5561 89.1142 81.1206C87.1211 79.8377 85.0708 78.654 82.9797 77.5788C81.5601 79.8759 80.2262 82.2274 78.8912 84.5809L78.8912 84.5809C77.389 87.2293 75.8853 89.8801 74.2565 92.4587C70.7795 90.5667 67.3389 88.6116 63.9538 86.5602ZM81.8841 96.9531L81.3222 105.826C82.2288 106.452 83.1822 106.989 84.1674 107.543L84.1674 107.543L84.1691 107.544C84.5135 107.738 84.8618 107.935 85.2134 108.138C86.8579 109.061 88.4726 110.005 90.0828 110.946L90.0832 110.946L90.0835 110.946C92.368 112.282 94.6433 113.612 96.9812 114.87C100.125 109.593 103.186 104.288 106.171 98.9388L105.641 91.2446C102.906 96.1033 100.108 100.928 97.2404 105.729C94.6881 104.375 92.1955 102.918 89.7066 101.464C88.097 100.523 86.4888 99.5831 84.8671 98.6727C84.5288 98.4774 84.1884 98.2857 83.8479 98.0941L83.8478 98.094C83.1881 97.7225 82.5284 97.3511 81.8841 96.9531ZM104.976 87.8546L105.078 87.708L106.61 88.7686L107.717 89.5351C108.085 88.8769 108.514 88.1174 108.972 87.3056L108.973 87.3052C110.534 84.5395 112.439 81.166 113.463 79.113L112.938 71.5147C112.41 72.455 111.859 73.3839 111.307 74.3135L111.307 74.3137C110.686 75.3597 110.065 76.4065 109.476 77.4715C109.179 77.9742 108.891 78.4826 108.604 78.9909L108.604 78.9913L108.604 78.9913C107.982 80.0924 107.359 81.1934 106.637 82.2364C105.384 81.6594 104.208 80.9511 103.031 80.2428C102.081 79.6707 101.131 79.0986 100.14 78.5957C99.0766 80.0943 98.1855 81.7143 97.3438 83.3631C98.9629 84.4243 100.64 85.375 102.317 86.3258L102.317 86.3258L102.317 86.3259C103.206 86.8299 104.095 87.334 104.976 87.8546ZM100.412 65.5314C100.802 64.8278 101.18 64.1538 101.578 63.5106C105.201 65.5001 108.778 67.5776 112.332 69.707C111.644 71.0035 110.907 72.244 110.151 73.517L110.151 73.517C109.528 74.565 108.893 75.6349 108.261 76.7761C107.936 77.3251 107.637 77.855 107.346 78.3707L107.345 78.3713L107.345 78.3714C106.945 79.0798 106.56 79.7613 106.147 80.4286C105.466 80.0659 104.79 79.6663 104.091 79.2468L103.752 79.0428C102.808 78.4739 101.813 77.8748 100.774 77.3475L99.6976 76.8007L98.9987 77.7854C97.8762 79.3667 96.9489 81.0575 96.0968 82.7265L95.5256 83.8454L96.5763 84.534C98.1707 85.5789 99.8125 86.515 101.416 87.4244L101.616 87.5376C102.77 88.192 103.903 88.8342 105.011 89.5072C102.312 94.3227 99.5518 99.1036 96.7237 103.861C94.6028 102.704 92.5402 101.498 90.4598 100.282L90.4597 100.282C88.8488 99.3403 87.2273 98.3923 85.5598 97.4561C85.1935 97.2447 84.8362 97.0434 84.4868 96.8466L84.4867 96.8466C83.7745 96.4454 83.0956 96.063 82.4416 95.6515C83.5018 93.7428 84.6097 91.8541 85.7274 89.9487L85.7275 89.9485L86.0892 89.3319C87.5418 86.8541 89.0018 84.3452 90.3536 81.7717L90.9497 80.6371L89.872 79.9434C87.8411 78.6362 85.7515 77.4297 83.6198 76.3338L82.469 75.7421L81.7887 76.8428C80.3548 79.1631 79.0088 81.5361 77.6768 83.8844L77.6767 83.8845L77.4226 84.3323C76.2213 86.4496 75.0261 88.5451 73.7673 90.5955C70.5785 88.8428 67.4263 87.0355 64.3245 85.1474C64.3755 85.0487 64.4271 84.9501 64.4797 84.8513C67.2335 80.1005 69.9767 75.3492 72.7191 70.5992L72.7194 70.5986C75.4663 65.8409 78.2125 61.0843 80.9692 56.3286L80.9705 56.3265C81.2485 55.845 81.509 55.3781 81.7629 54.9231C82.1773 54.1806 82.5738 53.4701 82.9992 52.7802C86.198 54.5266 89.362 56.3534 92.4739 58.2504C92.1124 58.9187 91.7164 59.5855 91.3023 60.278L91.214 60.4256L91.214 60.4256C90.6078 61.4389 89.9658 62.512 89.4121 63.6441L88.8715 64.7494L89.8984 65.4274C92.0616 66.8558 94.3229 68.185 96.6861 69.3227L97.7776 69.8482L98.4544 68.8435C99.1429 67.8217 99.7379 66.7477 100.299 65.7349L100.412 65.5314Z" fill="#18E884"/>
</svg>
