<svg width="30" height="54" viewBox="0 0 30 54" fill="none" xmlns="http://www.w3.org/2000/svg">
<path d="M22.4472 45.699C20.7201 47.8187 18.7213 49.6708 16.517 51.2168C13.6546 53.2244 10.5365 53.0171 7.96065 51.431C5.36719 49.8341 3.33009 46.8354 2.74935 43.2986L0.927012 32.2004C0.853373 31.7519 0.984967 31.2882 1.26485 30.7886C1.53497 30.3064 1.91108 29.8451 2.28975 29.3807C2.30692 29.3596 2.32409 29.3385 2.34125 29.3175C2.89106 28.6427 3.17502 27.79 3.13961 26.9203C3.10419 26.0506 2.75185 25.2239 2.149 24.596C2.13018 24.5764 2.11135 24.5568 2.09253 24.5372C1.67736 24.1051 1.26498 23.6759 0.956548 23.2173C0.636972 22.7421 0.468112 22.2906 0.505045 21.8376L1.41902 10.628C1.71029 7.05572 3.49683 3.90128 5.95187 2.09879C8.3902 0.308569 11.4812 -0.151603 14.4973 1.61664C16.82 2.97829 18.9628 4.66174 20.8565 6.63408C25.8444 11.8291 28.7597 18.6692 29.0527 25.8652C29.3457 33.0611 26.9963 40.1156 22.4472 45.699Z" fill="white" stroke="#DDDFEC"/>
</svg>
