<svg width="20" height="21" viewBox="0 0 20 21" fill="none" xmlns="http://www.w3.org/2000/svg">
<path d="M6.54084 6.81846C6.6625 6.94013 6.6625 7.13846 6.54084 7.26013C6.41917 7.38179 6.22084 7.38179 6.09917 7.26013C5.9775 7.13846 5.9775 6.94013 6.09917 6.81846C6.22084 6.69596 6.41834 6.69596 6.54084 6.81846" stroke="#241953" stroke-width="1.4" stroke-linecap="round" stroke-linejoin="round"/>
<path d="M10.2208 6.81846C10.3425 6.94013 10.3425 7.13846 10.2208 7.26013C10.0992 7.38179 9.90083 7.38179 9.77916 7.26013C9.65749 7.13846 9.65749 6.94013 9.77916 6.81846C9.90083 6.69596 10.0992 6.69596 10.2208 6.81846" stroke="#241953" stroke-width="1.4" stroke-linecap="round" stroke-linejoin="round"/>
<path d="M13.9017 6.81846C14.0233 6.94013 14.0233 7.13846 13.9017 7.26013C13.78 7.38179 13.5817 7.38179 13.46 7.26013C13.3383 7.13846 13.3383 6.94013 13.46 6.81846C13.5817 6.69596 13.7792 6.69596 13.9017 6.81846" stroke="#241953" stroke-width="1.4" stroke-linecap="round" stroke-linejoin="round"/>
<path d="M9.16667 11.2059H4.16667C3.24583 11.2059 2.5 10.4601 2.5 9.53923V4.53923C2.5 3.61839 3.24583 2.87256 4.16667 2.87256H15.8333C16.7542 2.87256 17.5 3.61839 17.5 4.53923V7.03923" stroke="#241953" stroke-width="1.4" stroke-linecap="round" stroke-linejoin="round"/>
<path d="M16.1608 13.4525V12.0075C16.1608 11.1042 15.4283 10.3717 14.525 10.3717V10.3717C13.6217 10.3717 12.8892 11.1042 12.8892 12.0075V13.4525" stroke="#241953" stroke-width="1.4" stroke-linecap="round" stroke-linejoin="round"/>
<path fill-rule="evenodd" clip-rule="evenodd" d="M16.6667 13.4542H12.5C12.04 13.4542 11.6667 13.8276 11.6667 14.2876V17.0392C11.6667 17.4992 12.04 17.8726 12.5 17.8726H16.6667C17.1267 17.8726 17.5 17.4992 17.5 17.0392V14.2876C17.5 13.8267 17.1267 13.4542 16.6667 13.4542Z" stroke="#241953" stroke-width="1.4" stroke-linecap="round" stroke-linejoin="round"/>
</svg>
