<svg width="24" height="25" viewBox="0 0 24 25" fill="none" xmlns="http://www.w3.org/2000/svg">
<path d="M8 10.3726V7.37256V7.37256C8 5.16356 9.791 3.37256 12 3.37256V3.37256C14.209 3.37256 16 5.16356 16 7.37256V7.37256V10.3726" stroke="#241953" stroke-width="1.5" stroke-linecap="round" stroke-linejoin="round"/>
<path fill-rule="evenodd" clip-rule="evenodd" d="M17 21.3726H7C5.895 21.3726 5 20.4776 5 19.3726V12.3726C5 11.2676 5.895 10.3726 7 10.3726H17C18.105 10.3726 19 11.2676 19 12.3726V19.3726C19 20.4776 18.105 21.3726 17 21.3726Z" stroke="#241953" stroke-width="1.5" stroke-linecap="round" stroke-linejoin="round"/>
<path d="M9 15.9136C8.997 15.9136 8.995 15.9156 8.995 15.9186C8.995 15.9216 8.997 15.9236 9 15.9236C9.003 15.9236 9.005 15.9216 9.005 15.9186C9.005 15.9156 9.003 15.9136 9 15.9136" stroke="#241953" stroke-width="1.5" stroke-linecap="round" stroke-linejoin="round"/>
<path d="M12.005 15.9136C12.002 15.9136 12 15.9156 12 15.9186C12 15.9216 12.003 15.9236 12.005 15.9236C12.008 15.9236 12.01 15.9216 12.01 15.9186C12.01 15.9156 12.008 15.9136 12.005 15.9136" stroke="#241953" stroke-width="1.5" stroke-linecap="round" stroke-linejoin="round"/>
<path d="M15 15.9136C14.997 15.9136 14.995 15.9156 14.995 15.9186C14.995 15.9216 14.997 15.9236 15 15.9236C15.003 15.9236 15.005 15.9216 15.005 15.9186C15.005 15.9156 15.003 15.9136 15 15.9136" stroke="#241953" stroke-width="1.5" stroke-linecap="round" stroke-linejoin="round"/>
</svg>
