<svg width="1440" height="79" viewBox="0 0 1440 79" fill="none" xmlns="http://www.w3.org/2000/svg">
<mask id="mask0" mask-type="alpha" maskUnits="userSpaceOnUse" x="0" y="0" width="1440" height="79">
<rect y="0.309387" width="1440" height="78" fill="#18E884"/>
</mask>
<g mask="url(#mask0)">
<path d="M784.941 -8.59197C787.033 -8.59197 789.124 -8.59197 791.215 -8.59197C792.394 -8.59197 792.589 -8.39739 792.6 -7.2572C792.639 -3.24781 792.677 0.761245 792.713 4.76996C792.713 5.00611 792.72 5.24225 792.713 5.47941C792.672 6.45338 792.325 6.81925 791.343 6.82128C787.094 6.82736 782.846 6.82263 778.597 6.80709C777.602 6.80709 777.207 6.38648 777.204 5.36184C777.192 1.17813 777.192 -3.00491 777.204 -7.18727C777.204 -8.31529 777.508 -8.58792 778.67 -8.59096C780.758 -8.59602 782.85 -8.59197 784.941 -8.59197ZM779.367 4.61388H790.455C790.666 3.12505 790.609 -5.80384 790.399 -6.491H779.371L779.367 4.61388Z" fill="black" fill-opacity="0.08"/>
<path d="M936.855 71.5422C934.726 71.5422 932.604 71.5483 930.479 71.5422C929.394 71.5371 929.026 71.1834 929.023 70.0817C929.01 65.9325 929.01 61.7829 929.023 57.633C929.023 56.4766 929.383 56.1431 930.551 56.1421C934.7 56.138 938.85 56.138 943 56.1421C944.189 56.1421 944.412 56.3752 944.424 57.561L944.536 69.5882C944.536 69.7909 944.541 69.9936 944.536 70.1962C944.504 71.2716 944.222 71.5584 943.123 71.5645C941.034 71.5746 938.946 71.5645 936.857 71.5645L936.855 71.5422ZM931.255 58.2654C931.047 59.8525 931.122 68.7175 931.332 69.3976H942.342V58.2644L931.255 58.2654Z" fill="black" fill-opacity="0.08"/>
<path d="M832.436 1.81362C829.702 1.81362 826.965 1.81362 824.227 1.81362C823.956 1.8292 823.685 1.818 823.416 1.78018C822.785 1.65147 822.456 1.09101 822.65 0.478853C822.735 0.258326 822.842 0.0473509 822.971 -0.150536C825.716 -4.91397 828.502 -9.66219 831.187 -14.4621C832.024 -15.959 832.97 -15.8415 833.711 -14.4793C835.39 -11.3983 837.196 -8.3862 838.958 -5.35078C839.924 -3.68966 840.909 -2.03969 841.883 -0.384647C842.029 -0.157351 842.159 0.07969 842.272 0.3248C842.576 1.05756 842.211 1.70215 841.435 1.8116C841.166 1.83791 840.895 1.84536 840.624 1.8339H832.437L832.436 1.81362ZM825.427 -0.246813C830.22 -0.252894 834.768 -0.234646 839.497 -0.267078L832.461 -12.4524L825.427 -0.246813Z" fill="black" fill-opacity="0.08"/>
<path d="M883.301 30.5969H875.193C874.922 30.6078 874.652 30.6034 874.382 30.5837C873.593 30.4885 873.212 29.8439 873.551 29.1182C873.807 28.5689 874.137 28.0541 874.44 27.5281C876.984 23.1133 879.528 18.6988 882.073 14.2847C882.179 14.0746 882.298 13.8715 882.43 13.6766C882.885 13.0796 883.578 13.0543 884.069 13.6188C884.213 13.8059 884.339 14.0061 884.445 14.2168C886.036 16.9613 887.627 19.7055 889.218 22.4494C890.388 24.4592 891.573 26.4608 892.746 28.4686C892.91 28.7239 893.045 28.9957 893.152 29.2794C893.201 29.4144 893.22 29.5586 893.207 29.7018C893.195 29.845 893.151 29.9837 893.079 30.108C893.006 30.2322 892.908 30.3391 892.789 30.421C892.671 30.5028 892.537 30.5577 892.395 30.5817C892.093 30.6233 891.787 30.6362 891.483 30.6202C888.752 30.6202 886.02 30.6202 883.287 30.6202L883.301 30.5969ZM883.333 16.408C881.692 18.7714 876.628 27.7774 876.524 28.4736H890.295C887.948 24.4034 885.667 20.4528 883.333 16.408Z" fill="black" fill-opacity="0.08"/>
<path d="M768.48 40.2129C768.445 40.3599 768.384 40.6558 768.306 40.9477C767.752 43.0325 767.183 45.1152 766.638 47.203C765.991 49.68 765.371 52.1692 764.723 54.6411C764.484 55.5532 764.221 56.4573 763.927 57.3522C763.647 58.2045 762.872 58.4154 762.168 57.8589C761.99 57.7031 761.821 57.5376 761.661 57.3633C757.816 53.5188 753.971 49.674 750.126 45.8287C748.919 44.6207 749.103 43.9284 750.76 43.4825C756.066 42.0501 761.374 40.6234 766.683 39.2025C766.94 39.1228 767.206 39.0745 767.474 39.0586C768.121 39.0464 768.46 39.4042 768.48 40.2129ZM752.516 45.1578C753.586 46.525 761.739 54.5448 762.448 54.9076C763.523 50.4675 764.881 46.1247 765.964 41.5447L752.516 45.1578Z" fill="black" fill-opacity="0.08"/>
<path d="M822.398 70.477C822.406 66.2598 825.983 62.7744 830.196 62.817C832.245 62.8309 834.207 63.6542 835.652 65.1075C837.098 66.5608 837.91 68.5265 837.913 70.5763C837.959 74.5127 835.062 78.3316 830.12 78.3093C825.1 78.286 822.301 74.1529 822.398 70.477ZM835.776 70.5723C835.939 67.6615 833.429 65.0335 830.35 64.8967C827.271 64.7598 824.618 67.2014 824.461 70.3493C824.31 73.3584 826.7 75.9722 829.711 76.2205C832.608 76.4546 835.785 74.1317 835.779 70.5723H835.776Z" fill="black" fill-opacity="0.08"/>
<path d="M742.476 -0.0643945C742.467 3.61662 739.703 7.58952 734.694 7.58952C730.126 7.58952 726.896 3.9683 726.948 -0.227578C727.005 -4.81872 730.704 -7.98691 734.831 -7.90481C739.135 -7.81968 742.414 -4.39202 742.476 -0.0643945ZM740.299 0.05722C740.531 -2.98327 738.215 -5.55653 735.018 -5.81497C732.002 -6.05821 729.291 -3.68663 729.056 -0.587362C728.944 0.8916 729.416 2.35542 730.37 3.4908C731.325 4.62617 732.685 5.34288 734.162 5.48753C737.432 5.7936 740.401 3.03082 740.299 0.05722Z" fill="black" fill-opacity="0.08"/>
<path d="M942.027 -0.213407C945.542 -0.280298 949.605 2.47135 949.729 7.44458C949.831 11.4986 946.843 15.3032 941.925 15.2617C936.822 15.2181 934.198 11.0435 934.209 7.51755C934.223 3.19904 937.819 -0.319825 942.027 -0.213407ZM941.944 13.1647C944.57 13.3076 947.65 10.9959 947.632 7.32195C947.619 4.42842 944.997 1.84298 941.967 1.83285C938.865 1.82271 936.291 4.3899 936.285 7.50843C936.283 8.25172 936.428 8.98807 936.712 9.67509C936.996 10.3621 937.412 10.9862 937.938 11.5115C938.464 12.0367 939.089 12.4528 939.776 12.7356C940.464 13.0185 941.2 13.1626 941.944 13.1597V13.1647Z" fill="black" fill-opacity="0.08"/>
<path d="M902.819 76.7485C901.681 76.7667 900.841 76.3684 900.233 75.5799C899.784 74.9951 899.445 74.3272 899.041 73.7059C898.712 73.1992 898.417 72.6539 898.007 72.2191C897.166 71.3263 895.873 71.3212 895.053 72.2293C894.586 72.7472 894.265 73.3968 893.876 73.9867C893.507 74.5482 893.195 75.1613 892.754 75.661C891.397 77.1984 889.194 77.1437 887.915 75.5343C887.437 74.9323 887.061 74.2411 886.693 73.561C886.107 72.4806 885.445 71.5654 884.045 71.5127C883.539 71.4945 883.199 70.9807 883.221 70.5256C883.244 70.2523 883.369 69.9976 883.571 69.8128C883.774 69.6281 884.039 69.5271 884.313 69.5303C885.175 69.5253 886.013 69.7391 886.662 70.3128C887.204 70.8125 887.692 71.3687 888.116 71.9719C888.472 72.4573 888.714 73.0269 889.028 73.5478C889.981 75.1482 890.858 75.1329 891.808 73.5053C892.165 72.8972 892.483 72.2577 892.869 71.6658C893.477 70.7425 894.245 70.0026 895.349 69.6996C897.127 69.2111 898.81 69.7594 899.92 71.2584C900.399 71.905 900.763 72.6357 901.186 73.3259C901.379 73.6411 901.553 73.9776 901.794 74.2522C902.36 74.8968 903.083 74.8958 903.599 74.2096C904.004 73.6735 904.274 73.0421 904.653 72.4867C905.107 71.8218 905.557 71.1418 906.108 70.5611C906.783 69.8516 907.704 69.579 908.671 69.5253C909.148 69.4979 909.507 69.728 909.739 70.1546C909.833 70.3166 909.87 70.5057 909.844 70.6915C909.818 70.8772 909.73 71.0487 909.595 71.1783C909.412 71.3696 909.17 71.4923 908.908 71.5259C907.763 71.6131 907.096 72.3043 906.569 73.2296C906.136 73.9897 905.708 74.759 905.202 75.4704C904.601 76.3116 903.762 76.7789 902.819 76.7485Z" fill="black" fill-opacity="0.08"/>
<path d="M921.862 15.8678C921.887 16.8498 921.371 17.692 920.526 18.3376C919.993 18.743 919.382 19.0471 918.809 19.4038C918.351 19.6886 917.862 19.938 917.452 20.2815C916.42 21.1481 916.379 22.5791 917.392 23.4669C917.891 23.9058 918.513 24.2058 919.081 24.5676C919.62 24.9122 920.205 25.2031 920.692 25.6095C922.213 26.8814 922.282 28.9358 920.846 30.308C920.413 30.7216 919.882 31.0378 919.374 31.3661C918.922 31.659 918.44 31.9084 917.97 32.1769C917.214 32.6036 916.788 33.2411 916.653 34.1026C916.523 34.9387 916.134 35.2722 915.503 35.1779C914.901 35.0877 914.555 34.5566 914.637 33.7945C914.79 32.3918 915.51 31.3297 916.677 30.5746C917.328 30.154 918.024 29.8043 918.687 29.401C920.226 28.4645 920.207 27.602 918.644 26.6645C917.92 26.2328 917.157 25.8537 916.476 25.3652C914.044 23.6119 913.971 20.3991 916.337 18.5586C917.025 18.0245 917.821 17.6292 918.577 17.1863C920.25 16.2063 920.251 15.3306 918.583 14.3485C917.773 13.8691 916.942 13.41 916.179 12.8597C915.225 12.1705 914.779 11.154 914.639 10.0047C914.613 9.77064 914.638 9.53379 914.713 9.31044C914.871 8.84017 915.225 8.61821 915.726 8.6405C916.228 8.6628 916.614 8.93139 916.627 9.42293C916.662 10.779 917.529 11.4499 918.582 12.0185C919.242 12.3583 919.879 12.7415 920.488 13.1658C921.344 13.7931 921.863 14.6394 921.862 15.8678Z" fill="black" fill-opacity="0.08"/>
<path d="M788.077 43.5362C788.068 42.1549 788.806 41.1789 789.846 40.4035C790.385 39.9981 790.997 39.7012 791.574 39.3495C791.948 39.1215 792.345 38.9198 792.683 38.6461C793.359 38.0988 793.368 37.4299 792.713 36.8431C792.44 36.5989 792.105 36.4205 791.792 36.2239C791.077 35.7769 790.343 35.3614 789.645 34.8891C787.597 33.5006 787.492 30.0861 789.37 28.5041C789.787 28.1625 790.227 27.8496 790.687 27.5676C791.172 27.2635 791.694 27.0152 792.181 26.7122C793.553 25.8599 793.541 24.9893 792.145 24.1359C791.627 23.8197 791.066 23.5693 790.561 23.2359C790.046 22.9135 789.566 22.54 789.126 22.1211C788.381 21.3741 788.046 20.4528 788.054 19.3725C788.054 18.6944 788.482 18.3407 789.006 18.2667C789.454 18.2039 789.932 18.6427 790.065 19.186C790.089 19.3198 790.101 19.4555 790.1 19.5914C790.115 19.8824 790.199 20.1657 790.346 20.4172C790.493 20.6688 790.698 20.8813 790.945 21.0366C791.505 21.4096 792.111 21.7147 792.668 22.0907C793.276 22.5032 793.933 22.8923 794.44 23.4163C794.965 23.9571 795.26 24.6796 795.265 25.433C795.27 26.1863 794.984 26.9126 794.467 27.4602C793.941 28.0105 793.25 28.4139 792.615 28.8466C792.058 29.2247 791.452 29.5307 790.892 29.9037C789.855 30.5939 789.769 32.4374 790.857 33.2482C791.314 33.5918 791.821 33.8675 792.308 34.1695C792.852 34.508 793.438 34.7918 793.937 35.183C795.653 36.5441 795.707 38.7302 794.047 40.1562C793.516 40.6123 792.868 40.9336 792.272 41.3137C791.817 41.6035 791.341 41.863 790.907 42.1802C790.669 42.3422 790.472 42.5573 790.331 42.8087C790.19 43.0601 790.11 43.3407 790.096 43.6285C790.087 43.8959 790.014 44.1573 789.883 44.3906C789.661 44.7545 789.302 44.9906 788.857 44.872C788.412 44.7534 788.069 44.4798 788.082 43.9447C788.079 43.8099 788.077 43.6751 788.077 43.5362Z" fill="black" fill-opacity="0.08"/>
<path d="M869.373 60.1778C869.337 60.4075 869.285 60.6344 869.218 60.8569C869.046 61.317 868.695 61.5531 868.205 61.5298C867.786 61.5106 867.292 61.0667 867.218 60.6461C867.202 60.4777 867.196 60.3084 867.202 60.1393C867.09 57.4252 864.898 55.1093 862.236 54.863C858.741 54.5387 856.529 56.9184 856.021 59.1988C855.92 59.6559 855.903 60.1312 855.834 60.5954C855.746 61.1863 855.368 61.5298 854.82 61.5319C854.693 61.5352 854.567 61.5133 854.448 61.4673C854.329 61.4214 854.221 61.3523 854.129 61.2642C854.037 61.176 853.964 61.0705 853.913 60.9538C853.863 60.8371 853.836 60.7115 853.834 60.5842C853.827 59.9122 853.901 59.2419 854.055 58.5876C854.957 55.0252 858.33 52.7428 861.454 52.8036C865.532 52.8827 868.788 55.6515 869.31 59.665C869.321 59.8337 869.321 60.003 869.31 60.1717L869.373 60.1778Z" fill="black" fill-opacity="0.08"/>
<path d="M730.305 63.876C730.285 60.3095 732.833 56.6802 737.311 56.1491C737.614 56.1122 737.921 56.1166 738.223 56.1623C738.458 56.1996 738.673 56.3192 738.829 56.5C738.984 56.6808 739.07 56.911 739.072 57.1495C739.069 57.3873 738.982 57.6165 738.828 57.7975C738.674 57.9784 738.461 58.0998 738.227 58.1407C737.83 58.2116 737.427 58.2349 737.028 58.2907C734.647 58.6241 732.15 60.9339 732.387 64.3625C732.569 66.9895 734.736 69.1797 737.551 69.4766C737.753 69.4979 737.956 69.4939 738.159 69.5293C738.725 69.6307 739.089 70.0472 739.077 70.56C739.074 70.8165 738.969 71.0613 738.786 71.2409C738.603 71.4205 738.356 71.5205 738.1 71.5188C737.427 71.521 736.756 71.4451 736.1 71.2928C732.718 70.4506 730.314 67.3452 730.305 63.876Z" fill="black" fill-opacity="0.08"/>
<path d="M730.97 31.0894L732.668 32.711C732.912 32.9431 733.183 33.1529 733.401 33.4063C733.844 33.9212 733.839 34.4269 733.424 34.8525C733.008 35.2782 732.5 35.3157 731.981 34.8657C731.344 34.3144 730.748 33.7154 730.133 33.1428C729.964 32.9847 729.786 32.8387 729.525 32.6036C728.956 33.2026 728.405 33.7833 727.854 34.362C727.634 34.6177 727.399 34.8604 727.151 35.0887C726.665 35.4941 726.204 35.4819 725.787 35.1019C725.37 34.7218 725.305 34.1492 725.724 33.6546C726.248 33.0394 726.822 32.4658 727.373 31.8729C727.556 31.6773 727.736 31.4796 727.995 31.1969C727.409 30.6253 726.84 30.0689 726.267 29.5165C726.025 29.2824 725.748 29.0797 725.534 28.8233C725.121 28.3317 725.154 27.7692 725.575 27.374C725.967 27.0071 726.487 26.9746 726.947 27.374C727.634 27.9709 728.278 28.6155 728.943 29.2388C729.064 29.3523 729.192 29.4567 729.415 29.6503C729.984 29.0675 730.539 28.504 731.089 27.9334C731.299 27.7145 731.479 27.4642 731.702 27.2605C732.222 26.7861 732.808 26.778 733.229 27.2159C733.651 27.6537 733.653 28.1229 733.185 28.6581C732.629 29.2915 732.034 29.8905 731.462 30.5087C731.305 30.6698 731.164 30.8563 730.97 31.0894Z" fill="black" fill-opacity="0.08"/>
<path d="M907.637 49.4571C908.283 50.0712 908.868 50.6266 909.454 51.18C909.651 51.3655 909.869 51.5317 910.047 51.7324C910.461 52.1996 910.487 52.7996 910.129 53.1969C909.747 53.6215 909.092 53.6327 908.595 53.1827C907.822 52.4813 907.074 51.7567 906.379 51.105C905.704 51.7131 905.061 52.2847 904.422 52.8685C904.249 53.0276 904.118 53.2334 903.943 53.3915C903.495 53.7969 902.87 53.8222 902.477 53.4644C902.038 53.0651 902.034 52.4722 902.503 51.9442C902.973 51.4162 903.471 50.9074 903.955 50.3885C904.181 50.1453 904.401 49.8969 904.705 49.5625L902.925 47.8679C902.68 47.6358 902.405 47.4281 902.195 47.1686C901.868 46.7632 901.911 46.1065 902.242 45.7761C902.425 45.5968 902.669 45.4931 902.925 45.4856C903.181 45.4781 903.431 45.5673 903.624 45.7355C904.216 46.2362 904.765 46.7896 905.333 47.3186C905.576 47.5446 905.822 47.7676 906.125 48.0463C906.691 47.4493 907.22 46.8929 907.746 46.3345C907.955 46.1136 908.146 45.8723 908.37 45.6686C908.857 45.2237 909.524 45.2055 909.91 45.6038C910.273 45.9787 910.275 46.602 909.864 47.0713C909.358 47.6551 908.806 48.2084 908.275 48.774L907.637 49.4571Z" fill="black" fill-opacity="0.08"/>
<path d="M857.692 30.3932C855.681 30.382 853.987 28.6844 854.022 26.7162C854.042 25.7441 854.445 24.8191 855.143 24.1418C855.841 23.4646 856.777 23.0896 857.749 23.098C859.749 23.1082 861.455 24.8149 861.428 26.7781C861.401 28.7858 859.727 30.4053 857.692 30.3932ZM857.752 28.3348C857.963 28.3311 858.17 28.2852 858.362 28.2C858.555 28.1147 858.728 27.9918 858.872 27.8384C859.016 27.6851 859.127 27.5044 859.2 27.3071C859.273 27.1099 859.306 26.9 859.296 26.6899C859.292 26.4829 859.247 26.2788 859.164 26.0891C859.081 25.8995 858.962 25.728 858.813 25.5845C858.663 25.4411 858.487 25.3284 858.295 25.2529C858.102 25.1775 857.896 25.1407 857.689 25.1448C857.482 25.1489 857.278 25.1936 857.088 25.2766C856.899 25.3596 856.727 25.479 856.584 25.6283C856.44 25.7775 856.328 25.9535 856.252 26.1462C856.177 26.339 856.14 26.5447 856.144 26.7517C856.143 26.9619 856.185 27.1701 856.266 27.3641C856.346 27.5581 856.465 27.734 856.615 27.8814C856.765 28.0288 856.943 28.1447 857.138 28.2224C857.333 28.3001 857.542 28.338 857.752 28.3338V28.3348Z" fill="black" fill-opacity="0.08"/>
<path d="M789.12 69.5152C791.517 69.5152 793.914 69.5152 796.311 69.5152C797.261 69.5152 797.786 69.8861 797.786 70.5287C797.786 71.1712 797.246 71.5422 796.311 71.5422C791.552 71.5462 786.792 71.5462 782.032 71.5422C781.051 71.5422 780.583 71.2026 780.587 70.5287C780.591 69.8547 781.046 69.5152 782.031 69.5152C784.392 69.5118 786.756 69.5118 789.12 69.5152Z" fill="black" fill-opacity="0.08"/>
<path d="M820.657 42.2845C819.698 42.2582 819.239 41.42 819.637 40.7298C819.788 40.5055 819.967 40.3011 820.169 40.1217C823.463 36.8238 826.758 33.5276 830.056 30.233C830.238 30.0345 830.442 29.8568 830.664 29.703C831.124 29.4141 831.597 29.4932 831.944 29.8733C832.305 30.2695 832.331 30.7003 832.011 31.1604C831.928 31.2676 831.836 31.3673 831.736 31.4584C828.298 34.8982 824.856 38.3353 821.413 41.7697C821.165 42.016 820.826 42.173 820.657 42.2845Z" fill="black" fill-opacity="0.08"/>
<path d="M240.004 30.2103C240.805 29.3559 241.119 29.3367 241.994 30.1191C242.716 30.7677 243.426 31.4296 244.186 32.1279C244.867 31.4123 245.489 30.7556 246.111 30.1009C246.264 29.9216 246.432 29.7555 246.613 29.6042C247.071 29.2627 247.635 29.3002 247.99 29.6792C248.346 30.0583 248.386 30.5995 247.99 31.0505C247.439 31.687 246.84 32.2829 246.267 32.9032C246.087 33.0978 245.931 33.3147 245.718 33.5792C246.333 34.1589 246.922 34.7092 247.506 35.2636C247.758 35.4867 247.995 35.7264 248.215 35.9812C248.564 36.418 248.545 36.8832 248.209 37.2724C247.846 37.694 247.32 37.8024 246.86 37.4315C246.178 36.8832 245.558 36.2589 244.911 35.668C244.717 35.4906 244.519 35.3173 244.262 35.0883L242.64 36.7869C242.407 37.0301 242.191 37.2936 241.937 37.5126C241.401 37.9727 240.933 37.9686 240.504 37.5338C240.105 37.1284 240.078 36.572 240.504 36.0774C241.054 35.4389 241.65 34.84 242.227 34.2217C242.384 34.0525 242.531 33.8741 242.693 33.6846C241.774 32.7066 240.887 31.7589 240 30.8164L240.004 30.2103Z" fill="black" fill-opacity="0.08"/>
<path d="M270.983 13.0822C270.983 15.0416 270.983 17.001 270.983 18.9605C270.994 19.2635 270.976 19.5668 270.93 19.8665C270.839 20.3267 270.592 20.6773 270.079 20.7442C269.782 20.7947 269.482 20.8262 269.181 20.8385C265.194 20.8459 261.21 20.8459 257.229 20.8385C257.06 20.8443 256.891 20.8399 256.723 20.8253C255.924 20.724 255.601 20.4098 255.482 19.6091C255.457 19.3735 255.449 19.1364 255.458 18.8997C255.453 14.9524 255.449 11.0042 255.445 7.05493C255.445 6.88669 255.437 6.71642 255.451 6.54818C255.522 5.71002 255.891 5.34111 256.743 5.3178C257.89 5.28739 259.037 5.28029 260.189 5.28333C263.193 5.29144 266.197 5.30496 269.2 5.32388C269.335 5.32388 269.47 5.31881 269.605 5.32388C270.561 5.37861 270.956 5.74955 270.98 6.70021C271.007 7.77958 270.988 8.85997 270.988 9.94339L270.983 13.0822ZM257.682 7.50796V18.623H268.73C268.943 17.2041 268.879 8.19309 268.659 7.50999L257.682 7.50796Z" fill="black" fill-opacity="0.08"/>
<path d="M414.417 -1.36514C416.407 -1.36514 418.398 -1.36514 420.388 -1.36514C420.69 -1.37148 420.991 -1.34292 421.286 -1.28001C421.758 -1.16548 422.039 -0.852306 422.056 -0.344544C422.062 -0.141846 422.061 0.060854 422.061 0.263554C422.061 4.34592 422.061 8.42794 422.061 12.5096C422.061 13.8059 421.757 14.1403 420.476 14.1434C416.428 14.1542 412.38 14.1542 408.332 14.1434C407.007 14.1434 406.663 13.7816 406.659 12.461C406.645 8.55024 406.632 4.63915 406.621 0.72773C406.621 0.45814 406.611 0.187536 406.621 -0.0830669C406.672 -0.995214 407.019 -1.36311 407.938 -1.37527C409.32 -1.39352 410.702 -1.37527 412.085 -1.3702L414.417 -1.36514ZM419.834 11.9512C420.055 11.2559 420.11 2.1294 419.897 0.854417H408.85V11.9512H419.834Z" fill="black" fill-opacity="0.08"/>
<path d="M352.831 12.0008H360.832C361.068 12.0008 361.304 12.0069 361.541 12.0008C362.416 11.9937 363.075 12.8288 362.516 13.7653C361.135 16.0842 359.811 18.4375 358.462 20.7767C357.015 23.2901 355.565 25.8036 354.115 28.3171C353.992 28.558 353.851 28.7891 353.693 29.0083C353.231 29.5819 352.506 29.5839 352.056 28.991C351.772 28.6171 351.549 28.1924 351.317 27.784C349.679 24.9509 348.041 22.1175 346.404 19.2838C345.422 17.5933 344.42 15.9139 343.43 14.2285C343.283 14.003 343.154 13.7657 343.045 13.519C342.771 12.7964 343.147 12.1437 343.921 12.019C344.19 11.9905 344.461 11.9834 344.732 11.9978L352.831 12.0008ZM345.878 14.2112L352.871 26.3195C355.252 22.1864 357.546 18.251 359.835 14.2112H345.878Z" fill="black" fill-opacity="0.08"/>
<path d="M425.449 64.7959L425.623 64.1401C426.21 61.9226 426.802 59.7061 427.381 57.4875C427.995 55.1403 428.59 52.789 429.206 50.4427C429.437 49.564 429.694 48.6904 429.967 47.8228C430.296 46.7729 431.082 46.56 431.88 47.3343C433.215 48.6276 434.515 49.9563 435.833 51.2697L443.788 59.2237C443.962 59.3839 444.127 59.5531 444.283 59.7304C444.778 60.3436 444.603 61.0672 443.878 61.3814C443.593 61.4868 443.3 61.5722 443.003 61.6368L427.468 65.8185C427.211 65.9004 426.95 65.9681 426.685 66.0212C425.94 66.1347 425.433 65.6756 425.449 64.7959ZM441.231 59.9595L431.501 50.236C430.348 54.5251 429.163 58.9257 427.925 63.53L441.231 59.9595Z" fill="black" fill-opacity="0.08"/>
<path d="M282.799 51.2424C282.799 53.9747 282.799 56.7068 282.799 59.4385C282.799 61.2071 282.147 61.5952 280.642 60.7287C275.88 57.9848 271.119 55.2386 266.358 52.49C266.178 52.3975 266.005 52.2928 265.84 52.1768C265.159 51.6467 265.205 50.8349 265.955 50.3576C266.461 50.0312 267.002 49.7424 267.529 49.4404C271.884 46.9404 276.239 44.4421 280.595 41.9456C280.77 41.8442 280.94 41.7327 281.121 41.6415C282.047 41.1895 282.729 41.5918 282.736 42.6368C282.752 45.505 282.736 48.3721 282.736 51.2403L282.799 51.2424ZM280.645 44.4864C279.694 44.7833 269.193 50.8765 268.716 51.3944C270.557 52.6967 279.926 57.971 280.645 58.1017V44.4864Z" fill="black" fill-opacity="0.08"/>
<path d="M374.221 40.176C378.057 40.1233 381.913 43.2499 381.898 47.9434C381.885 51.968 378.867 55.6632 374.148 55.646C369.202 55.6257 366.424 51.741 366.366 47.9434C366.303 43.7465 369.63 40.0898 374.221 40.176ZM374.141 53.5491C374.885 53.5533 375.623 53.411 376.312 53.1301C377.001 52.8493 377.628 52.4354 378.157 51.9122C378.685 51.389 379.106 50.7667 379.395 50.0808C379.683 49.395 379.833 48.659 379.837 47.915C379.85 44.8229 377.271 42.2091 374.169 42.2202C371.23 42.2314 368.411 44.605 368.493 48.1998C368.56 51.0954 371.111 53.547 374.141 53.5491Z" fill="black" fill-opacity="0.08"/>
<path d="M380.242 6.96271C380.17 5.90665 380.614 5.09383 381.392 4.4756C381.889 4.07932 382.462 3.7773 383.004 3.43676C383.518 3.11447 384.078 2.84893 384.542 2.46684C385.692 1.51923 385.663 -0.00710297 384.487 -0.925331C384.038 -1.27499 383.514 -1.52836 383.03 -1.83241C382.487 -2.17294 381.921 -2.48307 381.416 -2.87225C379.669 -4.22426 379.878 -6.85124 381.619 -7.98636C382.353 -8.46473 383.12 -8.89851 383.876 -9.33735C384.732 -9.8441 385.358 -10.4654 385.396 -11.5579C385.4 -11.6936 385.433 -11.8269 385.491 -11.9496C385.549 -12.0722 385.632 -12.1816 385.734 -12.2709C385.836 -12.3602 385.956 -12.4275 386.085 -12.4685C386.214 -12.5096 386.351 -12.5236 386.486 -12.5096C386.992 -12.4549 387.369 -12.0383 387.398 -11.4616C387.448 -10.1938 386.944 -9.14276 385.992 -8.34615C385.428 -7.87386 384.764 -7.51812 384.136 -7.12286C383.765 -6.88975 383.356 -6.71746 383 -6.46105C381.987 -5.73842 381.997 -4.93574 383.041 -4.20703C383.427 -3.93744 383.858 -3.73373 384.257 -3.48846C384.748 -3.19252 385.253 -2.91584 385.713 -2.57631C388.093 -0.823979 387.906 2.64319 385.673 4.1908C385.174 4.53641 384.646 4.83741 384.127 5.15261C383.753 5.38065 383.356 5.57524 382.996 5.82354C381.983 6.52488 381.983 7.38128 383.03 8.06945C383.648 8.47485 384.33 8.78599 384.955 9.1772C386.008 9.83192 386.919 10.6285 387.243 11.8944C387.342 12.285 387.387 12.6874 387.378 13.0903C387.375 13.3457 387.276 13.5908 387.102 13.7771C386.927 13.9634 386.689 14.0775 386.434 14.0967C385.981 14.116 385.42 13.7663 385.414 13.2798C385.385 11.8103 384.371 11.1941 383.286 10.5819C382.606 10.2112 381.954 9.79043 381.336 9.32314C380.584 8.73329 380.166 7.9377 380.242 6.96271Z" fill="black" fill-opacity="0.08"/>
<path d="M342.534 71.2387C342.564 70.1319 342.972 69.3008 343.763 68.6928C344.27 68.3046 344.837 67.9995 345.375 67.6549C345.913 67.3103 346.46 66.9759 346.987 66.6151C347.899 65.9928 347.949 64.1492 347.039 63.4844C346.552 63.1276 346.037 62.8064 345.529 62.478C344.935 62.0939 344.288 61.7787 343.748 61.3317C342.088 59.9544 342.126 57.6892 343.824 56.3656C344.324 55.9734 344.902 55.6795 345.445 55.3389C345.93 55.0349 346.435 54.7582 346.889 54.4136C347.343 54.069 347.7 53.5967 347.678 52.9572C347.676 52.8222 347.695 52.6878 347.736 52.5589C347.904 51.9964 348.335 51.6863 348.851 51.741C349.122 51.7765 349.369 51.9156 349.54 52.129C349.711 52.3424 349.793 52.6138 349.769 52.8863C349.702 54.1217 349.243 55.192 348.249 55.9551C347.663 56.4041 347.009 56.7659 346.383 57.1592C345.955 57.4288 345.488 57.6467 345.099 57.9619C344.401 58.5264 344.411 59.2926 345.134 59.8399C345.614 60.2037 346.184 60.448 346.685 60.7885C347.378 61.2598 348.113 61.7006 348.712 62.2804C350.155 63.6841 350.131 66.4205 348.702 67.7745C348.074 68.3694 347.312 68.8265 346.592 69.3181C346.148 69.6221 345.641 69.836 345.208 70.1532C344.397 70.7502 344.388 71.5579 345.191 72.1559C345.596 72.4599 346.062 72.6677 346.483 72.9474C347.182 73.4106 347.907 73.8484 348.55 74.3835C349.369 75.0666 349.691 76.0284 349.766 77.0734C349.809 77.6936 349.462 78.1882 348.942 78.2895C348.347 78.399 347.758 78.0473 347.732 77.3683C347.684 76.1227 346.893 75.5369 345.957 74.9967C345.199 74.5589 344.431 74.1271 343.727 73.6052C343.356 73.3324 343.055 72.9759 342.848 72.5647C342.64 72.1535 342.533 71.6991 342.534 71.2387Z" fill="black" fill-opacity="0.08"/>
<path d="M307.885 12.6039C307.773 17.5153 304.276 20.5294 300.88 20.7169C300.552 20.752 300.222 20.7588 299.893 20.7372C299.381 20.6754 299.123 20.2913 299.089 19.8251C299.063 19.6035 299.117 19.38 299.241 19.1949C299.366 19.0099 299.553 18.8757 299.768 18.8166C300.025 18.7423 300.29 18.6998 300.557 18.6899C303.07 18.5349 305.25 16.5808 305.7 14.1393C306.376 10.4684 303.47 7.47458 300.499 7.45837C300.362 7.45801 300.227 7.44408 300.093 7.41681C299.384 7.26478 298.997 6.80871 299.08 6.2523C299.163 5.69589 299.676 5.2834 300.345 5.32698C303.829 5.554 306.273 7.59519 307.286 10.2485C307.636 11.1505 307.769 12.1306 307.885 12.6039Z" fill="black" fill-opacity="0.08"/>
<path d="M461.813 25.1266C459.215 25.1753 455.971 22.4824 455.276 18.9331C455.167 18.4431 455.115 17.9422 455.121 17.4402C455.148 16.7308 455.58 16.3659 456.218 16.3984C456.796 16.4288 457.097 16.7784 457.139 17.4686C457.334 20.6713 459.735 23.0601 462.779 23.0814C464.21 23.0913 465.592 22.5601 466.649 21.594C467.705 20.628 468.357 19.2985 468.475 17.872C468.491 17.6693 468.465 17.4666 468.504 17.2639C468.615 16.6882 469.011 16.3771 469.57 16.3953C470.13 16.4136 470.468 16.7328 470.499 17.3693C470.591 19.1693 469.993 20.7625 468.897 22.152C467.339 24.1243 465.282 25.1185 461.813 25.1266Z" fill="black" fill-opacity="0.08"/>
<path d="M397.535 69.9728C397.705 72.9697 395.562 76.6406 391.471 77.5517C390.92 77.6743 390.332 77.6531 389.761 77.6672C389.245 77.6814 388.951 77.3784 388.837 76.899C388.723 76.4196 388.965 75.9636 389.471 75.7771C389.727 75.6983 389.992 75.6557 390.259 75.6504C393.138 75.4528 395.428 73.0751 395.508 70.2028C395.585 67.2738 393.505 64.8131 390.628 64.4259C390.324 64.3854 390.028 64.3469 389.731 64.2911C389.158 64.1827 388.855 63.8725 388.825 63.379C388.791 62.8408 389.115 62.4263 389.687 62.3016C389.854 62.2709 390.025 62.2617 390.194 62.2743C394.258 62.4395 397.529 65.8701 397.535 69.9728Z" fill="black" fill-opacity="0.08"/>
<path d="M321.704 0.708418C322.448 1.40874 323.137 2.0513 323.817 2.70501C324.016 2.88734 324.194 3.0913 324.348 3.31311C324.612 3.71141 324.503 4.10059 324.2 4.42086C323.897 4.74112 323.54 4.93977 323.118 4.69754C322.802 4.50806 322.507 4.2859 322.237 4.03471C321.592 3.45195 320.964 2.84791 320.281 2.21042C319.601 2.91987 318.979 3.57763 318.355 4.22931C318.17 4.42289 317.998 4.6418 317.781 4.79382C317.588 4.93337 317.351 4.99752 317.114 4.97418C316.877 4.95085 316.657 4.84163 316.495 4.66714C316.142 4.30836 316.074 3.79857 316.412 3.37899C316.854 2.82866 317.358 2.32596 317.835 1.80199L318.692 0.856391C318.027 0.170254 317.423 -0.455074 316.815 -1.07635C316.674 -1.22026 316.511 -1.33986 316.369 -1.48783C315.912 -1.9814 315.874 -2.50132 316.255 -2.93409C316.637 -3.36685 317.204 -3.39522 317.703 -2.99996C318.099 -2.68578 318.456 -2.32294 318.828 -1.97937C319.076 -1.75032 319.317 -1.51519 319.568 -1.28816C319.742 -1.13107 319.925 -0.984118 320.184 -0.765203C320.657 -1.24661 321.122 -1.71586 321.582 -2.19018C321.841 -2.45673 322.081 -2.74253 322.346 -3.00098C322.898 -3.54117 323.517 -3.6182 323.949 -3.21786C324.441 -2.75875 324.392 -2.19423 323.788 -1.54154C323.237 -0.946616 322.679 -0.359802 322.126 0.23208C322.009 0.349646 321.904 0.478355 321.704 0.708418Z" fill="black" fill-opacity="0.08"/>
<path d="M473.283 40.7973L475.149 38.825C475.302 38.6456 475.467 38.4763 475.642 38.3183C476.122 37.9291 476.725 37.9554 477.102 38.3598C477.464 38.75 477.482 39.272 477.084 39.7341C476.603 40.2976 476.08 40.8256 475.574 41.3689L474.814 42.1918C475.277 42.6449 475.701 43.0604 476.126 43.4739C476.489 43.8266 476.873 44.16 477.214 44.533C477.681 45.0448 477.691 45.5465 477.29 45.9681C476.923 46.3502 476.297 46.3938 475.823 45.9914C475.157 45.4239 474.532 44.8056 473.89 44.2097C473.743 44.0729 473.593 43.9401 473.383 43.7476C472.812 44.3455 472.259 44.9242 471.706 45.5019C471.484 45.7567 471.247 45.998 470.996 46.2245C470.802 46.3892 470.555 46.4778 470.301 46.4739C470.047 46.47 469.802 46.3738 469.614 46.2033C469.227 45.8303 469.161 45.2911 469.54 44.833C470.056 44.2107 470.631 43.6381 471.182 43.0442C471.384 42.8243 471.587 42.6053 471.735 42.4503C471.105 41.755 470.505 41.0881 469.897 40.4284C469.761 40.2804 469.586 40.1669 469.452 40.0179C468.997 39.5111 468.974 39.0044 469.372 38.5747C469.771 38.1449 470.293 38.1064 470.81 38.527C471.254 38.8878 471.66 39.2953 472.082 39.6834C472.451 40.024 472.82 40.3686 473.283 40.7973Z" fill="black" fill-opacity="0.08"/>
<path d="M399.579 34.918C398.982 35.5443 398.403 36.1484 397.828 36.7554C397.642 36.951 397.479 37.17 397.278 37.3473C396.783 37.7831 396.25 37.7892 395.831 37.3879C395.413 36.9865 395.377 36.4301 395.797 35.9416C396.279 35.3801 396.81 34.8561 397.317 34.32L397.907 33.6815C397.276 32.9619 396.691 32.2819 396.082 31.6109C395.904 31.4082 395.667 31.2592 395.509 31.0464C395.353 30.8436 395.279 30.5894 395.303 30.3347C395.327 30.08 395.446 29.8437 395.637 29.6731C395.805 29.5021 396.033 29.4027 396.273 29.3955C396.513 29.3883 396.746 29.474 396.925 29.6346C397.519 30.1302 398.065 30.6826 398.633 31.2086C398.878 31.4346 399.127 31.6545 399.455 31.9504C399.983 31.4214 400.477 30.937 400.96 30.4363C401.196 30.1951 401.396 29.9204 401.636 29.6853C402.212 29.1187 402.773 29.0559 403.234 29.4826C403.695 29.9093 403.676 30.4961 403.146 31.0819C402.648 31.6312 402.132 32.1633 401.625 32.7035L401.006 33.3673C401.513 33.868 402.005 34.3575 402.503 34.8389C402.77 35.0963 403.064 35.3254 403.32 35.593C403.856 36.1544 403.895 36.7585 403.446 37.1923C403.028 37.5977 402.451 37.5713 401.913 37.0909C401.312 36.5507 400.734 35.9842 400.145 35.4318C399.979 35.2707 399.804 35.1197 399.579 34.918Z" fill="black" fill-opacity="0.08"/>
<path d="M285.855 32.067C283.796 32.0822 282.155 30.4971 282.134 28.4722C282.118 27.7441 282.319 27.0277 282.711 26.414C283.103 25.8003 283.669 25.3169 284.336 25.0252C285.003 24.7334 285.742 24.6466 286.459 24.7755C287.176 24.9045 287.838 25.2435 288.362 25.7496C288.885 26.2556 289.247 26.9058 289.401 27.6177C289.554 28.3296 289.493 29.071 289.224 29.7479C288.955 30.4248 288.492 31.0067 287.892 31.4196C287.292 31.8325 286.583 32.0578 285.855 32.067ZM285.753 30.0106C286.179 30.0181 286.59 29.8579 286.899 29.5648C287.207 29.2717 287.388 28.8691 287.402 28.4438C287.416 27.5955 286.644 26.8171 285.793 26.8222C285.385 26.8348 284.997 26.9986 284.703 27.2816C284.41 27.5647 284.232 27.9467 284.205 28.3536C284.192 28.7783 284.349 29.1907 284.639 29.5006C284.93 29.8105 285.332 29.9928 285.756 30.0076L285.753 30.0106Z" fill="black" fill-opacity="0.08"/>
<path d="M431.443 23.4868C433.285 23.3115 435.158 25.1732 435.056 27.1354C434.955 29.2039 433.441 30.7982 431.396 30.784C429.402 30.7657 427.721 29.061 427.739 27.0857C427.758 25.0415 429.369 23.4797 431.443 23.4868ZM431.433 25.528C431.223 25.523 431.014 25.5611 430.819 25.6397C430.624 25.7184 430.447 25.8361 430.299 25.9855C430.151 26.135 430.035 26.3131 429.959 26.5089C429.882 26.7047 429.846 26.9141 429.853 27.1242C429.858 27.4337 429.954 27.7349 430.129 27.99C430.305 28.2451 430.551 28.4428 430.838 28.5583C431.126 28.6738 431.44 28.7019 431.743 28.6392C432.047 28.5765 432.324 28.4257 432.542 28.2057C432.76 27.9858 432.908 27.7064 432.967 27.4027C433.027 27.099 432.996 26.7844 432.877 26.4985C432.759 26.2125 432.559 25.9679 432.302 25.7952C432.045 25.6226 431.743 25.5296 431.433 25.528Z" fill="black" fill-opacity="0.08"/>
<path d="M321.185 40.176H328.067C328.303 40.176 328.541 40.1608 328.776 40.1841C329.342 40.2399 329.744 40.6453 329.758 41.148C329.772 41.6507 329.393 42.0966 328.838 42.1827C328.602 42.207 328.365 42.2135 328.129 42.202H314.157C313.92 42.2139 313.682 42.2058 313.447 42.1777C313.195 42.1374 312.967 42.0067 312.804 41.8101C312.642 41.6135 312.556 41.3644 312.564 41.1094C312.59 40.8739 312.695 40.6541 312.862 40.4865C313.029 40.3189 313.249 40.2137 313.485 40.1882C313.721 40.1697 313.958 40.166 314.194 40.177L321.185 40.176Z" fill="black" fill-opacity="0.08"/>
<path d="M261.434 74.3653H268.326C268.597 74.3532 268.867 74.3589 269.137 74.3825C269.666 74.4535 270.009 74.8275 270.034 75.318C270.061 75.844 269.708 76.2808 269.147 76.372C268.912 76.397 268.674 76.4031 268.438 76.3903C263.78 76.3903 259.121 76.3903 254.463 76.3903C254.226 76.4025 253.989 76.3964 253.753 76.372C253.223 76.2899 252.804 75.8004 252.831 75.3302C252.856 74.8771 253.245 74.4575 253.743 74.3836C253.979 74.3596 254.216 74.3535 254.452 74.3653H261.434Z" fill="black" fill-opacity="0.08"/>
<path d="M468.194 63.5148C468.508 63.753 468.881 63.9121 469.04 64.1928C469.178 64.4351 469.141 64.8364 469.056 65.1273C468.985 65.3614 468.727 65.5438 468.536 65.7354C465.22 69.0556 461.901 72.3748 458.58 75.693C458.421 75.8679 458.248 76.0302 458.064 76.1784C457.876 76.3264 457.641 76.4005 457.402 76.3869C457.163 76.3733 456.937 76.2728 456.768 76.1045C456.597 75.9375 456.49 75.7154 456.467 75.4774C456.444 75.2395 456.505 75.001 456.641 74.8041C456.716 74.6939 456.803 74.592 456.899 74.5001C460.361 71.0353 463.825 67.5739 467.291 64.1158C467.518 63.8898 467.832 63.7509 468.194 63.5148Z" fill="black" fill-opacity="0.08"/>
<path d="M1200 30.2103C1200.8 29.3559 1201.12 29.3367 1201.99 30.1191C1202.72 30.7677 1203.43 31.4296 1204.19 32.1279C1204.87 31.4123 1205.49 30.7556 1206.11 30.1009C1206.26 29.9216 1206.43 29.7555 1206.61 29.6042C1207.07 29.2627 1207.63 29.3002 1207.99 29.6792C1208.35 30.0583 1208.39 30.5995 1207.99 31.0505C1207.44 31.687 1206.84 32.2829 1206.27 32.9032C1206.09 33.0978 1205.93 33.3147 1205.72 33.5792C1206.33 34.1589 1206.92 34.7092 1207.51 35.2636C1207.76 35.4867 1208 35.7264 1208.22 35.9812C1208.56 36.418 1208.54 36.8832 1208.21 37.2724C1207.85 37.694 1207.32 37.8024 1206.86 37.4315C1206.18 36.8832 1205.56 36.2589 1204.91 35.668C1204.72 35.4906 1204.52 35.3173 1204.26 35.0883L1202.64 36.7869C1202.41 37.0301 1202.19 37.2936 1201.94 37.5126C1201.4 37.9727 1200.93 37.9686 1200.5 37.5338C1200.11 37.1284 1200.08 36.572 1200.5 36.0774C1201.05 35.4389 1201.65 34.84 1202.23 34.2217C1202.38 34.0525 1202.53 33.8741 1202.69 33.6846C1201.77 32.7066 1200.89 31.7589 1200 30.8164L1200 30.2103Z" fill="black" fill-opacity="0.08"/>
<path d="M1230.98 13.0822C1230.98 15.0416 1230.98 17.001 1230.98 18.9605C1230.99 19.2635 1230.98 19.5668 1230.93 19.8665C1230.84 20.3267 1230.59 20.6773 1230.08 20.7442C1229.78 20.7947 1229.48 20.8262 1229.18 20.8385C1225.19 20.8459 1221.21 20.8459 1217.23 20.8385C1217.06 20.8443 1216.89 20.8399 1216.72 20.8253C1215.92 20.724 1215.6 20.4098 1215.48 19.6091C1215.46 19.3735 1215.45 19.1364 1215.46 18.8997C1215.45 14.9524 1215.45 11.0042 1215.44 7.05493C1215.44 6.88669 1215.44 6.71642 1215.45 6.54818C1215.52 5.71002 1215.89 5.34111 1216.74 5.3178C1217.89 5.28739 1219.04 5.28029 1220.19 5.28333C1223.19 5.29144 1226.2 5.30496 1229.2 5.32388C1229.33 5.32388 1229.47 5.31881 1229.61 5.32388C1230.56 5.37861 1230.96 5.74955 1230.98 6.70021C1231.01 7.77958 1230.99 8.85997 1230.99 9.94339L1230.98 13.0822ZM1217.68 7.50796V18.623H1228.73C1228.94 17.2041 1228.88 8.19309 1228.66 7.50999L1217.68 7.50796Z" fill="black" fill-opacity="0.08"/>
<path d="M1374.42 -1.36514C1376.41 -1.36514 1378.4 -1.36514 1380.39 -1.36514C1380.69 -1.37148 1380.99 -1.34292 1381.29 -1.28001C1381.76 -1.16548 1382.04 -0.852306 1382.06 -0.344544C1382.06 -0.141846 1382.06 0.060854 1382.06 0.263554C1382.06 4.34592 1382.06 8.42794 1382.06 12.5096C1382.06 13.8059 1381.76 14.1403 1380.48 14.1434C1376.43 14.1542 1372.38 14.1542 1368.33 14.1434C1367.01 14.1434 1366.66 13.7816 1366.66 12.461C1366.65 8.55024 1366.63 4.63915 1366.62 0.72773C1366.62 0.45814 1366.61 0.187536 1366.62 -0.0830669C1366.67 -0.995214 1367.02 -1.36311 1367.94 -1.37527C1369.32 -1.39352 1370.7 -1.37527 1372.08 -1.3702L1374.42 -1.36514ZM1379.83 11.9512C1380.05 11.2559 1380.11 2.1294 1379.9 0.854417H1368.85V11.9512H1379.83Z" fill="black" fill-opacity="0.08"/>
<path d="M1312.83 12.0008H1320.83C1321.07 12.0008 1321.3 12.0069 1321.54 12.0008C1322.42 11.9937 1323.07 12.8288 1322.52 13.7653C1321.14 16.0842 1319.81 18.4375 1318.46 20.7767C1317.01 23.2901 1315.57 25.8036 1314.11 28.3171C1313.99 28.558 1313.85 28.7891 1313.69 29.0083C1313.23 29.5819 1312.51 29.5839 1312.06 28.991C1311.77 28.6171 1311.55 28.1924 1311.32 27.784C1309.68 24.9509 1308.04 22.1175 1306.4 19.2838C1305.42 17.5933 1304.42 15.9139 1303.43 14.2285C1303.28 14.003 1303.15 13.7657 1303.05 13.519C1302.77 12.7964 1303.15 12.1437 1303.92 12.019C1304.19 11.9905 1304.46 11.9834 1304.73 11.9978L1312.83 12.0008ZM1305.88 14.2112L1312.87 26.3195C1315.25 22.1864 1317.55 18.251 1319.83 14.2112H1305.88Z" fill="black" fill-opacity="0.08"/>
<path d="M1385.45 64.7959L1385.62 64.1401C1386.21 61.9226 1386.8 59.7061 1387.38 57.4875C1388 55.1403 1388.59 52.789 1389.21 50.4427C1389.44 49.564 1389.69 48.6904 1389.97 47.8228C1390.3 46.7729 1391.08 46.56 1391.88 47.3343C1393.21 48.6276 1394.52 49.9563 1395.83 51.2697L1403.79 59.2237C1403.96 59.3839 1404.13 59.5531 1404.28 59.7304C1404.78 60.3436 1404.6 61.0672 1403.88 61.3814C1403.59 61.4868 1403.3 61.5722 1403 61.6368L1387.47 65.8185C1387.21 65.9004 1386.95 65.9681 1386.69 66.0212C1385.94 66.1347 1385.43 65.6756 1385.45 64.7959ZM1401.23 59.9595L1391.5 50.236C1390.35 54.5251 1389.16 58.9257 1387.92 63.53L1401.23 59.9595Z" fill="black" fill-opacity="0.08"/>
<path d="M1242.8 51.2424C1242.8 53.9747 1242.8 56.7068 1242.8 59.4385C1242.8 61.2071 1242.15 61.5952 1240.64 60.7287C1235.88 57.9848 1231.12 55.2386 1226.36 52.49C1226.18 52.3975 1226.01 52.2928 1225.84 52.1768C1225.16 51.6467 1225.2 50.8349 1225.95 50.3576C1226.46 50.0312 1227 49.7424 1227.53 49.4404C1231.88 46.9404 1236.24 44.4421 1240.59 41.9456C1240.77 41.8442 1240.94 41.7327 1241.12 41.6415C1242.05 41.1895 1242.73 41.5918 1242.74 42.6368C1242.75 45.505 1242.74 48.3721 1242.74 51.2403L1242.8 51.2424ZM1240.65 44.4864C1239.69 44.7833 1229.19 50.8765 1228.72 51.3944C1230.56 52.6967 1239.93 57.971 1240.65 58.1017V44.4864Z" fill="black" fill-opacity="0.08"/>
<path d="M1334.22 40.176C1338.06 40.1233 1341.91 43.2499 1341.9 47.9434C1341.89 51.968 1338.87 55.6632 1334.15 55.646C1329.2 55.6257 1326.42 51.741 1326.37 47.9434C1326.3 43.7465 1329.63 40.0898 1334.22 40.176ZM1334.14 53.5491C1334.89 53.5533 1335.62 53.411 1336.31 53.1301C1337 52.8493 1337.63 52.4354 1338.16 51.9122C1338.69 51.389 1339.11 50.7667 1339.39 50.0808C1339.68 49.395 1339.83 48.659 1339.84 47.915C1339.85 44.8229 1337.27 42.2091 1334.17 42.2202C1331.23 42.2314 1328.41 44.605 1328.49 48.1998C1328.56 51.0954 1331.11 53.547 1334.14 53.5491Z" fill="black" fill-opacity="0.08"/>
<path d="M1340.24 6.96271C1340.17 5.90665 1340.61 5.09383 1341.39 4.4756C1341.89 4.07932 1342.46 3.7773 1343 3.43676C1343.52 3.11447 1344.08 2.84893 1344.54 2.46684C1345.69 1.51923 1345.66 -0.00710297 1344.49 -0.925331C1344.04 -1.27499 1343.51 -1.52836 1343.03 -1.83241C1342.49 -2.17294 1341.92 -2.48307 1341.42 -2.87225C1339.67 -4.22426 1339.88 -6.85124 1341.62 -7.98636C1342.35 -8.46473 1343.12 -8.89851 1343.88 -9.33735C1344.73 -9.8441 1345.36 -10.4654 1345.4 -11.5579C1345.4 -11.6936 1345.43 -11.8269 1345.49 -11.9496C1345.55 -12.0722 1345.63 -12.1816 1345.73 -12.2709C1345.84 -12.3602 1345.96 -12.4275 1346.08 -12.4685C1346.21 -12.5096 1346.35 -12.5236 1346.49 -12.5096C1346.99 -12.4549 1347.37 -12.0383 1347.4 -11.4616C1347.45 -10.1938 1346.94 -9.14276 1345.99 -8.34615C1345.43 -7.87386 1344.76 -7.51812 1344.14 -7.12286C1343.77 -6.88975 1343.36 -6.71746 1343 -6.46105C1341.99 -5.73842 1342 -4.93574 1343.04 -4.20703C1343.43 -3.93744 1343.86 -3.73373 1344.26 -3.48846C1344.75 -3.19252 1345.25 -2.91584 1345.71 -2.57631C1348.09 -0.823979 1347.91 2.64319 1345.67 4.1908C1345.17 4.53641 1344.65 4.83741 1344.13 5.15261C1343.75 5.38065 1343.36 5.57524 1343 5.82354C1341.98 6.52488 1341.98 7.38128 1343.03 8.06945C1343.65 8.47485 1344.33 8.78599 1344.96 9.1772C1346.01 9.83192 1346.92 10.6285 1347.24 11.8944C1347.34 12.285 1347.39 12.6874 1347.38 13.0903C1347.37 13.3457 1347.28 13.5908 1347.1 13.7771C1346.93 13.9634 1346.69 14.0775 1346.43 14.0967C1345.98 14.116 1345.42 13.7663 1345.41 13.2798C1345.39 11.8103 1344.37 11.1941 1343.29 10.5819C1342.61 10.2112 1341.95 9.79043 1341.34 9.32314C1340.58 8.73329 1340.17 7.9377 1340.24 6.96271Z" fill="black" fill-opacity="0.08"/>
<path d="M1302.53 71.2387C1302.56 70.1319 1302.97 69.3008 1303.76 68.6928C1304.27 68.3046 1304.84 67.9995 1305.38 67.6549C1305.91 67.3103 1306.46 66.9759 1306.99 66.6151C1307.9 65.9928 1307.95 64.1492 1307.04 63.4844C1306.55 63.1276 1306.04 62.8064 1305.53 62.478C1304.94 62.0939 1304.29 61.7787 1303.75 61.3317C1302.09 59.9544 1302.13 57.6892 1303.82 56.3656C1304.32 55.9734 1304.9 55.6795 1305.45 55.3389C1305.93 55.0349 1306.44 54.7582 1306.89 54.4136C1307.34 54.069 1307.7 53.5967 1307.68 52.9572C1307.68 52.8222 1307.7 52.6878 1307.74 52.5589C1307.9 51.9964 1308.33 51.6863 1308.85 51.741C1309.12 51.7765 1309.37 51.9156 1309.54 52.129C1309.71 52.3424 1309.79 52.6138 1309.77 52.8863C1309.7 54.1217 1309.24 55.192 1308.25 55.9551C1307.66 56.4041 1307.01 56.7659 1306.38 57.1592C1305.95 57.4288 1305.49 57.6467 1305.1 57.9619C1304.4 58.5264 1304.41 59.2926 1305.13 59.8399C1305.61 60.2037 1306.18 60.448 1306.68 60.7885C1307.38 61.2598 1308.11 61.7006 1308.71 62.2804C1310.15 63.6841 1310.13 66.4205 1308.7 67.7745C1308.07 68.3694 1307.31 68.8265 1306.59 69.3181C1306.15 69.6221 1305.64 69.836 1305.21 70.1532C1304.4 70.7502 1304.39 71.5579 1305.19 72.1559C1305.6 72.4599 1306.06 72.6677 1306.48 72.9474C1307.18 73.4106 1307.91 73.8484 1308.55 74.3835C1309.37 75.0666 1309.69 76.0284 1309.77 77.0734C1309.81 77.6936 1309.46 78.1882 1308.94 78.2895C1308.35 78.399 1307.76 78.0473 1307.73 77.3683C1307.68 76.1227 1306.89 75.5369 1305.96 74.9967C1305.2 74.5589 1304.43 74.1271 1303.73 73.6052C1303.36 73.3324 1303.05 72.9759 1302.85 72.5647C1302.64 72.1535 1302.53 71.6991 1302.53 71.2387Z" fill="black" fill-opacity="0.08"/>
<path d="M1267.89 12.6039C1267.77 17.5153 1264.28 20.5294 1260.88 20.7169C1260.55 20.752 1260.22 20.7588 1259.89 20.7372C1259.38 20.6754 1259.12 20.2913 1259.09 19.8251C1259.06 19.6035 1259.12 19.38 1259.24 19.1949C1259.37 19.0099 1259.55 18.8757 1259.77 18.8166C1260.02 18.7423 1260.29 18.6998 1260.56 18.6899C1263.07 18.5349 1265.25 16.5808 1265.7 14.1393C1266.38 10.4684 1263.47 7.47458 1260.5 7.45837C1260.36 7.45801 1260.23 7.44408 1260.09 7.41681C1259.38 7.26478 1259 6.80871 1259.08 6.2523C1259.16 5.69589 1259.68 5.2834 1260.34 5.32698C1263.83 5.554 1266.27 7.59519 1267.29 10.2485C1267.64 11.1505 1267.77 12.1306 1267.89 12.6039Z" fill="black" fill-opacity="0.08"/>
<path d="M1421.81 25.1266C1419.22 25.1753 1415.97 22.4824 1415.28 18.9331C1415.17 18.4431 1415.11 17.9422 1415.12 17.4402C1415.15 16.7308 1415.58 16.3659 1416.22 16.3984C1416.8 16.4288 1417.1 16.7784 1417.14 17.4686C1417.33 20.6713 1419.74 23.0601 1422.78 23.0814C1424.21 23.0913 1425.59 22.5601 1426.65 21.594C1427.7 20.628 1428.36 19.2985 1428.47 17.872C1428.49 17.6693 1428.47 17.4666 1428.5 17.2639C1428.62 16.6882 1429.01 16.3771 1429.57 16.3953C1430.13 16.4136 1430.47 16.7328 1430.5 17.3693C1430.59 19.1693 1429.99 20.7625 1428.9 22.152C1427.34 24.1243 1425.28 25.1185 1421.81 25.1266Z" fill="black" fill-opacity="0.08"/>
<path d="M1357.53 69.9728C1357.71 72.9697 1355.56 76.6406 1351.47 77.5517C1350.92 77.6743 1350.33 77.6531 1349.76 77.6672C1349.25 77.6814 1348.95 77.3784 1348.84 76.899C1348.72 76.4196 1348.96 75.9636 1349.47 75.7771C1349.73 75.6983 1349.99 75.6557 1350.26 75.6504C1353.14 75.4528 1355.43 73.0751 1355.51 70.2028C1355.58 67.2738 1353.51 64.8131 1350.63 64.4259C1350.32 64.3854 1350.03 64.3469 1349.73 64.2911C1349.16 64.1827 1348.86 63.8725 1348.82 63.379C1348.79 62.8408 1349.11 62.4263 1349.69 62.3016C1349.85 62.2709 1350.02 62.2617 1350.19 62.2743C1354.26 62.4395 1357.53 65.8701 1357.53 69.9728Z" fill="black" fill-opacity="0.08"/>
<path d="M1281.7 0.708418C1282.45 1.40874 1283.14 2.0513 1283.82 2.70501C1284.02 2.88734 1284.19 3.0913 1284.35 3.31311C1284.61 3.71141 1284.5 4.10059 1284.2 4.42086C1283.9 4.74112 1283.54 4.93977 1283.12 4.69754C1282.8 4.50806 1282.51 4.2859 1282.24 4.03471C1281.59 3.45195 1280.96 2.84791 1280.28 2.21042C1279.6 2.91987 1278.98 3.57763 1278.36 4.22931C1278.17 4.42289 1278 4.6418 1277.78 4.79382C1277.59 4.93337 1277.35 4.99752 1277.11 4.97418C1276.88 4.95085 1276.66 4.84163 1276.49 4.66714C1276.14 4.30836 1276.07 3.79857 1276.41 3.37899C1276.85 2.82866 1277.36 2.32596 1277.84 1.80199L1278.69 0.856391C1278.03 0.170254 1277.42 -0.455074 1276.81 -1.07635C1276.67 -1.22026 1276.51 -1.33986 1276.37 -1.48783C1275.91 -1.9814 1275.87 -2.50132 1276.26 -2.93409C1276.64 -3.36685 1277.2 -3.39522 1277.7 -2.99996C1278.1 -2.68578 1278.46 -2.32294 1278.83 -1.97937C1279.08 -1.75032 1279.32 -1.51519 1279.57 -1.28816C1279.74 -1.13107 1279.93 -0.984118 1280.18 -0.765203C1280.66 -1.24661 1281.12 -1.71586 1281.58 -2.19018C1281.84 -2.45673 1282.08 -2.74253 1282.35 -3.00098C1282.9 -3.54117 1283.52 -3.6182 1283.95 -3.21786C1284.44 -2.75875 1284.39 -2.19423 1283.79 -1.54154C1283.24 -0.946616 1282.68 -0.359802 1282.13 0.23208C1282.01 0.349646 1281.9 0.478355 1281.7 0.708418Z" fill="black" fill-opacity="0.08"/>
<path d="M1433.28 40.7973L1435.15 38.825C1435.3 38.6456 1435.47 38.4763 1435.64 38.3183C1436.12 37.9291 1436.73 37.9554 1437.1 38.3598C1437.46 38.75 1437.48 39.272 1437.08 39.7341C1436.6 40.2976 1436.08 40.8256 1435.57 41.3689L1434.81 42.1918C1435.28 42.6449 1435.7 43.0604 1436.13 43.4739C1436.49 43.8266 1436.87 44.16 1437.21 44.533C1437.68 45.0448 1437.69 45.5465 1437.29 45.9681C1436.92 46.3502 1436.3 46.3938 1435.82 45.9914C1435.16 45.4239 1434.53 44.8056 1433.89 44.2097C1433.74 44.0729 1433.59 43.9401 1433.38 43.7476C1432.81 44.3455 1432.26 44.9242 1431.71 45.5019C1431.48 45.7567 1431.25 45.998 1431 46.2245C1430.8 46.3892 1430.56 46.4778 1430.3 46.4739C1430.05 46.47 1429.8 46.3738 1429.61 46.2033C1429.23 45.8303 1429.16 45.2911 1429.54 44.833C1430.06 44.2107 1430.63 43.6381 1431.18 43.0442C1431.38 42.8243 1431.59 42.6053 1431.73 42.4503C1431.1 41.755 1430.5 41.0881 1429.9 40.4284C1429.76 40.2804 1429.59 40.1669 1429.45 40.0179C1429 39.5111 1428.97 39.0044 1429.37 38.5747C1429.77 38.1449 1430.29 38.1064 1430.81 38.527C1431.25 38.8878 1431.66 39.2953 1432.08 39.6834C1432.45 40.024 1432.82 40.3686 1433.28 40.7973Z" fill="black" fill-opacity="0.08"/>
<path d="M1359.58 34.918C1358.98 35.5443 1358.4 36.1484 1357.83 36.7554C1357.64 36.951 1357.48 37.17 1357.28 37.3473C1356.78 37.7831 1356.25 37.7892 1355.83 37.3879C1355.41 36.9865 1355.38 36.4301 1355.8 35.9416C1356.28 35.3801 1356.81 34.8561 1357.32 34.32L1357.91 33.6815C1357.28 32.9619 1356.69 32.2819 1356.08 31.6109C1355.9 31.4082 1355.67 31.2592 1355.51 31.0464C1355.35 30.8436 1355.28 30.5894 1355.3 30.3347C1355.33 30.08 1355.45 29.8437 1355.64 29.6731C1355.81 29.5021 1356.03 29.4027 1356.27 29.3955C1356.51 29.3883 1356.75 29.474 1356.92 29.6346C1357.52 30.1302 1358.06 30.6826 1358.63 31.2086C1358.88 31.4346 1359.13 31.6545 1359.46 31.9504C1359.98 31.4214 1360.48 30.937 1360.96 30.4363C1361.2 30.1951 1361.4 29.9204 1361.64 29.6853C1362.21 29.1187 1362.77 29.0559 1363.23 29.4826C1363.69 29.9093 1363.68 30.4961 1363.15 31.0819C1362.65 31.6312 1362.13 32.1633 1361.63 32.7035L1361.01 33.3673C1361.51 33.868 1362.01 34.3575 1362.5 34.8389C1362.77 35.0963 1363.06 35.3254 1363.32 35.593C1363.86 36.1544 1363.89 36.7585 1363.45 37.1923C1363.03 37.5977 1362.45 37.5713 1361.91 37.0909C1361.31 36.5507 1360.73 35.9842 1360.14 35.4318C1359.98 35.2707 1359.8 35.1197 1359.58 34.918Z" fill="black" fill-opacity="0.08"/>
<path d="M1245.85 32.067C1243.8 32.0822 1242.16 30.4971 1242.13 28.4722C1242.12 27.7441 1242.32 27.0277 1242.71 26.414C1243.1 25.8003 1243.67 25.3169 1244.34 25.0252C1245 24.7334 1245.74 24.6466 1246.46 24.7755C1247.18 24.9045 1247.84 25.2435 1248.36 25.7496C1248.89 26.2556 1249.25 26.9058 1249.4 27.6177C1249.55 28.3296 1249.49 29.071 1249.22 29.7479C1248.96 30.4248 1248.49 31.0067 1247.89 31.4196C1247.29 31.8325 1246.58 32.0578 1245.85 32.067ZM1245.75 30.0106C1246.18 30.0181 1246.59 29.8579 1246.9 29.5648C1247.21 29.2717 1247.39 28.8691 1247.4 28.4438C1247.42 27.5955 1246.64 26.8171 1245.79 26.8222C1245.39 26.8348 1245 26.9986 1244.7 27.2816C1244.41 27.5647 1244.23 27.9467 1244.2 28.3536C1244.19 28.7783 1244.35 29.1907 1244.64 29.5006C1244.93 29.8105 1245.33 29.9928 1245.76 30.0076L1245.75 30.0106Z" fill="black" fill-opacity="0.08"/>
<path d="M1391.44 23.4868C1393.28 23.3115 1395.16 25.1732 1395.06 27.1354C1394.96 29.2039 1393.44 30.7982 1391.4 30.784C1389.4 30.7657 1387.72 29.061 1387.74 27.0857C1387.76 25.0415 1389.37 23.4797 1391.44 23.4868ZM1391.43 25.528C1391.22 25.523 1391.01 25.5611 1390.82 25.6397C1390.62 25.7184 1390.45 25.8361 1390.3 25.9855C1390.15 26.135 1390.04 26.3131 1389.96 26.5089C1389.88 26.7047 1389.85 26.9141 1389.85 27.1242C1389.86 27.4337 1389.95 27.7349 1390.13 27.99C1390.3 28.2451 1390.55 28.4428 1390.84 28.5583C1391.13 28.6738 1391.44 28.7019 1391.74 28.6392C1392.05 28.5765 1392.32 28.4257 1392.54 28.2057C1392.76 27.9858 1392.91 27.7064 1392.97 27.4027C1393.03 27.099 1393 26.7844 1392.88 26.4985C1392.76 26.2125 1392.56 25.9679 1392.3 25.7952C1392.04 25.6226 1391.74 25.5296 1391.43 25.528Z" fill="black" fill-opacity="0.08"/>
<path d="M1281.19 40.176H1288.07C1288.3 40.176 1288.54 40.1608 1288.78 40.1841C1289.34 40.2399 1289.74 40.6453 1289.76 41.148C1289.77 41.6507 1289.39 42.0966 1288.84 42.1827C1288.6 42.207 1288.37 42.2135 1288.13 42.202H1274.16C1273.92 42.2139 1273.68 42.2058 1273.45 42.1777C1273.2 42.1374 1272.97 42.0067 1272.8 41.8101C1272.64 41.6135 1272.56 41.3644 1272.56 41.1094C1272.59 40.8739 1272.69 40.6541 1272.86 40.4865C1273.03 40.3189 1273.25 40.2137 1273.48 40.1882C1273.72 40.1697 1273.96 40.166 1274.19 40.177L1281.19 40.176Z" fill="black" fill-opacity="0.08"/>
<path d="M1221.43 74.3653H1228.33C1228.6 74.3532 1228.87 74.3589 1229.14 74.3825C1229.67 74.4535 1230.01 74.8275 1230.03 75.318C1230.06 75.844 1229.71 76.2808 1229.15 76.372C1228.91 76.397 1228.67 76.4031 1228.44 76.3903C1223.78 76.3903 1219.12 76.3903 1214.46 76.3903C1214.23 76.4025 1213.99 76.3964 1213.75 76.372C1213.22 76.2899 1212.8 75.8004 1212.83 75.3302C1212.86 74.8771 1213.25 74.4575 1213.74 74.3836C1213.98 74.3596 1214.22 74.3535 1214.45 74.3653H1221.43Z" fill="black" fill-opacity="0.08"/>
<path d="M1428.19 63.5148C1428.51 63.753 1428.88 63.9121 1429.04 64.1928C1429.18 64.4351 1429.14 64.8364 1429.06 65.1273C1428.99 65.3614 1428.73 65.5438 1428.54 65.7354C1425.22 69.0556 1421.9 72.3748 1418.58 75.693C1418.42 75.8679 1418.25 76.0302 1418.06 76.1784C1417.88 76.3264 1417.64 76.4005 1417.4 76.3869C1417.16 76.3733 1416.94 76.2728 1416.77 76.1045C1416.6 75.9375 1416.49 75.7154 1416.47 75.4774C1416.44 75.2395 1416.51 75.001 1416.64 74.8041C1416.72 74.6939 1416.8 74.592 1416.9 74.5001C1420.36 71.0353 1423.82 67.5739 1427.29 64.1158C1427.52 63.8898 1427.83 63.7509 1428.19 63.5148Z" fill="black" fill-opacity="0.08"/>
<path d="M175.059 -8.59197C172.967 -8.59197 170.876 -8.59197 168.785 -8.59197C167.606 -8.59197 167.411 -8.39739 167.4 -7.2572C167.361 -3.24781 167.323 0.761245 167.287 4.76996C167.287 5.00611 167.28 5.24225 167.287 5.47941C167.328 6.45338 167.675 6.81925 168.657 6.82128C172.906 6.82736 177.154 6.82263 181.403 6.80709C182.398 6.80709 182.793 6.38648 182.796 5.36184C182.808 1.17813 182.808 -3.00491 182.796 -7.18727C182.796 -8.31529 182.492 -8.58792 181.33 -8.59096C179.242 -8.59602 177.15 -8.59197 175.059 -8.59197ZM180.633 4.61388H169.545C169.334 3.12505 169.391 -5.80384 169.601 -6.491H180.629L180.633 4.61388Z" fill="black" fill-opacity="0.08"/>
<path d="M23.1453 71.5422C25.2736 71.5422 27.3959 71.5483 29.5212 71.5422C30.6056 71.5371 30.9735 71.1834 30.9766 70.0817C30.9901 65.9325 30.9901 61.7829 30.9766 57.633C30.9766 56.4766 30.6168 56.1431 29.4492 56.1421C25.3 56.138 21.1504 56.138 17.0004 56.1421C15.8106 56.1421 15.5876 56.3752 15.5765 57.561L15.464 69.5882C15.464 69.7909 15.4589 69.9936 15.464 70.1962C15.4964 71.2716 15.7782 71.5584 16.8768 71.5645C18.9656 71.5746 21.0544 71.5645 23.1432 71.5645L23.1453 71.5422ZM28.7448 58.2654C28.9526 59.8525 28.8776 68.7175 28.6678 69.3976H17.6582V58.2644L28.7448 58.2654Z" fill="black" fill-opacity="0.08"/>
<path d="M127.564 1.81362C130.298 1.81362 133.035 1.81362 135.773 1.81362C136.044 1.8292 136.315 1.818 136.584 1.78018C137.215 1.65147 137.544 1.09101 137.35 0.478853C137.265 0.258326 137.158 0.0473509 137.029 -0.150536C134.284 -4.91397 131.498 -9.66219 128.813 -14.4621C127.976 -15.959 127.03 -15.8415 126.289 -14.4793C124.61 -11.3983 122.804 -8.3862 121.042 -5.35078C120.076 -3.68966 119.091 -2.03969 118.117 -0.384647C117.971 -0.157351 117.841 0.07969 117.728 0.3248C117.424 1.05756 117.789 1.70215 118.565 1.8116C118.834 1.83791 119.105 1.84536 119.376 1.8339H127.563L127.564 1.81362ZM134.573 -0.246813C129.78 -0.252894 125.232 -0.234646 120.503 -0.267078L127.539 -12.4524L134.573 -0.246813Z" fill="black" fill-opacity="0.08"/>
<path d="M76.6994 30.5969H84.8074C85.0777 30.6078 85.3484 30.6034 85.6182 30.5837C86.4067 30.4885 86.7877 29.8439 86.4492 29.1182C86.1928 28.5689 85.8634 28.0541 85.5604 27.5281C83.0165 23.1133 80.472 18.6988 77.9267 14.2847C77.8209 14.0746 77.7017 13.8715 77.57 13.6766C77.1149 13.0796 76.4217 13.0543 75.9312 13.6188C75.7874 13.8059 75.6615 14.0061 75.5551 14.2168C73.964 16.9613 72.3728 19.7055 70.7816 22.4494C69.612 24.4592 68.4272 26.4608 67.2536 28.4686C67.0905 28.7239 66.9546 28.9957 66.8482 29.2794C66.7989 29.4144 66.7799 29.5586 66.7926 29.7018C66.8053 29.845 66.8493 29.9837 66.9216 30.108C66.9938 30.2322 67.0925 30.3391 67.2107 30.421C67.3288 30.5028 67.4635 30.5577 67.6053 30.5817C67.9074 30.6233 68.2129 30.6362 68.5174 30.6202C71.2485 30.6202 73.9802 30.6202 76.7126 30.6202L76.6994 30.5969ZM76.667 16.408C78.3078 18.7714 83.3722 27.7774 83.4756 28.4736H69.7052C72.0525 24.4034 74.3329 20.4528 76.667 16.408Z" fill="black" fill-opacity="0.08"/>
<path d="M191.52 40.2129C191.555 40.3599 191.616 40.6558 191.694 40.9477C192.248 43.0325 192.817 45.1152 193.362 47.203C194.009 49.68 194.629 52.1692 195.277 54.6411C195.516 55.5532 195.779 56.4573 196.073 57.3522C196.353 58.2045 197.128 58.4154 197.832 57.8589C198.01 57.7031 198.179 57.5376 198.339 57.3633C202.184 53.5188 206.029 49.674 209.874 45.8287C211.081 44.6207 210.897 43.9284 209.24 43.4825C203.934 42.0501 198.626 40.6234 193.317 39.2025C193.06 39.1228 192.794 39.0745 192.526 39.0586C191.879 39.0464 191.54 39.4042 191.52 40.2129ZM207.484 45.1578C206.414 46.525 198.261 54.5448 197.552 54.9076C196.477 50.4675 195.119 46.1247 194.036 41.5447L207.484 45.1578Z" fill="black" fill-opacity="0.08"/>
<path d="M137.602 70.477C137.594 66.2598 134.017 62.7744 129.805 62.817C127.755 62.8309 125.794 63.6542 124.348 65.1075C122.902 66.5608 122.09 68.5265 122.087 70.5763C122.041 74.5127 124.938 78.3316 129.881 78.3093C134.9 78.286 137.699 74.1529 137.602 70.477ZM124.224 70.5723C124.061 67.6615 126.571 65.0335 129.65 64.8967C132.729 64.7598 135.382 67.2014 135.539 70.3493C135.69 73.3584 133.3 75.9722 130.289 76.2205C127.392 76.4546 124.215 74.1317 124.221 70.5723H124.224Z" fill="black" fill-opacity="0.08"/>
<path d="M217.524 -0.0643945C217.533 3.61662 220.297 7.58952 225.306 7.58952C229.874 7.58952 233.104 3.9683 233.052 -0.227578C232.995 -4.81872 229.296 -7.98691 225.169 -7.90481C220.865 -7.81968 217.586 -4.39202 217.524 -0.0643945ZM219.701 0.05722C219.469 -2.98327 221.785 -5.55653 224.982 -5.81497C227.998 -6.05821 230.709 -3.68663 230.944 -0.587362C231.056 0.8916 230.584 2.35542 229.63 3.4908C228.675 4.62617 227.315 5.34288 225.838 5.48753C222.568 5.7936 219.599 3.03082 219.701 0.05722Z" fill="black" fill-opacity="0.08"/>
<path d="M17.9734 -0.213407C14.4576 -0.280298 10.3955 2.47135 10.2708 7.44458C10.1695 11.4986 13.1572 15.3032 18.0747 15.2617C23.1777 15.2181 25.8016 11.0435 25.7915 7.51755C25.7773 3.19904 22.1814 -0.319825 17.9734 -0.213407ZM18.0565 13.1647C15.4295 13.3076 12.3505 10.9959 12.3677 7.32195C12.3809 4.42842 15.0028 1.84298 18.0332 1.83285C21.1355 1.82271 23.7087 4.3899 23.7148 7.50843C23.7168 8.25172 23.5718 8.98807 23.2881 9.67509C23.0043 10.3621 22.5875 10.9862 22.0616 11.5115C21.5357 12.0367 20.911 12.4528 20.2237 12.7356C19.5363 13.0185 18.7998 13.1626 18.0565 13.1597V13.1647Z" fill="black" fill-opacity="0.08"/>
<path d="M57.1805 76.7485C58.3186 76.7667 59.1588 76.3684 59.7669 75.5799C60.2159 74.9951 60.5554 74.3272 60.9588 73.7059C61.2882 73.1992 61.5831 72.6539 61.9925 72.2191C62.8337 71.3263 64.127 71.3212 64.9469 72.2293C65.4141 72.7472 65.7354 73.3968 66.1236 73.9867C66.4925 74.5482 66.8046 75.1613 67.2455 75.661C68.6026 77.1984 70.8059 77.1437 72.0849 75.5343C72.5633 74.9323 72.9393 74.2411 73.3072 73.561C73.893 72.4806 74.5548 71.5654 75.9545 71.5127C76.4612 71.4945 76.8007 70.9807 76.7784 70.5256C76.7564 70.2523 76.6314 69.9976 76.4288 69.8128C76.2262 69.6281 75.9611 69.5271 75.6869 69.5303C74.8254 69.5253 73.9873 69.7391 73.3376 70.3128C72.7956 70.8125 72.3083 71.3687 71.8843 71.9719C71.5275 72.4573 71.2863 73.0269 70.9721 73.5478C70.0194 75.1482 69.1418 75.1329 68.1921 73.5053C67.8354 72.8972 67.5171 72.2577 67.131 71.6658C66.5229 70.7425 65.7546 70.0026 64.6509 69.6996C62.8733 69.2111 61.1899 69.7594 60.0801 71.2584C59.6007 71.905 59.2368 72.6357 58.8142 73.3259C58.6206 73.6411 58.4473 73.9776 58.2061 74.2522C57.6396 74.8968 56.917 74.8958 56.4011 74.2096C55.9957 73.6735 55.7261 73.0421 55.3471 72.4867C54.893 71.8218 54.443 71.1418 53.8917 70.5611C53.2167 69.8516 52.2964 69.579 51.3285 69.5253C50.8522 69.4979 50.4934 69.728 50.2613 70.1546C50.1667 70.3166 50.1295 70.5057 50.1556 70.6915C50.1817 70.8772 50.2697 71.0487 50.4052 71.1783C50.5876 71.3696 50.8302 71.4923 51.0924 71.5259C52.2366 71.6131 52.9035 72.3043 53.4305 73.2296C53.8643 73.9897 54.292 74.759 54.7977 75.4704C55.3987 76.3116 56.2379 76.7789 57.1805 76.7485Z" fill="black" fill-opacity="0.08"/>
<path d="M38.1379 15.8678C38.1126 16.8498 38.6294 17.692 39.4737 18.3376C40.0068 18.743 40.6179 19.0471 41.1905 19.4038C41.6486 19.6886 42.1382 19.938 42.5476 20.2815C43.5804 21.1481 43.6209 22.5791 42.6084 23.4669C42.1088 23.9058 41.4865 24.2058 40.9189 24.5676C40.3797 24.9122 39.795 25.2031 39.3075 25.6095C37.7872 26.8814 37.7183 28.9358 39.1544 30.308C39.5872 30.7216 40.1183 31.0378 40.626 31.3661C41.078 31.659 41.5594 31.9084 42.0297 32.1769C42.7858 32.6036 43.2114 33.2411 43.3472 34.1026C43.477 34.9387 43.8662 35.2722 44.4966 35.1779C45.0986 35.0877 45.4452 34.5566 45.3631 33.7945C45.2101 32.3918 44.4895 31.3297 43.3229 30.5746C42.6723 30.154 41.976 29.8043 41.3132 29.401C39.7737 28.4645 39.7929 27.602 41.3557 26.6645C42.0804 26.2328 42.8425 25.8537 43.5236 25.3652C45.956 23.6119 46.029 20.3991 43.6625 18.5586C42.9753 18.0245 42.1787 17.6292 41.4226 17.1863C39.7504 16.2063 39.7494 15.3306 41.4166 14.3485C42.2274 13.8691 43.0584 13.41 43.8206 12.8597C44.7753 12.1705 45.2212 11.154 45.3611 10.0047C45.3869 9.77064 45.3616 9.53379 45.2871 9.31044C45.129 8.84017 44.7753 8.61821 44.2736 8.6405C43.7719 8.6628 43.3858 8.93139 43.3726 9.42293C43.3381 10.779 42.4706 11.4499 41.4176 12.0185C40.7577 12.3583 40.1212 12.7415 39.5122 13.1658C38.6558 13.7931 38.1369 14.6394 38.1379 15.8678Z" fill="black" fill-opacity="0.08"/>
<path d="M171.923 43.5362C171.932 42.1549 171.194 41.1789 170.154 40.4035C169.615 39.9981 169.003 39.7012 168.426 39.3495C168.052 39.1215 167.655 38.9198 167.317 38.6461C166.641 38.0988 166.632 37.4299 167.287 36.8431C167.56 36.5989 167.895 36.4205 168.208 36.2239C168.922 35.7769 169.657 35.3614 170.355 34.8891C172.403 33.5006 172.508 30.0861 170.63 28.5041C170.213 28.1625 169.773 27.8496 169.313 27.5676C168.828 27.2635 168.306 27.0152 167.819 26.7122C166.446 25.8599 166.459 24.9893 167.855 24.1359C168.373 23.8197 168.934 23.5693 169.439 23.2359C169.954 22.9135 170.434 22.54 170.873 22.1211C171.619 21.3741 171.954 20.4528 171.946 19.3725C171.946 18.6944 171.518 18.3407 170.994 18.2667C170.546 18.2039 170.068 18.6427 169.935 19.186C169.911 19.3198 169.899 19.4555 169.899 19.5914C169.885 19.8824 169.801 20.1657 169.654 20.4172C169.507 20.6688 169.302 20.8813 169.055 21.0366C168.495 21.4096 167.889 21.7147 167.332 22.0907C166.724 22.5032 166.066 22.8923 165.56 23.4163C165.035 23.9571 164.74 24.6796 164.735 25.433C164.73 26.1863 165.016 26.9126 165.533 27.4602C166.059 28.0105 166.75 28.4139 167.385 28.8466C167.942 29.2247 168.547 29.5307 169.108 29.9037C170.145 30.5939 170.231 32.4374 169.143 33.2482C168.686 33.5918 168.179 33.8675 167.692 34.1695C167.148 34.508 166.562 34.7918 166.063 35.183C164.347 36.5441 164.293 38.7302 165.953 40.1562C166.484 40.6123 167.132 40.9336 167.728 41.3137C168.183 41.6035 168.659 41.863 169.093 42.1802C169.331 42.3422 169.528 42.5573 169.669 42.8087C169.81 43.0601 169.89 43.3407 169.904 43.6285C169.913 43.8959 169.986 44.1573 170.117 44.3906C170.339 44.7545 170.698 44.9906 171.143 44.872C171.588 44.7534 171.931 44.4798 171.918 43.9447C171.921 43.8099 171.923 43.6751 171.923 43.5362Z" fill="black" fill-opacity="0.08"/>
<path d="M90.6268 60.1778C90.6627 60.4075 90.7145 60.6344 90.7819 60.8569C90.9542 61.317 91.3049 61.5531 91.7954 61.5298C92.214 61.5106 92.7075 61.0667 92.7815 60.6461C92.7982 60.4777 92.8036 60.3084 92.7977 60.1393C92.9102 57.4252 95.1024 55.1093 97.7639 54.863C101.259 54.5387 103.471 56.9184 103.979 59.1988C104.08 59.6559 104.097 60.1312 104.166 60.5954C104.254 61.1863 104.632 61.5298 105.18 61.5319C105.307 61.5352 105.433 61.5133 105.552 61.4673C105.671 61.4214 105.779 61.3523 105.871 61.2642C105.963 61.176 106.036 61.0705 106.086 60.9538C106.137 60.8371 106.164 60.7115 106.166 60.5842C106.173 59.9122 106.099 59.2419 105.945 58.5876C105.043 55.0252 101.67 52.7428 98.5463 52.8036C94.468 52.8827 91.2116 55.6515 90.6897 59.665C90.6788 59.8337 90.6788 60.003 90.6897 60.1717L90.6268 60.1778Z" fill="black" fill-opacity="0.08"/>
<path d="M229.695 63.876C229.715 60.3095 227.167 56.6802 222.689 56.1491C222.386 56.1122 222.079 56.1166 221.777 56.1623C221.542 56.1996 221.327 56.3192 221.171 56.5C221.016 56.6808 220.93 56.911 220.928 57.1495C220.931 57.3873 221.018 57.6165 221.172 57.7975C221.326 57.9784 221.539 58.0998 221.773 58.1407C222.17 58.2116 222.573 58.2349 222.972 58.2907C225.353 58.6241 227.85 60.9339 227.613 64.3625C227.431 66.9895 225.264 69.1797 222.449 69.4766C222.247 69.4979 222.044 69.4939 221.841 69.5293C221.275 69.6307 220.911 70.0472 220.923 70.56C220.926 70.8165 221.031 71.0613 221.214 71.2409C221.397 71.4205 221.644 71.5205 221.9 71.5188C222.573 71.521 223.244 71.4451 223.9 71.2928C227.282 70.4506 229.686 67.3452 229.695 63.876Z" fill="black" fill-opacity="0.08"/>
<path d="M229.03 31.0894L227.332 32.711C227.088 32.9431 226.817 33.1529 226.599 33.4063C226.156 33.9212 226.161 34.4269 226.576 34.8525C226.992 35.2782 227.5 35.3157 228.019 34.8657C228.656 34.3144 229.252 33.7154 229.867 33.1428C230.036 32.9847 230.214 32.8387 230.475 32.6036C231.044 33.2026 231.595 33.7833 232.146 34.362C232.366 34.6177 232.601 34.8604 232.849 35.0887C233.335 35.4941 233.796 35.4819 234.213 35.1019C234.629 34.7218 234.695 34.1492 234.276 33.6546C233.752 33.0394 233.178 32.4658 232.627 31.8729C232.444 31.6773 232.264 31.4796 232.005 31.1969C232.591 30.6253 233.16 30.0689 233.733 29.5165C233.975 29.2824 234.252 29.0797 234.466 28.8233C234.879 28.3317 234.846 27.7692 234.425 27.374C234.033 27.0071 233.513 26.9746 233.052 27.374C232.366 27.9709 231.722 28.6155 231.057 29.2388C230.936 29.3523 230.808 29.4567 230.585 29.6503C230.016 29.0675 229.461 28.504 228.911 27.9334C228.701 27.7145 228.521 27.4642 228.298 27.2605C227.778 26.7861 227.192 26.778 226.771 27.2159C226.349 27.6537 226.347 28.1229 226.815 28.6581C227.371 29.2915 227.966 29.8905 228.538 30.5087C228.695 30.6698 228.836 30.8563 229.03 31.0894Z" fill="black" fill-opacity="0.08"/>
<path d="M52.3633 49.4571C51.7167 50.0712 51.1319 50.6266 50.5461 51.18C50.3495 51.3655 50.1316 51.5317 49.9532 51.7324C49.5387 52.1996 49.5134 52.7996 49.8712 53.1969C50.2532 53.6215 50.908 53.6327 51.4056 53.1827C52.1779 52.4813 52.9258 51.7567 53.6211 51.105C54.2961 51.7131 54.9386 52.2847 55.5781 52.8685C55.7515 53.0276 55.8822 53.2334 56.0575 53.3915C56.5055 53.7969 57.1298 53.8222 57.5231 53.4644C57.9619 53.0651 57.966 52.4722 57.4967 51.9442C57.0275 51.4162 56.5288 50.9074 56.0454 50.3885C55.8194 50.1453 55.5994 49.8969 55.2954 49.5625L57.0751 47.8679C57.3204 47.6358 57.595 47.4281 57.8048 47.1686C58.1322 46.7632 58.0896 46.1065 57.7582 45.7761C57.575 45.5968 57.3311 45.4931 57.0749 45.4856C56.8187 45.4781 56.5691 45.5673 56.3758 45.7355C55.7839 46.2362 55.2356 46.7896 54.667 47.3186C54.4238 47.5446 54.1785 47.7676 53.8755 48.0463C53.3089 47.4493 52.7799 46.8929 52.2539 46.3345C52.0451 46.1136 51.8546 45.8723 51.6306 45.6686C51.1431 45.2237 50.4762 45.2055 50.0901 45.6038C49.7272 45.9787 49.7252 46.602 50.1357 47.0713C50.6424 47.6551 51.1938 48.2084 51.7248 48.774L52.3633 49.4571Z" fill="black" fill-opacity="0.08"/>
<path d="M102.308 30.3932C104.319 30.382 106.013 28.6844 105.978 26.7162C105.958 25.7441 105.555 24.8191 104.857 24.1418C104.16 23.4646 103.223 23.0896 102.251 23.098C100.251 23.1082 98.5453 24.8149 98.5717 26.7781C98.599 28.7858 100.273 30.4053 102.308 30.3932ZM102.248 28.3348C102.037 28.3311 101.83 28.2852 101.638 28.2C101.445 28.1147 101.272 27.9918 101.128 27.8384C100.984 27.6851 100.873 27.5044 100.8 27.3071C100.727 27.1099 100.694 26.9 100.704 26.6899C100.708 26.4829 100.753 26.2788 100.836 26.0891C100.919 25.8995 101.038 25.728 101.188 25.5845C101.337 25.4411 101.513 25.3284 101.706 25.2529C101.898 25.1775 102.104 25.1407 102.311 25.1448C102.518 25.1489 102.722 25.1936 102.912 25.2766C103.101 25.3596 103.273 25.479 103.416 25.6283C103.56 25.7775 103.672 25.9535 103.748 26.1462C103.823 26.339 103.86 26.5447 103.856 26.7517C103.857 26.9619 103.815 27.1701 103.735 27.3641C103.654 27.5581 103.535 27.734 103.385 27.8814C103.235 28.0288 103.057 28.1447 102.862 28.2224C102.667 28.3001 102.458 28.338 102.248 28.3338V28.3348Z" fill="black" fill-opacity="0.08"/>
<path d="M170.88 69.5152C168.483 69.5152 166.086 69.5152 163.689 69.5152C162.739 69.5152 162.214 69.8861 162.214 70.5287C162.214 71.1712 162.754 71.5422 163.689 71.5422C168.448 71.5462 173.208 71.5462 177.968 71.5422C178.949 71.5422 179.417 71.2026 179.413 70.5287C179.409 69.8547 178.954 69.5152 177.969 69.5152C175.608 69.5118 173.244 69.5118 170.88 69.5152Z" fill="black" fill-opacity="0.08"/>
<path d="M139.343 42.2845C140.302 42.2582 140.761 41.42 140.363 40.7298C140.212 40.5055 140.033 40.3011 139.831 40.1217C136.537 36.8238 133.242 33.5276 129.944 30.233C129.762 30.0345 129.558 29.8568 129.336 29.703C128.876 29.4141 128.403 29.4932 128.056 29.8733C127.695 30.2695 127.669 30.7003 127.989 31.1604C128.072 31.2676 128.164 31.3673 128.264 31.4584C131.703 34.8982 135.144 38.3353 138.588 41.7697C138.835 42.016 139.174 42.173 139.343 42.2845Z" fill="black" fill-opacity="0.08"/>
<path d="M1135.06 -8.59197C1132.97 -8.59197 1130.88 -8.59197 1128.78 -8.59197C1127.61 -8.59197 1127.41 -8.39739 1127.4 -7.2572C1127.36 -3.24781 1127.32 0.761245 1127.29 4.76996C1127.29 5.00611 1127.28 5.24225 1127.29 5.47941C1127.33 6.45338 1127.67 6.81925 1128.66 6.82128C1132.91 6.82736 1137.15 6.82263 1141.4 6.80709C1142.4 6.80709 1142.79 6.38648 1142.8 5.36184C1142.81 1.17813 1142.81 -3.00491 1142.8 -7.18727C1142.8 -8.31529 1142.49 -8.58792 1141.33 -8.59096C1139.24 -8.59602 1137.15 -8.59197 1135.06 -8.59197ZM1140.63 4.61388H1129.54C1129.33 3.12505 1129.39 -5.80384 1129.6 -6.491H1140.63L1140.63 4.61388Z" fill="black" fill-opacity="0.08"/>
<path d="M983.145 71.5422C985.274 71.5422 987.396 71.5483 989.521 71.5422C990.606 71.5371 990.974 71.1834 990.977 70.0817C990.99 65.9325 990.99 61.7829 990.977 57.633C990.977 56.4766 990.617 56.1431 989.449 56.1421C985.3 56.138 981.15 56.138 977 56.1421C975.811 56.1421 975.588 56.3752 975.576 57.561L975.464 69.5882C975.464 69.7909 975.459 69.9936 975.464 70.1962C975.496 71.2716 975.778 71.5584 976.877 71.5645C978.966 71.5746 981.054 71.5645 983.143 71.5645L983.145 71.5422ZM988.745 58.2654C988.953 59.8525 988.878 68.7175 988.668 69.3976H977.658V58.2644L988.745 58.2654Z" fill="black" fill-opacity="0.08"/>
<path d="M1087.56 1.81362C1090.3 1.81362 1093.03 1.81362 1095.77 1.81362C1096.04 1.8292 1096.32 1.818 1096.58 1.78018C1097.22 1.65147 1097.54 1.09101 1097.35 0.478853C1097.27 0.258326 1097.16 0.0473509 1097.03 -0.150536C1094.28 -4.91397 1091.5 -9.66219 1088.81 -14.4621C1087.98 -15.959 1087.03 -15.8415 1086.29 -14.4793C1084.61 -11.3983 1082.8 -8.3862 1081.04 -5.35078C1080.08 -3.68966 1079.09 -2.03969 1078.12 -0.384647C1077.97 -0.157351 1077.84 0.07969 1077.73 0.3248C1077.42 1.05756 1077.79 1.70215 1078.56 1.8116C1078.83 1.83791 1079.11 1.84536 1079.38 1.8339H1087.56L1087.56 1.81362ZM1094.57 -0.246813C1089.78 -0.252894 1085.23 -0.234646 1080.5 -0.267078L1087.54 -12.4524L1094.57 -0.246813Z" fill="black" fill-opacity="0.08"/>
<path d="M1036.7 30.5969H1044.81C1045.08 30.6078 1045.35 30.6034 1045.62 30.5837C1046.41 30.4885 1046.79 29.8439 1046.45 29.1182C1046.19 28.5689 1045.86 28.0541 1045.56 27.5281C1043.02 23.1133 1040.47 18.6988 1037.93 14.2847C1037.82 14.0746 1037.7 13.8715 1037.57 13.6766C1037.11 13.0796 1036.42 13.0543 1035.93 13.6188C1035.79 13.8059 1035.66 14.0061 1035.56 14.2168C1033.96 16.9613 1032.37 19.7055 1030.78 22.4494C1029.61 24.4592 1028.43 26.4608 1027.25 28.4686C1027.09 28.7239 1026.95 28.9957 1026.85 29.2794C1026.8 29.4144 1026.78 29.5586 1026.79 29.7018C1026.81 29.845 1026.85 29.9837 1026.92 30.108C1026.99 30.2322 1027.09 30.3391 1027.21 30.421C1027.33 30.5028 1027.46 30.5577 1027.61 30.5817C1027.91 30.6233 1028.21 30.6362 1028.52 30.6202C1031.25 30.6202 1033.98 30.6202 1036.71 30.6202L1036.7 30.5969ZM1036.67 16.408C1038.31 18.7714 1043.37 27.7774 1043.48 28.4736H1029.71C1032.05 24.4034 1034.33 20.4528 1036.67 16.408Z" fill="black" fill-opacity="0.08"/>
<path d="M1151.52 40.2129C1151.55 40.3599 1151.62 40.6558 1151.69 40.9477C1152.25 43.0325 1152.82 45.1152 1153.36 47.203C1154.01 49.68 1154.63 52.1692 1155.28 54.6411C1155.52 55.5532 1155.78 56.4573 1156.07 57.3522C1156.35 58.2045 1157.13 58.4154 1157.83 57.8589C1158.01 57.7031 1158.18 57.5376 1158.34 57.3633C1162.18 53.5188 1166.03 49.674 1169.87 45.8287C1171.08 44.6207 1170.9 43.9284 1169.24 43.4825C1163.93 42.0501 1158.63 40.6234 1153.32 39.2025C1153.06 39.1228 1152.79 39.0745 1152.53 39.0586C1151.88 39.0464 1151.54 39.4042 1151.52 40.2129ZM1167.48 45.1578C1166.41 46.525 1158.26 54.5448 1157.55 54.9076C1156.48 50.4675 1155.12 46.1247 1154.04 41.5447L1167.48 45.1578Z" fill="black" fill-opacity="0.08"/>
<path d="M1097.6 70.477C1097.59 66.2598 1094.02 62.7744 1089.8 62.817C1087.75 62.8309 1085.79 63.6542 1084.35 65.1075C1082.9 66.5608 1082.09 68.5265 1082.09 70.5763C1082.04 74.5127 1084.94 78.3316 1089.88 78.3093C1094.9 78.286 1097.7 74.1529 1097.6 70.477ZM1084.22 70.5723C1084.06 67.6615 1086.57 65.0335 1089.65 64.8967C1092.73 64.7598 1095.38 67.2014 1095.54 70.3493C1095.69 73.3584 1093.3 75.9722 1090.29 76.2205C1087.39 76.4546 1084.22 74.1317 1084.22 70.5723H1084.22Z" fill="black" fill-opacity="0.08"/>
<path d="M1177.52 -0.0643945C1177.53 3.61662 1180.3 7.58952 1185.31 7.58952C1189.87 7.58952 1193.1 3.9683 1193.05 -0.227578C1192.99 -4.81872 1189.3 -7.98691 1185.17 -7.90481C1180.87 -7.81968 1177.59 -4.39202 1177.52 -0.0643945ZM1179.7 0.05722C1179.47 -2.98327 1181.79 -5.55653 1184.98 -5.81497C1188 -6.05821 1190.71 -3.68663 1190.94 -0.587362C1191.06 0.8916 1190.58 2.35542 1189.63 3.4908C1188.68 4.62617 1187.31 5.34288 1185.84 5.48753C1182.57 5.7936 1179.6 3.03082 1179.7 0.05722Z" fill="black" fill-opacity="0.08"/>
<path d="M977.973 -0.213407C974.458 -0.280298 970.395 2.47135 970.271 7.44458C970.169 11.4986 973.157 15.3032 978.075 15.2617C983.178 15.2181 985.802 11.0435 985.791 7.51755C985.777 3.19904 982.181 -0.319825 977.973 -0.213407ZM978.056 13.1647C975.43 13.3076 972.35 10.9959 972.368 7.32195C972.381 4.42842 975.003 1.84298 978.033 1.83285C981.135 1.82271 983.709 4.3899 983.715 7.50843C983.717 8.25172 983.572 8.98807 983.288 9.67509C983.004 10.3621 982.588 10.9862 982.062 11.5115C981.536 12.0367 980.911 12.4528 980.224 12.7356C979.536 13.0185 978.8 13.1626 978.056 13.1597V13.1647Z" fill="black" fill-opacity="0.08"/>
<path d="M1017.18 76.7485C1018.32 76.7667 1019.16 76.3684 1019.77 75.5799C1020.22 74.9951 1020.56 74.3272 1020.96 73.7059C1021.29 73.1992 1021.58 72.6539 1021.99 72.2191C1022.83 71.3263 1024.13 71.3212 1024.95 72.2293C1025.41 72.7472 1025.74 73.3968 1026.12 73.9867C1026.49 74.5482 1026.8 75.1613 1027.25 75.661C1028.6 77.1984 1030.81 77.1437 1032.08 75.5343C1032.56 74.9323 1032.94 74.2411 1033.31 73.561C1033.89 72.4806 1034.55 71.5654 1035.95 71.5127C1036.46 71.4945 1036.8 70.9807 1036.78 70.5256C1036.76 70.2523 1036.63 69.9976 1036.43 69.8128C1036.23 69.6281 1035.96 69.5271 1035.69 69.5303C1034.83 69.5253 1033.99 69.7391 1033.34 70.3128C1032.8 70.8125 1032.31 71.3687 1031.88 71.9719C1031.53 72.4573 1031.29 73.0269 1030.97 73.5478C1030.02 75.1482 1029.14 75.1329 1028.19 73.5053C1027.84 72.8972 1027.52 72.2577 1027.13 71.6658C1026.52 70.7425 1025.75 70.0026 1024.65 69.6996C1022.87 69.2111 1021.19 69.7594 1020.08 71.2584C1019.6 71.905 1019.24 72.6357 1018.81 73.3259C1018.62 73.6411 1018.45 73.9776 1018.21 74.2522C1017.64 74.8968 1016.92 74.8958 1016.4 74.2096C1016 73.6735 1015.73 73.0421 1015.35 72.4867C1014.89 71.8218 1014.44 71.1418 1013.89 70.5611C1013.22 69.8516 1012.3 69.579 1011.33 69.5253C1010.85 69.4979 1010.49 69.728 1010.26 70.1546C1010.17 70.3166 1010.13 70.5057 1010.16 70.6915C1010.18 70.8772 1010.27 71.0487 1010.41 71.1783C1010.59 71.3696 1010.83 71.4923 1011.09 71.5259C1012.24 71.6131 1012.9 72.3043 1013.43 73.2296C1013.86 73.9897 1014.29 74.759 1014.8 75.4704C1015.4 76.3116 1016.24 76.7789 1017.18 76.7485Z" fill="black" fill-opacity="0.08"/>
<path d="M998.138 15.8678C998.113 16.8498 998.629 17.692 999.474 18.3376C1000.01 18.743 1000.62 19.0471 1001.19 19.4038C1001.65 19.6886 1002.14 19.938 1002.55 20.2815C1003.58 21.1481 1003.62 22.5791 1002.61 23.4669C1002.11 23.9058 1001.49 24.2058 1000.92 24.5676C1000.38 24.9122 999.795 25.2031 999.308 25.6095C997.787 26.8814 997.718 28.9358 999.154 30.308C999.587 30.7216 1000.12 31.0378 1000.63 31.3661C1001.08 31.659 1001.56 31.9084 1002.03 32.1769C1002.79 32.6036 1003.21 33.2411 1003.35 34.1026C1003.48 34.9387 1003.87 35.2722 1004.5 35.1779C1005.1 35.0877 1005.45 34.5566 1005.36 33.7945C1005.21 32.3918 1004.49 31.3297 1003.32 30.5746C1002.67 30.154 1001.98 29.8043 1001.31 29.401C999.774 28.4645 999.793 27.602 1001.36 26.6645C1002.08 26.2328 1002.84 25.8537 1003.52 25.3652C1005.96 23.6119 1006.03 20.3991 1003.66 18.5586C1002.98 18.0245 1002.18 17.6292 1001.42 17.1863C999.75 16.2063 999.749 15.3306 1001.42 14.3485C1002.23 13.8691 1003.06 13.41 1003.82 12.8597C1004.78 12.1705 1005.22 11.154 1005.36 10.0047C1005.39 9.77064 1005.36 9.53379 1005.29 9.31044C1005.13 8.84017 1004.78 8.61821 1004.27 8.6405C1003.77 8.6628 1003.39 8.93139 1003.37 9.42293C1003.34 10.779 1002.47 11.4499 1001.42 12.0185C1000.76 12.3583 1000.12 12.7415 999.512 13.1658C998.656 13.7931 998.137 14.6394 998.138 15.8678Z" fill="black" fill-opacity="0.08"/>
<path d="M1131.92 43.5362C1131.93 42.1549 1131.19 41.1789 1130.15 40.4035C1129.61 39.9981 1129 39.7012 1128.43 39.3495C1128.05 39.1215 1127.65 38.9198 1127.32 38.6461C1126.64 38.0988 1126.63 37.4299 1127.29 36.8431C1127.56 36.5989 1127.89 36.4205 1128.21 36.2239C1128.92 35.7769 1129.66 35.3614 1130.35 34.8891C1132.4 33.5006 1132.51 30.0861 1130.63 28.5041C1130.21 28.1625 1129.77 27.8496 1129.31 27.5676C1128.83 27.2635 1128.31 27.0152 1127.82 26.7122C1126.45 25.8599 1126.46 24.9893 1127.86 24.1359C1128.37 23.8197 1128.93 23.5693 1129.44 23.2359C1129.95 22.9135 1130.43 22.54 1130.87 22.1211C1131.62 21.3741 1131.95 20.4528 1131.95 19.3725C1131.95 18.6944 1131.52 18.3407 1130.99 18.2667C1130.55 18.2039 1130.07 18.6427 1129.94 19.186C1129.91 19.3198 1129.9 19.4555 1129.9 19.5914C1129.89 19.8824 1129.8 20.1657 1129.65 20.4172C1129.51 20.6688 1129.3 20.8813 1129.06 21.0366C1128.49 21.4096 1127.89 21.7147 1127.33 22.0907C1126.72 22.5032 1126.07 22.8923 1125.56 23.4163C1125.04 23.9571 1124.74 24.6796 1124.73 25.433C1124.73 26.1863 1125.02 26.9126 1125.53 27.4602C1126.06 28.0105 1126.75 28.4139 1127.39 28.8466C1127.94 29.2247 1128.55 29.5307 1129.11 29.9037C1130.14 30.5939 1130.23 32.4374 1129.14 33.2482C1128.69 33.5918 1128.18 33.8675 1127.69 34.1695C1127.15 34.508 1126.56 34.7918 1126.06 35.183C1124.35 36.5441 1124.29 38.7302 1125.95 40.1562C1126.48 40.6123 1127.13 40.9336 1127.73 41.3137C1128.18 41.6035 1128.66 41.863 1129.09 42.1802C1129.33 42.3422 1129.53 42.5573 1129.67 42.8087C1129.81 43.0601 1129.89 43.3407 1129.9 43.6285C1129.91 43.8959 1129.99 44.1573 1130.12 44.3906C1130.34 44.7545 1130.7 44.9906 1131.14 44.872C1131.59 44.7534 1131.93 44.4798 1131.92 43.9447C1131.92 43.8099 1131.92 43.6751 1131.92 43.5362Z" fill="black" fill-opacity="0.08"/>
<path d="M1050.63 60.1778C1050.66 60.4075 1050.71 60.6344 1050.78 60.8569C1050.95 61.317 1051.3 61.5531 1051.8 61.5298C1052.21 61.5106 1052.71 61.0667 1052.78 60.6461C1052.8 60.4777 1052.8 60.3084 1052.8 60.1393C1052.91 57.4252 1055.1 55.1093 1057.76 54.863C1061.26 54.5387 1063.47 56.9184 1063.98 59.1988C1064.08 59.6559 1064.1 60.1312 1064.17 60.5954C1064.25 61.1863 1064.63 61.5298 1065.18 61.5319C1065.31 61.5352 1065.43 61.5133 1065.55 61.4673C1065.67 61.4214 1065.78 61.3523 1065.87 61.2642C1065.96 61.176 1066.04 61.0705 1066.09 60.9538C1066.14 60.8371 1066.16 60.7115 1066.17 60.5842C1066.17 59.9122 1066.1 59.2419 1065.94 58.5876C1065.04 55.0252 1061.67 52.7428 1058.55 52.8036C1054.47 52.8827 1051.21 55.6515 1050.69 59.665C1050.68 59.8337 1050.68 60.003 1050.69 60.1717L1050.63 60.1778Z" fill="black" fill-opacity="0.08"/>
<path d="M1189.69 63.876C1189.72 60.3095 1187.17 56.6802 1182.69 56.1491C1182.39 56.1122 1182.08 56.1166 1181.78 56.1623C1181.54 56.1996 1181.33 56.3192 1181.17 56.5C1181.02 56.6808 1180.93 56.911 1180.93 57.1495C1180.93 57.3873 1181.02 57.6165 1181.17 57.7975C1181.33 57.9784 1181.54 58.0998 1181.77 58.1407C1182.17 58.2116 1182.57 58.2349 1182.97 58.2907C1185.35 58.6241 1187.85 60.9339 1187.61 64.3625C1187.43 66.9895 1185.26 69.1797 1182.45 69.4766C1182.25 69.4979 1182.04 69.4939 1181.84 69.5293C1181.27 69.6307 1180.91 70.0472 1180.92 70.56C1180.93 70.8165 1181.03 71.0613 1181.21 71.2409C1181.4 71.4205 1181.64 71.5205 1181.9 71.5188C1182.57 71.521 1183.24 71.4451 1183.9 71.2928C1187.28 70.4506 1189.69 67.3452 1189.69 63.876Z" fill="black" fill-opacity="0.08"/>
<path d="M1189.03 31.0894L1187.33 32.711C1187.09 32.9431 1186.82 33.1529 1186.6 33.4063C1186.16 33.9212 1186.16 34.4269 1186.58 34.8525C1186.99 35.2782 1187.5 35.3157 1188.02 34.8657C1188.66 34.3144 1189.25 33.7154 1189.87 33.1428C1190.04 32.9847 1190.21 32.8387 1190.48 32.6036C1191.04 33.2026 1191.6 33.7833 1192.15 34.362C1192.37 34.6177 1192.6 34.8604 1192.85 35.0887C1193.34 35.4941 1193.8 35.4819 1194.21 35.1019C1194.63 34.7218 1194.7 34.1492 1194.28 33.6546C1193.75 33.0394 1193.18 32.4658 1192.63 31.8729C1192.44 31.6773 1192.26 31.4796 1192 31.1969C1192.59 30.6253 1193.16 30.0689 1193.73 29.5165C1193.97 29.2824 1194.25 29.0797 1194.47 28.8233C1194.88 28.3317 1194.85 27.7692 1194.42 27.374C1194.03 27.0071 1193.51 26.9746 1193.05 27.374C1192.37 27.9709 1191.72 28.6155 1191.06 29.2388C1190.94 29.3523 1190.81 29.4567 1190.58 29.6503C1190.02 29.0675 1189.46 28.504 1188.91 27.9334C1188.7 27.7145 1188.52 27.4642 1188.3 27.2605C1187.78 26.7861 1187.19 26.778 1186.77 27.2159C1186.35 27.6537 1186.35 28.1229 1186.82 28.6581C1187.37 29.2915 1187.97 29.8905 1188.54 30.5087C1188.7 30.6698 1188.84 30.8563 1189.03 31.0894Z" fill="black" fill-opacity="0.08"/>
<path d="M1012.36 49.4571C1011.72 50.0712 1011.13 50.6266 1010.55 51.18C1010.35 51.3655 1010.13 51.5317 1009.95 51.7324C1009.54 52.1996 1009.51 52.7996 1009.87 53.1969C1010.25 53.6215 1010.91 53.6327 1011.41 53.1827C1012.18 52.4813 1012.93 51.7567 1013.62 51.105C1014.3 51.7131 1014.94 52.2847 1015.58 52.8685C1015.75 53.0276 1015.88 53.2334 1016.06 53.3915C1016.51 53.7969 1017.13 53.8222 1017.52 53.4644C1017.96 53.0651 1017.97 52.4722 1017.5 51.9442C1017.03 51.4162 1016.53 50.9074 1016.05 50.3885C1015.82 50.1453 1015.6 49.8969 1015.3 49.5625L1017.08 47.8679C1017.32 47.6358 1017.6 47.4281 1017.8 47.1686C1018.13 46.7632 1018.09 46.1065 1017.76 45.7761C1017.58 45.5968 1017.33 45.4931 1017.07 45.4856C1016.82 45.4781 1016.57 45.5673 1016.38 45.7355C1015.78 46.2362 1015.24 46.7896 1014.67 47.3186C1014.42 47.5446 1014.18 47.7676 1013.88 48.0463C1013.31 47.4493 1012.78 46.8929 1012.25 46.3345C1012.05 46.1136 1011.85 45.8723 1011.63 45.6686C1011.14 45.2237 1010.48 45.2055 1010.09 45.6038C1009.73 45.9787 1009.73 46.602 1010.14 47.0713C1010.64 47.6551 1011.19 48.2084 1011.72 48.774L1012.36 49.4571Z" fill="black" fill-opacity="0.08"/>
<path d="M1062.31 30.3932C1064.32 30.382 1066.01 28.6844 1065.98 26.7162C1065.96 25.7441 1065.55 24.8191 1064.86 24.1418C1064.16 23.4646 1063.22 23.0896 1062.25 23.098C1060.25 23.1082 1058.55 24.8149 1058.57 26.7781C1058.6 28.7858 1060.27 30.4053 1062.31 30.3932ZM1062.25 28.3348C1062.04 28.3311 1061.83 28.2852 1061.64 28.2C1061.45 28.1147 1061.27 27.9918 1061.13 27.8384C1060.98 27.6851 1060.87 27.5044 1060.8 27.3071C1060.73 27.1099 1060.69 26.9 1060.7 26.6899C1060.71 26.4829 1060.75 26.2788 1060.84 26.0891C1060.92 25.8995 1061.04 25.728 1061.19 25.5845C1061.34 25.4411 1061.51 25.3284 1061.71 25.2529C1061.9 25.1775 1062.1 25.1407 1062.31 25.1448C1062.52 25.1489 1062.72 25.1936 1062.91 25.2766C1063.1 25.3596 1063.27 25.479 1063.42 25.6283C1063.56 25.7775 1063.67 25.9535 1063.75 26.1462C1063.82 26.339 1063.86 26.5447 1063.86 26.7517C1063.86 26.9619 1063.82 27.1701 1063.73 27.3641C1063.65 27.5581 1063.53 27.734 1063.38 27.8814C1063.23 28.0288 1063.06 28.1447 1062.86 28.2224C1062.67 28.3001 1062.46 28.338 1062.25 28.3338V28.3348Z" fill="black" fill-opacity="0.08"/>
<path d="M1130.88 69.5152C1128.48 69.5152 1126.09 69.5152 1123.69 69.5152C1122.74 69.5152 1122.21 69.8861 1122.21 70.5287C1122.21 71.1712 1122.75 71.5422 1123.69 71.5422C1128.45 71.5462 1133.21 71.5462 1137.97 71.5422C1138.95 71.5422 1139.42 71.2026 1139.41 70.5287C1139.41 69.8547 1138.95 69.5152 1137.97 69.5152C1135.61 69.5118 1133.24 69.5118 1130.88 69.5152Z" fill="black" fill-opacity="0.08"/>
<path d="M1099.34 42.2845C1100.3 42.2582 1100.76 41.42 1100.36 40.7298C1100.21 40.5055 1100.03 40.3011 1099.83 40.1217C1096.54 36.8238 1093.24 33.5276 1089.94 30.233C1089.76 30.0345 1089.56 29.8568 1089.34 29.703C1088.88 29.4141 1088.4 29.4932 1088.06 29.8733C1087.7 30.2695 1087.67 30.7003 1087.99 31.1604C1088.07 31.2676 1088.16 31.3673 1088.26 31.4584C1091.7 34.8982 1095.14 38.3353 1098.59 41.7697C1098.83 42.016 1099.17 42.173 1099.34 42.2845Z" fill="black" fill-opacity="0.08"/>
<path d="M655.059 -8.59197C652.967 -8.59197 650.876 -8.59197 648.785 -8.59197C647.606 -8.59197 647.411 -8.39739 647.4 -7.2572C647.361 -3.24781 647.323 0.761245 647.287 4.76996C647.287 5.00611 647.28 5.24225 647.287 5.47941C647.328 6.45338 647.675 6.81925 648.657 6.82128C652.906 6.82736 657.154 6.82263 661.403 6.80709C662.398 6.80709 662.793 6.38648 662.796 5.36184C662.808 1.17813 662.808 -3.00491 662.796 -7.18727C662.796 -8.31529 662.492 -8.58792 661.33 -8.59096C659.242 -8.59602 657.15 -8.59197 655.059 -8.59197ZM660.633 4.61388H649.545C649.334 3.12505 649.391 -5.80384 649.601 -6.491H660.629L660.633 4.61388Z" fill="black" fill-opacity="0.08"/>
<path d="M503.145 71.5422C505.274 71.5422 507.396 71.5483 509.521 71.5422C510.606 71.5371 510.974 71.1834 510.977 70.0817C510.99 65.9325 510.99 61.7829 510.977 57.633C510.977 56.4766 510.617 56.1431 509.449 56.1421C505.3 56.138 501.15 56.138 497 56.1421C495.811 56.1421 495.588 56.3752 495.576 57.561L495.464 69.5882C495.464 69.7909 495.459 69.9936 495.464 70.1962C495.496 71.2716 495.778 71.5584 496.877 71.5645C498.966 71.5746 501.054 71.5645 503.143 71.5645L503.145 71.5422ZM508.745 58.2654C508.953 59.8525 508.878 68.7175 508.668 69.3976H497.658V58.2644L508.745 58.2654Z" fill="black" fill-opacity="0.08"/>
<path d="M607.564 1.81362C610.298 1.81362 613.035 1.81362 615.773 1.81362C616.044 1.8292 616.315 1.818 616.584 1.78018C617.215 1.65147 617.544 1.09101 617.35 0.478853C617.265 0.258326 617.158 0.0473509 617.029 -0.150536C614.284 -4.91397 611.498 -9.66219 608.813 -14.4621C607.976 -15.959 607.03 -15.8415 606.289 -14.4793C604.61 -11.3983 602.804 -8.3862 601.042 -5.35078C600.076 -3.68966 599.091 -2.03969 598.117 -0.384647C597.971 -0.157351 597.841 0.07969 597.728 0.3248C597.424 1.05756 597.789 1.70215 598.565 1.8116C598.834 1.83791 599.105 1.84536 599.376 1.8339H607.563L607.564 1.81362ZM614.573 -0.246813C609.78 -0.252894 605.232 -0.234646 600.503 -0.267078L607.539 -12.4524L614.573 -0.246813Z" fill="black" fill-opacity="0.08"/>
<path d="M556.699 30.5969H564.807C565.078 30.6078 565.348 30.6034 565.618 30.5837C566.407 30.4885 566.788 29.8439 566.449 29.1182C566.193 28.5689 565.863 28.0541 565.56 27.5281C563.017 23.1133 560.472 18.6988 557.927 14.2847C557.821 14.0746 557.702 13.8715 557.57 13.6766C557.115 13.0796 556.422 13.0543 555.931 13.6188C555.787 13.8059 555.661 14.0061 555.555 14.2168C553.964 16.9613 552.373 19.7055 550.782 22.4494C549.612 24.4592 548.427 26.4608 547.254 28.4686C547.091 28.7239 546.955 28.9957 546.848 29.2794C546.799 29.4144 546.78 29.5586 546.793 29.7018C546.805 29.845 546.849 29.9837 546.922 30.108C546.994 30.2322 547.093 30.3391 547.211 30.421C547.329 30.5028 547.464 30.5577 547.605 30.5817C547.907 30.6233 548.213 30.6362 548.517 30.6202C551.248 30.6202 553.98 30.6202 556.713 30.6202L556.699 30.5969ZM556.667 16.408C558.308 18.7714 563.372 27.7774 563.476 28.4736H549.705C552.053 24.4034 554.333 20.4528 556.667 16.408Z" fill="black" fill-opacity="0.08"/>
<path d="M671.52 40.2129C671.555 40.3599 671.616 40.6558 671.694 40.9477C672.248 43.0325 672.817 45.1152 673.362 47.203C674.009 49.68 674.629 52.1692 675.277 54.6411C675.516 55.5532 675.779 56.4573 676.073 57.3522C676.353 58.2045 677.128 58.4154 677.832 57.8589C678.01 57.7031 678.179 57.5376 678.339 57.3633C682.184 53.5188 686.029 49.674 689.874 45.8287C691.081 44.6207 690.897 43.9284 689.24 43.4825C683.934 42.0501 678.626 40.6234 673.317 39.2025C673.06 39.1228 672.794 39.0745 672.526 39.0586C671.879 39.0464 671.54 39.4042 671.52 40.2129ZM687.484 45.1578C686.414 46.525 678.261 54.5448 677.552 54.9076C676.477 50.4675 675.119 46.1247 674.036 41.5447L687.484 45.1578Z" fill="black" fill-opacity="0.08"/>
<path d="M617.602 70.477C617.594 66.2598 614.017 62.7744 609.805 62.817C607.755 62.8309 605.794 63.6542 604.348 65.1075C602.902 66.5608 602.09 68.5265 602.087 70.5763C602.041 74.5127 604.938 78.3316 609.881 78.3093C614.9 78.286 617.699 74.1529 617.602 70.477ZM604.224 70.5723C604.061 67.6615 606.571 65.0335 609.65 64.8967C612.729 64.7598 615.382 67.2014 615.539 70.3493C615.69 73.3584 613.3 75.9722 610.289 76.2205C607.392 76.4546 604.215 74.1317 604.221 70.5723H604.224Z" fill="black" fill-opacity="0.08"/>
<path d="M697.524 -0.0643945C697.533 3.61662 700.297 7.58952 705.306 7.58952C709.874 7.58952 713.104 3.9683 713.052 -0.227578C712.995 -4.81872 709.296 -7.98691 705.169 -7.90481C700.865 -7.81968 697.586 -4.39202 697.524 -0.0643945ZM699.701 0.05722C699.469 -2.98327 701.785 -5.55653 704.982 -5.81497C707.998 -6.05821 710.709 -3.68663 710.944 -0.587362C711.056 0.8916 710.584 2.35542 709.63 3.4908C708.675 4.62617 707.315 5.34288 705.838 5.48753C702.568 5.7936 699.599 3.03082 699.701 0.05722Z" fill="black" fill-opacity="0.08"/>
<path d="M497.973 -0.213407C494.458 -0.280298 490.395 2.47135 490.271 7.44458C490.169 11.4986 493.157 15.3032 498.075 15.2617C503.178 15.2181 505.802 11.0435 505.791 7.51755C505.777 3.19904 502.181 -0.319825 497.973 -0.213407ZM498.056 13.1647C495.43 13.3076 492.35 10.9959 492.368 7.32195C492.381 4.42842 495.003 1.84298 498.033 1.83285C501.135 1.82271 503.709 4.3899 503.715 7.50843C503.717 8.25172 503.572 8.98807 503.288 9.67509C503.004 10.3621 502.588 10.9862 502.062 11.5115C501.536 12.0367 500.911 12.4528 500.224 12.7356C499.536 13.0185 498.8 13.1626 498.056 13.1597V13.1647Z" fill="black" fill-opacity="0.08"/>
<path d="M537.18 76.7485C538.319 76.7667 539.159 76.3684 539.767 75.5799C540.216 74.9951 540.555 74.3272 540.959 73.7059C541.288 73.1992 541.583 72.6539 541.993 72.2191C542.834 71.3263 544.127 71.3212 544.947 72.2293C545.414 72.7472 545.735 73.3968 546.124 73.9867C546.492 74.5482 546.805 75.1613 547.245 75.661C548.603 77.1984 550.806 77.1437 552.085 75.5343C552.563 74.9323 552.939 74.2411 553.307 73.561C553.893 72.4806 554.555 71.5654 555.954 71.5127C556.461 71.4945 556.801 70.9807 556.778 70.5256C556.756 70.2523 556.631 69.9976 556.429 69.8128C556.226 69.6281 555.961 69.5271 555.687 69.5303C554.825 69.5253 553.987 69.7391 553.338 70.3128C552.796 70.8125 552.308 71.3687 551.884 71.9719C551.528 72.4573 551.286 73.0269 550.972 73.5478C550.019 75.1482 549.142 75.1329 548.192 73.5053C547.835 72.8972 547.517 72.2577 547.131 71.6658C546.523 70.7425 545.755 70.0026 544.651 69.6996C542.873 69.2111 541.19 69.7594 540.08 71.2584C539.601 71.905 539.237 72.6357 538.814 73.3259C538.621 73.6411 538.447 73.9776 538.206 74.2522C537.64 74.8968 536.917 74.8958 536.401 74.2096C535.996 73.6735 535.726 73.0421 535.347 72.4867C534.893 71.8218 534.443 71.1418 533.892 70.5611C533.217 69.8516 532.296 69.579 531.329 69.5253C530.852 69.4979 530.493 69.728 530.261 70.1546C530.167 70.3166 530.129 70.5057 530.156 70.6915C530.182 70.8772 530.27 71.0487 530.405 71.1783C530.588 71.3696 530.83 71.4923 531.092 71.5259C532.237 71.6131 532.904 72.3043 533.431 73.2296C533.864 73.9897 534.292 74.759 534.798 75.4704C535.399 76.3116 536.238 76.7789 537.18 76.7485Z" fill="black" fill-opacity="0.08"/>
<path d="M518.138 15.8678C518.113 16.8498 518.629 17.692 519.474 18.3376C520.007 18.743 520.618 19.0471 521.191 19.4038C521.649 19.6886 522.138 19.938 522.548 20.2815C523.58 21.1481 523.621 22.5791 522.608 23.4669C522.109 23.9058 521.486 24.2058 520.919 24.5676C520.38 24.9122 519.795 25.2031 519.307 25.6095C517.787 26.8814 517.718 28.9358 519.154 30.308C519.587 30.7216 520.118 31.0378 520.626 31.3661C521.078 31.659 521.559 31.9084 522.03 32.1769C522.786 32.6036 523.211 33.2411 523.347 34.1026C523.477 34.9387 523.866 35.2722 524.497 35.1779C525.099 35.0877 525.445 34.5566 525.363 33.7945C525.21 32.3918 524.489 31.3297 523.323 30.5746C522.672 30.154 521.976 29.8043 521.313 29.401C519.774 28.4645 519.793 27.602 521.356 26.6645C522.08 26.2328 522.843 25.8537 523.524 25.3652C525.956 23.6119 526.029 20.3991 523.662 18.5586C522.975 18.0245 522.179 17.6292 521.423 17.1863C519.75 16.2063 519.749 15.3306 521.417 14.3485C522.227 13.8691 523.058 13.41 523.821 12.8597C524.775 12.1705 525.221 11.154 525.361 10.0047C525.387 9.77064 525.362 9.53379 525.287 9.31044C525.129 8.84017 524.775 8.61821 524.274 8.6405C523.772 8.6628 523.386 8.93139 523.373 9.42293C523.338 10.779 522.471 11.4499 521.418 12.0185C520.758 12.3583 520.121 12.7415 519.512 13.1658C518.656 13.7931 518.137 14.6394 518.138 15.8678Z" fill="black" fill-opacity="0.08"/>
<path d="M651.923 43.5362C651.932 42.1549 651.194 41.1789 650.154 40.4035C649.615 39.9981 649.003 39.7012 648.426 39.3495C648.052 39.1215 647.655 38.9198 647.317 38.6461C646.641 38.0988 646.632 37.4299 647.287 36.8431C647.56 36.5989 647.895 36.4205 648.208 36.2239C648.922 35.7769 649.657 35.3614 650.355 34.8891C652.403 33.5006 652.508 30.0861 650.63 28.5041C650.213 28.1625 649.773 27.8496 649.313 27.5676C648.828 27.2635 648.306 27.0152 647.819 26.7122C646.446 25.8599 646.459 24.9893 647.855 24.1359C648.373 23.8197 648.934 23.5693 649.439 23.2359C649.954 22.9135 650.434 22.54 650.873 22.1211C651.619 21.3741 651.954 20.4528 651.946 19.3725C651.946 18.6944 651.518 18.3407 650.994 18.2667C650.546 18.2039 650.068 18.6427 649.935 19.186C649.911 19.3198 649.899 19.4555 649.899 19.5914C649.885 19.8824 649.801 20.1657 649.654 20.4172C649.507 20.6688 649.302 20.8813 649.055 21.0366C648.495 21.4096 647.889 21.7147 647.332 22.0907C646.724 22.5032 646.066 22.8923 645.56 23.4163C645.035 23.9571 644.74 24.6796 644.735 25.433C644.73 26.1863 645.016 26.9126 645.533 27.4602C646.059 28.0105 646.75 28.4139 647.385 28.8466C647.942 29.2247 648.547 29.5307 649.108 29.9037C650.145 30.5939 650.231 32.4374 649.143 33.2482C648.686 33.5918 648.179 33.8675 647.692 34.1695C647.148 34.508 646.562 34.7918 646.063 35.183C644.347 36.5441 644.293 38.7302 645.953 40.1562C646.484 40.6123 647.132 40.9336 647.728 41.3137C648.183 41.6035 648.659 41.863 649.093 42.1802C649.331 42.3422 649.528 42.5573 649.669 42.8087C649.81 43.0601 649.89 43.3407 649.904 43.6285C649.913 43.8959 649.986 44.1573 650.117 44.3906C650.339 44.7545 650.698 44.9906 651.143 44.872C651.588 44.7534 651.931 44.4798 651.918 43.9447C651.921 43.8099 651.923 43.6751 651.923 43.5362Z" fill="black" fill-opacity="0.08"/>
<path d="M570.627 60.1778C570.663 60.4075 570.714 60.6344 570.782 60.8569C570.954 61.317 571.305 61.5531 571.795 61.5298C572.214 61.5106 572.708 61.0667 572.782 60.6461C572.798 60.4777 572.804 60.3084 572.798 60.1393C572.91 57.4252 575.102 55.1093 577.764 54.863C581.259 54.5387 583.471 56.9184 583.979 59.1988C584.08 59.6559 584.097 60.1312 584.166 60.5954C584.254 61.1863 584.632 61.5298 585.18 61.5319C585.307 61.5352 585.433 61.5133 585.552 61.4673C585.671 61.4214 585.779 61.3523 585.871 61.2642C585.963 61.176 586.036 61.0705 586.086 60.9538C586.137 60.8371 586.164 60.7115 586.166 60.5842C586.173 59.9122 586.099 59.2419 585.945 58.5876C585.043 55.0252 581.67 52.7428 578.546 52.8036C574.468 52.8827 571.212 55.6515 570.69 59.665C570.679 59.8337 570.679 60.003 570.69 60.1717L570.627 60.1778Z" fill="black" fill-opacity="0.08"/>
<path d="M709.695 63.876C709.715 60.3095 707.167 56.6802 702.689 56.1491C702.386 56.1122 702.079 56.1166 701.777 56.1623C701.542 56.1996 701.327 56.3192 701.171 56.5C701.016 56.6808 700.93 56.911 700.928 57.1495C700.931 57.3873 701.018 57.6165 701.172 57.7975C701.326 57.9784 701.539 58.0998 701.773 58.1407C702.17 58.2116 702.573 58.2349 702.972 58.2907C705.353 58.6241 707.85 60.9339 707.613 64.3625C707.431 66.9895 705.264 69.1797 702.449 69.4766C702.247 69.4979 702.044 69.4939 701.841 69.5293C701.275 69.6307 700.911 70.0472 700.923 70.56C700.926 70.8165 701.031 71.0613 701.214 71.2409C701.397 71.4205 701.644 71.5205 701.9 71.5188C702.573 71.521 703.244 71.4451 703.9 71.2928C707.282 70.4506 709.686 67.3452 709.695 63.876Z" fill="black" fill-opacity="0.08"/>
<path d="M709.03 31.0894L707.332 32.711C707.088 32.9431 706.817 33.1529 706.599 33.4063C706.156 33.9212 706.161 34.4269 706.576 34.8525C706.992 35.2782 707.5 35.3157 708.019 34.8657C708.656 34.3144 709.252 33.7154 709.867 33.1428C710.036 32.9847 710.214 32.8387 710.475 32.6036C711.044 33.2026 711.595 33.7833 712.146 34.362C712.366 34.6177 712.601 34.8604 712.849 35.0887C713.335 35.4941 713.796 35.4819 714.213 35.1019C714.63 34.7218 714.695 34.1492 714.276 33.6546C713.752 33.0394 713.178 32.4658 712.627 31.8729C712.444 31.6773 712.264 31.4796 712.005 31.1969C712.591 30.6253 713.16 30.0689 713.733 29.5165C713.975 29.2824 714.252 29.0797 714.466 28.8233C714.879 28.3317 714.846 27.7692 714.425 27.374C714.033 27.0071 713.513 26.9746 713.053 27.374C712.366 27.9709 711.722 28.6155 711.057 29.2388C710.936 29.3523 710.808 29.4567 710.585 29.6503C710.016 29.0675 709.461 28.504 708.911 27.9334C708.701 27.7145 708.521 27.4642 708.298 27.2605C707.778 26.7861 707.192 26.778 706.771 27.2159C706.349 27.6537 706.347 28.1229 706.815 28.6581C707.371 29.2915 707.966 29.8905 708.538 30.5087C708.695 30.6698 708.836 30.8563 709.03 31.0894Z" fill="black" fill-opacity="0.08"/>
<path d="M532.363 49.4571C531.717 50.0712 531.132 50.6266 530.546 51.18C530.35 51.3655 530.132 51.5317 529.953 51.7324C529.539 52.1996 529.513 52.7996 529.871 53.1969C530.253 53.6215 530.908 53.6327 531.406 53.1827C532.178 52.4813 532.926 51.7567 533.621 51.105C534.296 51.7131 534.939 52.2847 535.578 52.8685C535.751 53.0276 535.882 53.2334 536.058 53.3915C536.505 53.7969 537.13 53.8222 537.523 53.4644C537.962 53.0651 537.966 52.4722 537.497 51.9442C537.027 51.4162 536.529 50.9074 536.045 50.3885C535.819 50.1453 535.599 49.8969 535.295 49.5625L537.075 47.8679C537.32 47.6358 537.595 47.4281 537.805 47.1686C538.132 46.7632 538.09 46.1065 537.758 45.7761C537.575 45.5968 537.331 45.4931 537.075 45.4856C536.819 45.4781 536.569 45.5673 536.376 45.7355C535.784 46.2362 535.236 46.7896 534.667 47.3186C534.424 47.5446 534.179 47.7676 533.875 48.0463C533.309 47.4493 532.78 46.8929 532.254 46.3345C532.045 46.1136 531.855 45.8723 531.631 45.6686C531.143 45.2237 530.476 45.2055 530.09 45.6038C529.727 45.9787 529.725 46.602 530.136 47.0713C530.642 47.6551 531.194 48.2084 531.725 48.774L532.363 49.4571Z" fill="black" fill-opacity="0.08"/>
<path d="M582.308 30.3932C584.319 30.382 586.013 28.6844 585.978 26.7162C585.958 25.7441 585.555 24.8191 584.857 24.1418C584.16 23.4646 583.223 23.0896 582.251 23.098C580.251 23.1082 578.545 24.8149 578.572 26.7781C578.599 28.7858 580.273 30.4053 582.308 30.3932ZM582.248 28.3348C582.037 28.3311 581.83 28.2852 581.638 28.2C581.445 28.1147 581.272 27.9918 581.128 27.8384C580.984 27.6851 580.873 27.5044 580.8 27.3071C580.727 27.1099 580.694 26.9 580.704 26.6899C580.708 26.4829 580.753 26.2788 580.836 26.0891C580.919 25.8995 581.038 25.728 581.188 25.5845C581.337 25.4411 581.513 25.3284 581.706 25.2529C581.898 25.1775 582.104 25.1407 582.311 25.1448C582.518 25.1489 582.722 25.1936 582.912 25.2766C583.101 25.3596 583.273 25.479 583.416 25.6283C583.56 25.7775 583.672 25.9535 583.748 26.1462C583.823 26.339 583.86 26.5447 583.856 26.7517C583.857 26.9619 583.815 27.1701 583.735 27.3641C583.654 27.5581 583.535 27.734 583.385 27.8814C583.235 28.0288 583.057 28.1447 582.862 28.2224C582.667 28.3001 582.458 28.338 582.248 28.3338V28.3348Z" fill="black" fill-opacity="0.08"/>
<path d="M650.88 69.5152C648.483 69.5152 646.086 69.5152 643.689 69.5152C642.739 69.5152 642.214 69.8861 642.214 70.5287C642.214 71.1712 642.754 71.5422 643.689 71.5422C648.448 71.5462 653.208 71.5462 657.968 71.5422C658.949 71.5422 659.417 71.2026 659.413 70.5287C659.409 69.8547 658.954 69.5152 657.969 69.5152C655.608 69.5118 653.244 69.5118 650.88 69.5152Z" fill="black" fill-opacity="0.08"/>
<path d="M619.343 42.2845C620.302 42.2582 620.761 41.42 620.363 40.7298C620.212 40.5055 620.033 40.3011 619.831 40.1217C616.537 36.8238 613.242 33.5276 609.944 30.233C609.762 30.0345 609.558 29.8568 609.336 29.703C608.876 29.4141 608.403 29.4932 608.056 29.8733C607.695 30.2695 607.669 30.7003 607.989 31.1604C608.072 31.2676 608.164 31.3673 608.264 31.4584C611.703 34.8982 615.144 38.3353 618.588 41.7697C618.835 42.016 619.174 42.173 619.343 42.2845Z" fill="black" fill-opacity="0.08"/>
</g>
</svg>
