<svg width="140" height="141" viewBox="0 0 140 141" fill="none" xmlns="http://www.w3.org/2000/svg">
<path d="M58.3333 99.8617H32.0833C24.0292 99.8617 17.5 93.3325 17.5 85.2783V38.6117C17.5 34.7439 19.0365 31.0346 21.7714 28.2997C24.5063 25.5648 28.2156 24.0283 32.0833 24.0283H102.083C110.137 24.0283 116.667 30.5575 116.667 38.6117V59.0283" stroke="#DDDFEC" stroke-width="6" stroke-linecap="round" stroke-linejoin="round"/>
<path d="M99.1688 41.5297H93.333" stroke="#F84263" stroke-width="6" stroke-linecap="round" stroke-linejoin="round"/>
<path d="M35 82.363H40.8358" stroke="#F84263" stroke-width="6" stroke-linecap="round" stroke-linejoin="round"/>
<circle cx="102.083" cy="96.9451" r="26.25" stroke="#DDDFEC" stroke-width="6" stroke-linecap="round" stroke-linejoin="round"/>
<path d="M107.595 91.7468L96.5703 102.765L97.8377 101.499" stroke="#F84263" stroke-width="4" stroke-linecap="round" stroke-linejoin="round"/>
<path d="M96.5771 91.7436L107.596 102.769L106.329 101.501" stroke="#F84263" stroke-width="4" stroke-linecap="round" stroke-linejoin="round"/>
<path d="M56.7714 72.2572C51.0762 66.562 51.0762 57.3283 56.7714 51.6332C62.4665 45.938 71.7002 45.938 77.3954 51.6332" stroke="#F84263" stroke-width="6" stroke-linecap="round" stroke-linejoin="round"/>
</svg>
