<svg width="141" height="141" viewBox="0 0 141 141" fill="none" xmlns="http://www.w3.org/2000/svg">
<path d="M58.8997 99.5631H32.6497C24.5956 99.5631 18.0664 93.0339 18.0664 84.9797V38.3131C18.0664 34.4453 19.6029 30.736 22.3378 28.0011C25.0727 25.2662 28.782 23.7297 32.6497 23.7297H102.65C110.704 23.7297 117.233 30.2589 117.233 38.3131V58.7297" stroke="#DDDFEC" stroke-width="6" stroke-linecap="round" stroke-linejoin="round"/>
<path d="M99.7352 41.2311H93.8994" stroke="#241953" stroke-width="6" stroke-linecap="round" stroke-linejoin="round"/>
<path d="M35.5664 82.0644H41.4022" stroke="#241953" stroke-width="6" stroke-linecap="round" stroke-linejoin="round"/>
<circle cx="102.649" cy="96.6465" r="26.25" stroke="#DDDFEC" stroke-width="6" stroke-linecap="round" stroke-linejoin="round"/>
<path d="M111.479 91.4482L100.454 102.467L93.8262 95.8582" stroke="#241953" stroke-width="6" stroke-linecap="round" stroke-linejoin="round"/>
<path d="M57.3378 71.9586C51.6426 66.2634 51.6426 57.0298 57.3378 51.3346C63.0329 45.6394 72.2666 45.6394 77.9618 51.3346" stroke="#241953" stroke-width="6" stroke-linecap="round" stroke-linejoin="round"/>
</svg>
