<svg width="18" height="19" viewBox="0 0 18 19" fill="none" xmlns="http://www.w3.org/2000/svg">
<path d="M3.9125 17.92L6.4125 13.5898" stroke="#FFA600" stroke-width="1.5" stroke-linecap="round" stroke-linejoin="round"/>
<path fill-rule="evenodd" clip-rule="evenodd" d="M2.07367 11.0857L10.7512 16.0957C11.225 16.3692 11.8301 16.2071 12.1036 15.7334V15.7334C12.2636 15.4562 12.2802 15.1194 12.1472 14.8279L10.5775 11.3766L12.0775 8.77855L15.1417 8.58121C15.4755 8.55913 15.7761 8.37243 15.9431 8.08318L16.1756 7.68048C16.4516 7.20243 16.2876 6.59045 15.8096 6.31445L8.01535 1.81445C7.5373 1.53845 6.92532 1.70243 6.64932 2.18048L6.41682 2.58318C6.24982 2.87243 6.23795 3.227 6.3862 3.52621L7.7474 6.27855L6.2474 8.87663L2.47371 9.24285C2.15468 9.27343 1.87131 9.45624 1.71131 9.73337V9.73337C1.43781 10.2071 1.59996 10.8122 2.07367 11.0857V11.0857Z" stroke="#FFA600" stroke-width="1.5" stroke-linecap="round" stroke-linejoin="round"/>
</svg>
