<svg width="25" height="25" viewBox="0 0 25 25" fill="none" xmlns="http://www.w3.org/2000/svg">
<path d="M19.0215 12.3145V8.14245C19.0215 7.61245 18.8105 7.10345 18.4355 6.72845L15.6075 3.90045C15.2325 3.52545 14.7235 3.31445 14.1935 3.31445H7.02148C5.91648 3.31445 5.02148 4.20945 5.02148 5.31445V19.3145C5.02148 20.4195 5.91648 21.3145 7.02148 21.3145H11.0215" stroke="#CACCDB" stroke-width="1.5" stroke-linecap="round" stroke-linejoin="round"/>
<path d="M8.02148 9.31445H16.0215" stroke="#CACCDB" stroke-width="1.5" stroke-linecap="round" stroke-linejoin="round"/>
<path d="M8.02148 12.3145H16.0215" stroke="#CACCDB" stroke-width="1.5" stroke-linecap="round" stroke-linejoin="round"/>
<path d="M8.02148 15.3145H10.0215" stroke="#CACCDB" stroke-width="1.5" stroke-linecap="round" stroke-linejoin="round"/>
<path d="M18.8955 18.1895V16.6885C18.8955 15.9675 18.2805 15.3145 17.5215 15.3145C16.7625 15.3145 16.1475 15.9295 16.1475 16.6885V18.1895" stroke="#CACCDB" stroke-width="1.5" stroke-linecap="round" stroke-linejoin="round"/>
<path fill-rule="evenodd" clip-rule="evenodd" d="M19.4595 21.3144H15.5845C15.2735 21.3144 15.0215 21.0624 15.0215 20.7524V18.7524C15.0215 18.4414 15.2735 18.1904 15.5835 18.1904H19.4585C19.7695 18.1904 20.0205 18.4424 20.0205 18.7524V20.7524C20.0215 21.0624 19.7695 21.3144 19.4595 21.3144Z" stroke="#CACCDB" stroke-width="1.5" stroke-linecap="round" stroke-linejoin="round"/>
</svg>
