<svg width="23" height="17" viewBox="0 0 23 17" fill="none" xmlns="http://www.w3.org/2000/svg">
<path fill-rule="evenodd" clip-rule="evenodd" d="M17.6963 9.94141H5.69629V7.44141C5.69629 6.61341 5.02429 5.94141 4.19629 5.94141H3.19629C2.36829 5.94141 1.69629 6.61341 1.69629 7.44141V11.9414C1.69629 13.0464 2.59129 13.9414 3.69629 13.9414H19.6963C20.8013 13.9414 21.6963 13.0464 21.6963 11.9414V7.44141C21.6963 6.61341 21.0243 5.94141 20.1963 5.94141H19.1963C18.3683 5.94141 17.6963 6.61341 17.6963 7.44141V9.94141Z" stroke="#CACCDB" stroke-width="1.5" stroke-linecap="round" stroke-linejoin="round"/>
<path d="M4.69629 13.9414V15.9414" stroke="#CACCDB" stroke-width="1.5" stroke-linecap="round" stroke-linejoin="round"/>
<path d="M18.6963 13.9414V15.9414" stroke="#CACCDB" stroke-width="1.5" stroke-linecap="round" stroke-linejoin="round"/>
<path d="M3.69629 5.94141V3.94141C3.69629 2.28441 5.03929 0.941406 6.69629 0.941406H16.6963C18.3533 0.941406 19.6963 2.28441 19.6963 3.94141V5.94141" stroke="#CACCDB" stroke-width="1.5" stroke-linecap="round" stroke-linejoin="round"/>
</svg>
