<svg width="25" height="25" viewBox="0 0 25 25" fill="none" xmlns="http://www.w3.org/2000/svg">
<path fill-rule="evenodd" clip-rule="evenodd" d="M16.7131 21.4043H8.7131C5.95168 21.4043 3.7131 19.1657 3.7131 16.4043V8.4043C3.7131 5.64287 5.95168 3.4043 8.7131 3.4043H16.7131C19.4745 3.4043 21.7131 5.64287 21.7131 8.4043V16.4043C21.7131 19.1657 19.4745 21.4043 16.7131 21.4043Z" stroke="#CACCDB" stroke-width="1.5" stroke-linecap="round" stroke-linejoin="round"/>
<path d="M12.7131 13.115L14.0401 12.3778C14.7024 12.0099 15.1131 11.3119 15.1131 10.5543C15.0347 9.29456 13.9543 8.33419 12.694 8.40396C11.5679 8.35722 10.5679 9.11846 10.3131 10.2164" stroke="#CACCDB" stroke-width="1.5" stroke-linecap="round" stroke-linejoin="round"/>
<path d="M12.8135 16.305C12.8134 16.3602 12.7686 16.405 12.7134 16.4049C12.6582 16.4049 12.6134 16.3602 12.6134 16.3049C12.6134 16.2497 12.6581 16.2049 12.7133 16.2049C12.7399 16.2048 12.7654 16.2154 12.7842 16.2342C12.803 16.2529 12.8135 16.2784 12.8135 16.305" stroke="#CACCDB" stroke-width="1.5" stroke-linecap="round" stroke-linejoin="round"/>
</svg>
