<svg width="80" height="80" viewBox="0 0 80 80" fill="none" xmlns="http://www.w3.org/2000/svg">
<path d="M9.11017 29.2998C6.91303 26.0819 7.74048 21.6922 10.9583 19.4951L31.3726 5.55618C34.5905 3.35904 38.9802 4.18648 41.1773 7.40431V7.40431C43.3745 10.6222 47.7642 11.4496 50.982 9.25245L51.2043 9.10064C54.545 6.81966 59.1022 7.67867 61.3832 11.0193L74.1988 29.7886C76.5357 33.2111 75.8428 37.8559 72.6088 40.4473L72.3132 40.6842C69.3422 43.0648 68.625 47.2931 70.6447 50.5203V50.5203C72.7814 53.9345 71.8415 58.4266 68.5153 60.6977L58.6906 67.406L48.5634 74.3208C45.2815 76.5617 40.8044 75.7178 38.5635 72.4359V72.4359C36.4392 69.3247 32.2747 68.3787 29.0148 70.2668L28.3699 70.6403C24.7463 72.7391 20.1173 71.6875 17.756 68.2293L5.03222 49.5946C2.7258 46.2167 3.59439 41.6087 6.97226 39.3023L7.26204 39.1045C10.4799 36.9073 11.3073 32.5176 9.11017 29.2998V29.2998Z" stroke="#F84263" stroke-width="7" stroke-linecap="round" stroke-linejoin="round"/>
</svg>
