<svg width="30" height="55" viewBox="0 0 30 55" fill="none" xmlns="http://www.w3.org/2000/svg">
<path d="M13.0601 52.1514C10.8559 50.6054 8.85706 48.7533 7.12995 46.6335C2.5809 41.0502 0.231431 33.9957 0.524445 26.7997C0.817459 19.6038 3.73271 12.7636 8.72065 7.56865C10.6144 5.59631 12.7572 3.91286 15.0798 2.55121C18.096 0.782967 21.187 1.24314 23.6253 3.03337C26.0803 4.83585 27.8669 7.99029 28.1581 11.5626L29.0721 22.7722C29.109 23.2252 28.9402 23.6766 28.6206 24.1518C28.3122 24.6105 27.8998 25.0397 27.4846 25.4718C27.4658 25.4914 27.447 25.511 27.4282 25.5306C26.8253 26.1585 26.473 26.9852 26.4376 27.8549C26.4021 28.7246 26.6861 29.5772 27.2359 30.252C27.2531 30.2731 27.2702 30.2942 27.2874 30.3152C27.6661 30.7797 28.0422 31.241 28.3123 31.7232C28.5922 32.2228 28.7238 32.6865 28.6501 33.135L26.8278 44.2332C26.2471 47.77 24.21 50.7687 21.6165 52.3656C19.0407 53.9517 15.9225 54.159 13.0601 52.1514Z" fill="white" stroke="#DDDFEC"/>
</svg>
