<svg width="211" height="105" viewBox="0 0 211 105" fill="none" xmlns="http://www.w3.org/2000/svg">
<path d="M8.96031 24.0489L2.02248 28.3539L6.3275 35.2918L13.2653 30.9867L8.96031 24.0489ZM64.7627 95.9573C65.0128 95.4648 64.8163 94.8629 64.3238 94.6129L56.299 90.5383C55.8066 90.2883 55.2047 90.4848 54.9546 90.9772C54.7046 91.4697 54.9011 92.0716 55.3935 92.3216L62.5267 95.9434L58.9049 103.077C58.6548 103.569 58.8513 104.171 59.3438 104.421C59.8362 104.671 60.4381 104.475 60.6882 103.982L64.7627 95.9573ZM6.67024 29.4423C1.31044 52.3302 2.11575 68.0766 6.49768 78.7939C10.9014 89.5646 18.8635 95.1267 27.4623 97.7299C36.0211 100.321 45.2138 99.9873 52.2192 99.0282C55.7307 98.5475 58.713 97.9067 60.8197 97.3855C61.8734 97.1248 62.7091 96.8937 63.2836 96.7271C63.5709 96.6438 63.7929 96.5766 63.9443 96.5299C64.0201 96.5065 64.0781 96.4882 64.1179 96.4756C64.1377 96.4692 64.153 96.4643 64.1637 96.4609C64.169 96.4592 64.1731 96.4579 64.1761 96.4569C64.1776 96.4564 64.1789 96.456 64.1797 96.4557C64.1807 96.4554 64.1815 96.4551 63.8711 95.5045C63.5607 94.5539 63.5609 94.5539 63.5608 94.5539C63.5603 94.554 63.5599 94.5542 63.559 94.5545C63.5573 94.555 63.5544 94.556 63.5503 94.5573C63.5421 94.5599 63.5294 94.564 63.512 94.5695C63.4774 94.5805 63.4245 94.5972 63.3541 94.6189C63.2132 94.6624 63.0023 94.7263 62.7266 94.8063C62.1752 94.9662 61.3651 95.1902 60.3393 95.444C58.287 95.9518 55.3756 96.5774 51.9479 97.0467C45.0751 97.9876 36.2084 98.2881 28.0418 95.8157C19.9154 93.3555 12.4864 88.1566 8.34893 78.037C4.18962 67.8641 3.30347 52.591 8.61756 29.8983L6.67024 29.4423Z" fill="url(#paint0_linear_226_8729)"/>
<path d="M4.70879 14.4572C5.13546 14.4572 5.43413 14.3666 5.60479 14.1852C5.77546 14.0039 5.86079 13.8279 5.86079 13.6572C5.86079 13.5612 5.83946 13.4332 5.79679 13.2732C5.76479 13.1132 5.69546 12.8679 5.58879 12.5372C5.48213 12.2066 5.32746 11.7639 5.12479 11.2092C4.92213 10.6439 4.66079 9.91323 4.34079 9.01723L5.58879 8.50523L7.26879 13.2572C7.41813 13.6946 7.59413 14.0039 7.79679 14.1852C7.99946 14.3666 8.29813 14.4572 8.69279 14.4572H8.90079C9.13546 14.4572 9.25279 14.6866 9.25279 15.1452C9.25279 15.6252 9.13546 15.8652 8.90079 15.8652H8.69279C8.34079 15.8652 7.99946 15.8012 7.66879 15.6732C7.34879 15.5452 7.05546 15.2626 6.78879 14.8252C6.56479 15.2306 6.28213 15.5079 5.94079 15.6572C5.61013 15.7959 5.24746 15.8652 4.85279 15.8652H1.41279L1.33279 14.4572H4.70879ZM10.0647 14.4572C10.8967 14.4572 11.3127 14.0679 11.3127 13.2892V11.2412H12.6247V13.2892C12.6247 13.5026 12.6567 13.6839 12.7207 13.8332C12.7953 13.9826 12.8913 14.1052 13.0087 14.2012C13.126 14.2866 13.2593 14.3506 13.4087 14.3932C13.5687 14.4359 13.7287 14.4572 13.8887 14.4572H14.3367C14.582 14.4572 14.7047 14.6866 14.7047 15.1452C14.7047 15.6252 14.582 15.8652 14.3367 15.8652H13.8407C13.4567 15.8652 13.094 15.7959 12.7527 15.6572C12.422 15.5186 12.1447 15.2466 11.9207 14.8412C11.6753 15.2466 11.3927 15.5186 11.0727 15.6572C10.7633 15.7959 10.4273 15.8652 10.0647 15.8652H8.89667C8.758 15.8652 8.66733 15.8119 8.62467 15.7052C8.57133 15.5879 8.54467 15.4172 8.54467 15.1932C8.54467 14.9372 8.57133 14.7506 8.62467 14.6332C8.66733 14.5159 8.758 14.4572 8.89667 14.4572H10.0647ZM13.3767 19.0332H11.9687V17.6892H13.3767V19.0332ZM11.2007 19.0332H9.77667V17.6892H11.2007V19.0332ZM15.5022 14.4572C16.3342 14.4572 16.7502 14.0679 16.7502 13.2892V11.2412H18.0622V13.2892C18.0622 13.5026 18.0942 13.6839 18.1582 13.8332C18.2328 13.9826 18.3288 14.1052 18.4462 14.2012C18.5635 14.2866 18.6968 14.3506 18.8462 14.3932C19.0062 14.4359 19.1662 14.4572 19.3262 14.4572H19.7742C20.0195 14.4572 20.1422 14.6866 20.1422 15.1452C20.1422 15.6252 20.0195 15.8652 19.7742 15.8652H19.2782C18.8942 15.8652 18.5315 15.7959 18.1902 15.6572C17.8595 15.5186 17.5822 15.2466 17.3582 14.8412C17.1128 15.2466 16.8302 15.5186 16.5102 15.6572C16.2008 15.7959 15.8648 15.8652 15.5022 15.8652H14.3342C14.1955 15.8652 14.1048 15.8119 14.0622 15.7052C14.0088 15.5879 13.9822 15.4172 13.9822 15.1932C13.9822 14.9372 14.0088 14.7506 14.0622 14.6332C14.1048 14.5159 14.1955 14.4572 14.3342 14.4572H15.5022ZM18.0622 9.27323H16.4942V7.89723H18.0622V9.27323ZM23.8677 14.4572C24.2623 14.4572 24.5343 14.3772 24.6837 14.2172C24.833 14.0572 24.9077 13.8599 24.9077 13.6252C24.9077 13.4546 24.8757 13.2786 24.8117 13.0972C24.7583 12.9052 24.609 12.6866 24.3637 12.4412L21.0997 9.19323V7.73723L26.4117 5.68923L26.7157 7.00123L22.3957 8.64923L25.0357 11.3052C25.2917 11.5719 25.4997 11.8119 25.6597 12.0252C25.8303 12.2386 25.9637 12.4466 26.0597 12.6492C26.1557 12.8412 26.2197 13.0332 26.2517 13.2252C26.2943 13.4172 26.3157 13.6146 26.3157 13.8172C26.3157 14.1799 26.257 14.4892 26.1397 14.7452C26.0223 15.0012 25.8623 15.2146 25.6597 15.3852C25.457 15.5452 25.2117 15.6679 24.9237 15.7532C24.6463 15.8279 24.3423 15.8652 24.0117 15.8652H19.7717C19.633 15.8652 19.5423 15.8119 19.4997 15.7052C19.4463 15.5879 19.4197 15.4172 19.4197 15.1932C19.4197 14.9372 19.4463 14.7506 19.4997 14.6332C19.5423 14.5159 19.633 14.4572 19.7717 14.4572H23.8677ZM31.9042 18.3452C32.3415 18.3452 32.7255 18.2759 33.0562 18.1372C33.3868 18.0092 33.6588 17.8332 33.8722 17.6092C34.0962 17.3852 34.2668 17.1239 34.3842 16.8252C34.5015 16.5266 34.5708 16.2066 34.5922 15.8652H33.2322C32.6882 15.8652 32.2402 15.8066 31.8882 15.6892C31.5362 15.5719 31.2588 15.4012 31.0562 15.1772C30.8535 14.9532 30.7095 14.6812 30.6242 14.3612C30.5495 14.0306 30.5122 13.6626 30.5122 13.2572C30.5122 12.8519 30.5708 12.4679 30.6882 12.1052C30.8055 11.7319 30.9762 11.4066 31.2002 11.1292C31.4242 10.8519 31.7015 10.6332 32.0322 10.4732C32.3735 10.3026 32.7682 10.2172 33.2162 10.2172C33.5682 10.2172 33.9042 10.2759 34.2242 10.3932C34.5548 10.5106 34.8428 10.6972 35.0882 10.9532C35.3335 11.1986 35.5255 11.5239 35.6642 11.9292C35.8135 12.3346 35.8882 12.8252 35.8882 13.4012V14.4572H37.3122C37.4402 14.4572 37.5255 14.5159 37.5682 14.6332C37.6215 14.7399 37.6482 14.9106 37.6482 15.1452C37.6482 15.3906 37.6215 15.5719 37.5682 15.6892C37.5255 15.8066 37.4402 15.8652 37.3122 15.8652H35.8562C35.8348 16.3879 35.7282 16.8839 35.5362 17.3532C35.3548 17.8226 35.0988 18.2332 34.7682 18.5852C34.4375 18.9372 34.0375 19.2146 33.5682 19.4172C33.0988 19.6306 32.5762 19.7372 32.0002 19.7372H30.3362L30.2402 18.3452H31.9042ZM31.7602 13.1772C31.7602 13.6359 31.8668 13.9666 32.0802 14.1692C32.3042 14.3612 32.7308 14.4572 33.3602 14.4572H34.6242V13.4652C34.6242 12.7932 34.4908 12.3132 34.2242 12.0252C33.9682 11.7266 33.6055 11.5772 33.1362 11.5772C32.6988 11.5772 32.3575 11.7212 32.1122 12.0092C31.8775 12.2866 31.7602 12.6759 31.7602 13.1772ZM44.2945 13.5612C44.4652 13.9026 44.6519 14.1372 44.8545 14.2652C45.0679 14.3932 45.3452 14.4572 45.6865 14.4572H46.6785C46.8172 14.4572 46.9079 14.5159 46.9505 14.6332C47.0039 14.7399 47.0305 14.9106 47.0305 15.1452C47.0305 15.3906 47.0039 15.5719 46.9505 15.6892C46.9079 15.8066 46.8172 15.8652 46.6785 15.8652H45.6065C45.2545 15.8652 44.9559 15.8226 44.7105 15.7372C44.4652 15.6412 44.2572 15.5186 44.0865 15.3692C43.9159 15.2092 43.7719 15.0226 43.6545 14.8092C43.5479 14.5959 43.4519 14.3612 43.3665 14.1052L41.9265 14.9372C41.6492 15.1079 41.3772 15.2519 41.1105 15.3692C40.8439 15.4866 40.5559 15.5826 40.2465 15.6572C39.9479 15.7319 39.6172 15.7852 39.2545 15.8172C38.8919 15.8492 38.4759 15.8652 38.0065 15.8652H37.3185C37.1799 15.8652 37.0892 15.8119 37.0465 15.7052C36.9932 15.5879 36.9665 15.4172 36.9665 15.1932C36.9665 14.9372 36.9932 14.7506 37.0465 14.6332C37.0892 14.5159 37.1799 14.4572 37.3185 14.4572H38.0545C38.4599 14.4572 38.8172 14.4466 39.1265 14.4252C39.4465 14.4039 39.7399 14.3666 40.0065 14.3132C40.2732 14.2599 40.5239 14.1906 40.7585 14.1052C40.9932 14.0092 41.2332 13.8919 41.4785 13.7532L43.8625 12.3772C43.7772 12.1852 43.6919 12.0199 43.6065 11.8812C43.5319 11.7319 43.4305 11.6039 43.3025 11.4972C43.1745 11.3906 43.0199 11.3106 42.8385 11.2572C42.6572 11.2039 42.4279 11.1772 42.1505 11.1772H38.6625L38.7585 9.76923H42.3425C42.6305 9.76923 42.9185 9.80657 43.2065 9.88123C43.5052 9.9559 43.7825 10.1052 44.0385 10.3292C44.3052 10.5532 44.5505 10.8732 44.7745 11.2892C44.9985 11.7052 45.1852 12.2546 45.3345 12.9372L44.2945 13.5612ZM42.0225 19.0652H40.4545V17.6892H42.0225V19.0652ZM47.8459 14.4572C48.6779 14.4572 49.0939 14.0679 49.0939 13.2892V11.2412H50.4059V13.2892C50.4059 13.5026 50.4379 13.6839 50.5019 13.8332C50.5766 13.9826 50.6726 14.1052 50.7899 14.2012C50.9073 14.2866 51.0406 14.3506 51.1899 14.3932C51.3499 14.4359 51.5099 14.4572 51.6699 14.4572H52.1179C52.3633 14.4572 52.4859 14.6866 52.4859 15.1452C52.4859 15.6252 52.3633 15.8652 52.1179 15.8652H51.6219C51.2379 15.8652 50.8753 15.7959 50.5339 15.6572C50.2033 15.5186 49.9259 15.2466 49.7019 14.8412C49.4566 15.2466 49.1739 15.5186 48.8539 15.6572C48.5446 15.7959 48.2086 15.8652 47.8459 15.8652H46.6779C46.5393 15.8652 46.4486 15.8119 46.4059 15.7052C46.3526 15.5879 46.3259 15.4172 46.3259 15.1932C46.3259 14.9372 46.3526 14.7506 46.4059 14.6332C46.4486 14.5159 46.5393 14.4572 46.6779 14.4572H47.8459ZM51.3499 9.27323H49.8939V7.92923H51.3499V9.27323ZM49.2059 9.27323H47.7499V7.92923H49.2059V9.27323ZM52.7554 14.4572C53.5981 14.4572 54.0194 14.0679 54.0194 13.2892V11.2412H55.3314V13.2892C55.3314 13.5026 55.3688 13.6839 55.4434 13.8332C55.5181 13.9826 55.6141 14.1052 55.7314 14.2012C55.8488 14.2866 55.9821 14.3506 56.1314 14.3932C56.2914 14.4359 56.4514 14.4572 56.6114 14.4572C57.5288 14.4572 57.9874 14.0679 57.9874 13.2892V11.2412H59.2994V13.2892C59.2994 13.7266 59.4114 14.0306 59.6354 14.2012C59.8701 14.3719 60.1421 14.4572 60.4514 14.4572C60.8248 14.4572 61.1128 14.3559 61.3154 14.1532C61.5288 13.9506 61.6354 13.6626 61.6354 13.2892V11.2412H62.9474V13.2892C62.9474 13.5026 62.9794 13.6839 63.0434 13.8332C63.1181 13.9826 63.2141 14.1052 63.3314 14.2012C63.4488 14.2866 63.5821 14.3506 63.7314 14.3932C63.8808 14.4359 64.0301 14.4572 64.1794 14.4572H64.5154C64.7501 14.4572 64.8674 14.6866 64.8674 15.1452C64.8674 15.6252 64.7501 15.8652 64.5154 15.8652H64.1794C63.7848 15.8652 63.4168 15.7959 63.0754 15.6572C62.7448 15.5186 62.4674 15.2466 62.2434 14.8412C61.9981 15.2466 61.7101 15.5186 61.3794 15.6572C61.0594 15.7959 60.7501 15.8652 60.4514 15.8652C60.0781 15.8652 59.7314 15.7959 59.4114 15.6572C59.0914 15.5186 58.8194 15.2466 58.5954 14.8412C58.3501 15.2466 58.0514 15.5186 57.6994 15.6572C57.3474 15.7959 56.9848 15.8652 56.6114 15.8652C56.2061 15.8652 55.8274 15.7959 55.4754 15.6572C55.1341 15.5186 54.8514 15.2466 54.6274 14.8412C54.3821 15.2466 54.0941 15.5186 53.7634 15.6572C53.4328 15.7959 53.0808 15.8652 52.7074 15.8652H52.1154C51.9768 15.8652 51.8861 15.8119 51.8434 15.7052C51.7901 15.5879 51.7634 15.4172 51.7634 15.1932C51.7634 14.9372 51.7901 14.7506 51.8434 14.6332C51.8861 14.5159 51.9768 14.4572 52.1154 14.4572H52.7554ZM69.1297 14.9372C68.8523 15.1079 68.5803 15.2519 68.3137 15.3692C68.047 15.4866 67.759 15.5826 67.4497 15.6572C67.151 15.7319 66.8203 15.7852 66.4577 15.8172C66.095 15.8492 65.679 15.8652 65.2097 15.8652H64.5217C64.383 15.8652 64.2923 15.8119 64.2497 15.7052C64.1963 15.5879 64.1697 15.4172 64.1697 15.1932C64.1697 14.9372 64.1963 14.7506 64.2497 14.6332C64.2923 14.5159 64.383 14.4572 64.5217 14.4572H65.2577C65.663 14.4572 66.0203 14.4466 66.3297 14.4252C66.6497 14.4039 66.943 14.3666 67.2097 14.3132C67.4763 14.2599 67.727 14.1906 67.9617 14.1052C68.1963 14.0092 68.4363 13.8919 68.6817 13.7532L71.0657 12.3772C70.9803 12.1852 70.895 12.0199 70.8097 11.8812C70.735 11.7319 70.6337 11.6039 70.5057 11.4972C70.3777 11.3906 70.223 11.3106 70.0417 11.2572C69.8603 11.2039 69.631 11.1772 69.3537 11.1772H65.8657L65.9617 9.76923H69.5457C69.8337 9.76923 70.1217 9.80657 70.4097 9.88123C70.7083 9.9559 70.9857 10.1052 71.2417 10.3292C71.5083 10.5532 71.7537 10.8732 71.9777 11.2892C72.2017 11.7052 72.3883 12.2546 72.5377 12.9372L69.1297 14.9372ZM69.2257 19.0652H67.6577V17.6892H69.2257V19.0652ZM79.615 14.4572C80.0417 14.4572 80.3404 14.3666 80.511 14.1852C80.6817 14.0039 80.767 13.8279 80.767 13.6572C80.767 13.5612 80.7457 13.4332 80.703 13.2732C80.671 13.1132 80.6017 12.8679 80.495 12.5372C80.3884 12.2066 80.2337 11.7639 80.031 11.2092C79.8284 10.6439 79.567 9.91323 79.247 9.01723L80.495 8.50523L82.175 13.2572C82.3244 13.6946 82.5004 14.0039 82.703 14.1852C82.9057 14.3666 83.2044 14.4572 83.599 14.4572H83.807C84.0417 14.4572 84.159 14.6866 84.159 15.1452C84.159 15.6252 84.0417 15.8652 83.807 15.8652H83.599C83.247 15.8652 82.9057 15.8012 82.575 15.6732C82.255 15.5452 81.9617 15.2626 81.695 14.8252C81.471 15.2306 81.1884 15.5079 80.847 15.6572C80.5164 15.7959 80.1537 15.8652 79.759 15.8652H76.319L76.239 14.4572H79.615ZM85.2589 14.4572C85.6429 14.4572 85.9416 14.3559 86.1549 14.1532C86.3789 13.9506 86.4909 13.6626 86.4909 13.2892V11.2412H87.8029V13.3532C87.8029 14.1639 87.5843 14.7879 87.1469 15.2252C86.7203 15.6519 86.1229 15.8652 85.3549 15.8652H83.8029C83.6643 15.8652 83.5736 15.8119 83.5309 15.7052C83.4776 15.5879 83.4509 15.4172 83.4509 15.1932C83.4509 14.9372 83.4776 14.7506 83.5309 14.6332C83.5736 14.5159 83.6643 14.4572 83.8029 14.4572H85.2589ZM87.4669 19.0332H86.0589V17.6892H87.4669V19.0332ZM85.2909 19.0332H83.8669V17.6892H85.2909V19.0332ZM92.6619 14.4572C93.0886 14.4572 93.3873 14.3666 93.5579 14.1852C93.7286 14.0039 93.8139 13.8279 93.8139 13.6572C93.8139 13.5612 93.7926 13.4332 93.7499 13.2732C93.7179 13.1132 93.6486 12.8679 93.5419 12.5372C93.4353 12.2066 93.2806 11.7639 93.0779 11.2092C92.8753 10.6439 92.6139 9.91323 92.2939 9.01723L93.5419 8.50523L95.2219 13.2572C95.3713 13.6946 95.5473 14.0039 95.7499 14.1852C95.9526 14.3666 96.2513 14.4572 96.6459 14.4572H96.8539C97.0886 14.4572 97.2059 14.6866 97.2059 15.1452C97.2059 15.6252 97.0886 15.8652 96.8539 15.8652H96.6459C96.2939 15.8652 95.9526 15.8012 95.6219 15.6732C95.3019 15.5452 95.0086 15.2626 94.7419 14.8252C94.5179 15.2306 94.2353 15.5079 93.8939 15.6572C93.5633 15.7959 93.2006 15.8652 92.8059 15.8652H89.3659L89.2859 14.4572H92.6619ZM101.458 14.9372C101.18 15.1079 100.908 15.2519 100.642 15.3692C100.375 15.4866 100.087 15.5826 99.7778 15.6572C99.4791 15.7319 99.1485 15.7852 98.7858 15.8172C98.4231 15.8492 98.0071 15.8652 97.5378 15.8652H96.8498C96.7111 15.8652 96.6205 15.8119 96.5778 15.7052C96.5245 15.5879 96.4978 15.4172 96.4978 15.1932C96.4978 14.9372 96.5245 14.7506 96.5778 14.6332C96.6205 14.5159 96.7111 14.4572 96.8498 14.4572H97.5858C97.9911 14.4572 98.3485 14.4466 98.6578 14.4252C98.9778 14.4039 99.2711 14.3666 99.5378 14.3132C99.8045 14.2599 100.055 14.1906 100.29 14.1052C100.524 14.0092 100.764 13.8919 101.01 13.7532L103.394 12.3772C103.308 12.1852 103.223 12.0199 103.138 11.8812C103.063 11.7319 102.962 11.6039 102.834 11.4972C102.706 11.3906 102.551 11.3106 102.37 11.2572C102.188 11.2039 101.959 11.1772 101.682 11.1772H98.1938L98.2898 9.76923H101.874C102.162 9.76923 102.45 9.80657 102.738 9.88123C103.036 9.9559 103.314 10.1052 103.57 10.3292C103.836 10.5532 104.082 10.8732 104.306 11.2892C104.53 11.7052 104.716 12.2546 104.866 12.9372L101.458 14.9372ZM101.554 19.0652H99.9858V17.6892H101.554V19.0652ZM117.463 15.4972C117.463 16.0839 117.367 16.6332 117.175 17.1452C116.994 17.6679 116.733 18.1212 116.391 18.5052C116.05 18.8892 115.634 19.1879 115.143 19.4012C114.653 19.6252 114.103 19.7372 113.495 19.7372H112.519C111.325 19.7372 110.397 19.3692 109.735 18.6332C109.074 17.8972 108.743 16.8892 108.743 15.6092V12.7772H110.039V15.5612C110.039 16.3932 110.247 17.0652 110.663 17.5772C111.079 18.0892 111.762 18.3452 112.711 18.3452H113.415C113.895 18.3452 114.306 18.2706 114.647 18.1212C114.999 17.9719 115.287 17.7692 115.511 17.5132C115.735 17.2572 115.901 16.9586 116.007 16.6172C116.114 16.2759 116.167 15.9186 116.167 15.5452V5.94523H117.463V15.4972ZM119.609 5.94523H120.921V15.8652H119.609V5.94523ZM124.31 18.3452C124.748 18.3452 125.132 18.2759 125.462 18.1372C125.793 18.0092 126.065 17.8332 126.278 17.6092C126.502 17.3852 126.673 17.1239 126.79 16.8252C126.908 16.5266 126.977 16.2066 126.998 15.8652H125.638C125.094 15.8652 124.646 15.8066 124.294 15.6892C123.942 15.5719 123.665 15.4012 123.462 15.1772C123.26 14.9532 123.116 14.6812 123.03 14.3612C122.956 14.0306 122.918 13.6626 122.918 13.2572C122.918 12.8519 122.977 12.4679 123.094 12.1052C123.212 11.7319 123.382 11.4066 123.606 11.1292C123.83 10.8519 124.108 10.6332 124.438 10.4732C124.78 10.3026 125.174 10.2172 125.622 10.2172C125.974 10.2172 126.31 10.2759 126.63 10.3932C126.961 10.5106 127.249 10.6972 127.494 10.9532C127.74 11.1986 127.932 11.5239 128.07 11.9292C128.22 12.3346 128.294 12.8252 128.294 13.4012V14.4572H129.718C129.846 14.4572 129.932 14.5159 129.974 14.6332C130.028 14.7399 130.054 14.9106 130.054 15.1452C130.054 15.3906 130.028 15.5719 129.974 15.6892C129.932 15.8066 129.846 15.8652 129.718 15.8652H128.262C128.241 16.3879 128.134 16.8839 127.942 17.3532C127.761 17.8226 127.505 18.2332 127.174 18.5852C126.844 18.9372 126.444 19.2146 125.974 19.4172C125.505 19.6306 124.982 19.7372 124.406 19.7372H122.742L122.646 18.3452H124.31ZM124.166 13.1772C124.166 13.6359 124.273 13.9666 124.486 14.1692C124.71 14.3612 125.137 14.4572 125.766 14.4572H127.03V13.4652C127.03 12.7932 126.897 12.3132 126.63 12.0252C126.374 11.7266 126.012 11.5772 125.542 11.5772C125.105 11.5772 124.764 11.7212 124.518 12.0092C124.284 12.2866 124.166 12.6759 124.166 13.1772ZM130.365 14.4572C131.207 14.4572 131.629 14.0679 131.629 13.2892V11.2412H132.941V13.2892C132.941 13.5026 132.978 13.6839 133.053 13.8332C133.127 13.9826 133.223 14.1052 133.341 14.2012C133.458 14.2866 133.591 14.3506 133.741 14.3932C133.901 14.4359 134.061 14.4572 134.221 14.4572C135.138 14.4572 135.597 14.0679 135.597 13.2892V11.2412H136.909V13.2892C136.909 13.7266 137.021 14.0306 137.245 14.2012C137.479 14.3719 137.751 14.4572 138.061 14.4572C138.423 14.4572 138.711 14.3559 138.925 14.1532C139.138 13.9506 139.245 13.6626 139.245 13.2892V11.2412H140.557V13.3532C140.557 14.1639 140.338 14.7879 139.901 15.2252C139.463 15.6519 138.866 15.8652 138.109 15.8652C137.735 15.8652 137.378 15.7959 137.037 15.6572C136.706 15.5186 136.429 15.2466 136.205 14.8412C135.959 15.2466 135.661 15.5186 135.309 15.6572C134.957 15.7959 134.594 15.8652 134.221 15.8652C133.815 15.8652 133.437 15.7959 133.085 15.6572C132.743 15.5186 132.461 15.2466 132.237 14.8412C131.991 15.2466 131.703 15.5186 131.373 15.6572C131.042 15.7959 130.69 15.8652 130.317 15.8652H129.725C129.586 15.8652 129.495 15.8119 129.453 15.7052C129.399 15.5879 129.373 15.4172 129.373 15.1932C129.373 14.9372 129.399 14.7506 129.453 14.6332C129.495 14.5159 129.586 14.4572 129.725 14.4572H130.365ZM150.443 11.9612C150.721 12.2812 150.923 12.6012 151.051 12.9212C151.179 13.2306 151.243 13.5346 151.243 13.8332C151.243 14.1212 151.19 14.3879 151.083 14.6332C150.977 14.8786 150.822 15.0919 150.619 15.2732C150.427 15.4546 150.182 15.5986 149.883 15.7052C149.585 15.8119 149.243 15.8652 148.859 15.8652H144.475L144.395 14.4572H148.667C149.009 14.4572 149.27 14.3826 149.451 14.2332C149.633 14.0732 149.723 13.8706 149.723 13.6252C149.723 13.3479 149.601 13.0759 149.355 12.8092L146.507 9.56123L147.531 8.60123L150.443 11.9612ZM155.27 15.8652C154.982 15.8652 154.704 15.8279 154.438 15.7532C154.171 15.6679 153.936 15.5292 153.734 15.3372C153.542 15.1452 153.387 14.8946 153.27 14.5852C153.152 14.2652 153.094 13.8706 153.094 13.4012V5.94523H154.406V13.1132C154.406 13.5186 154.491 13.8439 154.662 14.0892C154.843 14.3346 155.126 14.4572 155.51 14.4572H155.83C156.064 14.4572 156.182 14.6866 156.182 15.1452C156.182 15.6252 156.064 15.8652 155.83 15.8652H155.27ZM162.81 13.5612C162.981 13.9026 163.168 14.1372 163.37 14.2652C163.584 14.3932 163.861 14.4572 164.202 14.4572H165.194C165.333 14.4572 165.424 14.5159 165.466 14.6332C165.52 14.7399 165.546 14.9106 165.546 15.1452C165.546 15.3906 165.52 15.5719 165.466 15.6892C165.424 15.8066 165.333 15.8652 165.194 15.8652H164.122C163.77 15.8652 163.472 15.8226 163.226 15.7372C162.981 15.6412 162.773 15.5186 162.602 15.3692C162.432 15.2092 162.288 15.0226 162.17 14.8092C162.064 14.5959 161.968 14.3612 161.882 14.1052L160.442 14.9372C160.165 15.1079 159.893 15.2519 159.626 15.3692C159.36 15.4866 159.072 15.5826 158.762 15.6572C158.464 15.7319 158.133 15.7852 157.77 15.8172C157.408 15.8492 156.992 15.8652 156.522 15.8652H155.834C155.696 15.8652 155.605 15.8119 155.562 15.7052C155.509 15.5879 155.482 15.4172 155.482 15.1932C155.482 14.9372 155.509 14.7506 155.562 14.6332C155.605 14.5159 155.696 14.4572 155.834 14.4572H156.57C156.976 14.4572 157.333 14.4466 157.642 14.4252C157.962 14.4039 158.256 14.3666 158.522 14.3132C158.789 14.2599 159.04 14.1906 159.274 14.1052C159.509 14.0092 159.749 13.8919 159.994 13.7532L162.378 12.3772C162.293 12.1852 162.208 12.0199 162.122 11.8812C162.048 11.7319 161.946 11.6039 161.818 11.4972C161.69 11.3906 161.536 11.3106 161.354 11.2572C161.173 11.2039 160.944 11.1772 160.666 11.1772H157.178L157.274 9.76923H160.858C161.146 9.76923 161.434 9.80657 161.722 9.88123C162.021 9.9559 162.298 10.1052 162.554 10.3292C162.821 10.5532 163.066 10.8732 163.29 11.2892C163.514 11.7052 163.701 12.2546 163.85 12.9372L162.81 13.5612ZM160.538 19.0652H158.97V17.6892H160.538V19.0652ZM166.65 14.4572C167.034 14.4572 167.332 14.3559 167.546 14.1532C167.77 13.9506 167.882 13.6626 167.882 13.2892V11.2412H169.194V13.3532C169.194 14.1639 168.975 14.7879 168.538 15.2252C168.111 15.6519 167.514 15.8652 166.746 15.8652H165.194C165.055 15.8652 164.964 15.8119 164.922 15.7052C164.868 15.5879 164.842 15.4172 164.842 15.1932C164.842 14.9372 164.868 14.7506 164.922 14.6332C164.964 14.5159 165.055 14.4572 165.194 14.4572H166.65ZM168.858 19.0332H167.45V17.6892H168.858V19.0332ZM166.682 19.0332H165.258V17.6892H166.682V19.0332ZM171.141 5.94523H172.453V15.8652H171.141V5.94523ZM180.01 15.6092C180.01 16.2066 179.909 16.7559 179.706 17.2572C179.514 17.7692 179.248 18.2066 178.906 18.5692C178.565 18.9426 178.16 19.2306 177.69 19.4332C177.221 19.6359 176.714 19.7372 176.17 19.7372H175.194L175.114 18.3452H175.85C176.362 18.3452 176.8 18.2652 177.162 18.1052C177.514 17.9559 177.802 17.7532 178.026 17.4972C178.261 17.2412 178.432 16.9479 178.538 16.6172C178.645 16.2972 178.698 15.9612 178.698 15.6092V11.2412H180.01V15.6092ZM180.058 9.27323H178.49V7.89723H180.058V9.27323ZM181.969 5.94523H183.281V15.8652H181.969V5.94523ZM197.461 15.8652C197.227 15.8652 196.992 15.8226 196.757 15.7372C196.523 15.6519 196.325 15.4972 196.165 15.2732V15.5612C196.165 16.1372 196.075 16.6759 195.893 17.1772C195.712 17.6892 195.451 18.1319 195.109 18.5052C194.768 18.8892 194.357 19.1879 193.877 19.4012C193.397 19.6252 192.853 19.7372 192.245 19.7372H191.269C190.075 19.7372 189.147 19.3692 188.485 18.6332C187.824 17.8972 187.493 16.8892 187.493 15.6092V12.7772H188.789V15.5612C188.789 16.3932 188.997 17.0652 189.413 17.5772C189.829 18.0892 190.512 18.3452 191.461 18.3452H192.165C192.645 18.3452 193.056 18.2706 193.397 18.1212C193.749 17.9719 194.037 17.7692 194.261 17.5132C194.485 17.2572 194.651 16.9586 194.757 16.6172C194.864 16.2759 194.917 15.9186 194.917 15.5452V5.94523H196.213V13.3372C196.213 13.6892 196.331 13.9666 196.565 14.1692C196.8 14.3612 197.099 14.4572 197.461 14.4572H197.637C197.883 14.4572 198.005 14.6866 198.005 15.1452C198.005 15.6252 197.883 15.8652 197.637 15.8652H197.461ZM198.799 14.4572C199.631 14.4572 200.047 14.0679 200.047 13.2892V11.2412H201.359V13.2892C201.359 13.5026 201.391 13.6839 201.455 13.8332C201.53 13.9826 201.626 14.1052 201.743 14.2012C201.86 14.2866 201.994 14.3506 202.143 14.3932C202.303 14.4359 202.463 14.4572 202.623 14.4572H203.071C203.316 14.4572 203.439 14.6866 203.439 15.1452C203.439 15.6252 203.316 15.8652 203.071 15.8652H202.575C202.191 15.8652 201.828 15.7959 201.487 15.6572C201.156 15.5186 200.879 15.2466 200.655 14.8412C200.41 15.2466 200.127 15.5186 199.807 15.6572C199.498 15.7959 199.162 15.8652 198.799 15.8652H197.631C197.492 15.8652 197.402 15.8119 197.359 15.7052C197.306 15.5879 197.279 15.4172 197.279 15.1932C197.279 14.9372 197.306 14.7506 197.359 14.6332C197.402 14.5159 197.492 14.4572 197.631 14.4572H198.799ZM201.087 19.0652H199.519V17.6892H201.087V19.0652ZM205.181 14.4572C205.49 14.4572 205.741 14.4626 205.933 14.4732C206.125 14.4732 206.343 14.4892 206.589 14.5212C206.087 14.3399 205.693 14.1586 205.405 13.9772C205.117 13.7852 204.898 13.5879 204.749 13.3852C204.61 13.1719 204.519 12.9426 204.477 12.6972C204.434 12.4519 204.413 12.1746 204.413 11.8652C204.413 11.5772 204.466 11.2786 204.573 10.9692C204.69 10.6599 204.861 10.3826 205.085 10.1372C205.309 9.88123 205.586 9.67323 205.917 9.51323C206.258 9.35323 206.647 9.27323 207.085 9.27323C207.501 9.27323 207.874 9.32657 208.205 9.43323C208.546 9.5399 208.834 9.72123 209.069 9.97723C209.314 10.2226 209.501 10.5479 209.629 10.9532C209.767 11.3479 209.837 11.8332 209.837 12.4092V13.1772C209.837 14.0092 209.586 14.6652 209.085 15.1452C208.594 15.6252 207.815 15.8652 206.749 15.8652H203.069C202.93 15.8652 202.839 15.8119 202.797 15.7052C202.743 15.5879 202.717 15.4172 202.717 15.1932C202.717 14.9372 202.743 14.7506 202.797 14.6332C202.839 14.5159 202.93 14.4572 203.069 14.4572H205.181ZM207.021 10.6972C206.797 10.6972 206.599 10.7399 206.429 10.8252C206.258 10.8999 206.109 11.0012 205.981 11.1292C205.863 11.2572 205.773 11.4066 205.709 11.5772C205.655 11.7372 205.629 11.9026 205.629 12.0732C205.629 12.2546 205.645 12.4252 205.677 12.5852C205.719 12.7346 205.821 12.8892 205.981 13.0492C206.151 13.2092 206.407 13.3799 206.749 13.5612C207.09 13.7319 207.559 13.9292 208.157 14.1532C208.285 14.0359 208.381 13.8759 208.445 13.6732C208.519 13.4706 208.557 13.2519 208.557 13.0172V12.5372C208.557 11.9719 208.439 11.5239 208.205 11.1932C207.981 10.8626 207.586 10.6972 207.021 10.6972ZM208.829 7.76923H207.373V6.42523H208.829V7.76923ZM206.685 7.76923H205.229V6.42523H206.685V7.76923Z" fill="#241953"/>
<defs>
<linearGradient id="paint0_linear_226_8729" x1="68.2334" y1="59.2412" x2="-21.8099" y2="1.19123" gradientUnits="userSpaceOnUse">
<stop stop-color="#FFD35E"/>
<stop offset="1" stop-color="#FFD35E" stop-opacity="0"/>
</linearGradient>
</defs>
</svg>
