<svg width="25" height="25" viewBox="0 0 25 25" fill="none" xmlns="http://www.w3.org/2000/svg">
<path d="M15.0208 17.4241V19.75C15.0207 20.2614 15.3097 20.729 15.7672 20.9575L16.2894 21.2187C17.0496 21.5986 17.9442 21.5986 18.7044 21.2187L19.2266 20.9575C19.6841 20.729 19.973 20.2614 19.9729 19.75V17.4241" stroke="#CACCDB" stroke-width="1.5" stroke-linecap="round" stroke-linejoin="round"/>
<path fill-rule="evenodd" clip-rule="evenodd" d="M13.4082 16.6178L16.4965 18.1604C17.1283 18.4756 17.8715 18.4756 18.5033 18.1604L21.5886 16.6178C21.8421 16.4913 22.0024 16.2323 22.0024 15.949C22.0024 15.6656 21.8421 15.4067 21.5886 15.2802L18.4973 13.7376C17.8657 13.4215 17.122 13.4215 16.4904 13.7376L13.4052 15.2802C13.1519 15.4072 12.9922 15.6666 12.9928 15.9499C12.9935 16.2333 13.1543 16.4919 13.4082 16.6178Z" stroke="#CACCDB" stroke-width="1.5" stroke-linecap="round" stroke-linejoin="round"/>
<path d="M20.9983 11.4997V5.49717C20.9983 4.39214 20.1025 3.49634 18.9975 3.49634H5.99207C4.88705 3.49634 3.99124 4.39214 3.99124 5.49717V17.5022C3.99124 18.6072 4.88705 19.503 5.99207 19.503H11.9946" stroke="#CACCDB" stroke-width="1.5" stroke-linecap="round" stroke-linejoin="round"/>
<path d="M10.2438 11.4997H12.995" stroke="#CACCDB" stroke-width="1.5" stroke-linecap="round" stroke-linejoin="round"/>
<path d="M10.2438 7.62301H16.9966" stroke="#CACCDB" stroke-width="1.5" stroke-linecap="round" stroke-linejoin="round"/>
<path d="M7.11755 11.6248C7.18661 11.6248 7.2426 11.5688 7.2426 11.4997C7.2426 11.4307 7.18661 11.3747 7.11755 11.3747C7.04848 11.3747 6.9925 11.4307 6.9925 11.4997C6.9925 11.5688 7.04848 11.6248 7.11755 11.6248" stroke="#CACCDB" stroke-width="1.5" stroke-linecap="round" stroke-linejoin="round"/>
<path d="M7.11755 7.74806C7.18661 7.74806 7.2426 7.69208 7.2426 7.62301C7.2426 7.55395 7.18661 7.49796 7.11755 7.49796C7.04848 7.49796 6.9925 7.55395 6.9925 7.62301C6.9925 7.69208 7.04848 7.74806 7.11755 7.74806" stroke="#CACCDB" stroke-width="1.5" stroke-linecap="round" stroke-linejoin="round"/>
<path d="M21.9987 15.9485V17.7492" stroke="#CACCDB" stroke-width="1.5" stroke-linecap="round" stroke-linejoin="round"/>
</svg>
