<svg width="24" height="25" viewBox="0 0 24 25" fill="none" xmlns="http://www.w3.org/2000/svg">
<path fill-rule="evenodd" clip-rule="evenodd" d="M18 14.3094H6V11.8094C6 10.9814 5.328 10.3094 4.5 10.3094H3.5C2.672 10.3094 2 10.9814 2 11.8094V16.3094C2 17.4144 2.895 18.3094 4 18.3094H20C21.105 18.3094 22 17.4144 22 16.3094V11.8094C22 10.9814 21.328 10.3094 20.5 10.3094H19.5C18.672 10.3094 18 10.9814 18 11.8094V14.3094Z" stroke="#CACCDB" stroke-width="1.5" stroke-linecap="round" stroke-linejoin="round"/>
<path d="M5 18.3094V20.3094" stroke="#CACCDB" stroke-width="1.5" stroke-linecap="round" stroke-linejoin="round"/>
<path d="M19 18.3094V20.3094" stroke="#CACCDB" stroke-width="1.5" stroke-linecap="round" stroke-linejoin="round"/>
<path d="M4 10.3094V8.30939C4 6.65239 5.343 5.30939 7 5.30939H17C18.657 5.30939 20 6.65239 20 8.30939V10.3094" stroke="#CACCDB" stroke-width="1.5" stroke-linecap="round" stroke-linejoin="round"/>
</svg>
