<svg width="29" height="29" viewBox="0 0 29 29" fill="none" xmlns="http://www.w3.org/2000/svg">
<path fill-rule="evenodd" clip-rule="evenodd" d="M14.6963 3.83984V3.83984C20.4958 3.83984 25.1963 8.53838 25.1963 14.3354V14.3354C25.1963 20.1325 20.4958 24.8311 14.6963 24.8311V24.8311C8.89679 24.8311 4.19629 20.1325 4.19629 14.3354V14.3354C4.19629 8.53838 8.89679 3.83984 14.6963 3.83984Z" stroke="#FFA600" stroke-width="1.8" stroke-linecap="round" stroke-linejoin="round"/>
<path d="M14.6966 14.9188V9.08789" stroke="#FFA600" stroke-width="1.8" stroke-linecap="round" stroke-linejoin="round"/>
<path d="M14.6955 19.0007C14.5345 19.0007 14.4038 19.1313 14.405 19.2923C14.405 19.4533 14.5356 19.584 14.6966 19.584C14.8576 19.584 14.9883 19.4533 14.9883 19.2923C14.9883 19.1313 14.8576 19.0007 14.6955 19.0007" stroke="#FFA600" stroke-width="1.8" stroke-linecap="round" stroke-linejoin="round"/>
</svg>
