<svg width="246" height="132" viewBox="0 0 246 132" fill="none" xmlns="http://www.w3.org/2000/svg">
<mask id="path-1-inside-1" fill="white">
<path fill-rule="evenodd" clip-rule="evenodd" d="M0.499756 20.8501C0.499756 9.8044 9.45406 0.850098 20.4998 0.850098H225.5C236.545 0.850098 245.5 9.8044 245.5 20.8501V40.6594C236.809 45.914 231 55.4536 231 66.3501C231 77.2466 236.809 86.7862 245.5 92.0407V111.85C245.5 122.896 236.545 131.85 225.5 131.85H20.4998C9.45407 131.85 0.499756 122.896 0.499756 111.85V92.5432C9.66657 87.4097 15.8627 77.6035 15.8627 66.3501C15.8627 55.0967 9.66657 45.2905 0.499756 40.157V20.8501Z"/>
</mask>
<path fill-rule="evenodd" clip-rule="evenodd" d="M0.499756 20.8501C0.499756 9.8044 9.45406 0.850098 20.4998 0.850098H225.5C236.545 0.850098 245.5 9.8044 245.5 20.8501V40.6594C236.809 45.914 231 55.4536 231 66.3501C231 77.2466 236.809 86.7862 245.5 92.0407V111.85C245.5 122.896 236.545 131.85 225.5 131.85H20.4998C9.45407 131.85 0.499756 122.896 0.499756 111.85V92.5432C9.66657 87.4097 15.8627 77.6035 15.8627 66.3501C15.8627 55.0967 9.66657 45.2905 0.499756 40.157V20.8501Z" fill="white"/>
<path d="M245.5 40.6594L246.017 41.5152L246.5 41.2234V40.6594H245.5ZM245.5 92.0407H246.5V91.4768L246.017 91.185L245.5 92.0407ZM0.499756 92.5432L0.0111458 91.6707L-0.500244 91.9571V92.5432H0.499756ZM0.499756 40.157H-0.500244V40.7431L0.0111455 41.0295L0.499756 40.157ZM20.4998 -0.149902C8.90178 -0.149902 -0.500244 9.25212 -0.500244 20.8501H1.49976C1.49976 10.3567 10.0063 1.8501 20.4998 1.8501V-0.149902ZM225.5 -0.149902H20.4998V1.8501H225.5V-0.149902ZM246.5 20.8501C246.5 9.25212 237.098 -0.149902 225.5 -0.149902V1.8501C235.993 1.8501 244.5 10.3567 244.5 20.8501H246.5ZM246.5 40.6594V20.8501H244.5V40.6594H246.5ZM232 66.3501C232 55.818 237.614 46.5962 246.017 41.5152L244.982 39.8037C236.005 45.2318 230 55.0892 230 66.3501H232ZM246.017 91.185C237.614 86.104 232 76.8822 232 66.3501H230C230 77.611 236.005 87.4684 244.982 92.8965L246.017 91.185ZM246.5 111.85V92.0407H244.5V111.85H246.5ZM225.5 132.85C237.098 132.85 246.5 123.448 246.5 111.85H244.5C244.5 122.344 235.993 130.85 225.5 130.85V132.85ZM20.4998 132.85H225.5V130.85H20.4998V132.85ZM-0.500244 111.85C-0.500244 123.448 8.90178 132.85 20.4998 132.85V130.85C10.0064 130.85 1.49976 122.344 1.49976 111.85H-0.500244ZM-0.500244 92.5432V111.85H1.49976V92.5432H-0.500244ZM14.8627 66.3501C14.8627 77.2271 8.87499 86.7069 0.0111458 91.6707L0.988366 93.4157C10.4581 88.1126 16.8627 77.9799 16.8627 66.3501H14.8627ZM0.0111455 41.0295C8.87499 45.9933 14.8627 55.4731 14.8627 66.3501H16.8627C16.8627 54.7203 10.4581 44.5876 0.988366 39.2845L0.0111455 41.0295ZM-0.500244 20.8501V40.157H1.49976V20.8501H-0.500244Z" fill="#DDDFEC" mask="url(#path-1-inside-1)"/>
</svg>
