<svg width="25" height="24" viewBox="0 0 25 24" fill="none" xmlns="http://www.w3.org/2000/svg">
<path fill-rule="evenodd" clip-rule="evenodd" d="M19.1103 6.414L16.2823 3.586C15.9073 3.211 15.3983 3 14.8683 3H7.69629C6.59129 3 5.69629 3.895 5.69629 5V19C5.69629 20.105 6.59129 21 7.69629 21H17.6963C18.8013 21 19.6963 20.105 19.6963 19V7.828C19.6963 7.298 19.4853 6.789 19.1103 6.414V6.414Z" stroke="#CACCDB" stroke-width="1.5" stroke-linecap="round" stroke-linejoin="round"/>
<path d="M8.69629 12.2305H16.6963" stroke="#CACCDB" stroke-width="1.5" stroke-linecap="round" stroke-linejoin="round"/>
<path d="M8.69629 15.2305H16.6963" stroke="#CACCDB" stroke-width="1.5" stroke-linecap="round" stroke-linejoin="round"/>
<path d="M8.69629 18H13.6963" stroke="#CACCDB" stroke-width="1.5" stroke-linecap="round" stroke-linejoin="round"/>
<path fill-rule="evenodd" clip-rule="evenodd" d="M8.69629 8.251V6.749C8.69629 6.335 9.03129 6 9.44529 6H10.9473C11.3613 6 11.6963 6.335 11.6963 6.749V8.251C11.6963 8.665 11.3613 9 10.9473 9H9.44529C9.03129 9 8.69629 8.665 8.69629 8.251Z" stroke="#CACCDB" stroke-width="1.5" stroke-linecap="round" stroke-linejoin="round"/>
</svg>
